<svg width="818" height="445" viewBox="0 0 818 445" fill="none" xmlns="http://www.w3.org/2000/svg">
<path d="M20 -1.74846e-06C8.95431 -7.8281e-07 7.8281e-07 8.95431 1.74846e-06 20L8.06614e-05 425C8.1627e-05 436.046 8.95437 445 20.0001 445L805.265 445C815.85 445 821.251 432.293 813.904 424.672L803.36 413.734C801.205 411.497 800 408.512 800 405.406L800 20.0001C800 8.95441 791.046 0.000107846 780 0.000108812L20 -1.74846e-06Z" fill="#DFECFF"/>
<path d="M98.3018 191.017H102.876V204H104.637V191.017H109.211V189.455H98.3018V191.017ZM113.378 197.438C113.378 195.534 114.593 194.455 116.248 194.455C117.824 194.455 118.776 195.449 118.776 197.182V204H120.452V197.068C120.452 194.263 118.961 192.949 116.73 192.949C115.012 192.949 114.032 193.666 113.52 194.795H113.378V189.455H111.702V204H113.378V197.438ZM123.518 204H125.195V193.091H123.518V204ZM124.371 191.273C125.024 191.273 125.564 190.761 125.564 190.136C125.564 189.511 125.024 189 124.371 189C123.717 189 123.178 189.511 123.178 190.136C123.178 190.761 123.717 191.273 124.371 191.273ZM135.992 195.534C135.466 193.986 134.287 192.949 132.128 192.949C129.827 192.949 128.123 194.256 128.123 196.102C128.123 197.608 129.017 198.616 131.02 199.085L132.838 199.511C133.939 199.767 134.458 200.293 134.458 201.045C134.458 201.983 133.463 202.75 131.901 202.75C130.53 202.75 129.671 202.161 129.373 200.989L127.782 201.386C128.172 203.24 129.699 204.227 131.929 204.227C134.465 204.227 136.191 202.842 136.191 200.96C136.191 199.44 135.239 198.482 133.293 198.006L131.674 197.608C130.381 197.288 129.799 196.855 129.799 196.017C129.799 195.08 130.793 194.398 132.128 194.398C133.591 194.398 134.195 195.207 134.486 195.96L135.992 195.534ZM152.066 195.534C151.54 193.986 150.362 192.949 148.202 192.949C145.901 192.949 144.197 194.256 144.197 196.102C144.197 197.608 145.092 198.616 147.094 199.085L148.913 199.511C150.013 199.767 150.532 200.293 150.532 201.045C150.532 201.983 149.538 202.75 147.975 202.75C146.604 202.75 145.745 202.161 145.447 200.989L143.856 201.386C144.246 203.24 145.773 204.227 148.004 204.227C150.539 204.227 152.265 202.842 152.265 200.96C152.265 199.44 151.313 198.482 149.367 198.006L147.748 197.608C146.455 197.288 145.873 196.855 145.873 196.017C145.873 195.08 146.867 194.398 148.202 194.398C149.665 194.398 150.269 195.207 150.56 195.96L152.066 195.534ZM155.868 208.091C157.38 208.091 158.446 207.288 159.078 205.591L163.723 193.119L161.89 193.091L158.879 201.784H158.765L155.754 193.091H153.936L157.97 204.057L157.657 204.909C157.047 206.571 156.294 206.727 155.072 206.415L154.646 207.892C154.816 207.977 155.299 208.091 155.868 208.091ZM173.668 195.534C173.142 193.986 171.963 192.949 169.804 192.949C167.503 192.949 165.798 194.256 165.798 196.102C165.798 197.608 166.693 198.616 168.696 199.085L170.514 199.511C171.615 199.767 172.134 200.293 172.134 201.045C172.134 201.983 171.139 202.75 169.577 202.75C168.206 202.75 167.347 202.161 167.048 200.989L165.457 201.386C165.848 203.24 167.375 204.227 169.605 204.227C172.141 204.227 173.866 202.842 173.866 200.96C173.866 199.44 172.915 198.482 170.969 198.006L169.349 197.608C168.057 197.288 167.474 196.855 167.474 196.017C167.474 195.08 168.469 194.398 169.804 194.398C171.267 194.398 171.871 195.207 172.162 195.96L173.668 195.534ZM181.134 193.091H178.804V190.477H177.128V193.091H175.48V194.511H177.128V201.33C177.128 203.233 178.662 204.142 180.083 204.142C180.708 204.142 181.105 204.028 181.333 203.943L180.992 202.438C180.85 202.466 180.623 202.523 180.253 202.523C179.515 202.523 178.804 202.295 178.804 200.875V194.511H181.134V193.091ZM188.112 204.227C190.328 204.227 191.947 203.119 192.458 201.472L190.839 201.017C190.413 202.153 189.426 202.722 188.112 202.722C186.145 202.722 184.788 201.45 184.71 199.114H192.629V198.403C192.629 194.341 190.214 192.949 187.941 192.949C184.987 192.949 183.027 195.278 183.027 198.631C183.027 201.983 184.958 204.227 188.112 204.227ZM184.71 197.665C184.824 195.967 186.024 194.455 187.941 194.455C189.76 194.455 190.924 195.818 190.924 197.665H184.71ZM195.179 204H196.855V197.182C196.855 195.584 198.02 194.455 199.326 194.455C200.598 194.455 201.485 195.286 201.485 196.528V204H203.19V196.898C203.19 195.491 204.071 194.455 205.605 194.455C206.798 194.455 207.821 195.087 207.821 196.699V204H209.497V196.699C209.497 194.135 208.119 192.949 206.173 192.949C204.61 192.949 203.467 193.666 202.906 194.795H202.792C202.252 193.631 201.301 192.949 199.866 192.949C198.446 192.949 197.395 193.631 196.94 194.795H196.798V193.091H195.179V204ZM218.186 204H219.863V193.091H218.186V204ZM219.039 191.273C219.692 191.273 220.232 190.761 220.232 190.136C220.232 189.511 219.692 189 219.039 189C218.385 189 217.846 189.511 217.846 190.136C217.846 190.761 218.385 191.273 219.039 191.273ZM230.66 195.534C230.134 193.986 228.955 192.949 226.796 192.949C224.495 192.949 222.79 194.256 222.79 196.102C222.79 197.608 223.685 198.616 225.688 199.085L227.506 199.511C228.607 199.767 229.126 200.293 229.126 201.045C229.126 201.983 228.131 202.75 226.569 202.75C225.198 202.75 224.339 202.161 224.04 200.989L222.45 201.386C222.84 203.24 224.367 204.227 226.597 204.227C229.133 204.227 230.859 202.842 230.859 200.96C230.859 199.44 229.907 198.482 227.961 198.006L226.342 197.608C225.049 197.288 224.467 196.855 224.467 196.017C224.467 195.08 225.461 194.398 226.796 194.398C228.259 194.398 228.863 195.207 229.154 195.96L230.66 195.534ZM247.927 193.091H246.109L243.098 201.784H242.984L239.973 193.091H238.154L242.189 204H243.893L247.927 193.091ZM254.323 204.227C256.539 204.227 258.158 203.119 258.669 201.472L257.05 201.017C256.624 202.153 255.637 202.722 254.323 202.722C252.355 202.722 250.999 201.45 250.921 199.114H258.84V198.403C258.84 194.341 256.425 192.949 254.152 192.949C251.198 192.949 249.238 195.278 249.238 198.631C249.238 201.983 251.169 204.227 254.323 204.227ZM250.921 197.665C251.034 195.967 252.235 194.455 254.152 194.455C255.971 194.455 257.135 195.818 257.135 197.665H250.921ZM261.39 204H263.066V197.097C263.066 195.619 264.23 194.54 265.821 194.54C266.269 194.54 266.73 194.625 266.844 194.653V192.949C266.652 192.935 266.212 192.92 265.963 192.92C264.657 192.92 263.52 193.659 263.123 194.739H263.009V193.091H261.39V204ZM270.243 208.091C271.755 208.091 272.821 207.288 273.453 205.591L278.098 193.119L276.265 193.091L273.254 201.784H273.14L270.129 193.091H268.311L272.345 204.057L272.032 204.909C271.422 206.571 270.669 206.727 269.447 206.415L269.021 207.892C269.191 207.977 269.674 208.091 270.243 208.091ZM285.94 204H287.616V197.097C287.616 195.619 288.781 194.54 290.372 194.54C290.82 194.54 291.281 194.625 291.395 194.653V192.949C291.203 192.935 290.763 192.92 290.514 192.92C289.207 192.92 288.071 193.659 287.673 194.739H287.56V193.091H285.94V204ZM297.624 204.227C299.839 204.227 301.459 203.119 301.97 201.472L300.351 201.017C299.925 202.153 298.938 202.722 297.624 202.722C295.656 202.722 294.3 201.45 294.222 199.114H302.141V198.403C302.141 194.341 299.726 192.949 297.453 192.949C294.499 192.949 292.538 195.278 292.538 198.631C292.538 201.983 294.47 204.227 297.624 204.227ZM294.222 197.665C294.335 195.967 295.536 194.455 297.453 194.455C299.271 194.455 300.436 195.818 300.436 197.665H294.222ZM308.81 204.227C310.912 204.227 311.622 202.92 311.991 202.324H312.19V204H313.81V189.455H312.134V194.824H311.991C311.622 194.256 310.969 192.949 308.838 192.949C306.082 192.949 304.179 195.136 304.179 198.574C304.179 202.04 306.082 204.227 308.81 204.227ZM309.037 202.722C306.935 202.722 305.855 200.875 305.855 198.545C305.855 196.244 306.906 194.455 309.037 194.455C311.082 194.455 312.162 196.102 312.162 198.545C312.162 201.017 311.054 202.722 309.037 202.722ZM323.987 199.54C323.987 201.585 322.425 202.523 321.175 202.523C319.783 202.523 318.788 201.5 318.788 199.909V193.091H317.112V200.023C317.112 202.807 318.589 204.142 320.635 204.142C322.283 204.142 323.362 203.261 323.874 202.153H323.987V204H325.663V193.091H323.987V199.54ZM330.409 197.438C330.409 195.534 331.588 194.455 333.194 194.455C334.749 194.455 335.694 195.47 335.694 197.182V204H337.37V197.068C337.37 194.284 335.885 192.949 333.676 192.949C332.029 192.949 331.006 193.688 330.495 194.795H330.353V193.091H328.733V204H330.409V197.438ZM344.552 204.227C346.654 204.227 347.364 202.92 347.734 202.324H347.933V204H349.552V189.455H347.876V194.824H347.734C347.364 194.256 346.711 192.949 344.58 192.949C341.825 192.949 339.921 195.136 339.921 198.574C339.921 202.04 341.825 204.227 344.552 204.227ZM344.779 202.722C342.677 202.722 341.597 200.875 341.597 198.545C341.597 196.244 342.648 194.455 344.779 194.455C346.825 194.455 347.904 196.102 347.904 198.545C347.904 201.017 346.796 202.722 344.779 202.722ZM356.065 204.256C357.968 204.256 358.962 203.233 359.303 202.523H359.388V204H361.065V196.812C361.065 193.347 358.423 192.949 357.031 192.949C355.383 192.949 353.508 193.517 352.656 195.506L354.246 196.074C354.616 195.278 355.489 194.426 357.087 194.426C358.629 194.426 359.388 195.243 359.388 196.642V196.699C359.388 197.509 358.565 197.438 356.576 197.693C354.552 197.956 352.343 198.403 352.343 200.903C352.343 203.034 353.991 204.256 356.065 204.256ZM356.32 202.75C354.985 202.75 354.019 202.153 354.019 200.989C354.019 199.71 355.184 199.312 356.491 199.142C357.201 199.057 359.104 198.858 359.388 198.517V200.051C359.388 201.415 358.309 202.75 356.32 202.75ZM365.8 197.438C365.8 195.534 366.979 194.455 368.584 194.455C370.14 194.455 371.084 195.47 371.084 197.182V204H372.76V197.068C372.76 194.284 371.276 192.949 369.067 192.949C367.419 192.949 366.397 193.688 365.885 194.795H365.743V193.091H364.124V204H365.8V197.438ZM380.567 193.091H378.238V190.477H376.562V193.091H374.914V194.511H376.562V201.33C376.562 203.233 378.096 204.142 379.516 204.142C380.141 204.142 380.539 204.028 380.766 203.943L380.425 202.438C380.283 202.466 380.056 202.523 379.687 202.523C378.948 202.523 378.238 202.295 378.238 200.875V194.511H380.567V193.091ZM384.31 204.114C385.013 204.114 385.589 203.538 385.589 202.835C385.589 202.132 385.013 201.557 384.31 201.557C383.607 201.557 383.032 202.132 383.032 202.835C383.032 203.538 383.607 204.114 384.31 204.114ZM394.449 189.455V204H396.097V192.949H396.239L400.784 204H402.375L406.92 192.949H407.062V204H408.71V189.455H406.608L401.665 201.528H401.494L396.551 189.455H394.449ZM415.225 204.256C417.128 204.256 418.123 203.233 418.463 202.523H418.549V204H420.225V196.812C420.225 193.347 417.583 192.949 416.191 192.949C414.543 192.949 412.668 193.517 411.816 195.506L413.407 196.074C413.776 195.278 414.65 194.426 416.248 194.426C417.789 194.426 418.549 195.243 418.549 196.642V196.699C418.549 197.509 417.725 197.438 415.736 197.693C413.712 197.956 411.503 198.403 411.503 200.903C411.503 203.034 413.151 204.256 415.225 204.256ZM415.48 202.75C414.145 202.75 413.179 202.153 413.179 200.989C413.179 199.71 414.344 199.312 415.651 199.142C416.361 199.057 418.265 198.858 418.549 198.517V200.051C418.549 201.415 417.469 202.75 415.48 202.75ZM424.96 197.438C424.96 195.534 426.139 194.455 427.744 194.455C429.3 194.455 430.244 195.47 430.244 197.182V204H431.92V197.068C431.92 194.284 430.436 192.949 428.227 192.949C426.58 192.949 425.557 193.688 425.045 194.795H424.903V193.091H423.284V204H424.96V197.438ZM435.672 208.091C437.185 208.091 438.25 207.288 438.882 205.591L443.527 193.119L441.695 193.091L438.684 201.784H438.57L435.559 193.091H433.74L437.775 204.057L437.462 204.909C436.851 206.571 436.098 206.727 434.877 206.415L434.451 207.892C434.621 207.977 435.104 208.091 435.672 208.091ZM460.489 208.091V193.091H458.87V194.824H458.671C458.302 194.256 457.648 192.949 455.518 192.949C452.762 192.949 450.859 195.136 450.859 198.574C450.859 202.04 452.762 204.227 455.489 204.227C457.592 204.227 458.302 202.92 458.671 202.324H458.813V208.091H460.489ZM458.842 198.545C458.842 201.017 457.734 202.722 455.717 202.722C453.614 202.722 452.535 200.875 452.535 198.545C452.535 196.244 453.586 194.455 455.717 194.455C457.762 194.455 458.842 196.102 458.842 198.545ZM470.433 199.54C470.433 201.585 468.87 202.523 467.62 202.523C466.228 202.523 465.234 201.5 465.234 199.909V193.091H463.558V200.023C463.558 202.807 465.035 204.142 467.08 204.142C468.728 204.142 469.808 203.261 470.319 202.153H470.433V204H472.109V193.091H470.433V199.54ZM479.752 204.227C481.968 204.227 483.588 203.119 484.099 201.472L482.48 201.017C482.054 202.153 481.066 202.722 479.752 202.722C477.785 202.722 476.429 201.45 476.35 199.114H484.27V198.403C484.27 194.341 481.855 192.949 479.582 192.949C476.627 192.949 474.667 195.278 474.667 198.631C474.667 201.983 476.599 204.227 479.752 204.227ZM476.35 197.665C476.464 195.967 477.664 194.455 479.582 194.455C481.4 194.455 482.565 195.818 482.565 197.665H476.35ZM494.547 195.534C494.021 193.986 492.842 192.949 490.683 192.949C488.382 192.949 486.677 194.256 486.677 196.102C486.677 197.608 487.572 198.616 489.575 199.085L491.393 199.511C492.494 199.767 493.012 200.293 493.012 201.045C493.012 201.983 492.018 202.75 490.456 202.75C489.085 202.75 488.225 202.161 487.927 200.989L486.336 201.386C486.727 203.24 488.254 204.227 490.484 204.227C493.02 204.227 494.745 202.842 494.745 200.96C494.745 199.44 493.794 198.482 491.848 198.006L490.228 197.608C488.936 197.288 488.353 196.855 488.353 196.017C488.353 195.08 489.348 194.398 490.683 194.398C492.146 194.398 492.75 195.207 493.041 195.96L494.547 195.534ZM502.013 193.091H499.683V190.477H498.007V193.091H496.359V194.511H498.007V201.33C498.007 203.233 499.541 204.142 500.962 204.142C501.587 204.142 501.984 204.028 502.212 203.943L501.871 202.438C501.729 202.466 501.501 202.523 501.132 202.523C500.393 202.523 499.683 202.295 499.683 200.875V194.511H502.013V193.091ZM504.534 204H506.21V193.091H504.534V204ZM505.386 191.273C506.04 191.273 506.58 190.761 506.58 190.136C506.58 189.511 506.04 189 505.386 189C504.733 189 504.193 189.511 504.193 190.136C504.193 190.761 504.733 191.273 505.386 191.273ZM513.712 204.227C516.667 204.227 518.655 201.983 518.655 198.602C518.655 195.193 516.667 192.949 513.712 192.949C510.757 192.949 508.769 195.193 508.769 198.602C508.769 201.983 510.757 204.227 513.712 204.227ZM513.712 202.722C511.468 202.722 510.445 200.79 510.445 198.602C510.445 196.415 511.468 194.455 513.712 194.455C515.956 194.455 516.979 196.415 516.979 198.602C516.979 200.79 515.956 202.722 513.712 202.722ZM522.89 197.438C522.89 195.534 524.069 194.455 525.674 194.455C527.229 194.455 528.174 195.47 528.174 197.182V204H529.85V197.068C529.85 194.284 528.366 192.949 526.157 192.949C524.509 192.949 523.487 193.688 522.975 194.795H522.833V193.091H521.214V204H522.89V197.438ZM540.64 195.534C540.115 193.986 538.936 192.949 536.777 192.949C534.475 192.949 532.771 194.256 532.771 196.102C532.771 197.608 533.666 198.616 535.669 199.085L537.487 199.511C538.588 199.767 539.106 200.293 539.106 201.045C539.106 201.983 538.112 202.75 536.549 202.75C535.179 202.75 534.319 202.161 534.021 200.989L532.43 201.386C532.821 203.24 534.348 204.227 536.578 204.227C539.113 204.227 540.839 202.842 540.839 200.96C540.839 199.44 539.887 198.482 537.941 198.006L536.322 197.608C535.029 197.288 534.447 196.855 534.447 196.017C534.447 195.08 535.441 194.398 536.777 194.398C538.24 194.398 538.843 195.207 539.135 195.96L540.64 195.534ZM552.197 204.256C554.101 204.256 555.095 203.233 555.436 202.523H555.521V204H557.197V196.812C557.197 193.347 554.555 192.949 553.163 192.949C551.516 192.949 549.641 193.517 548.788 195.506L550.379 196.074C550.749 195.278 551.622 194.426 553.22 194.426C554.761 194.426 555.521 195.243 555.521 196.642V196.699C555.521 197.509 554.697 197.438 552.709 197.693C550.685 197.956 548.476 198.403 548.476 200.903C548.476 203.034 550.124 204.256 552.197 204.256ZM552.453 202.75C551.118 202.75 550.152 202.153 550.152 200.989C550.152 199.71 551.317 199.312 552.624 199.142C553.334 199.057 555.237 198.858 555.521 198.517V200.051C555.521 201.415 554.442 202.75 552.453 202.75ZM560.257 204H561.933V197.097C561.933 195.619 563.098 194.54 564.689 194.54C565.136 194.54 565.598 194.625 565.711 194.653V192.949C565.52 192.935 565.079 192.92 564.831 192.92C563.524 192.92 562.387 193.659 561.99 194.739H561.876V193.091H560.257V204ZM571.94 204.227C574.156 204.227 575.775 203.119 576.287 201.472L574.667 201.017C574.241 202.153 573.254 202.722 571.94 202.722C569.973 202.722 568.616 201.45 568.538 199.114H576.457V198.403C576.457 194.341 574.042 192.949 571.77 192.949C568.815 192.949 566.855 195.278 566.855 198.631C566.855 201.983 568.787 204.227 571.94 204.227ZM568.538 197.665C568.652 195.967 569.852 194.455 571.77 194.455C573.588 194.455 574.752 195.818 574.752 197.665H568.538ZM591.507 199.54C591.507 201.585 589.944 202.523 588.694 202.523C587.302 202.523 586.308 201.5 586.308 199.909V193.091H584.632V200.023C584.632 202.807 586.109 204.142 588.154 204.142C589.802 204.142 590.882 203.261 591.393 202.153H591.507V204H593.183V193.091H591.507V199.54ZM597.929 197.438C597.929 195.534 599.108 194.455 600.713 194.455C602.268 194.455 603.213 195.47 603.213 197.182V204H604.889V197.068C604.889 194.284 603.405 192.949 601.196 192.949C599.548 192.949 598.526 193.688 598.014 194.795H597.872V193.091H596.253V204H597.929V197.438ZM609.628 197.438C609.628 195.534 610.807 194.455 612.412 194.455C613.968 194.455 614.912 195.47 614.912 197.182V204H616.588V197.068C616.588 194.284 615.104 192.949 612.895 192.949C611.248 192.949 610.225 193.688 609.713 194.795H609.571V193.091H607.952V204H609.628V197.438ZM624.225 204.227C626.441 204.227 628.06 203.119 628.572 201.472L626.952 201.017C626.526 202.153 625.539 202.722 624.225 202.722C622.258 202.722 620.901 201.45 620.823 199.114H628.742V198.403C628.742 194.341 626.327 192.949 624.055 192.949C621.1 192.949 619.14 195.278 619.14 198.631C619.14 201.983 621.072 204.227 624.225 204.227ZM620.823 197.665C620.937 195.967 622.137 194.455 624.055 194.455C625.873 194.455 627.038 195.818 627.038 197.665H620.823ZM635.724 204.227C638.138 204.227 639.729 202.75 640.013 200.818H638.337C638.025 202.011 637.031 202.722 635.724 202.722C633.735 202.722 632.457 201.074 632.457 198.545C632.457 196.074 633.763 194.455 635.724 194.455C637.201 194.455 638.082 195.364 638.337 196.358H640.013C639.729 194.312 637.996 192.949 635.695 192.949C632.741 192.949 630.781 195.278 630.781 198.602C630.781 201.869 632.656 204.227 635.724 204.227ZM647.038 204.227C649.254 204.227 650.873 203.119 651.384 201.472L649.765 201.017C649.339 202.153 648.352 202.722 647.038 202.722C645.07 202.722 643.714 201.45 643.636 199.114H651.555V198.403C651.555 194.341 649.14 192.949 646.867 192.949C643.913 192.949 641.952 195.278 641.952 198.631C641.952 201.983 643.884 204.227 647.038 204.227ZM643.636 197.665C643.749 195.967 644.95 194.455 646.867 194.455C648.685 194.455 649.85 195.818 649.85 197.665H643.636ZM661.832 195.534C661.306 193.986 660.127 192.949 657.968 192.949C655.667 192.949 653.962 194.256 653.962 196.102C653.962 197.608 654.857 198.616 656.86 199.085L658.678 199.511C659.779 199.767 660.298 200.293 660.298 201.045C660.298 201.983 659.303 202.75 657.741 202.75C656.37 202.75 655.511 202.161 655.212 200.989L653.621 201.386C654.012 203.24 655.539 204.227 657.769 204.227C660.305 204.227 662.031 202.842 662.031 200.96C662.031 199.44 661.079 198.482 659.133 198.006L657.513 197.608C656.221 197.288 655.638 196.855 655.638 196.017C655.638 195.08 656.633 194.398 657.968 194.398C659.431 194.398 660.035 195.207 660.326 195.96L661.832 195.534ZM672.281 195.534C671.755 193.986 670.576 192.949 668.417 192.949C666.116 192.949 664.412 194.256 664.412 196.102C664.412 197.608 665.306 198.616 667.309 199.085L669.127 199.511C670.228 199.767 670.747 200.293 670.747 201.045C670.747 201.983 669.752 202.75 668.19 202.75C666.819 202.75 665.96 202.161 665.662 200.989L664.071 201.386C664.461 203.24 665.988 204.227 668.218 204.227C670.754 204.227 672.48 202.842 672.48 200.96C672.48 199.44 671.528 198.482 669.582 198.006L667.963 197.608C666.67 197.288 666.088 196.855 666.088 196.017C666.088 195.08 667.082 194.398 668.417 194.398C669.88 194.398 670.484 195.207 670.775 195.96L672.281 195.534ZM678.213 204.256C680.116 204.256 681.111 203.233 681.452 202.523H681.537V204H683.213V196.812C683.213 193.347 680.571 192.949 679.179 192.949C677.531 192.949 675.656 193.517 674.804 195.506L676.395 196.074C676.764 195.278 677.638 194.426 679.236 194.426C680.777 194.426 681.537 195.243 681.537 196.642V196.699C681.537 197.509 680.713 197.438 678.724 197.693C676.7 197.956 674.491 198.403 674.491 200.903C674.491 203.034 676.139 204.256 678.213 204.256ZM678.469 202.75C677.134 202.75 676.168 202.153 676.168 200.989C676.168 199.71 677.332 199.312 678.639 199.142C679.349 199.057 681.253 198.858 681.537 198.517V200.051C681.537 201.415 680.457 202.75 678.469 202.75ZM686.272 204H687.949V197.097C687.949 195.619 689.113 194.54 690.704 194.54C691.152 194.54 691.613 194.625 691.727 194.653V192.949C691.535 192.935 691.095 192.92 690.846 192.92C689.539 192.92 688.403 193.659 688.005 194.739H687.892V193.091H686.272V204ZM695.125 208.091C696.638 208.091 697.703 207.288 698.336 205.591L702.98 193.119L701.148 193.091L698.137 201.784H698.023L695.012 193.091H693.194L697.228 204.057L696.915 204.909C696.304 206.571 695.551 206.727 694.33 206.415L693.904 207.892C694.074 207.977 694.557 208.091 695.125 208.091ZM110.87 244.227C113.825 244.227 115.813 241.983 115.813 238.602C115.813 235.193 113.825 232.949 110.87 232.949C107.916 232.949 105.927 235.193 105.927 238.602C105.927 241.983 107.916 244.227 110.87 244.227ZM110.87 242.722C108.626 242.722 107.603 240.79 107.603 238.602C107.603 236.415 108.626 234.455 110.87 234.455C113.115 234.455 114.137 236.415 114.137 238.602C114.137 240.79 113.115 242.722 110.87 242.722ZM118.372 244H120.048V237.097C120.048 235.619 121.213 234.54 122.804 234.54C123.251 234.54 123.713 234.625 123.827 234.653V232.949C123.635 232.935 123.194 232.92 122.946 232.92C121.639 232.92 120.503 233.659 120.105 234.739H119.991V233.091H118.372V244ZM134.649 244.256C136.552 244.256 137.546 243.233 137.887 242.523H137.972V244H139.649V236.812C139.649 233.347 137.007 232.949 135.615 232.949C133.967 232.949 132.092 233.517 131.24 235.506L132.83 236.074C133.2 235.278 134.073 234.426 135.671 234.426C137.213 234.426 137.972 235.243 137.972 236.642V236.699C137.972 237.509 137.149 237.438 135.16 237.693C133.136 237.956 130.927 238.403 130.927 240.903C130.927 243.034 132.575 244.256 134.649 244.256ZM134.904 242.75C133.569 242.75 132.603 242.153 132.603 240.989C132.603 239.71 133.768 239.312 135.075 239.142C135.785 239.057 137.688 238.858 137.972 238.517V240.051C137.972 241.415 136.893 242.75 134.904 242.75ZM150.435 235.534C149.91 233.986 148.731 232.949 146.572 232.949C144.27 232.949 142.566 234.256 142.566 236.102C142.566 237.608 143.461 238.616 145.464 239.085L147.282 239.511C148.383 239.767 148.901 240.293 148.901 241.045C148.901 241.983 147.907 242.75 146.344 242.75C144.974 242.75 144.114 242.161 143.816 240.989L142.225 241.386C142.616 243.24 144.143 244.227 146.373 244.227C148.908 244.227 150.634 242.842 150.634 240.96C150.634 239.44 149.682 238.482 147.736 238.006L146.117 237.608C144.824 237.288 144.242 236.855 144.242 236.017C144.242 235.08 145.236 234.398 146.572 234.398C148.035 234.398 148.638 235.207 148.93 235.96L150.435 235.534ZM153.157 244H154.833V239.916L156.005 238.83L160.089 244H162.22L157.269 237.75L161.879 233.091H159.805L155.032 237.949H154.833V229.455H153.157V244ZM168.161 244.227C170.377 244.227 171.996 243.119 172.507 241.472L170.888 241.017C170.462 242.153 169.475 242.722 168.161 242.722C166.193 242.722 164.837 241.45 164.759 239.114H172.678V238.403C172.678 234.341 170.263 232.949 167.99 232.949C165.036 232.949 163.075 235.278 163.075 238.631C163.075 241.983 165.007 244.227 168.161 244.227ZM164.759 237.665C164.872 235.967 166.073 234.455 167.99 234.455C169.808 234.455 170.973 235.818 170.973 237.665H164.759ZM179.347 244.227C181.449 244.227 182.159 242.92 182.529 242.324H182.727V244H184.347V229.455H182.671V234.824H182.529C182.159 234.256 181.506 232.949 179.375 232.949C176.619 232.949 174.716 235.136 174.716 238.574C174.716 242.04 176.619 244.227 179.347 244.227ZM179.574 242.722C177.472 242.722 176.392 240.875 176.392 238.545C176.392 236.244 177.443 234.455 179.574 234.455C181.619 234.455 182.699 236.102 182.699 238.545C182.699 241.017 181.591 242.722 179.574 242.722ZM193.274 244H194.95V237.182C194.95 235.584 196.115 234.455 197.422 234.455C198.693 234.455 199.581 235.286 199.581 236.528V244H201.286V236.898C201.286 235.491 202.166 234.455 203.7 234.455C204.894 234.455 205.916 235.087 205.916 236.699V244H207.593V236.699C207.593 234.135 206.215 232.949 204.269 232.949C202.706 232.949 201.563 233.666 201.002 234.795H200.888C200.348 233.631 199.396 232.949 197.962 232.949C196.541 232.949 195.49 233.631 195.036 234.795H194.894V233.091H193.274V244ZM215.089 244.227C218.044 244.227 220.032 241.983 220.032 238.602C220.032 235.193 218.044 232.949 215.089 232.949C212.134 232.949 210.146 235.193 210.146 238.602C210.146 241.983 212.134 244.227 215.089 244.227ZM215.089 242.722C212.845 242.722 211.822 240.79 211.822 238.602C211.822 236.415 212.845 234.455 215.089 234.455C217.333 234.455 218.356 236.415 218.356 238.602C218.356 240.79 217.333 242.722 215.089 242.722ZM222.591 244H224.267V237.097C224.267 235.619 225.432 234.54 227.023 234.54C227.47 234.54 227.932 234.625 228.045 234.653V232.949C227.854 232.935 227.413 232.92 227.165 232.92C225.858 232.92 224.721 233.659 224.324 234.739H224.21V233.091H222.591V244ZM234.274 244.227C236.49 244.227 238.109 243.119 238.621 241.472L237.001 241.017C236.575 242.153 235.588 242.722 234.274 242.722C232.307 242.722 230.95 241.45 230.872 239.114H238.791V238.403C238.791 234.341 236.376 232.949 234.104 232.949C231.149 232.949 229.189 235.278 229.189 238.631C229.189 241.983 231.121 244.227 234.274 244.227ZM230.872 237.665C230.986 235.967 232.186 234.455 234.104 234.455C235.922 234.455 237.086 235.818 237.086 237.665H230.872ZM251.71 233.091H249.381V230.477H247.704V233.091H246.057V234.511H247.704V241.33C247.704 243.233 249.238 244.142 250.659 244.142C251.284 244.142 251.682 244.028 251.909 243.943L251.568 242.438C251.426 242.466 251.199 242.523 250.829 242.523C250.091 242.523 249.381 242.295 249.381 240.875V234.511H251.71V233.091ZM256.142 237.438C256.142 235.534 257.356 234.455 259.011 234.455C260.588 234.455 261.54 235.449 261.54 237.182V244H263.216V237.068C263.216 234.263 261.724 232.949 259.494 232.949C257.775 232.949 256.795 233.666 256.284 234.795H256.142V229.455H254.466V244H256.142V237.438ZM269.492 244.256C271.396 244.256 272.39 243.233 272.731 242.523H272.816V244H274.492V236.812C274.492 233.347 271.85 232.949 270.458 232.949C268.811 232.949 266.936 233.517 266.083 235.506L267.674 236.074C268.044 235.278 268.917 234.426 270.515 234.426C272.056 234.426 272.816 235.243 272.816 236.642V236.699C272.816 237.509 271.992 237.438 270.004 237.693C267.98 237.956 265.771 238.403 265.771 240.903C265.771 243.034 267.419 244.256 269.492 244.256ZM269.748 242.75C268.413 242.75 267.447 242.153 267.447 240.989C267.447 239.71 268.612 239.312 269.919 239.142C270.629 239.057 272.532 238.858 272.816 238.517V240.051C272.816 241.415 271.737 242.75 269.748 242.75ZM279.228 237.438C279.228 235.534 280.407 234.455 282.012 234.455C283.567 234.455 284.512 235.47 284.512 237.182V244H286.188V237.068C286.188 234.284 284.704 232.949 282.495 232.949C280.847 232.949 279.824 233.688 279.313 234.795H279.171V233.091H277.552V244H279.228V237.438ZM299.308 244.227C302.262 244.227 304.251 241.983 304.251 238.602C304.251 235.193 302.262 232.949 299.308 232.949C296.353 232.949 294.365 235.193 294.365 238.602C294.365 241.983 296.353 244.227 299.308 244.227ZM299.308 242.722C297.063 242.722 296.041 240.79 296.041 238.602C296.041 236.415 297.063 234.455 299.308 234.455C301.552 234.455 302.575 236.415 302.575 238.602C302.575 240.79 301.552 242.722 299.308 242.722ZM308.486 237.438C308.486 235.534 309.665 234.455 311.27 234.455C312.825 234.455 313.77 235.47 313.77 237.182V244H315.446V237.068C315.446 234.284 313.961 232.949 311.753 232.949C310.105 232.949 309.082 233.688 308.571 234.795H308.429V233.091H306.809V244H308.486V237.438ZM322.941 244.227C325.355 244.227 326.946 242.75 327.23 240.818H325.554C325.242 242.011 324.247 242.722 322.941 242.722C320.952 242.722 319.673 241.074 319.673 238.545C319.673 236.074 320.98 234.455 322.941 234.455C324.418 234.455 325.298 235.364 325.554 236.358H327.23C326.946 234.312 325.213 232.949 322.912 232.949C319.958 232.949 317.997 235.278 317.997 238.602C317.997 241.869 319.872 244.227 322.941 244.227ZM334.254 244.227C336.47 244.227 338.09 243.119 338.601 241.472L336.982 241.017C336.556 242.153 335.568 242.722 334.254 242.722C332.287 242.722 330.931 241.45 330.852 239.114H338.771V238.403C338.771 234.341 336.357 232.949 334.084 232.949C331.129 232.949 329.169 235.278 329.169 238.631C329.169 241.983 331.101 244.227 334.254 244.227ZM330.852 237.665C330.966 235.967 332.166 234.455 334.084 234.455C335.902 234.455 337.067 235.818 337.067 237.665H330.852ZM343.821 242.011H342.003L341.918 242.807C341.712 244.732 341.307 246.649 341.122 247.551H342.401C342.742 246.585 343.466 244.398 343.708 242.778L343.821 242.011ZM354.228 229.455H352.552V244H354.228V229.455ZM357.298 244H358.974V233.091H357.298V244ZM358.15 231.273C358.803 231.273 359.343 230.761 359.343 230.136C359.343 229.511 358.803 229 358.15 229C357.497 229 356.957 229.511 356.957 230.136C356.957 230.761 357.497 231.273 358.15 231.273ZM362.044 244H363.72V239.916L364.892 238.83L368.976 244H371.106L366.156 237.75L370.765 233.091H368.692L363.919 237.949H363.72V229.455H362.044V244ZM377.047 244.227C379.263 244.227 380.883 243.119 381.394 241.472L379.775 241.017C379.349 242.153 378.361 242.722 377.047 242.722C375.08 242.722 373.724 241.45 373.645 239.114H381.564V238.403C381.564 234.341 379.15 232.949 376.877 232.949C373.922 232.949 371.962 235.278 371.962 238.631C371.962 241.983 373.894 244.227 377.047 244.227ZM373.645 237.665C373.759 235.967 374.959 234.455 376.877 234.455C378.695 234.455 379.86 235.818 379.86 237.665H373.645ZM394.483 233.091H392.154V230.477H390.478V233.091H388.83V234.511H390.478V241.33C390.478 243.233 392.012 244.142 393.432 244.142C394.057 244.142 394.455 244.028 394.682 243.943L394.341 242.438C394.199 242.466 393.972 242.523 393.603 242.523C392.864 242.523 392.154 242.295 392.154 240.875V234.511H394.483V233.091ZM398.915 237.438C398.915 235.534 400.13 234.455 401.785 234.455C403.361 234.455 404.313 235.449 404.313 237.182V244H405.989V237.068C405.989 234.263 404.498 232.949 402.268 232.949C400.549 232.949 399.569 233.666 399.057 234.795H398.915V229.455H397.239V244H398.915V237.438ZM413.629 244.227C415.845 244.227 417.465 243.119 417.976 241.472L416.357 241.017C415.931 242.153 414.943 242.722 413.629 242.722C411.662 242.722 410.306 241.45 410.227 239.114H418.146V238.403C418.146 234.341 415.732 232.949 413.459 232.949C410.504 232.949 408.544 235.278 408.544 238.631C408.544 241.983 410.476 244.227 413.629 244.227ZM410.227 237.665C410.341 235.967 411.541 234.455 413.459 234.455C415.277 234.455 416.442 235.818 416.442 237.665H410.227ZM426.321 248.091H427.997V242.324H428.139C428.509 242.92 429.219 244.227 431.321 244.227C434.048 244.227 435.952 242.04 435.952 238.574C435.952 235.136 434.048 232.949 431.293 232.949C429.162 232.949 428.509 234.256 428.139 234.824H427.941V233.091H426.321V248.091ZM427.969 238.545C427.969 236.102 429.048 234.455 431.094 234.455C433.225 234.455 434.276 236.244 434.276 238.545C434.276 240.875 433.196 242.722 431.094 242.722C429.077 242.722 427.969 241.017 427.969 238.545ZM443.083 244.227C445.298 244.227 446.918 243.119 447.429 241.472L445.81 241.017C445.384 242.153 444.396 242.722 443.083 242.722C441.115 242.722 439.759 241.45 439.681 239.114H447.6V238.403C447.6 234.341 445.185 232.949 442.912 232.949C439.958 232.949 437.997 235.278 437.997 238.631C437.997 241.983 439.929 244.227 443.083 244.227ZM439.681 237.665C439.794 235.967 440.994 234.455 442.912 234.455C444.73 234.455 445.895 235.818 445.895 237.665H439.681ZM450.149 244H451.825V237.097C451.825 235.619 452.99 234.54 454.581 234.54C455.029 234.54 455.49 234.625 455.604 234.653V232.949C455.412 232.935 454.972 232.92 454.723 232.92C453.416 232.92 452.28 233.659 451.882 234.739H451.769V233.091H450.149V244ZM465.318 235.534C464.792 233.986 463.613 232.949 461.454 232.949C459.153 232.949 457.449 234.256 457.449 236.102C457.449 237.608 458.344 238.616 460.346 239.085L462.165 239.511C463.265 239.767 463.784 240.293 463.784 241.045C463.784 241.983 462.79 242.75 461.227 242.75C459.856 242.75 458.997 242.161 458.699 240.989L457.108 241.386C457.498 243.24 459.025 244.227 461.256 244.227C463.791 244.227 465.517 242.842 465.517 240.96C465.517 239.44 464.565 238.482 462.619 238.006L461 237.608C459.707 237.288 459.125 236.855 459.125 236.017C459.125 235.08 460.119 234.398 461.454 234.398C462.917 234.398 463.521 235.207 463.812 235.96L465.318 235.534ZM472.472 244.227C475.426 244.227 477.415 241.983 477.415 238.602C477.415 235.193 475.426 232.949 472.472 232.949C469.517 232.949 467.529 235.193 467.529 238.602C467.529 241.983 469.517 244.227 472.472 244.227ZM472.472 242.722C470.227 242.722 469.205 240.79 469.205 238.602C469.205 236.415 470.227 234.455 472.472 234.455C474.716 234.455 475.739 236.415 475.739 238.602C475.739 240.79 474.716 242.722 472.472 242.722ZM481.65 237.438C481.65 235.534 482.829 234.455 484.434 234.455C485.989 234.455 486.934 235.47 486.934 237.182V244H488.61V237.068C488.61 234.284 487.126 232.949 484.917 232.949C483.269 232.949 482.246 233.688 481.735 234.795H481.593V233.091H479.974V244H481.65V237.438ZM499.4 235.534C498.874 233.986 497.695 232.949 495.536 232.949C493.235 232.949 491.531 234.256 491.531 236.102C491.531 237.608 492.426 238.616 494.428 239.085L496.247 239.511C497.347 239.767 497.866 240.293 497.866 241.045C497.866 241.983 496.872 242.75 495.309 242.75C493.938 242.75 493.079 242.161 492.781 240.989L491.19 241.386C491.58 243.24 493.107 244.227 495.338 244.227C497.873 244.227 499.599 242.842 499.599 240.96C499.599 239.44 498.647 238.482 496.701 238.006L495.082 237.608C493.789 237.288 493.207 236.855 493.207 236.017C493.207 235.08 494.201 234.398 495.536 234.398C496.999 234.398 497.603 235.207 497.894 235.96L499.4 235.534ZM512.179 244.227C514.594 244.227 516.184 242.75 516.469 240.818H514.792C514.48 242.011 513.486 242.722 512.179 242.722C510.19 242.722 508.912 241.074 508.912 238.545C508.912 236.074 510.219 234.455 512.179 234.455C513.656 234.455 514.537 235.364 514.792 236.358H516.469C516.184 234.312 514.452 232.949 512.15 232.949C509.196 232.949 507.236 235.278 507.236 238.602C507.236 241.869 509.111 244.227 512.179 244.227ZM523.351 244.227C526.305 244.227 528.294 241.983 528.294 238.602C528.294 235.193 526.305 232.949 523.351 232.949C520.396 232.949 518.407 235.193 518.407 238.602C518.407 241.983 520.396 244.227 523.351 244.227ZM523.351 242.722C521.106 242.722 520.084 240.79 520.084 238.602C520.084 236.415 521.106 234.455 523.351 234.455C525.595 234.455 526.618 236.415 526.618 238.602C526.618 240.79 525.595 242.722 523.351 242.722ZM532.529 237.438C532.529 235.534 533.708 234.455 535.313 234.455C536.868 234.455 537.813 235.47 537.813 237.182V244H539.489V237.068C539.489 234.284 538.004 232.949 535.796 232.949C534.148 232.949 533.125 233.688 532.614 234.795H532.472V233.091H530.852V244H532.529V237.438ZM547.296 233.091H544.966V230.477H543.29V233.091H541.643V234.511H543.29V241.33C543.29 243.233 544.824 244.142 546.245 244.142C546.87 244.142 547.268 244.028 547.495 243.943L547.154 242.438C547.012 242.466 546.785 242.523 546.415 242.523C545.677 242.523 544.966 242.295 544.966 240.875V234.511H547.296V233.091ZM553.028 244.256C554.931 244.256 555.925 243.233 556.266 242.523H556.351V244H558.028V236.812C558.028 233.347 555.385 232.949 553.993 232.949C552.346 232.949 550.471 233.517 549.618 235.506L551.209 236.074C551.579 235.278 552.452 234.426 554.05 234.426C555.591 234.426 556.351 235.243 556.351 236.642V236.699C556.351 237.509 555.528 237.438 553.539 237.693C551.515 237.956 549.306 238.403 549.306 240.903C549.306 243.034 550.954 244.256 553.028 244.256ZM553.283 242.75C551.948 242.75 550.982 242.153 550.982 240.989C550.982 239.71 552.147 239.312 553.454 239.142C554.164 239.057 556.067 238.858 556.351 238.517V240.051C556.351 241.415 555.272 242.75 553.283 242.75ZM565.519 244.227C567.933 244.227 569.524 242.75 569.808 240.818H568.132C567.82 242.011 566.825 242.722 565.519 242.722C563.53 242.722 562.252 241.074 562.252 238.545C562.252 236.074 563.558 234.455 565.519 234.455C566.996 234.455 567.877 235.364 568.132 236.358H569.808C569.524 234.312 567.791 232.949 565.49 232.949C562.536 232.949 560.575 235.278 560.575 238.602C560.575 241.869 562.45 244.227 565.519 244.227ZM577.003 233.091H574.673V230.477H572.997V233.091H571.35V234.511H572.997V241.33C572.997 243.233 574.531 244.142 575.952 244.142C576.577 244.142 576.975 244.028 577.202 243.943L576.861 242.438C576.719 242.466 576.492 242.523 576.122 242.523C575.384 242.523 574.673 242.295 574.673 240.875V234.511H577.003V233.091ZM585.149 244H586.825V233.091H585.149V244ZM586.002 231.273C586.655 231.273 587.195 230.761 587.195 230.136C587.195 229.511 586.655 229 586.002 229C585.348 229 584.808 229.511 584.808 230.136C584.808 230.761 585.348 231.273 586.002 231.273ZM591.572 237.438C591.572 235.534 592.751 234.455 594.356 234.455C595.911 234.455 596.856 235.47 596.856 237.182V244H598.532V237.068C598.532 234.284 597.047 232.949 594.839 232.949C593.191 232.949 592.168 233.688 591.657 234.795H591.515V233.091H589.895V244H591.572V237.438ZM606.453 233.091H604.009V231.983C604.009 230.903 604.464 230.335 605.572 230.335C606.055 230.335 606.339 230.449 606.509 230.506L606.992 229.057C606.737 228.943 606.225 228.773 605.401 228.773C603.839 228.773 602.333 229.71 602.333 231.585V233.091H600.572V234.511H602.333V244H604.009V234.511H606.453V233.091ZM612.784 244.227C615.739 244.227 617.727 241.983 617.727 238.602C617.727 235.193 615.739 232.949 612.784 232.949C609.83 232.949 607.841 235.193 607.841 238.602C607.841 241.983 609.83 244.227 612.784 244.227ZM612.784 242.722C610.54 242.722 609.517 240.79 609.517 238.602C609.517 236.415 610.54 234.455 612.784 234.455C615.029 234.455 616.051 236.415 616.051 238.602C616.051 240.79 615.029 242.722 612.784 242.722ZM620.286 244H621.962V237.097C621.962 235.619 623.127 234.54 624.718 234.54C625.165 234.54 625.627 234.625 625.741 234.653V232.949C625.549 232.935 625.108 232.92 624.86 232.92C623.553 232.92 622.417 233.659 622.019 234.739H621.905V233.091H620.286V244ZM627.727 244H629.404V237.182C629.404 235.584 630.568 234.455 631.875 234.455C633.146 234.455 634.034 235.286 634.034 236.528V244H635.739V236.898C635.739 235.491 636.619 234.455 638.154 234.455C639.347 234.455 640.369 235.087 640.369 236.699V244H642.046V236.699C642.046 234.135 640.668 232.949 638.722 232.949C637.159 232.949 636.016 233.666 635.455 234.795H635.341C634.801 233.631 633.85 232.949 632.415 232.949C630.994 232.949 629.943 233.631 629.489 234.795H629.347V233.091H627.727V244ZM648.32 244.256C650.224 244.256 651.218 243.233 651.559 242.523H651.644V244H653.32V236.812C653.32 233.347 650.678 232.949 649.286 232.949C647.639 232.949 645.764 233.517 644.911 235.506L646.502 236.074C646.872 235.278 647.745 234.426 649.343 234.426C650.884 234.426 651.644 235.243 651.644 236.642V236.699C651.644 237.509 650.82 237.438 648.832 237.693C646.808 237.956 644.599 238.403 644.599 240.903C644.599 243.034 646.247 244.256 648.32 244.256ZM648.576 242.75C647.241 242.75 646.275 242.153 646.275 240.989C646.275 239.71 647.44 239.312 648.747 239.142C649.457 239.057 651.36 238.858 651.644 238.517V240.051C651.644 241.415 650.565 242.75 648.576 242.75ZM661.124 233.091H658.795V230.477H657.118V233.091H655.471V234.511H657.118V241.33C657.118 243.233 658.653 244.142 660.073 244.142C660.698 244.142 661.096 244.028 661.323 243.943L660.982 242.438C660.84 242.466 660.613 242.523 660.243 242.523C659.505 242.523 658.795 242.295 658.795 240.875V234.511H661.124V233.091ZM663.645 244H665.322V233.091H663.645V244ZM664.498 231.273C665.151 231.273 665.691 230.761 665.691 230.136C665.691 229.511 665.151 229 664.498 229C663.844 229 663.305 229.511 663.305 230.136C663.305 230.761 663.844 231.273 664.498 231.273ZM672.823 244.227C675.778 244.227 677.767 241.983 677.767 238.602C677.767 235.193 675.778 232.949 672.823 232.949C669.869 232.949 667.88 235.193 667.88 238.602C667.88 241.983 669.869 244.227 672.823 244.227ZM672.823 242.722C670.579 242.722 669.556 240.79 669.556 238.602C669.556 236.415 670.579 234.455 672.823 234.455C675.068 234.455 676.09 236.415 676.09 238.602C676.09 240.79 675.068 242.722 672.823 242.722ZM682.001 237.438C682.001 235.534 683.18 234.455 684.785 234.455C686.341 234.455 687.285 235.47 687.285 237.182V244H688.961V237.068C688.961 234.284 687.477 232.949 685.268 232.949C683.621 232.949 682.598 233.688 682.086 234.795H681.944V233.091H680.325V244H682.001V237.438ZM694.524 242.011H692.706L692.621 242.807C692.415 244.732 692.01 246.649 691.825 247.551H693.104C693.445 246.585 694.169 244.398 694.411 242.778L694.524 242.011ZM199.716 277.438C199.716 275.534 200.895 274.455 202.5 274.455C204.056 274.455 205 275.47 205 277.182V284H206.676V277.068C206.676 274.284 205.192 272.949 202.983 272.949C201.335 272.949 200.313 273.688 199.801 274.795H199.659V273.091H198.04V284H199.716V277.438ZM212.949 284.256C214.853 284.256 215.847 283.233 216.188 282.523H216.273V284H217.949V276.812C217.949 273.347 215.307 272.949 213.915 272.949C212.268 272.949 210.393 273.517 209.54 275.506L211.131 276.074C211.501 275.278 212.374 274.426 213.972 274.426C215.513 274.426 216.273 275.243 216.273 276.642V276.699C216.273 277.509 215.449 277.438 213.461 277.693C211.437 277.956 209.228 278.403 209.228 280.903C209.228 283.034 210.876 284.256 212.949 284.256ZM213.205 282.75C211.87 282.75 210.904 282.153 210.904 280.989C210.904 279.71 212.069 279.312 213.376 279.142C214.086 279.057 215.989 278.858 216.273 278.517V280.051C216.273 281.415 215.194 282.75 213.205 282.75ZM221.009 284H222.685V277.182C222.685 275.584 223.85 274.455 225.156 274.455C226.428 274.455 227.316 275.286 227.316 276.528V284H229.02V276.898C229.02 275.491 229.901 274.455 231.435 274.455C232.628 274.455 233.651 275.087 233.651 276.699V284H235.327V276.699C235.327 274.135 233.949 272.949 232.003 272.949C230.441 272.949 229.297 273.666 228.736 274.795H228.622C228.083 273.631 227.131 272.949 225.696 272.949C224.276 272.949 223.225 273.631 222.77 274.795H222.628V273.091H221.009V284ZM242.965 284.227C245.181 284.227 246.801 283.119 247.312 281.472L245.693 281.017C245.267 282.153 244.279 282.722 242.965 282.722C240.998 282.722 239.642 281.45 239.563 279.114H247.482V278.403C247.482 274.341 245.068 272.949 242.795 272.949C239.84 272.949 237.88 275.278 237.88 278.631C237.88 281.983 239.812 284.227 242.965 284.227ZM239.563 277.665C239.677 275.967 240.877 274.455 242.795 274.455C244.613 274.455 245.778 275.818 245.778 277.665H239.563ZM252.532 282.011H250.714L250.629 282.807C250.423 284.732 250.018 286.649 249.833 287.551H251.112C251.453 286.585 252.177 284.398 252.419 282.778L252.532 282.011ZM268.99 275.534C268.464 273.986 267.285 272.949 265.126 272.949C262.825 272.949 261.121 274.256 261.121 276.102C261.121 277.608 262.015 278.616 264.018 279.085L265.836 279.511C266.937 279.767 267.456 280.293 267.456 281.045C267.456 281.983 266.461 282.75 264.899 282.75C263.528 282.75 262.669 282.161 262.371 280.989L260.78 281.386C261.17 283.24 262.697 284.227 264.927 284.227C267.463 284.227 269.189 282.842 269.189 280.96C269.189 279.44 268.237 278.482 266.291 278.006L264.672 277.608C263.379 277.288 262.797 276.855 262.797 276.017C262.797 275.08 263.791 274.398 265.126 274.398C266.589 274.398 267.193 275.207 267.484 275.96L268.99 275.534ZM276.286 284.227C278.502 284.227 280.121 283.119 280.632 281.472L279.013 281.017C278.587 282.153 277.6 282.722 276.286 282.722C274.318 282.722 272.962 281.45 272.884 279.114H280.803V278.403C280.803 274.341 278.388 272.949 276.115 272.949C273.161 272.949 271.2 275.278 271.2 278.631C271.2 281.983 273.132 284.227 276.286 284.227ZM272.884 277.665C272.997 275.967 274.198 274.455 276.115 274.455C277.933 274.455 279.098 275.818 279.098 277.665H272.884ZM284.309 273.091H282.378L285.844 278.545L282.378 284H284.309L286.923 279.767L289.537 284H291.469L287.946 278.545L291.469 273.091H289.537L286.923 277.551L284.309 273.091ZM296.36 282.011H294.542L294.457 282.807C294.251 284.732 293.846 286.649 293.661 287.551H294.94C295.281 286.585 296.005 284.398 296.247 282.778L296.36 282.011ZM309.835 273.091H307.506V270.477H305.829V273.091H304.182V274.511H305.829V281.33C305.829 283.233 307.363 284.142 308.784 284.142C309.409 284.142 309.807 284.028 310.034 283.943L309.693 282.438C309.551 282.466 309.324 282.523 308.954 282.523C308.216 282.523 307.506 282.295 307.506 280.875V274.511H309.835V273.091ZM314.267 277.438C314.267 275.534 315.481 274.455 317.136 274.455C318.713 274.455 319.665 275.449 319.665 277.182V284H321.341V277.068C321.341 274.263 319.849 272.949 317.619 272.949C315.9 272.949 314.92 273.666 314.409 274.795H314.267V269.455H312.591V284H314.267V277.438ZM328.981 284.227C331.197 284.227 332.816 283.119 333.328 281.472L331.708 281.017C331.282 282.153 330.295 282.722 328.981 282.722C327.014 282.722 325.657 281.45 325.579 279.114H333.498V278.403C333.498 274.341 331.083 272.949 328.811 272.949C325.856 272.949 323.896 275.278 323.896 278.631C323.896 281.983 325.828 284.227 328.981 284.227ZM325.579 277.665C325.693 275.967 326.893 274.455 328.811 274.455C330.629 274.455 331.794 275.818 331.794 277.665H325.579ZM336.048 284H337.724V273.091H336.048V284ZM336.9 271.273C337.553 271.273 338.093 270.761 338.093 270.136C338.093 269.511 337.553 269 336.9 269C336.247 269 335.707 269.511 335.707 270.136C335.707 270.761 336.247 271.273 336.9 271.273ZM340.794 284H342.47V277.097C342.47 275.619 343.635 274.54 345.226 274.54C345.673 274.54 346.135 274.625 346.248 274.653V272.949C346.057 272.935 345.616 272.92 345.368 272.92C344.061 272.92 342.925 273.659 342.527 274.739H342.413V273.091H340.794V284ZM355.536 277.438C355.536 275.534 356.751 274.455 358.406 274.455C359.982 274.455 360.934 275.449 360.934 277.182V284H362.61V277.068C362.61 274.263 361.119 272.949 358.889 272.949C357.17 272.949 356.19 273.666 355.678 274.795H355.536V269.455H353.86V284H355.536V277.438ZM370.108 284.227C373.063 284.227 375.052 281.983 375.052 278.602C375.052 275.193 373.063 272.949 370.108 272.949C367.154 272.949 365.165 275.193 365.165 278.602C365.165 281.983 367.154 284.227 370.108 284.227ZM370.108 282.722C367.864 282.722 366.841 280.79 366.841 278.602C366.841 276.415 367.864 274.455 370.108 274.455C372.353 274.455 373.376 276.415 373.376 278.602C373.376 280.79 372.353 282.722 370.108 282.722ZM377.61 284H379.286V277.182C379.286 275.584 380.451 274.455 381.758 274.455C383.029 274.455 383.917 275.286 383.917 276.528V284H385.622V276.898C385.622 275.491 386.502 274.455 388.036 274.455C389.23 274.455 390.252 275.087 390.252 276.699V284H391.928V276.699C391.928 274.135 390.551 272.949 388.605 272.949C387.042 272.949 385.899 273.666 385.338 274.795H385.224C384.684 273.631 383.732 272.949 382.298 272.949C380.877 272.949 379.826 273.631 379.372 274.795H379.23V273.091H377.61V284ZM399.567 284.227C401.783 284.227 403.402 283.119 403.914 281.472L402.294 281.017C401.868 282.153 400.881 282.722 399.567 282.722C397.6 282.722 396.243 281.45 396.165 279.114H404.084V278.403C404.084 274.341 401.669 272.949 399.396 272.949C396.442 272.949 394.482 275.278 394.482 278.631C394.482 281.983 396.414 284.227 399.567 284.227ZM396.165 277.665C396.279 275.967 397.479 274.455 399.396 274.455C401.215 274.455 402.379 275.818 402.379 277.665H396.165ZM415.469 284.256C417.372 284.256 418.367 283.233 418.708 282.523H418.793V284H420.469V276.812C420.469 273.347 417.827 272.949 416.435 272.949C414.787 272.949 412.912 273.517 412.06 275.506L413.651 276.074C414.02 275.278 414.894 274.426 416.492 274.426C418.033 274.426 418.793 275.243 418.793 276.642V276.699C418.793 277.509 417.969 277.438 415.98 277.693C413.956 277.956 411.747 278.403 411.747 280.903C411.747 283.034 413.395 284.256 415.469 284.256ZM415.725 282.75C414.389 282.75 413.423 282.153 413.423 280.989C413.423 279.71 414.588 279.312 415.895 279.142C416.605 279.057 418.509 278.858 418.793 278.517V280.051C418.793 281.415 417.713 282.75 415.725 282.75ZM427.648 284.227C429.75 284.227 430.46 282.92 430.829 282.324H431.028V284H432.648V269.455H430.971V274.824H430.829C430.46 274.256 429.807 272.949 427.676 272.949C424.92 272.949 423.017 275.136 423.017 278.574C423.017 282.04 424.92 284.227 427.648 284.227ZM427.875 282.722C425.773 282.722 424.693 280.875 424.693 278.545C424.693 276.244 425.744 274.455 427.875 274.455C429.92 274.455 431 276.102 431 278.545C431 281.017 429.892 282.722 427.875 282.722ZM440.069 284.227C442.172 284.227 442.882 282.92 443.251 282.324H443.45V284H445.069V269.455H443.393V274.824H443.251C442.882 274.256 442.229 272.949 440.098 272.949C437.342 272.949 435.439 275.136 435.439 278.574C435.439 282.04 437.342 284.227 440.069 284.227ZM440.297 282.722C438.194 282.722 437.115 280.875 437.115 278.545C437.115 276.244 438.166 274.455 440.297 274.455C442.342 274.455 443.422 276.102 443.422 278.545C443.422 281.017 442.314 282.722 440.297 282.722ZM448.372 284H450.048V277.097C450.048 275.619 451.213 274.54 452.804 274.54C453.251 274.54 453.713 274.625 453.827 274.653V272.949C453.635 272.935 453.194 272.92 452.946 272.92C451.639 272.92 450.503 273.659 450.105 274.739H449.991V273.091H448.372V284ZM460.055 284.227C462.271 284.227 463.89 283.119 464.402 281.472L462.782 281.017C462.356 282.153 461.369 282.722 460.055 282.722C458.088 282.722 456.731 281.45 456.653 279.114H464.572V278.403C464.572 274.341 462.157 272.949 459.885 272.949C456.93 272.949 454.97 275.278 454.97 278.631C454.97 281.983 456.902 284.227 460.055 284.227ZM456.653 277.665C456.767 275.967 457.967 274.455 459.885 274.455C461.703 274.455 462.868 275.818 462.868 277.665H456.653ZM474.849 275.534C474.324 273.986 473.145 272.949 470.986 272.949C468.684 272.949 466.98 274.256 466.98 276.102C466.98 277.608 467.875 278.616 469.878 279.085L471.696 279.511C472.797 279.767 473.315 280.293 473.315 281.045C473.315 281.983 472.321 282.75 470.758 282.75C469.388 282.75 468.528 282.161 468.23 280.989L466.639 281.386C467.03 283.24 468.557 284.227 470.787 284.227C473.322 284.227 475.048 282.842 475.048 280.96C475.048 279.44 474.096 278.482 472.15 278.006L470.531 277.608C469.238 277.288 468.656 276.855 468.656 276.017C468.656 275.08 469.65 274.398 470.986 274.398C472.449 274.398 473.052 275.207 473.344 275.96L474.849 275.534ZM485.298 275.534C484.773 273.986 483.594 272.949 481.435 272.949C479.134 272.949 477.429 274.256 477.429 276.102C477.429 277.608 478.324 278.616 480.327 279.085L482.145 279.511C483.246 279.767 483.764 280.293 483.764 281.045C483.764 281.983 482.77 282.75 481.208 282.75C479.837 282.75 478.977 282.161 478.679 280.989L477.088 281.386C477.479 283.24 479.006 284.227 481.236 284.227C483.771 284.227 485.497 282.842 485.497 280.96C485.497 279.44 484.546 278.482 482.6 278.006L480.98 277.608C479.688 277.288 479.105 276.855 479.105 276.017C479.105 275.08 480.1 274.398 481.435 274.398C482.898 274.398 483.502 275.207 483.793 275.96L485.298 275.534ZM493.645 284H495.322V273.091H493.645V284ZM494.498 271.273C495.151 271.273 495.691 270.761 495.691 270.136C495.691 269.511 495.151 269 494.498 269C493.844 269 493.305 269.511 493.305 270.136C493.305 270.761 493.844 271.273 494.498 271.273ZM500.068 277.438C500.068 275.534 501.247 274.455 502.852 274.455C504.407 274.455 505.352 275.47 505.352 277.182V284H507.028V277.068C507.028 274.284 505.544 272.949 503.335 272.949C501.687 272.949 500.664 273.688 500.153 274.795H500.011V273.091H498.392V284H500.068V277.438ZM514.949 273.091H512.506V271.983C512.506 270.903 512.96 270.335 514.068 270.335C514.551 270.335 514.835 270.449 515.006 270.506L515.488 269.057C515.233 268.943 514.721 268.773 513.898 268.773C512.335 268.773 510.829 269.71 510.829 271.585V273.091H509.068V274.511H510.829V284H512.506V274.511H514.949V273.091ZM521.28 284.227C524.235 284.227 526.224 281.983 526.224 278.602C526.224 275.193 524.235 272.949 521.28 272.949C518.326 272.949 516.337 275.193 516.337 278.602C516.337 281.983 518.326 284.227 521.28 284.227ZM521.28 282.722C519.036 282.722 518.013 280.79 518.013 278.602C518.013 276.415 519.036 274.455 521.28 274.455C523.525 274.455 524.547 276.415 524.547 278.602C524.547 280.79 523.525 282.722 521.28 282.722ZM528.782 284H530.458V277.097C530.458 275.619 531.623 274.54 533.214 274.54C533.661 274.54 534.123 274.625 534.237 274.653V272.949C534.045 272.935 533.605 272.92 533.356 272.92C532.049 272.92 530.913 273.659 530.515 274.739H530.401V273.091H528.782V284ZM536.224 284H537.9V277.182C537.9 275.584 539.064 274.455 540.371 274.455C541.643 274.455 542.53 275.286 542.53 276.528V284H544.235V276.898C544.235 275.491 545.116 274.455 546.65 274.455C547.843 274.455 548.866 275.087 548.866 276.699V284H550.542V276.699C550.542 274.135 549.164 272.949 547.218 272.949C545.655 272.949 544.512 273.666 543.951 274.795H543.837C543.297 273.631 542.346 272.949 540.911 272.949C539.491 272.949 538.439 273.631 537.985 274.795H537.843V273.091H536.224V284ZM556.817 284.256C558.72 284.256 559.714 283.233 560.055 282.523H560.14V284H561.817V276.812C561.817 273.347 559.175 272.949 557.782 272.949C556.135 272.949 554.26 273.517 553.407 275.506L554.998 276.074C555.368 275.278 556.241 274.426 557.839 274.426C559.381 274.426 560.14 275.243 560.14 276.642V276.699C560.14 277.509 559.317 277.438 557.328 277.693C555.304 277.956 553.095 278.403 553.095 280.903C553.095 283.034 554.743 284.256 556.817 284.256ZM557.072 282.75C555.737 282.75 554.771 282.153 554.771 280.989C554.771 279.71 555.936 279.312 557.243 279.142C557.953 279.057 559.856 278.858 560.14 278.517V280.051C560.14 281.415 559.061 282.75 557.072 282.75ZM569.62 273.091H567.291V270.477H565.615V273.091H563.967V274.511H565.615V281.33C565.615 283.233 567.149 284.142 568.569 284.142C569.194 284.142 569.592 284.028 569.819 283.943L569.478 282.438C569.336 282.466 569.109 282.523 568.74 282.523C568.001 282.523 567.291 282.295 567.291 280.875V274.511H569.62V273.091ZM572.142 284H573.818V273.091H572.142V284ZM572.994 271.273C573.647 271.273 574.187 270.761 574.187 270.136C574.187 269.511 573.647 269 572.994 269C572.34 269 571.801 269.511 571.801 270.136C571.801 270.761 572.34 271.273 572.994 271.273ZM581.319 284.227C584.274 284.227 586.263 281.983 586.263 278.602C586.263 275.193 584.274 272.949 581.319 272.949C578.365 272.949 576.376 275.193 576.376 278.602C576.376 281.983 578.365 284.227 581.319 284.227ZM581.319 282.722C579.075 282.722 578.052 280.79 578.052 278.602C578.052 276.415 579.075 274.455 581.319 274.455C583.564 274.455 584.586 276.415 584.586 278.602C584.586 280.79 583.564 282.722 581.319 282.722ZM590.497 277.438C590.497 275.534 591.676 274.455 593.281 274.455C594.837 274.455 595.781 275.47 595.781 277.182V284H597.458V277.068C597.458 274.284 595.973 272.949 593.764 272.949C592.117 272.949 591.094 273.688 590.583 274.795H590.441V273.091H588.821V284H590.497V277.438ZM601.742 284.114C602.445 284.114 603.02 283.538 603.02 282.835C603.02 282.132 602.445 281.557 601.742 281.557C601.039 281.557 600.464 282.132 600.464 282.835C600.464 283.538 601.039 284.114 601.742 284.114Z" fill="#282848"/>
<rect x="96" y="219" width="248" height="38" rx="19" stroke="#282848" stroke-width="2"/>
<rect x="386" y="178" width="325" height="38" rx="19" stroke="#282848" stroke-width="2"/>
<path d="M483.139 108.01C482.592 107.933 482.087 108.314 482.01 108.861L480.758 117.773C480.681 118.32 481.062 118.826 481.609 118.903C482.156 118.98 482.661 118.599 482.738 118.052L483.851 110.129L491.773 111.242C492.32 111.319 492.826 110.938 492.903 110.391C492.98 109.844 492.599 109.339 492.052 109.262L483.139 108.01ZM535.799 177.398L483.799 108.398L482.201 109.602L534.201 178.602L535.799 177.398Z" fill="#282848"/>
<path d="M176.678 323.947C177.201 324.125 177.769 323.845 177.947 323.322L180.845 314.802C181.023 314.279 180.744 313.711 180.221 313.533C179.698 313.355 179.13 313.635 178.952 314.158L176.375 321.731L168.802 319.155C168.279 318.977 167.711 319.257 167.533 319.779C167.355 320.302 167.635 320.87 168.158 321.048L176.678 323.947ZM144.102 258.443L176.103 323.442L177.897 322.558L145.896 257.559L144.102 258.443Z" fill="#282848"/>
<path d="M376.727 80H373.844V90.9062H373.703L366.172 80H363.578V96H366.477V85.1016H366.609L374.148 96H376.727V80ZM384.994 96.2344C388.51 96.2344 390.744 93.7578 390.744 90.0469C390.744 86.3281 388.51 83.8438 384.994 83.8438C381.479 83.8438 379.244 86.3281 379.244 90.0469C379.244 93.7578 381.479 96.2344 384.994 96.2344ZM385.01 93.9687C383.064 93.9687 382.111 92.2344 382.111 90.0391C382.111 87.8437 383.064 86.0859 385.01 86.0859C386.924 86.0859 387.877 87.8437 387.877 90.0391C387.877 92.2344 386.924 93.9687 385.01 93.9687ZM399.137 84H396.77V81.125H393.941V84H392.238V86.1875H393.941V92.8594C393.926 95.1172 395.566 96.2266 397.691 96.1641C398.496 96.1406 399.051 95.9844 399.355 95.8828L398.879 93.6719C398.723 93.7109 398.402 93.7812 398.051 93.7812C397.34 93.7812 396.77 93.5312 396.77 92.3906V86.1875H399.137V84ZM406.959 96H409.787V88.9453C409.787 87.4219 410.936 86.3437 412.49 86.3437C412.967 86.3437 413.561 86.4297 413.803 86.5078V83.9062C413.545 83.8594 413.1 83.8281 412.787 83.8281C411.412 83.8281 410.264 84.6094 409.826 86H409.701V84H406.959V96ZM420.5 96.2344C423.297 96.2344 425.219 94.8672 425.719 92.7812L423.078 92.4844C422.695 93.5 421.758 94.0312 420.539 94.0312C418.711 94.0312 417.5 92.8281 417.477 90.7734H425.836V89.9062C425.836 85.6953 423.305 83.8438 420.352 83.8438C416.914 83.8438 414.672 86.3672 414.672 90.0703C414.672 93.8359 416.883 96.2344 420.5 96.2344ZM417.484 88.8672C417.57 87.3359 418.703 86.0469 420.391 86.0469C422.016 86.0469 423.109 87.2344 423.125 88.8672H417.484ZM431.057 80H428.229V96H431.057V80ZM439.277 96.2344C442.074 96.2344 443.996 94.8672 444.496 92.7812L441.855 92.4844C441.473 93.5 440.535 94.0312 439.316 94.0312C437.488 94.0312 436.277 92.8281 436.254 90.7734H444.613V89.9062C444.613 85.6953 442.082 83.8438 439.129 83.8438C435.691 83.8438 433.449 86.3672 433.449 90.0703C433.449 93.8359 435.66 96.2344 439.277 96.2344ZM436.262 88.8672C436.348 87.3359 437.48 86.0469 439.168 86.0469C440.793 86.0469 441.887 87.2344 441.902 88.8672H436.262ZM457.381 84H454.373L451.607 92.9141H451.482L448.725 84H445.709L449.982 96H453.107L457.381 84ZM462.447 96.2422C464.33 96.2422 465.455 95.3594 465.971 94.3516H466.064V96H468.783V87.9687C468.783 84.7969 466.197 83.8438 463.908 83.8438C461.385 83.8438 459.447 84.9687 458.822 87.1562L461.463 87.5312C461.744 86.7109 462.541 86.0078 463.924 86.0078C465.236 86.0078 465.955 86.6797 465.955 87.8594V87.9062C465.955 88.7188 465.104 88.7578 462.986 88.9844C460.658 89.2344 458.432 89.9297 458.432 92.6328C458.432 94.9922 460.158 96.2422 462.447 96.2422ZM463.182 94.1641C462.002 94.1641 461.158 93.625 461.158 92.5859C461.158 91.5 462.104 91.0469 463.369 90.8672C464.111 90.7656 465.596 90.5781 465.963 90.2812V91.6953C465.963 93.0312 464.885 94.1641 463.182 94.1641ZM474.455 88.9687C474.455 87.2344 475.502 86.2344 476.994 86.2344C478.455 86.2344 479.33 87.1953 479.33 88.7969V96H482.158V88.3594C482.166 85.4844 480.525 83.8438 478.049 83.8438C476.252 83.8438 475.018 84.7031 474.471 86.0391H474.33V84H471.627V96H474.455V88.9687ZM491.025 84H488.658V81.125H485.83V84H484.127V86.1875H485.83V92.8594C485.814 95.1172 487.455 96.2266 489.58 96.1641C490.385 96.1406 490.939 95.9844 491.244 95.8828L490.768 93.6719C490.611 93.7109 490.291 93.7812 489.939 93.7812C489.229 93.7812 488.658 93.5312 488.658 92.3906V86.1875H491.025V84ZM509.684 100.5V84H506.902V85.9844H506.738C506.309 85.1172 505.426 83.8438 503.309 83.8438C500.535 83.8438 498.355 86.0156 498.355 90.0156C498.355 93.9687 500.473 96.2109 503.301 96.2109C505.363 96.2109 506.293 94.9844 506.738 94.1094H506.855V100.5H509.684ZM506.91 90C506.91 92.3281 505.895 93.8906 504.09 93.8906C502.223 93.8906 501.238 92.25 501.238 90C501.238 87.7656 502.207 86.1641 504.09 86.1641C505.91 86.1641 506.91 87.6719 506.91 90ZM520.246 90.9531C520.246 92.7812 518.941 93.6875 517.691 93.6875C516.332 93.6875 515.426 92.7266 515.426 91.2031V84H512.598V91.6406C512.598 94.5234 514.238 96.1563 516.598 96.1563C518.395 96.1563 519.66 95.2109 520.207 93.8672H520.332V96H523.074V84H520.246V90.9531ZM531.295 96.2344C534.092 96.2344 536.014 94.8672 536.514 92.7812L533.873 92.4844C533.49 93.5 532.553 94.0312 531.334 94.0312C529.506 94.0312 528.295 92.8281 528.271 90.7734H536.631V89.9062C536.631 85.6953 534.1 83.8438 531.146 83.8438C527.709 83.8438 525.467 86.3672 525.467 90.0703C525.467 93.8359 527.678 96.2344 531.295 96.2344ZM528.279 88.8672C528.365 87.3359 529.498 86.0469 531.186 86.0469C532.811 86.0469 533.904 87.2344 533.92 88.8672H528.279ZM548.508 87.1719C548.117 85.1406 546.492 83.8438 543.68 83.8438C540.789 83.8438 538.82 85.2656 538.828 87.4844C538.82 89.2344 539.898 90.3906 542.203 90.8672L544.25 91.2969C545.352 91.5391 545.867 91.9844 545.867 92.6641C545.867 93.4844 544.977 94.1016 543.633 94.1016C542.336 94.1016 541.492 93.5391 541.25 92.4609L538.492 92.7266C538.844 94.9297 540.695 96.2344 543.641 96.2344C546.641 96.2344 548.758 94.6797 548.766 92.4062C548.758 90.6953 547.656 89.6484 545.391 89.1562L543.344 88.7188C542.125 88.4453 541.641 88.0234 541.648 87.3281C541.641 86.5156 542.539 85.9531 543.719 85.9531C545.023 85.9531 545.711 86.6641 545.93 87.4531L548.508 87.1719ZM557.09 84H554.723V81.125H551.895V84H550.191V86.1875H551.895V92.8594C551.879 95.1172 553.52 96.2266 555.645 96.1641C556.449 96.1406 557.004 95.9844 557.309 95.8828L556.832 93.6719C556.676 93.7109 556.355 93.7812 556.004 93.7812C555.293 93.7812 554.723 93.5312 554.723 92.3906V86.1875H557.09V84ZM559.455 96H562.283V84H559.455V96ZM560.877 82.2969C561.775 82.2969 562.51 81.6094 562.51 80.7656C562.51 79.9141 561.775 79.2266 560.877 79.2266C559.971 79.2266 559.236 79.9141 559.236 80.7656C559.236 81.6094 559.971 82.2969 560.877 82.2969ZM570.426 96.2344C573.941 96.2344 576.176 93.7578 576.176 90.0469C576.176 86.3281 573.941 83.8438 570.426 83.8438C566.91 83.8438 564.676 86.3281 564.676 90.0469C564.676 93.7578 566.91 96.2344 570.426 96.2344ZM570.441 93.9687C568.496 93.9687 567.543 92.2344 567.543 90.0391C567.543 87.8437 568.496 86.0859 570.441 86.0859C572.355 86.0859 573.309 87.8437 573.309 90.0391C573.309 92.2344 572.355 93.9687 570.441 93.9687ZM581.404 88.9687C581.404 87.2344 582.451 86.2344 583.943 86.2344C585.404 86.2344 586.279 87.1953 586.279 88.7969V96H589.107V88.3594C589.115 85.4844 587.475 83.8438 584.998 83.8438C583.201 83.8438 581.967 84.7031 581.42 86.0391H581.279V84H578.576V96H581.404V88.9687ZM601.467 87.1719C601.076 85.1406 599.451 83.8438 596.639 83.8438C593.748 83.8438 591.779 85.2656 591.787 87.4844C591.779 89.2344 592.857 90.3906 595.162 90.8672L597.209 91.2969C598.311 91.5391 598.826 91.9844 598.826 92.6641C598.826 93.4844 597.936 94.1016 596.592 94.1016C595.295 94.1016 594.451 93.5391 594.209 92.4609L591.451 92.7266C591.803 94.9297 593.654 96.2344 596.6 96.2344C599.6 96.2344 601.717 94.6797 601.725 92.4062C601.717 90.6953 600.615 89.6484 598.35 89.1562L596.303 88.7188C595.084 88.4453 594.6 88.0234 594.607 87.3281C594.6 86.5156 595.498 85.9531 596.678 85.9531C597.982 85.9531 598.67 86.6641 598.889 87.4531L601.467 87.1719Z" fill="#282848"/>
<path d="M96.5781 354H99.4766V348.141H102.43L105.57 354H108.805L105.344 347.656C107.227 346.898 108.219 345.289 108.219 343.117C108.219 340.062 106.25 338 102.578 338H96.5781V354ZM99.4766 345.734V340.422H102.133C104.297 340.422 105.266 341.414 105.266 343.117C105.266 344.82 104.297 345.734 102.148 345.734H99.4766ZM115.902 354.234C118.699 354.234 120.621 352.867 121.121 350.781L118.48 350.484C118.098 351.5 117.16 352.031 115.941 352.031C114.113 352.031 112.902 350.828 112.879 348.773H121.238V347.906C121.238 343.695 118.707 341.844 115.754 341.844C112.316 341.844 110.074 344.367 110.074 348.07C110.074 351.836 112.285 354.234 115.902 354.234ZM112.887 346.867C112.973 345.336 114.105 344.047 115.793 344.047C117.418 344.047 118.512 345.234 118.527 346.867H112.887ZM123.631 358.5H126.459V352.109H126.576C127.021 352.984 127.951 354.211 130.014 354.211C132.842 354.211 134.959 351.969 134.959 348.016C134.959 344.016 132.779 341.844 130.006 341.844C127.889 341.844 127.006 343.117 126.576 343.984H126.412V342H123.631V358.5ZM126.404 348C126.404 345.672 127.404 344.164 129.225 344.164C131.107 344.164 132.076 345.766 132.076 348C132.076 350.25 131.092 351.891 129.225 351.891C127.42 351.891 126.404 350.328 126.404 348ZM142.693 354.234C145.49 354.234 147.412 352.867 147.912 350.781L145.271 350.484C144.889 351.5 143.951 352.031 142.732 352.031C140.904 352.031 139.693 350.828 139.67 348.773H148.029V347.906C148.029 343.695 145.498 341.844 142.545 341.844C139.107 341.844 136.865 344.367 136.865 348.07C136.865 351.836 139.076 354.234 142.693 354.234ZM139.678 346.867C139.764 345.336 140.896 344.047 142.584 344.047C144.209 344.047 145.303 345.234 145.318 346.867H139.678ZM153.875 354.242C155.758 354.242 156.883 353.359 157.398 352.352H157.492V354H160.211V345.969C160.211 342.797 157.625 341.844 155.336 341.844C152.813 341.844 150.875 342.969 150.25 345.156L152.891 345.531C153.172 344.711 153.969 344.008 155.352 344.008C156.664 344.008 157.383 344.68 157.383 345.859V345.906C157.383 346.719 156.531 346.758 154.414 346.984C152.086 347.234 149.859 347.93 149.859 350.633C149.859 352.992 151.586 354.242 153.875 354.242ZM154.609 352.164C153.43 352.164 152.586 351.625 152.586 350.586C152.586 349.5 153.531 349.047 154.797 348.867C155.539 348.766 157.023 348.578 157.391 348.281V349.695C157.391 351.031 156.313 352.164 154.609 352.164ZM169.047 342H166.68V339.125H163.852V342H162.148V344.187H163.852V350.859C163.836 353.117 165.477 354.227 167.602 354.164C168.406 354.141 168.961 353.984 169.266 353.883L168.789 351.672C168.633 351.711 168.313 351.781 167.961 351.781C167.25 351.781 166.68 351.531 166.68 350.391V344.187H169.047V342ZM176.596 354.234C179.393 354.234 181.314 352.867 181.814 350.781L179.174 350.484C178.791 351.5 177.854 352.031 176.635 352.031C174.807 352.031 173.596 350.828 173.572 348.773H181.932V347.906C181.932 343.695 179.4 341.844 176.447 341.844C173.01 341.844 170.768 344.367 170.768 348.07C170.768 351.836 172.979 354.234 176.596 354.234ZM173.58 346.867C173.666 345.336 174.799 344.047 176.486 344.047C178.111 344.047 179.205 345.234 179.221 346.867H173.58ZM188.777 354.211C190.84 354.211 191.77 352.984 192.215 352.109H192.387V354H195.168V338H192.332V343.984H192.215C191.785 343.117 190.902 341.844 188.785 341.844C186.012 341.844 183.832 344.016 183.832 348.016C183.832 351.969 185.949 354.211 188.777 354.211ZM189.566 351.891C187.699 351.891 186.715 350.25 186.715 348C186.715 345.766 187.684 344.164 189.566 344.164C191.387 344.164 192.387 345.672 192.387 348C192.387 350.328 191.371 351.891 189.566 351.891ZM214.475 358.5V342H211.693V343.984H211.529C211.1 343.117 210.217 341.844 208.1 341.844C205.326 341.844 203.146 344.016 203.146 348.016C203.146 351.969 205.264 354.211 208.092 354.211C210.154 354.211 211.084 352.984 211.529 352.109H211.646V358.5H214.475ZM211.701 348C211.701 350.328 210.686 351.891 208.881 351.891C207.014 351.891 206.029 350.25 206.029 348C206.029 345.766 206.998 344.164 208.881 344.164C210.701 344.164 211.701 345.672 211.701 348ZM225.037 348.953C225.037 350.781 223.732 351.687 222.482 351.687C221.123 351.687 220.217 350.727 220.217 349.203V342H217.389V349.641C217.389 352.523 219.029 354.156 221.389 354.156C223.186 354.156 224.451 353.211 224.998 351.867H225.123V354H227.865V342H225.037V348.953ZM236.086 354.234C238.883 354.234 240.805 352.867 241.305 350.781L238.664 350.484C238.281 351.5 237.344 352.031 236.125 352.031C234.297 352.031 233.086 350.828 233.063 348.773H241.422V347.906C241.422 343.695 238.891 341.844 235.938 341.844C232.5 341.844 230.258 344.367 230.258 348.07C230.258 351.836 232.469 354.234 236.086 354.234ZM233.07 346.867C233.156 345.336 234.289 344.047 235.977 344.047C237.602 344.047 238.695 345.234 238.711 346.867H233.07ZM253.299 345.172C252.908 343.141 251.283 341.844 248.471 341.844C245.58 341.844 243.611 343.266 243.619 345.484C243.611 347.234 244.689 348.391 246.994 348.867L249.041 349.297C250.143 349.539 250.658 349.984 250.658 350.664C250.658 351.484 249.768 352.102 248.424 352.102C247.127 352.102 246.283 351.539 246.041 350.461L243.283 350.727C243.635 352.93 245.486 354.234 248.432 354.234C251.432 354.234 253.549 352.68 253.557 350.406C253.549 348.695 252.447 347.648 250.182 347.156L248.135 346.719C246.916 346.445 246.432 346.023 246.439 345.328C246.432 344.516 247.33 343.953 248.51 343.953C249.814 343.953 250.502 344.664 250.721 345.453L253.299 345.172ZM261.881 342H259.514V339.125H256.686V342H254.982V344.187H256.686V350.859C256.67 353.117 258.311 354.227 260.436 354.164C261.24 354.141 261.795 353.984 262.1 353.883L261.623 351.672C261.467 351.711 261.146 351.781 260.795 351.781C260.084 351.781 259.514 351.531 259.514 350.391V344.187H261.881V342ZM264.246 354H267.074V342H264.246V354ZM265.668 340.297C266.566 340.297 267.301 339.609 267.301 338.766C267.301 337.914 266.566 337.227 265.668 337.227C264.762 337.227 264.027 337.914 264.027 338.766C264.027 339.609 264.762 340.297 265.668 340.297ZM275.217 354.234C278.732 354.234 280.967 351.758 280.967 348.047C280.967 344.328 278.732 341.844 275.217 341.844C271.701 341.844 269.467 344.328 269.467 348.047C269.467 351.758 271.701 354.234 275.217 354.234ZM275.232 351.969C273.287 351.969 272.334 350.234 272.334 348.039C272.334 345.844 273.287 344.086 275.232 344.086C277.146 344.086 278.1 345.844 278.1 348.039C278.1 350.234 277.146 351.969 275.232 351.969ZM286.195 346.969C286.195 345.234 287.242 344.234 288.734 344.234C290.195 344.234 291.07 345.195 291.07 346.797V354H293.898V346.359C293.906 343.484 292.266 341.844 289.789 341.844C287.992 341.844 286.758 342.703 286.211 344.039H286.07V342H283.367V354H286.195V346.969ZM306.258 345.172C305.867 343.141 304.242 341.844 301.43 341.844C298.539 341.844 296.57 343.266 296.578 345.484C296.57 347.234 297.648 348.391 299.953 348.867L302 349.297C303.102 349.539 303.617 349.984 303.617 350.664C303.617 351.484 302.727 352.102 301.383 352.102C300.086 352.102 299.242 351.539 299 350.461L296.242 350.727C296.594 352.93 298.445 354.234 301.391 354.234C304.391 354.234 306.508 352.68 306.516 350.406C306.508 348.695 305.406 347.648 303.141 347.156L301.094 346.719C299.875 346.445 299.391 346.023 299.398 345.328C299.391 344.516 300.289 343.953 301.469 343.953C302.773 343.953 303.461 344.664 303.68 345.453L306.258 345.172Z" fill="#282848"/>
</svg>
