<svg width="800" height="405" viewBox="0 0 800 405" fill="none" xmlns="http://www.w3.org/2000/svg">
<rect width="800" height="405" rx="12" fill="#F5F7FA"/>
<rect x="116" y="72" width="92" height="252" rx="4" fill="#282848"/>
<path d="M127.907 57.625C127.643 57.9395 127.326 58.1924 126.957 58.3838C126.592 58.5752 126.191 58.6709 125.754 58.6709C125.18 58.6709 124.678 58.5296 124.25 58.2471C123.826 57.9645 123.498 57.568 123.266 57.0576C123.033 56.5426 122.917 55.9753 122.917 55.3555C122.917 54.6901 123.042 54.0908 123.293 53.5576C123.548 53.0244 123.908 52.6165 124.373 52.334C124.838 52.0514 125.38 51.9102 126 51.9102C126.984 51.9102 127.759 52.2793 128.324 53.0176C128.894 53.7513 129.179 54.7539 129.179 56.0254V56.3945C129.179 58.3314 128.796 59.7464 128.03 60.6396C127.265 61.5283 126.109 61.984 124.564 62.0068H124.318V60.9404H124.585C125.629 60.9222 126.431 60.651 126.991 60.127C127.552 59.5983 127.857 58.7643 127.907 57.625ZM125.959 57.625C126.383 57.625 126.772 57.4951 127.128 57.2354C127.488 56.9756 127.75 56.6543 127.914 56.2715V55.7656C127.914 54.9362 127.734 54.2617 127.374 53.7422C127.014 53.2227 126.558 52.9629 126.007 52.9629C125.451 52.9629 125.004 53.1771 124.667 53.6055C124.33 54.0293 124.161 54.5898 124.161 55.2871C124.161 55.9661 124.323 56.5267 124.646 56.9688C124.975 57.4062 125.412 57.625 125.959 57.625ZM136.261 58.6572H137.642V59.6895H136.261V62H134.989V59.6895H130.457V58.9443L134.914 52.0469H136.261V58.6572ZM131.893 58.6572H134.989V53.7764L134.839 54.0498L131.893 58.6572ZM143.575 54.6035L143.609 55.4238C144.152 54.7858 144.883 54.4668 145.804 54.4668C146.838 54.4668 147.542 54.8633 147.916 55.6562C148.162 55.3008 148.481 55.0137 148.873 54.7949C149.27 54.5762 149.737 54.4668 150.274 54.4668C151.897 54.4668 152.722 55.3258 152.749 57.0439V62H151.484V57.1191C151.484 56.5905 151.364 56.1963 151.122 55.9365C150.881 55.6722 150.475 55.54 149.905 55.54C149.436 55.54 149.046 55.6813 148.736 55.9639C148.426 56.2419 148.246 56.6178 148.196 57.0918V62H146.925V57.1533C146.925 56.0778 146.398 55.54 145.346 55.54C144.516 55.54 143.949 55.8932 143.644 56.5996V62H142.379V54.6035H143.575ZM157.732 62.1367C156.73 62.1367 155.914 61.8086 155.285 61.1523C154.656 60.4915 154.342 59.6097 154.342 58.5068V58.2744C154.342 57.5407 154.481 56.8867 154.759 56.3125C155.041 55.7337 155.433 55.2826 155.935 54.959C156.44 54.6309 156.987 54.4668 157.575 54.4668C158.537 54.4668 159.284 54.7835 159.817 55.417C160.351 56.0505 160.617 56.9574 160.617 58.1377V58.6641H155.606C155.625 59.3932 155.837 59.9834 156.242 60.4346C156.652 60.8812 157.172 61.1045 157.801 61.1045C158.247 61.1045 158.626 61.0133 158.936 60.8311C159.245 60.6488 159.517 60.4072 159.749 60.1064L160.521 60.708C159.902 61.6605 158.972 62.1367 157.732 62.1367ZM157.575 55.5059C157.065 55.5059 156.636 55.6927 156.29 56.0664C155.944 56.4355 155.729 56.9551 155.647 57.625H159.353V57.5293C159.316 56.8867 159.143 56.39 158.833 56.0391C158.523 55.6836 158.104 55.5059 157.575 55.5059ZM163.283 54.6035L163.324 55.5332C163.889 54.8223 164.628 54.4668 165.539 54.4668C167.102 54.4668 167.891 55.3486 167.904 57.1123V62H166.64V57.1055C166.635 56.5723 166.512 56.1781 166.271 55.9229C166.034 55.6676 165.662 55.54 165.156 55.54C164.746 55.54 164.386 55.6494 164.076 55.8682C163.766 56.0869 163.525 56.374 163.352 56.7295V62H162.087V54.6035H163.283ZM171.527 52.8125V54.6035H172.908V55.5811H171.527V60.168C171.527 60.4642 171.589 60.6875 171.712 60.8379C171.835 60.9837 172.045 61.0566 172.341 61.0566C172.487 61.0566 172.687 61.0293 172.942 60.9746V62C172.61 62.0911 172.286 62.1367 171.972 62.1367C171.407 62.1367 170.98 61.9658 170.693 61.624C170.406 61.2822 170.263 60.7969 170.263 60.168V55.5811H168.916V54.6035H170.263V52.8125H171.527ZM175.766 62H174.501V54.6035H175.766V62ZM174.398 52.6416C174.398 52.4365 174.46 52.2633 174.583 52.1221C174.711 51.9808 174.897 51.9102 175.144 51.9102C175.39 51.9102 175.576 51.9808 175.704 52.1221C175.832 52.2633 175.896 52.4365 175.896 52.6416C175.896 52.8467 175.832 53.0176 175.704 53.1543C175.576 53.291 175.39 53.3594 175.144 53.3594C174.897 53.3594 174.711 53.291 174.583 53.1543C174.46 53.0176 174.398 52.8467 174.398 52.6416ZM177.461 58.2334C177.461 57.5088 177.602 56.8571 177.885 56.2783C178.172 55.6995 178.568 55.2529 179.074 54.9385C179.585 54.624 180.166 54.4668 180.817 54.4668C181.825 54.4668 182.638 54.8154 183.258 55.5127C183.882 56.21 184.194 57.1374 184.194 58.2949V58.3838C184.194 59.1038 184.055 59.751 183.777 60.3252C183.504 60.8949 183.11 61.3392 182.595 61.6582C182.084 61.9772 181.496 62.1367 180.831 62.1367C179.828 62.1367 179.015 61.7881 178.391 61.0908C177.771 60.3936 177.461 59.4707 177.461 58.3223V58.2334ZM178.732 58.3838C178.732 59.2041 178.922 59.8626 179.3 60.3594C179.683 60.8561 180.193 61.1045 180.831 61.1045C181.474 61.1045 181.984 60.8538 182.362 60.3525C182.741 59.8467 182.93 59.1403 182.93 58.2334C182.93 57.4222 182.736 56.766 182.349 56.2646C181.966 55.7588 181.455 55.5059 180.817 55.5059C180.193 55.5059 179.689 55.7542 179.307 56.251C178.924 56.7477 178.732 57.4587 178.732 58.3838ZM186.977 54.6035L187.018 55.5332C187.583 54.8223 188.321 54.4668 189.232 54.4668C190.796 54.4668 191.584 55.3486 191.598 57.1123V62H190.333V57.1055C190.328 56.5723 190.205 56.1781 189.964 55.9229C189.727 55.6676 189.355 55.54 188.85 55.54C188.439 55.54 188.079 55.6494 187.77 55.8682C187.46 56.0869 187.218 56.374 187.045 56.7295V62H185.78V54.6035H186.977ZM197.812 60.0381C197.812 59.6963 197.682 59.432 197.422 59.2451C197.167 59.0537 196.718 58.8896 196.075 58.7529C195.437 58.6162 194.929 58.4521 194.551 58.2607C194.177 58.0693 193.899 57.8415 193.717 57.5771C193.539 57.3128 193.45 56.9984 193.45 56.6338C193.45 56.0277 193.705 55.515 194.216 55.0957C194.731 54.6764 195.387 54.4668 196.185 54.4668C197.023 54.4668 197.702 54.6833 198.222 55.1162C198.746 55.5492 199.008 56.1029 199.008 56.7773H197.736C197.736 56.431 197.588 56.1325 197.292 55.8818C197 55.6312 196.631 55.5059 196.185 55.5059C195.724 55.5059 195.364 55.6061 195.104 55.8066C194.845 56.0072 194.715 56.2692 194.715 56.5928C194.715 56.8981 194.836 57.1283 195.077 57.2832C195.319 57.4382 195.754 57.5863 196.383 57.7275C197.016 57.8688 197.529 58.0374 197.921 58.2334C198.313 58.4294 198.602 58.6663 198.789 58.9443C198.98 59.2178 199.076 59.5527 199.076 59.9492C199.076 60.61 198.812 61.141 198.283 61.542C197.755 61.9385 197.069 62.1367 196.226 62.1367C195.633 62.1367 195.109 62.0319 194.653 61.8223C194.198 61.6126 193.84 61.321 193.58 60.9473C193.325 60.569 193.197 60.1611 193.197 59.7236H194.462C194.485 60.1475 194.653 60.4847 194.968 60.7354C195.287 60.9814 195.706 61.1045 196.226 61.1045C196.704 61.1045 197.087 61.0088 197.374 60.8174C197.666 60.6214 197.812 60.3617 197.812 60.0381Z" fill="#282848"/>
<path d="M127.026 349.345C127.026 350.306 126.874 351.136 126.568 351.833C126.263 352.526 125.835 353.068 125.283 353.46L127.061 354.854L126.165 355.682L124.066 354.014C123.738 354.096 123.392 354.137 123.027 354.137C122.243 354.137 121.549 353.945 120.942 353.562C120.336 353.175 119.865 352.626 119.527 351.915C119.195 351.2 119.024 350.372 119.015 349.434V348.716C119.015 347.759 119.181 346.913 119.514 346.18C119.846 345.446 120.316 344.885 120.922 344.498C121.533 344.106 122.23 343.91 123.014 343.91C123.816 343.91 124.52 344.104 125.126 344.491C125.737 344.879 126.206 345.437 126.534 346.166C126.862 346.891 127.026 347.738 127.026 348.709V349.345ZM125.714 348.702C125.714 347.531 125.479 346.629 125.01 345.995C124.545 345.357 123.88 345.038 123.014 345.038C122.189 345.038 121.537 345.355 121.059 345.988C120.585 346.617 120.341 347.492 120.327 348.613V349.345C120.327 350.484 120.564 351.382 121.038 352.038C121.517 352.694 122.18 353.022 123.027 353.022C123.875 353.022 124.531 352.715 124.996 352.1C125.461 351.48 125.7 350.593 125.714 349.44V348.702ZM133.418 353.269C132.926 353.847 132.203 354.137 131.251 354.137C130.463 354.137 129.861 353.909 129.446 353.453C129.036 352.993 128.829 352.314 128.824 351.416V346.604H130.089V351.382C130.089 352.503 130.545 353.063 131.456 353.063C132.422 353.063 133.065 352.703 133.384 351.983V346.604H134.648V354H133.445L133.418 353.269ZM139.646 354.137C138.643 354.137 137.827 353.809 137.198 353.152C136.569 352.492 136.255 351.61 136.255 350.507V350.274C136.255 349.541 136.394 348.887 136.672 348.312C136.954 347.734 137.346 347.283 137.848 346.959C138.354 346.631 138.9 346.467 139.488 346.467C140.45 346.467 141.197 346.784 141.73 347.417C142.264 348.05 142.53 348.957 142.53 350.138V350.664H137.52C137.538 351.393 137.75 351.983 138.155 352.435C138.565 352.881 139.085 353.104 139.714 353.104C140.16 353.104 140.539 353.013 140.849 352.831C141.159 352.649 141.43 352.407 141.662 352.106L142.435 352.708C141.815 353.66 140.885 354.137 139.646 354.137ZM139.488 347.506C138.978 347.506 138.549 347.693 138.203 348.066C137.857 348.436 137.643 348.955 137.561 349.625H141.266V349.529C141.229 348.887 141.056 348.39 140.746 348.039C140.436 347.684 140.017 347.506 139.488 347.506ZM148.307 352.038C148.307 351.696 148.177 351.432 147.917 351.245C147.662 351.054 147.213 350.89 146.57 350.753C145.932 350.616 145.424 350.452 145.046 350.261C144.672 350.069 144.394 349.841 144.212 349.577C144.034 349.313 143.945 348.998 143.945 348.634C143.945 348.028 144.201 347.515 144.711 347.096C145.226 346.676 145.882 346.467 146.68 346.467C147.518 346.467 148.197 346.683 148.717 347.116C149.241 347.549 149.503 348.103 149.503 348.777H148.231C148.231 348.431 148.083 348.132 147.787 347.882C147.495 347.631 147.126 347.506 146.68 347.506C146.219 347.506 145.859 347.606 145.6 347.807C145.34 348.007 145.21 348.269 145.21 348.593C145.21 348.898 145.331 349.128 145.572 349.283C145.814 349.438 146.249 349.586 146.878 349.728C147.511 349.869 148.024 350.037 148.416 350.233C148.808 350.429 149.097 350.666 149.284 350.944C149.476 351.218 149.571 351.553 149.571 351.949C149.571 352.61 149.307 353.141 148.778 353.542C148.25 353.938 147.564 354.137 146.721 354.137C146.128 354.137 145.604 354.032 145.148 353.822C144.693 353.613 144.335 353.321 144.075 352.947C143.82 352.569 143.692 352.161 143.692 351.724H144.957C144.98 352.147 145.148 352.485 145.463 352.735C145.782 352.981 146.201 353.104 146.721 353.104C147.199 353.104 147.582 353.009 147.869 352.817C148.161 352.621 148.307 352.362 148.307 352.038ZM152.935 344.812V346.604H154.315V347.581H152.935V352.168C152.935 352.464 152.996 352.688 153.119 352.838C153.242 352.984 153.452 353.057 153.748 353.057C153.894 353.057 154.094 353.029 154.35 352.975V354C154.017 354.091 153.693 354.137 153.379 354.137C152.814 354.137 152.388 353.966 152.101 353.624C151.813 353.282 151.67 352.797 151.67 352.168V347.581H150.323V346.604H151.67V344.812H152.935ZM157.173 354H155.908V346.604H157.173V354ZM155.806 344.642C155.806 344.437 155.867 344.263 155.99 344.122C156.118 343.981 156.305 343.91 156.551 343.91C156.797 343.91 156.984 343.981 157.111 344.122C157.239 344.263 157.303 344.437 157.303 344.642C157.303 344.847 157.239 345.018 157.111 345.154C156.984 345.291 156.797 345.359 156.551 345.359C156.305 345.359 156.118 345.291 155.99 345.154C155.867 345.018 155.806 344.847 155.806 344.642ZM158.868 350.233C158.868 349.509 159.009 348.857 159.292 348.278C159.579 347.7 159.976 347.253 160.481 346.938C160.992 346.624 161.573 346.467 162.225 346.467C163.232 346.467 164.045 346.815 164.665 347.513C165.289 348.21 165.602 349.137 165.602 350.295V350.384C165.602 351.104 165.463 351.751 165.185 352.325C164.911 352.895 164.517 353.339 164.002 353.658C163.492 353.977 162.904 354.137 162.238 354.137C161.236 354.137 160.422 353.788 159.798 353.091C159.178 352.394 158.868 351.471 158.868 350.322V350.233ZM160.14 350.384C160.14 351.204 160.329 351.863 160.707 352.359C161.09 352.856 161.6 353.104 162.238 353.104C162.881 353.104 163.391 352.854 163.77 352.353C164.148 351.847 164.337 351.14 164.337 350.233C164.337 349.422 164.143 348.766 163.756 348.265C163.373 347.759 162.863 347.506 162.225 347.506C161.6 347.506 161.097 347.754 160.714 348.251C160.331 348.748 160.14 349.459 160.14 350.384ZM168.384 346.604L168.425 347.533C168.99 346.822 169.728 346.467 170.64 346.467C172.203 346.467 172.991 347.349 173.005 349.112V354H171.74V349.105C171.736 348.572 171.613 348.178 171.371 347.923C171.134 347.668 170.763 347.54 170.257 347.54C169.847 347.54 169.487 347.649 169.177 347.868C168.867 348.087 168.625 348.374 168.452 348.729V354H167.188V346.604H168.384ZM176.108 346.604L176.149 347.533C176.715 346.822 177.453 346.467 178.364 346.467C179.927 346.467 180.716 347.349 180.729 349.112V354H179.465V349.105C179.46 348.572 179.337 348.178 179.096 347.923C178.859 347.668 178.487 347.54 177.981 347.54C177.571 347.54 177.211 347.649 176.901 347.868C176.591 348.087 176.35 348.374 176.177 348.729V354H174.912V346.604H176.108ZM187.203 354C187.13 353.854 187.071 353.594 187.025 353.221C186.438 353.831 185.736 354.137 184.92 354.137C184.191 354.137 183.591 353.932 183.122 353.521C182.657 353.107 182.425 352.583 182.425 351.949C182.425 351.179 182.716 350.582 183.3 350.158C183.888 349.73 184.713 349.516 185.774 349.516H187.005V348.935C187.005 348.493 186.873 348.142 186.608 347.882C186.344 347.618 185.954 347.485 185.439 347.485C184.988 347.485 184.61 347.599 184.305 347.827C183.999 348.055 183.847 348.331 183.847 348.654H182.575C182.575 348.285 182.705 347.93 182.965 347.588C183.229 347.242 183.585 346.968 184.031 346.768C184.482 346.567 184.977 346.467 185.515 346.467C186.367 346.467 187.035 346.681 187.518 347.109C188.001 347.533 188.251 348.119 188.27 348.866V352.271C188.27 352.95 188.356 353.49 188.529 353.891V354H187.203ZM185.104 353.036C185.501 353.036 185.877 352.934 186.232 352.729C186.588 352.523 186.845 352.257 187.005 351.929V350.411H186.014C184.464 350.411 183.689 350.865 183.689 351.771C183.689 352.168 183.822 352.478 184.086 352.701C184.35 352.924 184.69 353.036 185.104 353.036ZM191.626 354H190.361V346.604H191.626V354ZM190.259 344.642C190.259 344.437 190.32 344.263 190.443 344.122C190.571 343.981 190.758 343.91 191.004 343.91C191.25 343.91 191.437 343.981 191.564 344.122C191.692 344.263 191.756 344.437 191.756 344.642C191.756 344.847 191.692 345.018 191.564 345.154C191.437 345.291 191.25 345.359 191.004 345.359C190.758 345.359 190.571 345.291 190.443 345.154C190.32 345.018 190.259 344.847 190.259 344.642ZM197.231 347.738C197.04 347.706 196.833 347.69 196.609 347.69C195.78 347.69 195.217 348.044 194.921 348.75V354H193.656V346.604H194.887L194.907 347.458C195.322 346.797 195.91 346.467 196.671 346.467C196.917 346.467 197.104 346.499 197.231 346.562V347.738ZM201.333 354.137C200.33 354.137 199.515 353.809 198.886 353.152C198.257 352.492 197.942 351.61 197.942 350.507V350.274C197.942 349.541 198.081 348.887 198.359 348.312C198.642 347.734 199.034 347.283 199.535 346.959C200.041 346.631 200.588 346.467 201.176 346.467C202.137 346.467 202.885 346.784 203.418 347.417C203.951 348.05 204.218 348.957 204.218 350.138V350.664H199.207C199.225 351.393 199.437 351.983 199.843 352.435C200.253 352.881 200.772 353.104 201.401 353.104C201.848 353.104 202.226 353.013 202.536 352.831C202.846 352.649 203.117 352.407 203.35 352.106L204.122 352.708C203.502 353.66 202.573 354.137 201.333 354.137ZM201.176 347.506C200.665 347.506 200.237 347.693 199.891 348.066C199.544 348.436 199.33 348.955 199.248 349.625H202.953V349.529C202.917 348.887 202.743 348.39 202.434 348.039C202.124 347.684 201.704 347.506 201.176 347.506Z" fill="#282848"/>
<rect x="232" y="104" width="92" height="220" rx="4" fill="#39395A"/>
<path d="M277.002 86.6445C277.002 87.1413 276.87 87.5833 276.605 87.9707C276.346 88.3581 275.993 88.6611 275.546 88.8799C276.065 89.1032 276.476 89.429 276.776 89.8574C277.082 90.2858 277.234 90.7712 277.234 91.3135C277.234 92.1748 276.943 92.8607 276.359 93.3711C275.781 93.8815 275.017 94.1367 274.069 94.1367C273.112 94.1367 272.344 93.8815 271.766 93.3711C271.191 92.8561 270.904 92.1702 270.904 91.3135C270.904 90.7757 271.05 90.2904 271.342 89.8574C271.638 89.4245 272.046 89.0964 272.565 88.873C272.123 88.6543 271.775 88.3512 271.52 87.9639C271.264 87.5765 271.137 87.1367 271.137 86.6445C271.137 85.806 271.406 85.1406 271.943 84.6484C272.481 84.1562 273.19 83.9102 274.069 83.9102C274.944 83.9102 275.651 84.1562 276.188 84.6484C276.731 85.1406 277.002 85.806 277.002 86.6445ZM275.97 91.2861C275.97 90.7301 275.792 90.2767 275.437 89.9258C275.086 89.5749 274.625 89.3994 274.056 89.3994C273.486 89.3994 273.028 89.5726 272.682 89.9189C272.34 90.2653 272.169 90.721 272.169 91.2861C272.169 91.8512 272.335 92.2956 272.668 92.6191C273.005 92.9427 273.472 93.1045 274.069 93.1045C274.662 93.1045 275.127 92.9427 275.464 92.6191C275.801 92.291 275.97 91.8467 275.97 91.2861ZM274.069 84.9492C273.573 84.9492 273.169 85.1042 272.859 85.4141C272.554 85.7194 272.401 86.1364 272.401 86.665C272.401 87.1709 272.552 87.5811 272.853 87.8955C273.158 88.2054 273.563 88.3604 274.069 88.3604C274.575 88.3604 274.979 88.2054 275.279 87.8955C275.585 87.5811 275.737 87.1709 275.737 86.665C275.737 86.1592 275.58 85.7467 275.266 85.4277C274.951 85.1087 274.552 84.9492 274.069 84.9492ZM285.349 94H278.827V93.0908L282.272 89.2627C282.783 88.6839 283.134 88.2145 283.325 87.8545C283.521 87.4899 283.619 87.1139 283.619 86.7266C283.619 86.207 283.462 85.7809 283.147 85.4482C282.833 85.1156 282.414 84.9492 281.89 84.9492C281.261 84.9492 280.771 85.1292 280.42 85.4893C280.074 85.8447 279.9 86.3415 279.9 86.9795H278.636C278.636 86.0635 278.93 85.3229 279.518 84.7578C280.11 84.1927 280.901 83.9102 281.89 83.9102C282.815 83.9102 283.546 84.154 284.084 84.6416C284.622 85.1247 284.891 85.7695 284.891 86.5762C284.891 87.556 284.266 88.7227 283.018 90.0762L280.352 92.9678H285.349V94Z" fill="#282848"/>
<path d="M246.643 344.047V350.814C246.638 351.753 246.342 352.521 245.754 353.118C245.171 353.715 244.378 354.05 243.375 354.123L243.026 354.137C241.937 354.137 241.069 353.843 240.422 353.255C239.775 352.667 239.447 351.858 239.438 350.828V344.047H240.736V350.787C240.736 351.507 240.935 352.068 241.331 352.469C241.728 352.865 242.293 353.063 243.026 353.063C243.769 353.063 244.337 352.865 244.729 352.469C245.125 352.072 245.323 351.514 245.323 350.794V344.047H246.643ZM252.822 352.038C252.822 351.696 252.692 351.432 252.433 351.245C252.177 351.054 251.729 350.89 251.086 350.753C250.448 350.616 249.94 350.452 249.562 350.261C249.188 350.069 248.91 349.841 248.728 349.577C248.55 349.313 248.461 348.998 248.461 348.634C248.461 348.028 248.716 347.515 249.227 347.096C249.742 346.676 250.398 346.467 251.195 346.467C252.034 346.467 252.713 346.683 253.232 347.116C253.757 347.549 254.019 348.103 254.019 348.777H252.747C252.747 348.431 252.599 348.132 252.303 347.882C252.011 347.631 251.642 347.506 251.195 347.506C250.735 347.506 250.375 347.606 250.115 347.807C249.855 348.007 249.726 348.269 249.726 348.593C249.726 348.898 249.846 349.128 250.088 349.283C250.329 349.438 250.765 349.586 251.394 349.728C252.027 349.869 252.54 350.037 252.932 350.233C253.324 350.429 253.613 350.666 253.8 350.944C253.991 351.218 254.087 351.553 254.087 351.949C254.087 352.61 253.823 353.141 253.294 353.542C252.765 353.938 252.079 354.137 251.236 354.137C250.644 354.137 250.12 354.032 249.664 353.822C249.208 353.613 248.851 353.321 248.591 352.947C248.336 352.569 248.208 352.161 248.208 351.724H249.473C249.495 352.147 249.664 352.485 249.979 352.735C250.298 352.981 250.717 353.104 251.236 353.104C251.715 353.104 252.098 353.009 252.385 352.817C252.676 352.621 252.822 352.362 252.822 352.038ZM258.804 354.137C257.801 354.137 256.985 353.809 256.356 353.152C255.728 352.492 255.413 351.61 255.413 350.507V350.274C255.413 349.541 255.552 348.887 255.83 348.312C256.113 347.734 256.505 347.283 257.006 346.959C257.512 346.631 258.059 346.467 258.646 346.467C259.608 346.467 260.355 346.784 260.889 347.417C261.422 348.05 261.688 348.957 261.688 350.138V350.664H256.678C256.696 351.393 256.908 351.983 257.313 352.435C257.724 352.881 258.243 353.104 258.872 353.104C259.319 353.104 259.697 353.013 260.007 352.831C260.317 352.649 260.588 352.407 260.82 352.106L261.593 352.708C260.973 353.66 260.043 354.137 258.804 354.137ZM258.646 347.506C258.136 347.506 257.708 347.693 257.361 348.066C257.015 348.436 256.801 348.955 256.719 349.625H260.424V349.529C260.387 348.887 260.214 348.39 259.904 348.039C259.594 347.684 259.175 347.506 258.646 347.506ZM266.733 347.738C266.542 347.706 266.335 347.69 266.111 347.69C265.282 347.69 264.719 348.044 264.423 348.75V354H263.158V346.604H264.389L264.409 347.458C264.824 346.797 265.412 346.467 266.173 346.467C266.419 346.467 266.606 346.499 266.733 346.562V347.738ZM271.997 354V347.581H270.828V346.604H271.997V345.845C271.997 345.052 272.209 344.439 272.633 344.006C273.057 343.573 273.656 343.356 274.431 343.356C274.722 343.356 275.012 343.395 275.299 343.473L275.23 344.498C275.016 344.457 274.788 344.437 274.547 344.437C274.137 344.437 273.82 344.557 273.597 344.799C273.373 345.036 273.262 345.378 273.262 345.824V346.604H274.841V347.581H273.262V354H271.997ZM279.817 347.738C279.626 347.706 279.419 347.69 279.195 347.69C278.366 347.69 277.803 348.044 277.507 348.75V354H276.242V346.604H277.473L277.493 347.458C277.908 346.797 278.496 346.467 279.257 346.467C279.503 346.467 279.69 346.499 279.817 346.562V347.738ZM282.36 354H281.096V346.604H282.36V354ZM280.993 344.642C280.993 344.437 281.055 344.263 281.178 344.122C281.305 343.981 281.492 343.91 281.738 343.91C281.984 343.91 282.171 343.981 282.299 344.122C282.426 344.263 282.49 344.437 282.49 344.642C282.49 344.847 282.426 345.018 282.299 345.154C282.171 345.291 281.984 345.359 281.738 345.359C281.492 345.359 281.305 345.291 281.178 345.154C281.055 345.018 280.993 344.847 280.993 344.642ZM287.46 354.137C286.457 354.137 285.642 353.809 285.013 353.152C284.384 352.492 284.069 351.61 284.069 350.507V350.274C284.069 349.541 284.208 348.887 284.486 348.312C284.769 347.734 285.161 347.283 285.662 346.959C286.168 346.631 286.715 346.467 287.303 346.467C288.264 346.467 289.012 346.784 289.545 347.417C290.078 348.05 290.345 348.957 290.345 350.138V350.664H285.334C285.352 351.393 285.564 351.983 285.97 352.435C286.38 352.881 286.899 353.104 287.528 353.104C287.975 353.104 288.353 353.013 288.663 352.831C288.973 352.649 289.244 352.407 289.477 352.106L290.249 352.708C289.629 353.66 288.7 354.137 287.46 354.137ZM287.303 347.506C286.792 347.506 286.364 347.693 286.018 348.066C285.671 348.436 285.457 348.955 285.375 349.625H289.08V349.529C289.044 348.887 288.87 348.39 288.561 348.039C288.251 347.684 287.831 347.506 287.303 347.506ZM293.011 346.604L293.052 347.533C293.617 346.822 294.355 346.467 295.267 346.467C296.83 346.467 297.618 347.349 297.632 349.112V354H296.367V349.105C296.363 348.572 296.24 348.178 295.998 347.923C295.761 347.668 295.39 347.54 294.884 347.54C294.474 347.54 294.114 347.649 293.804 347.868C293.494 348.087 293.252 348.374 293.079 348.729V354H291.814V346.604H293.011ZM299.231 350.24C299.231 349.105 299.5 348.194 300.038 347.506C300.576 346.813 301.28 346.467 302.15 346.467C303.016 346.467 303.702 346.763 304.208 347.355V343.5H305.473V354H304.311L304.249 353.207C303.743 353.827 303.039 354.137 302.137 354.137C301.28 354.137 300.58 353.786 300.038 353.084C299.5 352.382 299.231 351.466 299.231 350.336V350.24ZM300.496 350.384C300.496 351.222 300.669 351.879 301.016 352.353C301.362 352.826 301.84 353.063 302.451 353.063C303.253 353.063 303.839 352.703 304.208 351.983V348.586C303.83 347.889 303.249 347.54 302.465 347.54C301.845 347.54 301.362 347.779 301.016 348.258C300.669 348.736 300.496 349.445 300.496 350.384ZM308.815 354H307.551V343.5H308.815V354ZM313.266 352.147L314.988 346.604H316.342L313.368 355.142C312.908 356.372 312.176 356.987 311.174 356.987L310.935 356.967L310.463 356.878V355.853L310.805 355.88C311.233 355.88 311.566 355.793 311.803 355.62C312.044 355.447 312.243 355.13 312.397 354.67L312.678 353.918L310.039 346.604H311.42L313.266 352.147Z" fill="#282848"/>
<rect x="348" y="286" width="92" height="38" rx="4" fill="#71718E"/>
<path d="M391.122 277H389.851V268.571L387.301 269.508V268.359L390.924 266.999H391.122V277ZM400.166 273.657H401.547V274.689H400.166V277H398.895V274.689H394.362V273.944L398.819 267.047H400.166V273.657ZM395.798 273.657H398.895V268.776L398.744 269.05L395.798 273.657Z" fill="#282848"/>
<path d="M369.884 354H368.564L363.554 346.33V354H362.234V344.047H363.554L368.578 351.751V344.047H369.884V354ZM376.583 354C376.51 353.854 376.451 353.594 376.405 353.221C375.817 353.831 375.116 354.137 374.3 354.137C373.571 354.137 372.971 353.932 372.502 353.521C372.037 353.107 371.805 352.583 371.805 351.949C371.805 351.179 372.096 350.582 372.68 350.158C373.268 349.73 374.092 349.516 375.154 349.516H376.385V348.935C376.385 348.493 376.253 348.142 375.988 347.882C375.724 347.618 375.334 347.485 374.819 347.485C374.368 347.485 373.99 347.599 373.685 347.827C373.379 348.055 373.227 348.331 373.227 348.654H371.955C371.955 348.285 372.085 347.93 372.345 347.588C372.609 347.242 372.965 346.968 373.411 346.768C373.862 346.567 374.357 346.467 374.895 346.467C375.747 346.467 376.414 346.681 376.897 347.109C377.381 347.533 377.631 348.119 377.649 348.866V352.271C377.649 352.95 377.736 353.49 377.909 353.891V354H376.583ZM374.484 353.036C374.881 353.036 375.257 352.934 375.612 352.729C375.968 352.523 376.225 352.257 376.385 351.929V350.411H375.394C373.844 350.411 373.069 350.865 373.069 351.771C373.069 352.168 373.201 352.478 373.466 352.701C373.73 352.924 374.07 353.036 374.484 353.036ZM381.963 352.284L383.795 346.604H385.087L382.435 354H381.471L378.791 346.604H380.083L381.963 352.284ZM387.678 354H386.413V346.604H387.678V354ZM386.311 344.642C386.311 344.437 386.372 344.263 386.495 344.122C386.623 343.981 386.81 343.91 387.056 343.91C387.302 343.91 387.489 343.981 387.616 344.122C387.744 344.263 387.808 344.437 387.808 344.642C387.808 344.847 387.744 345.018 387.616 345.154C387.489 345.291 387.302 345.359 387.056 345.359C386.81 345.359 386.623 345.291 386.495 345.154C386.372 345.018 386.311 344.847 386.311 344.642ZM389.407 350.24C389.407 349.087 389.674 348.171 390.207 347.492C390.74 346.809 391.447 346.467 392.326 346.467C393.229 346.467 393.933 346.786 394.438 347.424L394.5 346.604H395.655V353.822C395.655 354.779 395.37 355.534 394.801 356.085C394.236 356.636 393.475 356.912 392.518 356.912C391.984 356.912 391.463 356.798 390.952 356.57C390.442 356.342 390.052 356.03 389.783 355.634L390.439 354.875C390.982 355.545 391.645 355.88 392.429 355.88C393.044 355.88 393.522 355.707 393.864 355.36C394.211 355.014 394.384 354.526 394.384 353.897V353.262C393.878 353.845 393.188 354.137 392.312 354.137C391.447 354.137 390.745 353.788 390.207 353.091C389.674 352.394 389.407 351.443 389.407 350.24ZM390.679 350.384C390.679 351.218 390.85 351.874 391.191 352.353C391.533 352.826 392.012 353.063 392.627 353.063C393.424 353.063 394.01 352.701 394.384 351.977V348.6C393.996 347.893 393.415 347.54 392.641 347.54C392.025 347.54 391.545 347.779 391.198 348.258C390.852 348.736 390.679 349.445 390.679 350.384ZM402.136 354C402.063 353.854 402.004 353.594 401.958 353.221C401.37 353.831 400.668 354.137 399.853 354.137C399.123 354.137 398.524 353.932 398.055 353.521C397.59 353.107 397.357 352.583 397.357 351.949C397.357 351.179 397.649 350.582 398.232 350.158C398.82 349.73 399.645 349.516 400.707 349.516H401.938V348.935C401.938 348.493 401.805 348.142 401.541 347.882C401.277 347.618 400.887 347.485 400.372 347.485C399.921 347.485 399.543 347.599 399.237 347.827C398.932 348.055 398.779 348.331 398.779 348.654H397.508C397.508 348.285 397.638 347.93 397.897 347.588C398.162 347.242 398.517 346.968 398.964 346.768C399.415 346.567 399.91 346.467 400.447 346.467C401.299 346.467 401.967 346.681 402.45 347.109C402.933 347.533 403.184 348.119 403.202 348.866V352.271C403.202 352.95 403.289 353.49 403.462 353.891V354H402.136ZM400.037 353.036C400.434 353.036 400.81 352.934 401.165 352.729C401.521 352.523 401.778 352.257 401.938 351.929V350.411H400.946C399.397 350.411 398.622 350.865 398.622 351.771C398.622 352.168 398.754 352.478 399.019 352.701C399.283 352.924 399.622 353.036 400.037 353.036ZM406.9 344.812V346.604H408.281V347.581H406.9V352.168C406.9 352.464 406.962 352.688 407.085 352.838C407.208 352.984 407.418 353.057 407.714 353.057C407.86 353.057 408.06 353.029 408.315 352.975V354C407.983 354.091 407.659 354.137 407.345 354.137C406.78 354.137 406.354 353.966 406.066 353.624C405.779 353.282 405.636 352.797 405.636 352.168V347.581H404.289V346.604H405.636V344.812H406.9ZM411.139 354H409.874V346.604H411.139V354ZM409.771 344.642C409.771 344.437 409.833 344.263 409.956 344.122C410.084 343.981 410.271 343.91 410.517 343.91C410.763 343.91 410.95 343.981 411.077 344.122C411.205 344.263 411.269 344.437 411.269 344.642C411.269 344.847 411.205 345.018 411.077 345.154C410.95 345.291 410.763 345.359 410.517 345.359C410.271 345.359 410.084 345.291 409.956 345.154C409.833 345.018 409.771 344.847 409.771 344.642ZM412.834 350.233C412.834 349.509 412.975 348.857 413.258 348.278C413.545 347.7 413.941 347.253 414.447 346.938C414.958 346.624 415.539 346.467 416.19 346.467C417.198 346.467 418.011 346.815 418.631 347.513C419.255 348.21 419.567 349.137 419.567 350.295V350.384C419.567 351.104 419.428 351.751 419.15 352.325C418.877 352.895 418.483 353.339 417.968 353.658C417.457 353.977 416.869 354.137 416.204 354.137C415.201 354.137 414.388 353.788 413.764 353.091C413.144 352.394 412.834 351.471 412.834 350.322V350.233ZM414.105 350.384C414.105 351.204 414.295 351.863 414.673 352.359C415.056 352.856 415.566 353.104 416.204 353.104C416.847 353.104 417.357 352.854 417.735 352.353C418.114 351.847 418.303 351.14 418.303 350.233C418.303 349.422 418.109 348.766 417.722 348.265C417.339 347.759 416.828 347.506 416.19 347.506C415.566 347.506 415.062 347.754 414.68 348.251C414.297 348.748 414.105 349.459 414.105 350.384ZM422.35 346.604L422.391 347.533C422.956 346.822 423.694 346.467 424.605 346.467C426.169 346.467 426.957 347.349 426.971 349.112V354H425.706V349.105C425.701 348.572 425.578 348.178 425.337 347.923C425.1 347.668 424.729 347.54 424.223 347.54C423.812 347.54 423.452 347.649 423.143 347.868C422.833 348.087 422.591 348.374 422.418 348.729V354H421.153V346.604H422.35Z" fill="#282848"/>
<rect x="464" y="294" width="92" height="30" rx="4" fill="#9898B2"/>
<path d="M506.122 284H504.851V275.571L502.301 276.508V275.359L505.924 273.999H506.122V284ZM513.983 284H512.712V275.571L510.162 276.508V275.359L513.785 273.999H513.983V284Z" fill="#282848"/>
<path d="M486.962 352.927H491.679V354H485.643V344.047H486.962V352.927ZM492.643 350.233C492.643 349.509 492.784 348.857 493.066 348.278C493.354 347.7 493.75 347.253 494.256 346.938C494.766 346.624 495.347 346.467 495.999 346.467C497.006 346.467 497.82 346.815 498.439 347.513C499.064 348.21 499.376 349.137 499.376 350.295V350.384C499.376 351.104 499.237 351.751 498.959 352.325C498.686 352.895 498.291 353.339 497.776 353.658C497.266 353.977 496.678 354.137 496.013 354.137C495.01 354.137 494.197 353.788 493.572 353.091C492.952 352.394 492.643 351.471 492.643 350.322V350.233ZM493.914 350.384C493.914 351.204 494.103 351.863 494.481 352.359C494.864 352.856 495.375 353.104 496.013 353.104C496.655 353.104 497.166 352.854 497.544 352.353C497.922 351.847 498.111 351.14 498.111 350.233C498.111 349.422 497.918 348.766 497.53 348.265C497.147 347.759 496.637 347.506 495.999 347.506C495.375 347.506 494.871 347.754 494.488 348.251C494.105 348.748 493.914 349.459 493.914 350.384ZM505.528 354C505.455 353.854 505.396 353.594 505.351 353.221C504.763 353.831 504.061 354.137 503.245 354.137C502.516 354.137 501.917 353.932 501.447 353.521C500.982 353.107 500.75 352.583 500.75 351.949C500.75 351.179 501.042 350.582 501.625 350.158C502.213 349.73 503.038 349.516 504.1 349.516H505.33V348.935C505.33 348.493 505.198 348.142 504.934 347.882C504.669 347.618 504.28 347.485 503.765 347.485C503.313 347.485 502.935 347.599 502.63 347.827C502.325 348.055 502.172 348.331 502.172 348.654H500.9C500.9 348.285 501.03 347.93 501.29 347.588C501.554 347.242 501.91 346.968 502.356 346.768C502.808 346.567 503.302 346.467 503.84 346.467C504.692 346.467 505.36 346.681 505.843 347.109C506.326 347.533 506.576 348.119 506.595 348.866V352.271C506.595 352.95 506.681 353.49 506.854 353.891V354H505.528ZM503.43 353.036C503.826 353.036 504.202 352.934 504.558 352.729C504.913 352.523 505.171 352.257 505.33 351.929V350.411H504.339C502.789 350.411 502.015 350.865 502.015 351.771C502.015 352.168 502.147 352.478 502.411 352.701C502.675 352.924 503.015 353.036 503.43 353.036ZM508.27 350.24C508.27 349.105 508.538 348.194 509.076 347.506C509.614 346.813 510.318 346.467 511.188 346.467C512.054 346.467 512.74 346.763 513.246 347.355V343.5H514.511V354H513.349L513.287 353.207C512.781 353.827 512.077 354.137 511.175 354.137C510.318 354.137 509.618 353.786 509.076 353.084C508.538 352.382 508.27 351.466 508.27 350.336V350.24ZM509.534 350.384C509.534 351.222 509.707 351.879 510.054 352.353C510.4 352.826 510.879 353.063 511.489 353.063C512.291 353.063 512.877 352.703 513.246 351.983V348.586C512.868 347.889 512.287 347.54 511.503 347.54C510.883 347.54 510.4 347.779 510.054 348.258C509.707 348.736 509.534 349.445 509.534 350.384ZM517.854 354H516.589V346.604H517.854V354ZM516.486 344.642C516.486 344.437 516.548 344.263 516.671 344.122C516.799 343.981 516.985 343.91 517.231 343.91C517.478 343.91 517.664 343.981 517.792 344.122C517.92 344.263 517.983 344.437 517.983 344.642C517.983 344.847 517.92 345.018 517.792 345.154C517.664 345.291 517.478 345.359 517.231 345.359C516.985 345.359 516.799 345.291 516.671 345.154C516.548 345.018 516.486 344.847 516.486 344.642ZM521.08 346.604L521.121 347.533C521.686 346.822 522.424 346.467 523.336 346.467C524.899 346.467 525.688 347.349 525.701 349.112V354H524.437V349.105C524.432 348.572 524.309 348.178 524.067 347.923C523.83 347.668 523.459 347.54 522.953 347.54C522.543 347.54 522.183 347.649 521.873 347.868C521.563 348.087 521.322 348.374 521.148 348.729V354H519.884V346.604H521.08ZM527.308 350.24C527.308 349.087 527.574 348.171 528.107 347.492C528.641 346.809 529.347 346.467 530.227 346.467C531.129 346.467 531.833 346.786 532.339 347.424L532.4 346.604H533.556V353.822C533.556 354.779 533.271 355.534 532.701 356.085C532.136 356.636 531.375 356.912 530.418 356.912C529.885 356.912 529.363 356.798 528.853 356.57C528.342 356.342 527.952 356.03 527.684 355.634L528.34 354.875C528.882 355.545 529.545 355.88 530.329 355.88C530.944 355.88 531.423 355.707 531.765 355.36C532.111 355.014 532.284 354.526 532.284 353.897V353.262C531.778 353.845 531.088 354.137 530.213 354.137C529.347 354.137 528.645 353.788 528.107 353.091C527.574 352.394 527.308 351.443 527.308 350.24ZM528.579 350.384C528.579 351.218 528.75 351.874 529.092 352.353C529.434 352.826 529.912 353.063 530.527 353.063C531.325 353.063 531.91 352.701 532.284 351.977V348.6C531.897 347.893 531.316 347.54 530.541 347.54C529.926 347.54 529.445 347.779 529.099 348.258C528.752 348.736 528.579 349.445 528.579 350.384Z" fill="#282848"/>
<rect x="586" y="302" width="93" height="22" rx="4" fill="#C6C6D3"/>
<path d="M635.433 285.645C635.433 286.141 635.3 286.583 635.036 286.971C634.776 287.358 634.423 287.661 633.977 287.88C634.496 288.103 634.906 288.429 635.207 288.857C635.512 289.286 635.665 289.771 635.665 290.313C635.665 291.175 635.373 291.861 634.79 292.371C634.211 292.882 633.448 293.137 632.5 293.137C631.543 293.137 630.775 292.882 630.196 292.371C629.622 291.856 629.335 291.17 629.335 290.313C629.335 289.776 629.481 289.29 629.772 288.857C630.069 288.424 630.477 288.096 630.996 287.873C630.554 287.654 630.205 287.351 629.95 286.964C629.695 286.576 629.567 286.137 629.567 285.645C629.567 284.806 629.836 284.141 630.374 283.648C630.912 283.156 631.62 282.91 632.5 282.91C633.375 282.91 634.081 283.156 634.619 283.648C635.161 284.141 635.433 284.806 635.433 285.645ZM634.4 290.286C634.4 289.73 634.223 289.277 633.867 288.926C633.516 288.575 633.056 288.399 632.486 288.399C631.917 288.399 631.459 288.573 631.112 288.919C630.771 289.265 630.6 289.721 630.6 290.286C630.6 290.851 630.766 291.296 631.099 291.619C631.436 291.943 631.903 292.104 632.5 292.104C633.092 292.104 633.557 291.943 633.895 291.619C634.232 291.291 634.4 290.847 634.4 290.286ZM632.5 283.949C632.003 283.949 631.6 284.104 631.29 284.414C630.985 284.719 630.832 285.136 630.832 285.665C630.832 286.171 630.982 286.581 631.283 286.896C631.589 287.205 631.994 287.36 632.5 287.36C633.006 287.36 633.409 287.205 633.71 286.896C634.015 286.581 634.168 286.171 634.168 285.665C634.168 285.159 634.011 284.747 633.696 284.428C633.382 284.109 632.983 283.949 632.5 283.949Z" fill="#282848"/>
<path d="M587.212 349.399H582.898V352.927H587.909V354H581.586V344.047H587.841V345.127H582.898V348.326H587.212V349.399ZM588.9 350.24C588.9 349.105 589.169 348.194 589.707 347.506C590.245 346.813 590.949 346.467 591.819 346.467C592.685 346.467 593.371 346.763 593.877 347.355V343.5H595.142V354H593.979L593.918 353.207C593.412 353.827 592.708 354.137 591.806 354.137C590.949 354.137 590.249 353.786 589.707 353.084C589.169 352.382 588.9 351.466 588.9 350.336V350.24ZM590.165 350.384C590.165 351.222 590.338 351.879 590.685 352.353C591.031 352.826 591.509 353.063 592.12 353.063C592.922 353.063 593.508 352.703 593.877 351.983V348.586C593.499 347.889 592.918 347.54 592.134 347.54C591.514 347.54 591.031 347.779 590.685 348.258C590.338 348.736 590.165 349.445 590.165 350.384ZM601.677 353.269C601.185 353.847 600.462 354.137 599.51 354.137C598.721 354.137 598.12 353.909 597.705 353.453C597.295 352.993 597.088 352.314 597.083 351.416V346.604H598.348V351.382C598.348 352.503 598.803 353.063 599.715 353.063C600.681 353.063 601.324 352.703 601.643 351.983V346.604H602.907V354H601.704L601.677 353.269ZM607.802 353.104C608.253 353.104 608.647 352.968 608.984 352.694C609.322 352.421 609.508 352.079 609.545 351.669H610.741C610.718 352.093 610.573 352.496 610.304 352.879C610.035 353.262 609.675 353.567 609.224 353.795C608.777 354.023 608.303 354.137 607.802 354.137C606.795 354.137 605.993 353.802 605.396 353.132C604.803 352.457 604.507 351.537 604.507 350.37V350.158C604.507 349.438 604.639 348.798 604.903 348.237C605.168 347.677 605.546 347.242 606.038 346.932C606.535 346.622 607.12 346.467 607.795 346.467C608.624 346.467 609.312 346.715 609.859 347.212C610.411 347.709 610.705 348.354 610.741 349.146H609.545C609.508 348.668 609.326 348.276 608.998 347.971C608.674 347.661 608.273 347.506 607.795 347.506C607.152 347.506 606.653 347.738 606.298 348.203C605.947 348.663 605.771 349.331 605.771 350.206V350.445C605.771 351.298 605.947 351.954 606.298 352.414C606.649 352.874 607.15 353.104 607.802 353.104ZM616.729 354C616.657 353.854 616.597 353.594 616.552 353.221C615.964 353.831 615.262 354.137 614.446 354.137C613.717 354.137 613.118 353.932 612.648 353.521C612.184 353.107 611.951 352.583 611.951 351.949C611.951 351.179 612.243 350.582 612.826 350.158C613.414 349.73 614.239 349.516 615.301 349.516H616.531V348.935C616.531 348.493 616.399 348.142 616.135 347.882C615.87 347.618 615.481 347.485 614.966 347.485C614.515 347.485 614.136 347.599 613.831 347.827C613.526 348.055 613.373 348.331 613.373 348.654H612.102C612.102 348.285 612.231 347.93 612.491 347.588C612.756 347.242 613.111 346.968 613.558 346.768C614.009 346.567 614.503 346.467 615.041 346.467C615.893 346.467 616.561 346.681 617.044 347.109C617.527 347.533 617.778 348.119 617.796 348.866V352.271C617.796 352.95 617.882 353.49 618.056 353.891V354H616.729ZM614.631 353.036C615.027 353.036 615.403 352.934 615.759 352.729C616.114 352.523 616.372 352.257 616.531 351.929V350.411H615.54C613.991 350.411 613.216 350.865 613.216 351.771C613.216 352.168 613.348 352.478 613.612 352.701C613.877 352.924 614.216 353.036 614.631 353.036ZM621.494 344.812V346.604H622.875V347.581H621.494V352.168C621.494 352.464 621.556 352.688 621.679 352.838C621.802 352.984 622.011 353.057 622.308 353.057C622.453 353.057 622.654 353.029 622.909 352.975V354C622.576 354.091 622.253 354.137 621.938 354.137C621.373 354.137 620.947 353.966 620.66 353.624C620.373 353.282 620.229 352.797 620.229 352.168V347.581H618.883V346.604H620.229V344.812H621.494ZM625.732 354H624.468V346.604H625.732V354ZM624.365 344.642C624.365 344.437 624.427 344.263 624.55 344.122C624.677 343.981 624.864 343.91 625.11 343.91C625.356 343.91 625.543 343.981 625.671 344.122C625.799 344.263 625.862 344.437 625.862 344.642C625.862 344.847 625.799 345.018 625.671 345.154C625.543 345.291 625.356 345.359 625.11 345.359C624.864 345.359 624.677 345.291 624.55 345.154C624.427 345.018 624.365 344.847 624.365 344.642ZM627.428 350.233C627.428 349.509 627.569 348.857 627.852 348.278C628.139 347.7 628.535 347.253 629.041 346.938C629.551 346.624 630.132 346.467 630.784 346.467C631.791 346.467 632.605 346.815 633.225 347.513C633.849 348.21 634.161 349.137 634.161 350.295V350.384C634.161 351.104 634.022 351.751 633.744 352.325C633.471 352.895 633.076 353.339 632.562 353.658C632.051 353.977 631.463 354.137 630.798 354.137C629.795 354.137 628.982 353.788 628.357 353.091C627.738 352.394 627.428 351.471 627.428 350.322V350.233ZM628.699 350.384C628.699 351.204 628.888 351.863 629.267 352.359C629.649 352.856 630.16 353.104 630.798 353.104C631.44 353.104 631.951 352.854 632.329 352.353C632.707 351.847 632.896 351.14 632.896 350.233C632.896 349.422 632.703 348.766 632.315 348.265C631.933 347.759 631.422 347.506 630.784 347.506C630.16 347.506 629.656 347.754 629.273 348.251C628.891 348.748 628.699 349.459 628.699 350.384ZM636.943 346.604L636.984 347.533C637.549 346.822 638.288 346.467 639.199 346.467C640.762 346.467 641.551 347.349 641.564 349.112V354H640.3V349.105C640.295 348.572 640.172 348.178 639.931 347.923C639.694 347.668 639.322 347.54 638.816 347.54C638.406 347.54 638.046 347.649 637.736 347.868C637.426 348.087 637.185 348.374 637.012 348.729V354H635.747V346.604H636.943ZM646.678 351.327C646.678 350.849 646.81 350.409 647.074 350.008C647.343 349.607 647.854 349.14 648.605 348.606C648.163 348.069 647.867 347.636 647.717 347.308C647.566 346.979 647.491 346.654 647.491 346.33C647.491 345.574 647.715 344.981 648.161 344.553C648.608 344.124 649.214 343.91 649.979 343.91C650.663 343.91 651.228 344.111 651.675 344.512C652.121 344.908 652.345 345.41 652.345 346.016C652.345 346.417 652.242 346.788 652.037 347.13C651.837 347.467 651.483 347.823 650.978 348.196L650.246 348.736L652.461 351.382C652.771 350.789 652.926 350.131 652.926 349.406H654.067C654.067 350.568 653.787 351.532 653.227 352.298L654.648 354H653.131L652.468 353.214C652.131 353.515 651.734 353.745 651.278 353.904C650.827 354.059 650.367 354.137 649.897 354.137C648.927 354.137 648.147 353.879 647.56 353.364C646.972 352.849 646.678 352.17 646.678 351.327ZM649.897 353.104C650.567 353.104 651.18 352.849 651.736 352.339L649.31 349.434L649.084 349.598C648.323 350.158 647.942 350.735 647.942 351.327C647.942 351.865 648.116 352.296 648.462 352.619C648.813 352.943 649.291 353.104 649.897 353.104ZM648.756 346.289C648.756 346.727 649.025 347.273 649.562 347.93L650.369 347.362C650.679 347.144 650.891 346.936 651.005 346.74C651.119 346.54 651.176 346.298 651.176 346.016C651.176 345.71 651.062 345.457 650.834 345.257C650.606 345.052 650.319 344.949 649.973 344.949C649.599 344.949 649.303 345.077 649.084 345.332C648.865 345.583 648.756 345.902 648.756 346.289ZM660.391 347.499C660.951 346.811 661.68 346.467 662.578 346.467C664.141 346.467 664.93 347.349 664.943 349.112V354H663.679V349.105C663.674 348.572 663.551 348.178 663.31 347.923C663.073 347.668 662.701 347.54 662.195 347.54C661.785 347.54 661.425 347.649 661.115 347.868C660.805 348.087 660.564 348.374 660.391 348.729V354H659.126V343.5H660.391V347.499ZM669.906 354.137C668.904 354.137 668.088 353.809 667.459 353.152C666.83 352.492 666.516 351.61 666.516 350.507V350.274C666.516 349.541 666.655 348.887 666.933 348.312C667.215 347.734 667.607 347.283 668.108 346.959C668.614 346.631 669.161 346.467 669.749 346.467C670.711 346.467 671.458 346.784 671.991 347.417C672.524 348.05 672.791 348.957 672.791 350.138V350.664H667.78C667.799 351.393 668.01 351.983 668.416 352.435C668.826 352.881 669.346 353.104 669.975 353.104C670.421 353.104 670.799 353.013 671.109 352.831C671.419 352.649 671.69 352.407 671.923 352.106L672.695 352.708C672.076 353.66 671.146 354.137 669.906 354.137ZM669.749 347.506C669.239 347.506 668.81 347.693 668.464 348.066C668.118 348.436 667.903 348.955 667.821 349.625H671.526V349.529C671.49 348.887 671.317 348.39 671.007 348.039C670.697 347.684 670.278 347.506 669.749 347.506ZM675.635 354H674.37V343.5H675.635V354ZM683.913 350.384C683.913 351.509 683.656 352.416 683.141 353.104C682.626 353.793 681.928 354.137 681.049 354.137C680.151 354.137 679.445 353.852 678.93 353.282V356.844H677.665V346.604H678.82L678.882 347.424C679.397 346.786 680.112 346.467 681.028 346.467C681.917 346.467 682.619 346.802 683.134 347.472C683.653 348.142 683.913 349.074 683.913 350.268V350.384ZM682.648 350.24C682.648 349.406 682.471 348.748 682.115 348.265C681.76 347.782 681.272 347.54 680.652 347.54C679.887 347.54 679.312 347.88 678.93 348.559V352.093C679.308 352.767 679.887 353.104 680.666 353.104C681.272 353.104 681.753 352.865 682.108 352.387C682.468 351.904 682.648 351.188 682.648 350.24Z" fill="#282848"/>
</svg>
