<svg width="800" height="432" viewBox="0 0 800 432" fill="none" xmlns="http://www.w3.org/2000/svg">
<rect y="60" width="800" height="98" rx="8" fill="#F5F7FA"/>
<path d="M678.841 120.398C684.48 120.398 688.67 116.861 688.67 112.102C688.67 108.409 686.483 105.724 682.818 105.114V104.886C685.759 103.991 687.591 101.577 687.591 98.2955C687.591 94.1761 684.338 90.5114 678.955 90.5114C673.926 90.5114 669.75 93.608 669.58 98.1818H672.989C673.116 95.2841 675.872 93.5795 678.898 93.5795C682.108 93.5795 684.182 95.5256 684.182 98.4659C684.182 101.534 681.781 103.523 678.33 103.523H676V106.648H678.33C682.747 106.648 685.205 108.892 685.205 112.102C685.205 115.185 682.52 117.273 678.784 117.273C675.418 117.273 672.747 115.54 672.534 112.727H668.955C669.168 117.301 673.202 120.398 678.841 120.398Z" fill="#333840"/>
<path d="M400.568 103.892H387.841V107.017H400.568V103.892ZM415.501 120.398C421.04 120.398 425.103 116.307 425.103 110.739C425.103 105.099 421.183 100.966 415.842 100.966C413.881 100.966 411.978 101.662 410.785 102.614H410.614L411.637 94.0341H423.796V90.9091H408.683L406.921 105.227L410.217 105.625C411.424 104.759 413.484 104.134 415.273 104.148C418.981 104.176 421.694 106.989 421.694 110.795C421.694 114.531 419.08 117.273 415.501 117.273C412.518 117.273 410.146 115.355 409.876 112.727H406.467C406.68 117.159 410.501 120.398 415.501 120.398Z" fill="#333840"/>
<path d="M383.506 49H392.682V47.4375H385.92V47.3239L389.188 43.8295C391.688 41.152 392.426 39.902 392.426 38.2898C392.426 36.0455 390.608 34.2557 388.051 34.2557C385.501 34.2557 383.562 35.9886 383.562 38.5455H385.239C385.239 36.8906 386.311 35.7898 387.994 35.7898C389.571 35.7898 390.778 36.7557 390.778 38.2898C390.778 39.6321 389.99 40.6264 388.307 42.4659L383.506 47.7216V49ZM400.359 49.1989C403.57 49.1989 405.416 46.4787 405.416 41.7273C405.416 37.0114 403.541 34.2557 400.359 34.2557C397.178 34.2557 395.303 37.0114 395.303 41.7273C395.303 46.4787 397.149 49.1989 400.359 49.1989ZM400.359 47.6364C398.243 47.6364 397.007 45.5128 397.007 41.7273C397.007 37.9489 398.257 35.7898 400.359 35.7898C402.462 35.7898 403.712 37.9489 403.712 41.7273C403.712 45.5128 402.476 47.6364 400.359 47.6364ZM408.115 49H417.291V47.4375H410.53V47.3239L413.797 43.8295C416.297 41.152 417.036 39.902 417.036 38.2898C417.036 36.0455 415.217 34.2557 412.661 34.2557C410.111 34.2557 408.172 35.9886 408.172 38.5455H409.848C409.848 36.8906 410.92 35.7898 412.604 35.7898C414.18 35.7898 415.388 36.7557 415.388 38.2898C415.388 39.6321 414.599 40.6264 412.916 42.4659L408.115 47.7216V49ZM424.969 49.1989C428.179 49.1989 430.026 46.4787 430.026 41.7273C430.026 37.0114 428.151 34.2557 424.969 34.2557C421.787 34.2557 419.912 37.0114 419.912 41.7273C419.912 46.4787 421.759 49.1989 424.969 49.1989ZM424.969 47.6364C422.852 47.6364 421.616 45.5128 421.616 41.7273C421.616 37.9489 422.866 35.7898 424.969 35.7898C427.071 35.7898 428.321 37.9489 428.321 41.7273C428.321 45.5128 427.085 47.6364 424.969 47.6364Z" fill="#59597C"/>
<path d="M656.506 49H665.682V47.4375H658.92V47.3239L662.188 43.8295C664.688 41.152 665.426 39.902 665.426 38.2898C665.426 36.0455 663.608 34.2557 661.051 34.2557C658.501 34.2557 656.562 35.9886 656.562 38.5455H658.239C658.239 36.8906 659.311 35.7898 660.994 35.7898C662.571 35.7898 663.778 36.7557 663.778 38.2898C663.778 39.6321 662.99 40.6264 661.307 42.4659L656.506 47.7216V49ZM673.359 49.1989C676.57 49.1989 678.416 46.4787 678.416 41.7273C678.416 37.0114 676.541 34.2557 673.359 34.2557C670.178 34.2557 668.303 37.0114 668.303 41.7273C668.303 46.4787 670.149 49.1989 673.359 49.1989ZM673.359 47.6364C671.243 47.6364 670.007 45.5128 670.007 41.7273C670.007 37.9489 671.257 35.7898 673.359 35.7898C675.462 35.7898 676.712 37.9489 676.712 41.7273C676.712 45.5128 675.476 47.6364 673.359 47.6364ZM681.115 49H690.291V47.4375H683.53V47.3239L686.797 43.8295C689.297 41.152 690.036 39.902 690.036 38.2898C690.036 36.0455 688.217 34.2557 685.661 34.2557C683.111 34.2557 681.172 35.9886 681.172 38.5455H682.848C682.848 36.8906 683.92 35.7898 685.604 35.7898C687.18 35.7898 688.388 36.7557 688.388 38.2898C688.388 39.6321 687.599 40.6264 685.916 42.4659L681.115 47.7216V49ZM698.338 34.4545H696.577L692.94 36.8693V38.6591L696.491 36.3011H696.577V49H698.338V34.4545Z" fill="#59597C"/>
<path d="M125.591 90.9091H122.125V113.807H121.841L105.932 90.9091H102.523V120H106.045V97.1591H106.33L122.182 120H125.591V90.9091ZM132.64 120H136.163V109.375H142.526C149.302 109.375 152.356 105.256 152.356 100.114C152.356 94.9716 149.302 90.9091 142.469 90.9091H132.64V120ZM136.163 106.25V94.0341H142.356C147.086 94.0341 148.89 96.6193 148.89 100.114C148.89 103.608 147.086 106.25 142.413 106.25H136.163ZM173.94 98.1818H177.349C177.192 93.7926 173.144 90.5114 167.519 90.5114C161.951 90.5114 157.576 93.75 157.576 98.6364C157.576 102.557 160.417 104.886 164.962 106.193L168.542 107.216C171.61 108.068 174.337 109.148 174.337 112.045C174.337 115.227 171.269 117.33 167.235 117.33C163.769 117.33 160.701 115.795 160.417 112.5H156.781C157.121 117.273 160.985 120.511 167.235 120.511C173.94 120.511 177.746 116.818 177.746 112.102C177.746 106.648 172.576 104.886 169.565 104.091L166.61 103.295C164.451 102.727 160.985 101.591 160.985 98.4659C160.985 95.6818 163.542 93.6364 167.406 93.6364C170.928 93.6364 173.599 95.3125 173.94 98.1818Z" fill="#333840"/>
<path d="M550.506 120L563.233 107.273L550.506 94.5455L548.318 96.733L557.324 105.71H534V108.835H557.324L548.318 117.841L550.506 120Z" fill="#1D1F24"/>
<path d="M550.054 213L558.963 204.091L550.054 195.182L548.523 196.713L554.827 202.997H538.5V205.185H554.827L548.523 211.489L550.054 213Z" fill="#59597C"/>
<path d="M550.054 290L558.963 281.091L550.054 272.182L548.523 273.713L554.827 279.997H538.5V282.185H554.827L548.523 288.489L550.054 290Z" fill="#59597C"/>
<path d="M550.054 367L558.963 358.091L550.054 349.182L548.523 350.713L554.827 356.997H538.5V359.185H554.827L548.523 365.489L550.054 367Z" fill="#59597C"/>
<path d="M664.42 207.199C667.24 207.199 669.335 205.43 669.335 203.051C669.335 201.205 668.241 199.862 666.409 199.557V199.443C667.879 198.996 668.795 197.788 668.795 196.148C668.795 194.088 667.169 192.256 664.477 192.256C661.963 192.256 659.875 193.804 659.79 196.091H661.494C661.558 194.642 662.936 193.79 664.449 193.79C666.054 193.79 667.091 194.763 667.091 196.233C667.091 197.767 665.891 198.761 664.165 198.761H663V200.324H664.165C666.374 200.324 667.602 201.446 667.602 203.051C667.602 204.592 666.26 205.636 664.392 205.636C662.709 205.636 661.374 204.77 661.267 203.364H659.477C659.584 205.651 661.601 207.199 664.42 207.199ZM676.871 192.256C673.916 192.22 672.013 194.443 672.013 197.114C672.013 199.926 674.087 201.943 676.587 201.943C678.092 201.943 679.371 201.205 680.166 200.011H680.28C680.28 203.591 678.888 205.636 676.643 205.636C675.109 205.636 674.172 204.67 673.859 203.335H672.126C672.467 205.636 674.2 207.199 676.643 207.199C679.911 207.199 681.928 204.301 681.928 199.131C681.928 193.79 679.257 192.284 676.871 192.256ZM676.871 193.818C678.689 193.818 680.024 195.381 680.024 197.085C680.024 198.818 678.604 200.381 676.814 200.381C675.024 200.381 673.717 198.932 673.717 197.114C673.717 195.295 675.081 193.818 676.871 193.818ZM692.135 204.273C692.135 205.864 693.13 207.199 694.976 207.199C696.794 207.199 697.789 205.864 697.789 204.273V203.506C697.789 201.915 696.823 200.58 694.976 200.58C693.158 200.58 692.135 201.915 692.135 203.506V204.273ZM684.891 195.949C684.891 197.54 685.885 198.875 687.732 198.875C689.55 198.875 690.544 197.54 690.544 195.949V195.182C690.544 193.591 689.578 192.256 687.732 192.256C685.914 192.256 684.891 193.591 684.891 195.182V195.949ZM685.431 207H687.05L697.05 192.455H695.431L685.431 207ZM693.584 203.506C693.584 202.625 693.982 201.801 694.976 201.801C695.999 201.801 696.34 202.625 696.34 203.506V204.273C696.34 205.153 695.971 205.977 694.976 205.977C693.953 205.977 693.584 205.153 693.584 204.273V203.506ZM686.34 195.182C686.34 194.301 686.738 193.477 687.732 193.477C688.755 193.477 689.096 194.301 689.096 195.182V195.949C689.096 196.83 688.726 197.653 687.732 197.653C686.709 197.653 686.34 196.83 686.34 195.949V195.182Z" fill="#282848"/>
<path d="M666.619 269.455H664.858L661.222 271.869V273.659L664.773 271.301H664.858V284H666.619V269.455ZM675.462 284.199C678.366 284.199 680.391 282.501 680.405 280.136C680.391 278.297 679.162 276.734 677.592 276.443V276.358C678.956 276.003 679.851 274.668 679.865 273.119C679.851 270.903 677.99 269.256 675.462 269.256C672.905 269.256 671.044 270.903 671.058 273.119C671.044 274.668 671.939 276.003 673.331 276.358V276.443C671.733 276.734 670.504 278.297 670.518 280.136C670.504 282.501 672.528 284.199 675.462 284.199ZM675.462 282.636C673.466 282.636 672.237 281.614 672.251 280.051C672.237 278.411 673.594 277.239 675.462 277.239C677.301 277.239 678.658 278.411 678.672 280.051C678.658 281.614 677.429 282.636 675.462 282.636ZM675.462 275.733C673.871 275.733 672.749 274.739 672.763 273.233C672.749 271.756 673.828 270.79 675.462 270.79C677.067 270.79 678.146 271.756 678.161 273.233C678.146 274.739 677.024 275.733 675.462 275.733ZM690.542 281.273C690.542 282.864 691.536 284.199 693.382 284.199C695.201 284.199 696.195 282.864 696.195 281.273V280.506C696.195 278.915 695.229 277.58 693.382 277.58C691.564 277.58 690.542 278.915 690.542 280.506V281.273ZM683.297 272.949C683.297 274.54 684.292 275.875 686.138 275.875C687.956 275.875 688.951 274.54 688.951 272.949V272.182C688.951 270.591 687.985 269.256 686.138 269.256C684.32 269.256 683.297 270.591 683.297 272.182V272.949ZM683.837 284H685.456L695.456 269.455H693.837L683.837 284ZM691.99 280.506C691.99 279.625 692.388 278.801 693.382 278.801C694.405 278.801 694.746 279.625 694.746 280.506V281.273C694.746 282.153 694.377 282.977 693.382 282.977C692.36 282.977 691.99 282.153 691.99 281.273V280.506ZM684.746 272.182C684.746 271.301 685.144 270.477 686.138 270.477C687.161 270.477 687.502 271.301 687.502 272.182V272.949C687.502 273.83 687.132 274.653 686.138 274.653C685.115 274.653 684.746 273.83 684.746 272.949V272.182Z" fill="#282848"/>
<path d="M659.165 358.017H666.011V361H667.688V358.017H669.676V356.455H667.688V346.455H665.557L659.165 356.568V358.017ZM666.011 356.455H661.068V356.341L665.898 348.699H666.011V356.455ZM677.252 361.199C680.072 361.199 682.167 359.43 682.167 357.051C682.167 355.205 681.074 353.862 679.241 353.557V353.443C680.711 352.996 681.627 351.788 681.627 350.148C681.627 348.088 680.001 346.256 677.309 346.256C674.795 346.256 672.707 347.804 672.622 350.091H674.326C674.39 348.642 675.768 347.79 677.281 347.79C678.886 347.79 679.923 348.763 679.923 350.233C679.923 351.767 678.723 352.761 676.997 352.761H675.832V354.324H676.997C679.206 354.324 680.434 355.446 680.434 357.051C680.434 358.592 679.092 359.636 677.224 359.636C675.541 359.636 674.206 358.77 674.099 357.364H672.309C672.416 359.651 674.433 361.199 677.252 361.199ZM692.487 358.273C692.487 359.864 693.481 361.199 695.328 361.199C697.146 361.199 698.14 359.864 698.14 358.273V357.506C698.14 355.915 697.174 354.58 695.328 354.58C693.51 354.58 692.487 355.915 692.487 357.506V358.273ZM685.243 349.949C685.243 351.54 686.237 352.875 688.083 352.875C689.902 352.875 690.896 351.54 690.896 349.949V349.182C690.896 347.591 689.93 346.256 688.083 346.256C686.265 346.256 685.243 347.591 685.243 349.182V349.949ZM685.782 361H687.402L697.402 346.455H695.782L685.782 361ZM693.936 357.506C693.936 356.625 694.333 355.801 695.328 355.801C696.35 355.801 696.691 356.625 696.691 357.506V358.273C696.691 359.153 696.322 359.977 695.328 359.977C694.305 359.977 693.936 359.153 693.936 358.273V357.506ZM686.691 349.182C686.691 348.301 687.089 347.477 688.083 347.477C689.106 347.477 689.447 348.301 689.447 349.182V349.949C689.447 350.83 689.078 351.653 688.083 351.653C687.061 351.653 686.691 350.83 686.691 349.949V349.182Z" fill="#282848"/>
<path d="M387.165 204.017H394.011V207H395.688V204.017H397.676V202.455H395.688V192.455H393.557L387.165 202.568V204.017ZM394.011 202.455H389.068V202.341L393.898 194.699H394.011V202.455ZM399.997 204.017H406.843V207H408.52V204.017H410.508V202.455H408.52V192.455H406.389L399.997 202.568V204.017ZM406.843 202.455H401.9V202.341L406.73 194.699H406.843V202.455ZM420.585 204.273C420.585 205.864 421.579 207.199 423.425 207.199C425.244 207.199 426.238 205.864 426.238 204.273V203.506C426.238 201.915 425.272 200.58 423.425 200.58C421.607 200.58 420.585 201.915 420.585 203.506V204.273ZM413.34 195.949C413.34 197.54 414.335 198.875 416.181 198.875C417.999 198.875 418.994 197.54 418.994 195.949V195.182C418.994 193.591 418.028 192.256 416.181 192.256C414.363 192.256 413.34 193.591 413.34 195.182V195.949ZM413.88 207H415.499L425.499 192.455H423.88L413.88 207ZM422.033 203.506C422.033 202.625 422.431 201.801 423.425 201.801C424.448 201.801 424.789 202.625 424.789 203.506V204.273C424.789 205.153 424.42 205.977 423.425 205.977C422.403 205.977 422.033 205.153 422.033 204.273V203.506ZM414.789 195.182C414.789 194.301 415.187 193.477 416.181 193.477C417.204 193.477 417.545 194.301 417.545 195.182V195.949C417.545 196.83 417.175 197.653 416.181 197.653C415.158 197.653 414.789 196.83 414.789 195.949V195.182Z" fill="#282848"/>
<path d="M394.619 269.455H392.858L389.222 271.869V273.659L392.773 271.301H392.858V284H394.619V269.455ZM399.257 284H401.104L407.581 271.102V269.455H398.263V271.017H405.763V271.131L399.257 284ZM417.643 281.273C417.643 282.864 418.637 284.199 420.484 284.199C422.302 284.199 423.297 282.864 423.297 281.273V280.506C423.297 278.915 422.331 277.58 420.484 277.58C418.666 277.58 417.643 278.915 417.643 280.506V281.273ZM410.399 272.949C410.399 274.54 411.393 275.875 413.24 275.875C415.058 275.875 416.052 274.54 416.052 272.949V272.182C416.052 270.591 415.086 269.256 413.24 269.256C411.422 269.256 410.399 270.591 410.399 272.182V272.949ZM410.939 284H412.558L422.558 269.455H420.939L410.939 284ZM419.092 280.506C419.092 279.625 419.49 278.801 420.484 278.801C421.507 278.801 421.848 279.625 421.848 280.506V281.273C421.848 282.153 421.478 282.977 420.484 282.977C419.461 282.977 419.092 282.153 419.092 281.273V280.506ZM411.848 272.182C411.848 271.301 412.245 270.477 413.24 270.477C414.262 270.477 414.603 271.301 414.603 272.182V272.949C414.603 273.83 414.234 274.653 413.24 274.653C412.217 274.653 411.848 273.83 411.848 272.949V272.182Z" fill="#282848"/>
<path d="M392.42 361.199C395.24 361.199 397.335 359.43 397.335 357.051C397.335 355.205 396.241 353.862 394.409 353.557V353.443C395.879 352.996 396.795 351.788 396.795 350.148C396.795 348.088 395.169 346.256 392.477 346.256C389.963 346.256 387.875 347.804 387.79 350.091H389.494C389.558 348.642 390.936 347.79 392.449 347.79C394.054 347.79 395.091 348.763 395.091 350.233C395.091 351.767 393.891 352.761 392.165 352.761H391V354.324H392.165C394.374 354.324 395.602 355.446 395.602 357.051C395.602 358.592 394.26 359.636 392.392 359.636C390.709 359.636 389.374 358.77 389.267 357.364H387.477C387.584 359.651 389.601 361.199 392.42 361.199ZM404.871 346.256C401.916 346.22 400.013 348.443 400.013 351.114C400.013 353.926 402.087 355.943 404.587 355.943C406.092 355.943 407.371 355.205 408.166 354.011H408.28C408.28 357.591 406.888 359.636 404.643 359.636C403.109 359.636 402.172 358.67 401.859 357.335H400.126C400.467 359.636 402.2 361.199 404.643 361.199C407.911 361.199 409.928 358.301 409.928 353.131C409.928 347.79 407.257 346.284 404.871 346.256ZM404.871 347.818C406.689 347.818 408.024 349.381 408.024 351.085C408.024 352.818 406.604 354.381 404.814 354.381C403.024 354.381 401.717 352.932 401.717 351.114C401.717 349.295 403.081 347.818 404.871 347.818ZM420.135 358.273C420.135 359.864 421.13 361.199 422.976 361.199C424.794 361.199 425.789 359.864 425.789 358.273V357.506C425.789 355.915 424.823 354.58 422.976 354.58C421.158 354.58 420.135 355.915 420.135 357.506V358.273ZM412.891 349.949C412.891 351.54 413.885 352.875 415.732 352.875C417.55 352.875 418.544 351.54 418.544 349.949V349.182C418.544 347.591 417.578 346.256 415.732 346.256C413.914 346.256 412.891 347.591 412.891 349.182V349.949ZM413.431 361H415.05L425.05 346.455H423.431L413.431 361ZM421.584 357.506C421.584 356.625 421.982 355.801 422.976 355.801C423.999 355.801 424.34 356.625 424.34 357.506V358.273C424.34 359.153 423.971 359.977 422.976 359.977C421.953 359.977 421.584 359.153 421.584 358.273V357.506ZM414.34 349.182C414.34 348.301 414.738 347.477 415.732 347.477C416.755 347.477 417.096 348.301 417.096 349.182V349.949C417.096 350.83 416.726 351.653 415.732 351.653C414.709 351.653 414.34 350.83 414.34 349.949V349.182Z" fill="#282848"/>
<path d="M105.25 207C109.682 207 112.182 204.244 112.182 199.699C112.182 195.182 109.682 192.455 105.449 192.455H100.761V207H105.25ZM102.523 205.438V194.017H105.335C108.744 194.017 110.477 196.176 110.477 199.699C110.477 203.25 108.744 205.438 105.136 205.438H102.523ZM119.483 207.227C121.699 207.227 123.318 206.119 123.83 204.472L122.21 204.017C121.784 205.153 120.797 205.722 119.483 205.722C117.516 205.722 116.159 204.45 116.081 202.114H124V201.403C124 197.341 121.585 195.949 119.312 195.949C116.358 195.949 114.398 198.278 114.398 201.631C114.398 204.983 116.33 207.227 119.483 207.227ZM116.081 200.665C116.195 198.967 117.395 197.455 119.312 197.455C121.131 197.455 122.295 198.818 122.295 200.665H116.081ZM131.294 196.091H128.964V193.477H127.288V196.091H125.641V197.511H127.288V204.33C127.288 206.233 128.822 207.142 130.243 207.142C130.868 207.142 131.266 207.028 131.493 206.943L131.152 205.438C131.01 205.466 130.783 205.523 130.413 205.523C129.675 205.523 128.964 205.295 128.964 203.875V197.511H131.294V196.091ZM133.815 207H135.491V200.097C135.491 198.619 136.656 197.54 138.247 197.54C138.695 197.54 139.156 197.625 139.27 197.653V195.949C139.078 195.935 138.638 195.92 138.389 195.92C137.082 195.92 135.946 196.659 135.548 197.739H135.435V196.091H133.815V207ZM144.467 207.256C146.37 207.256 147.365 206.233 147.706 205.523H147.791V207H149.467V199.812C149.467 196.347 146.825 195.949 145.433 195.949C143.785 195.949 141.91 196.517 141.058 198.506L142.649 199.074C143.018 198.278 143.892 197.426 145.49 197.426C147.031 197.426 147.791 198.243 147.791 199.642V199.699C147.791 200.509 146.967 200.438 144.978 200.693C142.954 200.956 140.745 201.403 140.745 203.903C140.745 206.034 142.393 207.256 144.467 207.256ZM144.723 205.75C143.387 205.75 142.422 205.153 142.422 203.989C142.422 202.71 143.586 202.312 144.893 202.142C145.603 202.057 147.507 201.858 147.791 201.517V203.051C147.791 204.415 146.711 205.75 144.723 205.75ZM156.958 207.227C159.373 207.227 160.964 205.75 161.248 203.818H159.572C159.259 205.011 158.265 205.722 156.958 205.722C154.969 205.722 153.691 204.074 153.691 201.545C153.691 199.074 154.998 197.455 156.958 197.455C158.435 197.455 159.316 198.364 159.572 199.358H161.248C160.964 197.312 159.231 195.949 156.93 195.949C153.975 195.949 152.015 198.278 152.015 201.602C152.015 204.869 153.89 207.227 156.958 207.227ZM168.442 196.091H166.113V193.477H164.437V196.091H162.789V197.511H164.437V204.33C164.437 206.233 165.971 207.142 167.391 207.142C168.016 207.142 168.414 207.028 168.641 206.943L168.3 205.438C168.158 205.466 167.931 205.523 167.562 205.523C166.823 205.523 166.113 205.295 166.113 203.875V197.511H168.442V196.091ZM175.278 207.227C178.233 207.227 180.222 204.983 180.222 201.602C180.222 198.193 178.233 195.949 175.278 195.949C172.324 195.949 170.335 198.193 170.335 201.602C170.335 204.983 172.324 207.227 175.278 207.227ZM175.278 205.722C173.034 205.722 172.011 203.79 172.011 201.602C172.011 199.415 173.034 197.455 175.278 197.455C177.523 197.455 178.545 199.415 178.545 201.602C178.545 203.79 177.523 205.722 175.278 205.722ZM182.78 207H184.456V200.097C184.456 198.619 185.621 197.54 187.212 197.54C187.659 197.54 188.121 197.625 188.235 197.653V195.949C188.043 195.935 187.603 195.92 187.354 195.92C186.047 195.92 184.911 196.659 184.513 197.739H184.4V196.091H182.78V207ZM197.949 198.534C197.423 196.986 196.244 195.949 194.085 195.949C191.784 195.949 190.08 197.256 190.08 199.102C190.08 200.608 190.974 201.616 192.977 202.085L194.795 202.511C195.896 202.767 196.415 203.293 196.415 204.045C196.415 204.983 195.42 205.75 193.858 205.75C192.487 205.75 191.628 205.161 191.33 203.989L189.739 204.386C190.129 206.24 191.656 207.227 193.886 207.227C196.422 207.227 198.148 205.842 198.148 203.96C198.148 202.44 197.196 201.482 195.25 201.006L193.631 200.608C192.338 200.288 191.756 199.855 191.756 199.017C191.756 198.08 192.75 197.398 194.085 197.398C195.548 197.398 196.152 198.207 196.443 198.96L197.949 198.534Z" fill="#282848"/>
<path d="M100.761 284H102.523V278.688H105.705C109.092 278.688 110.619 276.628 110.619 274.057C110.619 271.486 109.092 269.455 105.676 269.455H100.761V284ZM102.523 277.125V271.017H105.619C107.984 271.017 108.886 272.31 108.886 274.057C108.886 275.804 107.984 277.125 105.648 277.125H102.523ZM116.44 284.256C118.343 284.256 119.337 283.233 119.678 282.523H119.763V284H121.44V276.812C121.44 273.347 118.798 272.949 117.406 272.949C115.758 272.949 113.883 273.517 113.031 275.506L114.621 276.074C114.991 275.278 115.864 274.426 117.462 274.426C119.004 274.426 119.763 275.243 119.763 276.642V276.699C119.763 277.509 118.94 277.438 116.951 277.693C114.927 277.956 112.718 278.403 112.718 280.903C112.718 283.034 114.366 284.256 116.44 284.256ZM116.695 282.75C115.36 282.75 114.394 282.153 114.394 280.989C114.394 279.71 115.559 279.312 116.866 279.142C117.576 279.057 119.479 278.858 119.763 278.517V280.051C119.763 281.415 118.684 282.75 116.695 282.75ZM132.226 275.534C131.701 273.986 130.522 272.949 128.363 272.949C126.061 272.949 124.357 274.256 124.357 276.102C124.357 277.608 125.252 278.616 127.255 279.085L129.073 279.511C130.174 279.767 130.692 280.293 130.692 281.045C130.692 281.983 129.698 282.75 128.135 282.75C126.765 282.75 125.905 282.161 125.607 280.989L124.016 281.386C124.407 283.24 125.934 284.227 128.164 284.227C130.699 284.227 132.425 282.842 132.425 280.96C132.425 279.44 131.473 278.482 129.527 278.006L127.908 277.608C126.615 277.288 126.033 276.855 126.033 276.017C126.033 275.08 127.027 274.398 128.363 274.398C129.826 274.398 130.429 275.207 130.721 275.96L132.226 275.534ZM142.675 275.534C142.15 273.986 140.971 272.949 138.812 272.949C136.511 272.949 134.806 274.256 134.806 276.102C134.806 277.608 135.701 278.616 137.704 279.085L139.522 279.511C140.623 279.767 141.141 280.293 141.141 281.045C141.141 281.983 140.147 282.75 138.585 282.75C137.214 282.75 136.354 282.161 136.056 280.989L134.465 281.386C134.856 283.24 136.383 284.227 138.613 284.227C141.148 284.227 142.874 282.842 142.874 280.96C142.874 279.44 141.923 278.482 139.977 278.006L138.357 277.608C137.065 277.288 136.482 276.855 136.482 276.017C136.482 275.08 137.477 274.398 138.812 274.398C140.275 274.398 140.879 275.207 141.17 275.96L142.675 275.534ZM145.397 284H147.074V273.091H145.397V284ZM146.25 271.273C146.903 271.273 147.443 270.761 147.443 270.136C147.443 269.511 146.903 269 146.25 269C145.596 269 145.056 269.511 145.056 270.136C145.056 270.761 145.596 271.273 146.25 271.273ZM159.064 273.091H157.246L154.234 281.784H154.121L151.109 273.091H149.291L153.325 284H155.03L159.064 273.091ZM165.46 284.227C167.675 284.227 169.295 283.119 169.806 281.472L168.187 281.017C167.761 282.153 166.773 282.722 165.46 282.722C163.492 282.722 162.136 281.45 162.058 279.114H169.977V278.403C169.977 274.341 167.562 272.949 165.289 272.949C162.335 272.949 160.374 275.278 160.374 278.631C160.374 281.983 162.306 284.227 165.46 284.227ZM162.058 277.665C162.171 275.967 163.371 274.455 165.289 274.455C167.107 274.455 168.272 275.818 168.272 277.665H162.058ZM180.254 275.534C179.728 273.986 178.549 272.949 176.39 272.949C174.089 272.949 172.384 274.256 172.384 276.102C172.384 277.608 173.279 278.616 175.282 279.085L177.1 279.511C178.201 279.767 178.719 280.293 178.719 281.045C178.719 281.983 177.725 282.75 176.163 282.75C174.792 282.75 173.933 282.161 173.634 280.989L172.043 281.386C172.434 283.24 173.961 284.227 176.191 284.227C178.727 284.227 180.452 282.842 180.452 280.96C180.452 279.44 179.501 278.482 177.555 278.006L175.935 277.608C174.643 277.288 174.06 276.855 174.06 276.017C174.06 275.08 175.055 274.398 176.39 274.398C177.853 274.398 178.457 275.207 178.748 275.96L180.254 275.534Z" fill="#282848"/>
<path d="M100.761 361H102.523V355.688H105.705C109.092 355.688 110.619 353.628 110.619 351.057C110.619 348.486 109.092 346.455 105.676 346.455H100.761V361ZM102.523 354.125V348.017H105.619C107.984 348.017 108.886 349.31 108.886 351.057C108.886 352.804 107.984 354.125 105.648 354.125H102.523ZM113.229 361H114.906V354.097C114.906 352.619 116.07 351.54 117.661 351.54C118.109 351.54 118.57 351.625 118.684 351.653V349.949C118.492 349.935 118.052 349.92 117.803 349.92C116.496 349.92 115.36 350.659 114.962 351.739H114.849V350.091H113.229V361ZM124.771 361.227C127.725 361.227 129.714 358.983 129.714 355.602C129.714 352.193 127.725 349.949 124.771 349.949C121.816 349.949 119.827 352.193 119.827 355.602C119.827 358.983 121.816 361.227 124.771 361.227ZM124.771 359.722C122.526 359.722 121.504 357.79 121.504 355.602C121.504 353.415 122.526 351.455 124.771 351.455C127.015 351.455 128.038 353.415 128.038 355.602C128.038 357.79 127.015 359.722 124.771 359.722ZM132.272 361H133.949V354.182C133.949 352.584 135.113 351.455 136.42 351.455C137.691 351.455 138.579 352.286 138.579 353.528V361H140.284V353.898C140.284 352.491 141.164 351.455 142.699 351.455C143.892 351.455 144.914 352.087 144.914 353.699V361H146.591V353.699C146.591 351.135 145.213 349.949 143.267 349.949C141.704 349.949 140.561 350.666 140 351.795H139.886C139.346 350.631 138.395 349.949 136.96 349.949C135.539 349.949 134.488 350.631 134.034 351.795H133.892V350.091H132.272V361ZM154.087 361.227C157.042 361.227 159.03 358.983 159.03 355.602C159.03 352.193 157.042 349.949 154.087 349.949C151.132 349.949 149.144 352.193 149.144 355.602C149.144 358.983 151.132 361.227 154.087 361.227ZM154.087 359.722C151.843 359.722 150.82 357.79 150.82 355.602C150.82 353.415 151.843 351.455 154.087 351.455C156.331 351.455 157.354 353.415 157.354 355.602C157.354 357.79 156.331 359.722 154.087 359.722ZM166.333 350.091H164.004V347.477H162.327V350.091H160.68V351.511H162.327V358.33C162.327 360.233 163.862 361.142 165.282 361.142C165.907 361.142 166.305 361.028 166.532 360.943L166.191 359.438C166.049 359.466 165.822 359.523 165.452 359.523C164.714 359.523 164.004 359.295 164.004 357.875V351.511H166.333V350.091ZM173.311 361.227C175.527 361.227 177.146 360.119 177.658 358.472L176.038 358.017C175.612 359.153 174.625 359.722 173.311 359.722C171.344 359.722 169.987 358.45 169.909 356.114H177.828V355.403C177.828 351.341 175.413 349.949 173.141 349.949C170.186 349.949 168.226 352.278 168.226 355.631C168.226 358.983 170.158 361.227 173.311 361.227ZM169.909 354.665C170.023 352.967 171.223 351.455 173.141 351.455C174.959 351.455 176.124 352.818 176.124 354.665H169.909ZM180.378 361H182.054V354.097C182.054 352.619 183.219 351.54 184.81 351.54C185.257 351.54 185.719 351.625 185.832 351.653V349.949C185.641 349.935 185.2 349.92 184.952 349.92C183.645 349.92 182.509 350.659 182.111 351.739H181.997V350.091H180.378V361ZM195.547 352.534C195.021 350.986 193.842 349.949 191.683 349.949C189.382 349.949 187.677 351.256 187.677 353.102C187.677 354.608 188.572 355.616 190.575 356.085L192.393 356.511C193.494 356.767 194.012 357.293 194.012 358.045C194.012 358.983 193.018 359.75 191.456 359.75C190.085 359.75 189.225 359.161 188.927 357.989L187.336 358.386C187.727 360.24 189.254 361.227 191.484 361.227C194.02 361.227 195.745 359.842 195.745 357.96C195.745 356.44 194.794 355.482 192.848 355.006L191.228 354.608C189.936 354.288 189.353 353.855 189.353 353.017C189.353 352.08 190.348 351.398 191.683 351.398C193.146 351.398 193.75 352.207 194.041 352.96L195.547 352.534Z" fill="#282848"/>
<line y1="240.5" x2="800" y2="240.5" stroke="#DDE3ED"/>
<line y1="317.5" x2="800" y2="317.5" stroke="#DDE3ED"/>
</svg>
