<svg width="800" height="162" viewBox="0 0 800 162" fill="none" xmlns="http://www.w3.org/2000/svg">
<rect width="800" height="162" rx="12" fill="#F5F7FA"/>
<path d="M496.636 75.3636H495.25V84.5227H495.136L488.773 75.3636H487.409V87H488.818V77.8636H488.932L495.273 87H496.636V75.3636ZM499.456 87H500.865V82.75H503.411C506.121 82.75 507.342 81.1023 507.342 79.0455C507.342 76.9886 506.121 75.3636 503.388 75.3636H499.456V87ZM500.865 81.5V76.6136H503.342C505.234 76.6136 505.956 77.6477 505.956 79.0455C505.956 80.4432 505.234 81.5 503.365 81.5H500.865ZM515.976 78.2727H517.339C517.277 76.517 515.658 75.2045 513.408 75.2045C511.18 75.2045 509.43 76.5 509.43 78.4545C509.43 80.0227 510.567 80.9545 512.385 81.4773L513.817 81.8864C515.044 82.2273 516.135 82.6591 516.135 83.8182C516.135 85.0909 514.908 85.9318 513.294 85.9318C511.908 85.9318 510.68 85.3182 510.567 84H509.112C509.249 85.9091 510.794 87.2045 513.294 87.2045C515.976 87.2045 517.499 85.7273 517.499 83.8409C517.499 81.6591 515.43 80.9545 514.226 80.6364L513.044 80.3182C512.18 80.0909 510.794 79.6364 510.794 78.3864C510.794 77.2727 511.817 76.4545 513.362 76.4545C514.771 76.4545 515.839 77.125 515.976 78.2727ZM524.679 83.4773H531.679V82.25H524.679V83.4773ZM524.679 80.1136H531.679V78.8864H524.679V80.1136ZM545.089 84.8182C545.089 86.0909 545.885 87.1591 547.362 87.1591C548.817 87.1591 549.612 86.0909 549.612 84.8182V84.2045C549.612 82.9318 548.839 81.8636 547.362 81.8636C545.908 81.8636 545.089 82.9318 545.089 84.2045V84.8182ZM539.294 78.1591C539.294 79.4318 540.089 80.5 541.567 80.5C543.021 80.5 543.817 79.4318 543.817 78.1591V77.5455C543.817 76.2727 543.044 75.2045 541.567 75.2045C540.112 75.2045 539.294 76.2727 539.294 77.5455V78.1591ZM539.726 87H541.021L549.021 75.3636H547.726L539.726 87ZM546.249 84.2045C546.249 83.5 546.567 82.8409 547.362 82.8409C548.18 82.8409 548.453 83.5 548.453 84.2045V84.8182C548.453 85.5227 548.158 86.1818 547.362 86.1818C546.544 86.1818 546.249 85.5227 546.249 84.8182V84.2045ZM540.453 77.5455C540.453 76.8409 540.771 76.1818 541.567 76.1818C542.385 76.1818 542.658 76.8409 542.658 77.5455V78.1591C542.658 78.8636 542.362 79.5227 541.567 79.5227C540.749 79.5227 540.453 78.8636 540.453 78.1591V77.5455ZM556.68 90.2727H558.021V85.6591H558.135C558.43 86.1364 558.999 87.1818 560.68 87.1818C562.862 87.1818 564.385 85.4318 564.385 82.6591C564.385 79.9091 562.862 78.1591 560.658 78.1591C558.953 78.1591 558.43 79.2045 558.135 79.6591H557.976V78.2727H556.68V90.2727ZM557.999 82.6364C557.999 80.6818 558.862 79.3636 560.499 79.3636C562.203 79.3636 563.044 80.7955 563.044 82.6364C563.044 84.5 562.18 85.9773 560.499 85.9773C558.885 85.9773 557.999 84.6136 557.999 82.6364ZM566.43 87H567.771V81.4773C567.771 80.2955 568.703 79.4318 569.976 79.4318C570.334 79.4318 570.703 79.5 570.794 79.5227V78.1591C570.641 78.1477 570.288 78.1364 570.089 78.1364C569.044 78.1364 568.135 78.7273 567.817 79.5909H567.726V78.2727H566.43V87ZM575.663 87.1818C578.027 87.1818 579.618 85.3864 579.618 82.6818C579.618 79.9545 578.027 78.1591 575.663 78.1591C573.3 78.1591 571.709 79.9545 571.709 82.6818C571.709 85.3864 573.3 87.1818 575.663 87.1818ZM575.663 85.9773C573.868 85.9773 573.05 84.4318 573.05 82.6818C573.05 80.9318 573.868 79.3636 575.663 79.3636C577.459 79.3636 578.277 80.9318 578.277 82.6818C578.277 84.4318 577.459 85.9773 575.663 85.9773ZM581.665 87H583.006V81.5455C583.006 80.267 583.938 79.3636 584.983 79.3636C586 79.3636 586.71 80.0284 586.71 81.0227V87H588.074V81.3182C588.074 80.1932 588.778 79.3636 590.006 79.3636C590.96 79.3636 591.778 79.8693 591.778 81.1591V87H593.119V81.1591C593.119 79.108 592.017 78.1591 590.46 78.1591C589.21 78.1591 588.295 78.733 587.847 79.6364H587.756C587.324 78.7045 586.562 78.1591 585.415 78.1591C584.278 78.1591 583.438 78.7045 583.074 79.6364H582.96V78.2727H581.665V87ZM599.116 87.1818C601.48 87.1818 603.071 85.3864 603.071 82.6818C603.071 79.9545 601.48 78.1591 599.116 78.1591C596.753 78.1591 595.162 79.9545 595.162 82.6818C595.162 85.3864 596.753 87.1818 599.116 87.1818ZM599.116 85.9773C597.321 85.9773 596.503 84.4318 596.503 82.6818C596.503 80.9318 597.321 79.3636 599.116 79.3636C600.912 79.3636 601.73 80.9318 601.73 82.6818C601.73 84.4318 600.912 85.9773 599.116 85.9773ZM608.913 78.2727H607.05V76.1818H605.709V78.2727H604.391V79.4091H605.709V84.8636C605.709 86.3864 606.936 87.1136 608.072 87.1136C608.572 87.1136 608.891 87.0227 609.072 86.9545L608.8 85.75C608.686 85.7727 608.504 85.8182 608.209 85.8182C607.618 85.8182 607.05 85.6364 607.05 84.5V79.4091H608.913V78.2727ZM614.496 87.1818C616.268 87.1818 617.564 86.2955 617.973 84.9773L616.678 84.6136C616.337 85.5227 615.547 85.9773 614.496 85.9773C612.922 85.9773 611.837 84.9602 611.774 83.0909H618.109V82.5227C618.109 79.2727 616.178 78.1591 614.359 78.1591C611.996 78.1591 610.428 80.0227 610.428 82.7045C610.428 85.3864 611.973 87.1818 614.496 87.1818ZM611.774 81.9318C611.865 80.5739 612.825 79.3636 614.359 79.3636C615.814 79.3636 616.746 80.4545 616.746 81.9318H611.774ZM620.149 87H621.49V81.4773C621.49 80.2955 622.422 79.4318 623.695 79.4318C624.053 79.4318 624.422 79.5 624.513 79.5227V78.1591C624.359 78.1477 624.007 78.1364 623.808 78.1364C622.763 78.1364 621.854 78.7273 621.536 79.5909H621.445V78.2727H620.149V87ZM632.284 80.2273C631.864 78.9886 630.92 78.1591 629.193 78.1591C627.352 78.1591 625.989 79.2045 625.989 80.6818C625.989 81.8864 626.705 82.6932 628.307 83.0682L629.761 83.4091C630.642 83.6136 631.057 84.0341 631.057 84.6364C631.057 85.3864 630.261 86 629.011 86C627.915 86 627.227 85.5284 626.989 84.5909L625.716 84.9091C626.028 86.392 627.25 87.1818 629.034 87.1818C631.062 87.1818 632.443 86.0739 632.443 84.5682C632.443 83.3523 631.682 82.5852 630.125 82.2045L628.83 81.8864C627.795 81.6307 627.33 81.2841 627.33 80.6136C627.33 79.8636 628.125 79.3182 629.193 79.3182C630.364 79.3182 630.847 79.9659 631.08 80.5682L632.284 80.2273ZM643.962 81.3864H638.871V82.6364H643.962V81.3864ZM656.73 84.8182C656.73 86.0909 657.526 87.1591 659.003 87.1591C660.457 87.1591 661.253 86.0909 661.253 84.8182V84.2045C661.253 82.9318 660.48 81.8636 659.003 81.8636C657.548 81.8636 656.73 82.9318 656.73 84.2045V84.8182ZM650.935 78.1591C650.935 79.4318 651.73 80.5 653.207 80.5C654.662 80.5 655.457 79.4318 655.457 78.1591V77.5455C655.457 76.2727 654.685 75.2045 653.207 75.2045C651.753 75.2045 650.935 76.2727 650.935 77.5455V78.1591ZM651.366 87H652.662L660.662 75.3636H659.366L651.366 87ZM657.889 84.2045C657.889 83.5 658.207 82.8409 659.003 82.8409C659.821 82.8409 660.094 83.5 660.094 84.2045V84.8182C660.094 85.5227 659.798 86.1818 659.003 86.1818C658.185 86.1818 657.889 85.5227 657.889 84.8182V84.2045ZM652.094 77.5455C652.094 76.8409 652.412 76.1818 653.207 76.1818C654.026 76.1818 654.298 76.8409 654.298 77.5455V78.1591C654.298 78.8636 654.003 79.5227 653.207 79.5227C652.389 79.5227 652.094 78.8636 652.094 78.1591V77.5455ZM671.616 87.1818C673.298 87.1818 673.866 86.1364 674.162 85.6591H674.321V87H675.616V75.3636H674.276V79.6591H674.162C673.866 79.2045 673.344 78.1591 671.639 78.1591C669.435 78.1591 667.912 79.9091 667.912 82.6591C667.912 85.4318 669.435 87.1818 671.616 87.1818ZM671.798 85.9773C670.116 85.9773 669.253 84.5 669.253 82.6364C669.253 80.7955 670.094 79.3636 671.798 79.3636C673.435 79.3636 674.298 80.6818 674.298 82.6364C674.298 84.6136 673.412 85.9773 671.798 85.9773ZM681.918 87.1818C683.69 87.1818 684.986 86.2955 685.395 84.9773L684.099 84.6136C683.759 85.5227 682.969 85.9773 681.918 85.9773C680.344 85.9773 679.259 84.9602 679.196 83.0909H685.531V82.5227C685.531 79.2727 683.599 78.1591 681.781 78.1591C679.418 78.1591 677.849 80.0227 677.849 82.7045C677.849 85.3864 679.395 87.1818 681.918 87.1818ZM679.196 81.9318C679.287 80.5739 680.247 79.3636 681.781 79.3636C683.236 79.3636 684.168 80.4545 684.168 81.9318H679.196ZM691.366 78.2727H689.503V76.1818H688.162V78.2727H686.844V79.4091H688.162V84.8636C688.162 86.3864 689.389 87.1136 690.526 87.1136C691.026 87.1136 691.344 87.0227 691.526 86.9545L691.253 85.75C691.139 85.7727 690.957 85.8182 690.662 85.8182C690.071 85.8182 689.503 85.6364 689.503 84.5V79.4091H691.366V78.2727ZM693.384 87H694.724V81.4773C694.724 80.2955 695.656 79.4318 696.929 79.4318C697.287 79.4318 697.656 79.5 697.747 79.5227V78.1591C697.594 78.1477 697.241 78.1364 697.043 78.1364C695.997 78.1364 695.088 78.7273 694.77 79.5909H694.679V78.2727H693.384V87ZM701.905 87.2045C703.428 87.2045 704.223 86.3864 704.496 85.8182H704.564V87H705.905V81.25C705.905 78.4773 703.791 78.1591 702.678 78.1591C701.359 78.1591 699.859 78.6136 699.178 80.2045L700.45 80.6591C700.746 80.0227 701.445 79.3409 702.723 79.3409C703.956 79.3409 704.564 79.9943 704.564 81.1136V81.1591C704.564 81.8068 703.905 81.75 702.314 81.9545C700.695 82.1648 698.928 82.5227 698.928 84.5227C698.928 86.2273 700.246 87.2045 701.905 87.2045ZM702.109 86C701.041 86 700.268 85.5227 700.268 84.5909C700.268 83.5682 701.2 83.25 702.246 83.1136C702.814 83.0455 704.337 82.8864 704.564 82.6136V83.8409C704.564 84.9318 703.7 86 702.109 86ZM711.898 87.1818C713.83 87.1818 715.102 86 715.33 84.4545H713.989C713.739 85.4091 712.943 85.9773 711.898 85.9773C710.307 85.9773 709.284 84.6591 709.284 82.6364C709.284 80.6591 710.33 79.3636 711.898 79.3636C713.08 79.3636 713.784 80.0909 713.989 80.8864H715.33C715.102 79.25 713.716 78.1591 711.875 78.1591C709.511 78.1591 707.943 80.0227 707.943 82.6818C707.943 85.2955 709.443 87.1818 711.898 87.1818ZM721.085 78.2727H719.222V76.1818H717.881V78.2727H716.562V79.4091H717.881V84.8636C717.881 86.3864 719.108 87.1136 720.244 87.1136C720.744 87.1136 721.062 87.0227 721.244 86.9545L720.972 85.75C720.858 85.7727 720.676 85.8182 720.381 85.8182C719.79 85.8182 719.222 85.6364 719.222 84.5V79.4091H721.085V78.2727ZM726.554 87.1818C728.918 87.1818 730.509 85.3864 730.509 82.6818C730.509 79.9545 728.918 78.1591 726.554 78.1591C724.19 78.1591 722.599 79.9545 722.599 82.6818C722.599 85.3864 724.19 87.1818 726.554 87.1818ZM726.554 85.9773C724.759 85.9773 723.94 84.4318 723.94 82.6818C723.94 80.9318 724.759 79.3636 726.554 79.3636C728.349 79.3636 729.168 80.9318 729.168 82.6818C729.168 84.4318 728.349 85.9773 726.554 85.9773ZM732.555 87H733.896V81.4773C733.896 80.2955 734.828 79.4318 736.101 79.4318C736.459 79.4318 736.828 79.5 736.919 79.5227V78.1591C736.766 78.1477 736.413 78.1364 736.214 78.1364C735.169 78.1364 734.26 78.7273 733.942 79.5909H733.851V78.2727H732.555V87ZM744.69 80.2273C744.27 78.9886 743.327 78.1591 741.599 78.1591C739.759 78.1591 738.395 79.2045 738.395 80.6818C738.395 81.8864 739.111 82.6932 740.713 83.0682L742.168 83.4091C743.048 83.6136 743.463 84.0341 743.463 84.6364C743.463 85.3864 742.668 86 741.418 86C740.321 86 739.634 85.5284 739.395 84.5909L738.122 84.9091C738.435 86.392 739.656 87.1818 741.44 87.1818C743.469 87.1818 744.849 86.0739 744.849 84.5682C744.849 83.3523 744.088 82.5852 742.531 82.2045L741.236 81.8864C740.202 81.6307 739.736 81.2841 739.736 80.6136C739.736 79.8636 740.531 79.3182 741.599 79.3182C742.77 79.3182 743.253 79.9659 743.486 80.5682L744.69 80.2273Z" fill="#58606E"/>
<path d="M496.636 106.364H495.25V115.523H495.136L488.773 106.364H487.409V118H488.818V108.864H488.932L495.273 118H496.636V106.364ZM499.456 118H500.865V113.75H503.411C506.121 113.75 507.342 112.102 507.342 110.045C507.342 107.989 506.121 106.364 503.388 106.364H499.456V118ZM500.865 112.5V107.614H503.342C505.234 107.614 505.956 108.648 505.956 110.045C505.956 111.443 505.234 112.5 503.365 112.5H500.865ZM515.976 109.273H517.339C517.277 107.517 515.658 106.205 513.408 106.205C511.18 106.205 509.43 107.5 509.43 109.455C509.43 111.023 510.567 111.955 512.385 112.477L513.817 112.886C515.044 113.227 516.135 113.659 516.135 114.818C516.135 116.091 514.908 116.932 513.294 116.932C511.908 116.932 510.68 116.318 510.567 115H509.112C509.249 116.909 510.794 118.205 513.294 118.205C515.976 118.205 517.499 116.727 517.499 114.841C517.499 112.659 515.43 111.955 514.226 111.636L513.044 111.318C512.18 111.091 510.794 110.636 510.794 109.386C510.794 108.273 511.817 107.455 513.362 107.455C514.771 107.455 515.839 108.125 515.976 109.273ZM524.679 114.477H531.679V113.25H524.679V114.477ZM524.679 111.114H531.679V109.886H524.679V111.114ZM543.089 118.159C545.345 118.159 547.021 116.744 547.021 114.841C547.021 113.364 546.146 112.29 544.68 112.045V111.955C545.857 111.597 546.589 110.631 546.589 109.318C546.589 107.67 545.288 106.205 543.135 106.205C541.124 106.205 539.453 107.443 539.385 109.273H540.749C540.8 108.114 541.902 107.432 543.112 107.432C544.396 107.432 545.226 108.21 545.226 109.386C545.226 110.614 544.266 111.409 542.885 111.409H541.953V112.659H542.885C544.652 112.659 545.635 113.557 545.635 114.841C545.635 116.074 544.561 116.909 543.067 116.909C541.72 116.909 540.652 116.216 540.567 115.091H539.135C539.22 116.92 540.834 118.159 543.089 118.159ZM553.05 106.205C550.686 106.176 549.163 107.955 549.163 110.091C549.163 112.341 550.822 113.955 552.822 113.955C554.027 113.955 555.05 113.364 555.686 112.409H555.777C555.777 115.273 554.663 116.909 552.868 116.909C551.641 116.909 550.891 116.136 550.641 115.068H549.254C549.527 116.909 550.913 118.159 552.868 118.159C555.482 118.159 557.095 115.841 557.095 111.705C557.095 107.432 554.959 106.227 553.05 106.205ZM553.05 107.455C554.504 107.455 555.572 108.705 555.572 110.068C555.572 111.455 554.436 112.705 553.004 112.705C551.572 112.705 550.527 111.545 550.527 110.091C550.527 108.636 551.618 107.455 553.05 107.455ZM565.261 115.818C565.261 117.091 566.057 118.159 567.534 118.159C568.989 118.159 569.784 117.091 569.784 115.818V115.205C569.784 113.932 569.011 112.864 567.534 112.864C566.08 112.864 565.261 113.932 565.261 115.205V115.818ZM559.466 109.159C559.466 110.432 560.261 111.5 561.739 111.5C563.193 111.5 563.989 110.432 563.989 109.159V108.545C563.989 107.273 563.216 106.205 561.739 106.205C560.284 106.205 559.466 107.273 559.466 108.545V109.159ZM559.898 118H561.193L569.193 106.364H567.898L559.898 118ZM566.42 115.205C566.42 114.5 566.739 113.841 567.534 113.841C568.352 113.841 568.625 114.5 568.625 115.205V115.818C568.625 116.523 568.33 117.182 567.534 117.182C566.716 117.182 566.42 116.523 566.42 115.818V115.205ZM560.625 108.545C560.625 107.841 560.943 107.182 561.739 107.182C562.557 107.182 562.83 107.841 562.83 108.545V109.159C562.83 109.864 562.534 110.523 561.739 110.523C560.92 110.523 560.625 109.864 560.625 109.159V108.545ZM581.852 111.557H576.761V112.807H581.852V111.557ZM588.416 115.614H593.893V118H595.234V115.614H596.825V114.364H595.234V106.364H593.53L588.416 114.455V115.614ZM593.893 114.364H589.939V114.273L593.803 108.159H593.893V114.364ZM598.682 115.614H604.159V118H605.5V115.614H607.091V114.364H605.5V106.364H603.795L598.682 114.455V115.614ZM604.159 114.364H600.205V114.273L604.068 108.159H604.159V114.364ZM615.152 115.818C615.152 117.091 615.947 118.159 617.425 118.159C618.879 118.159 619.675 117.091 619.675 115.818V115.205C619.675 113.932 618.902 112.864 617.425 112.864C615.97 112.864 615.152 113.932 615.152 115.205V115.818ZM609.357 109.159C609.357 110.432 610.152 111.5 611.629 111.5C613.084 111.5 613.879 110.432 613.879 109.159V108.545C613.879 107.273 613.107 106.205 611.629 106.205C610.175 106.205 609.357 107.273 609.357 108.545V109.159ZM609.788 118H611.084L619.084 106.364H617.788L609.788 118ZM616.311 115.205C616.311 114.5 616.629 113.841 617.425 113.841C618.243 113.841 618.516 114.5 618.516 115.205V115.818C618.516 116.523 618.22 117.182 617.425 117.182C616.607 117.182 616.311 116.523 616.311 115.818V115.205ZM610.516 108.545C610.516 107.841 610.834 107.182 611.629 107.182C612.447 107.182 612.72 107.841 612.72 108.545V109.159C612.72 109.864 612.425 110.523 611.629 110.523C610.811 110.523 610.516 109.864 610.516 109.159V108.545Z" fill="#58606E"/>
<path d="M486.773 45.6136H490.432V56H491.841V45.6136H495.5V44.3636H486.773V45.6136ZM499.773 56.1818C502.136 56.1818 503.727 54.3864 503.727 51.6818C503.727 48.9545 502.136 47.1591 499.773 47.1591C497.409 47.1591 495.818 48.9545 495.818 51.6818C495.818 54.3864 497.409 56.1818 499.773 56.1818ZM499.773 54.9773C497.977 54.9773 497.159 53.4318 497.159 51.6818C497.159 49.9318 497.977 48.3636 499.773 48.3636C501.568 48.3636 502.386 49.9318 502.386 51.6818C502.386 53.4318 501.568 54.9773 499.773 54.9773ZM509.57 47.2727H507.706V45.1818H506.365V47.2727H505.047V48.4091H506.365V53.8636C506.365 55.3864 507.592 56.1136 508.729 56.1136C509.229 56.1136 509.547 56.0227 509.729 55.9545L509.456 54.75C509.342 54.7727 509.161 54.8182 508.865 54.8182C508.274 54.8182 507.706 54.6364 507.706 53.5V48.4091H509.57V47.2727ZM514.155 56.2045C515.678 56.2045 516.473 55.3864 516.746 54.8182H516.814V56H518.155V50.25C518.155 47.4773 516.041 47.1591 514.928 47.1591C513.609 47.1591 512.109 47.6136 511.428 49.2045L512.7 49.6591C512.996 49.0227 513.695 48.3409 514.973 48.3409C516.206 48.3409 516.814 48.9943 516.814 50.1136V50.1591C516.814 50.8068 516.155 50.75 514.564 50.9545C512.945 51.1648 511.178 51.5227 511.178 53.5227C511.178 55.2273 512.496 56.2045 514.155 56.2045ZM514.359 55C513.291 55 512.518 54.5227 512.518 53.5909C512.518 52.5682 513.45 52.25 514.496 52.1136C515.064 52.0455 516.587 51.8864 516.814 51.6136V52.8409C516.814 53.9318 515.95 55 514.359 55ZM521.943 44.3636H520.602V56H521.943V44.3636ZM528.899 56H530.24V50.4773C530.24 49.2955 531.172 48.4318 532.445 48.4318C532.803 48.4318 533.172 48.5 533.263 48.5227V47.1591C533.109 47.1477 532.757 47.1364 532.558 47.1364C531.513 47.1364 530.604 47.7273 530.286 48.5909H530.195V47.2727H528.899V56ZM538.246 56.1818C540.018 56.1818 541.314 55.2955 541.723 53.9773L540.428 53.6136C540.087 54.5227 539.297 54.9773 538.246 54.9773C536.672 54.9773 535.587 53.9602 535.524 52.0909H541.859V51.5227C541.859 48.2727 539.928 47.1591 538.109 47.1591C535.746 47.1591 534.178 49.0227 534.178 51.7045C534.178 54.3864 535.723 56.1818 538.246 56.1818ZM535.524 50.9318C535.615 49.5739 536.575 48.3636 538.109 48.3636C539.564 48.3636 540.496 49.4545 540.496 50.9318H535.524ZM550.081 49.2273C549.661 47.9886 548.717 47.1591 546.99 47.1591C545.149 47.1591 543.786 48.2045 543.786 49.6818C543.786 50.8864 544.501 51.6932 546.104 52.0682L547.558 52.4091C548.439 52.6136 548.854 53.0341 548.854 53.6364C548.854 54.3864 548.058 55 546.808 55C545.712 55 545.024 54.5284 544.786 53.5909L543.513 53.9091C543.825 55.392 545.047 56.1818 546.831 56.1818C548.859 56.1818 550.24 55.0739 550.24 53.5682C550.24 52.3523 549.479 51.5852 547.922 51.2045L546.626 50.8864C545.592 50.6307 545.126 50.2841 545.126 49.6136C545.126 48.8636 545.922 48.3182 546.99 48.3182C548.161 48.3182 548.643 48.9659 548.876 49.5682L550.081 49.2273ZM552.259 59.2727H553.599V54.6591H553.713C554.009 55.1364 554.577 56.1818 556.259 56.1818C558.44 56.1818 559.963 54.4318 559.963 51.6591C559.963 48.9091 558.44 47.1591 556.236 47.1591C554.531 47.1591 554.009 48.2045 553.713 48.6591H553.554V47.2727H552.259V59.2727ZM553.577 51.6364C553.577 49.6818 554.44 48.3636 556.077 48.3636C557.781 48.3636 558.622 49.7955 558.622 51.6364C558.622 53.5 557.759 54.9773 556.077 54.9773C554.463 54.9773 553.577 53.6136 553.577 51.6364ZM565.554 56.1818C567.918 56.1818 569.509 54.3864 569.509 51.6818C569.509 48.9545 567.918 47.1591 565.554 47.1591C563.19 47.1591 561.599 48.9545 561.599 51.6818C561.599 54.3864 563.19 56.1818 565.554 56.1818ZM565.554 54.9773C563.759 54.9773 562.94 53.4318 562.94 51.6818C562.94 49.9318 563.759 48.3636 565.554 48.3636C567.349 48.3636 568.168 49.9318 568.168 51.6818C568.168 53.4318 567.349 54.9773 565.554 54.9773ZM572.896 50.75C572.896 49.2273 573.839 48.3636 575.124 48.3636C576.368 48.3636 577.124 49.1761 577.124 50.5455V56H578.464V50.4545C578.464 48.2273 577.277 47.1591 575.51 47.1591C574.192 47.1591 573.374 47.75 572.964 48.6364H572.851V47.2727H571.555V56H572.896V50.75ZM587.097 49.2273C586.676 47.9886 585.733 47.1591 584.006 47.1591C582.165 47.1591 580.801 48.2045 580.801 49.6818C580.801 50.8864 581.517 51.6932 583.119 52.0682L584.574 52.4091C585.455 52.6136 585.869 53.0341 585.869 53.6364C585.869 54.3864 585.074 55 583.824 55C582.727 55 582.04 54.5284 581.801 53.5909L580.528 53.9091C580.841 55.392 582.062 56.1818 583.847 56.1818C585.875 56.1818 587.256 55.0739 587.256 53.5682C587.256 52.3523 586.494 51.5852 584.938 51.2045L583.642 50.8864C582.608 50.6307 582.142 50.2841 582.142 49.6136C582.142 48.8636 582.938 48.3182 584.006 48.3182C585.176 48.3182 585.659 48.9659 585.892 49.5682L587.097 49.2273ZM592.933 56.1818C594.706 56.1818 596.001 55.2955 596.411 53.9773L595.115 53.6136C594.774 54.5227 593.984 54.9773 592.933 54.9773C591.359 54.9773 590.274 53.9602 590.212 52.0909H596.547V51.5227C596.547 48.2727 594.615 47.1591 592.797 47.1591C590.433 47.1591 588.865 49.0227 588.865 51.7045C588.865 54.3864 590.411 56.1818 592.933 56.1818ZM590.212 50.9318C590.303 49.5739 591.263 48.3636 592.797 48.3636C594.251 48.3636 595.183 49.4545 595.183 50.9318H590.212ZM604.768 49.2273C604.348 47.9886 603.405 47.1591 601.678 47.1591C599.837 47.1591 598.473 48.2045 598.473 49.6818C598.473 50.8864 599.189 51.6932 600.791 52.0682L602.246 52.4091C603.126 52.6136 603.541 53.0341 603.541 53.6364C603.541 54.3864 602.746 55 601.496 55C600.399 55 599.712 54.5284 599.473 53.5909L598.2 53.9091C598.513 55.392 599.734 56.1818 601.518 56.1818C603.547 56.1818 604.928 55.0739 604.928 53.5682C604.928 52.3523 604.166 51.5852 602.609 51.2045L601.314 50.8864C600.28 50.6307 599.814 50.2841 599.814 49.6136C599.814 48.8636 600.609 48.3182 601.678 48.3182C602.848 48.3182 603.331 48.9659 603.564 49.5682L604.768 49.2273ZM607.923 56.0909C608.486 56.0909 608.946 55.6307 608.946 55.0682C608.946 54.5057 608.486 54.0455 607.923 54.0455C607.361 54.0455 606.901 54.5057 606.901 55.0682C606.901 55.6307 607.361 56.0909 607.923 56.0909ZM607.923 49.6136C608.486 49.6136 608.946 49.1534 608.946 48.5909C608.946 48.0284 608.486 47.5682 607.923 47.5682C607.361 47.5682 606.901 48.0284 606.901 48.5909C606.901 49.1534 607.361 49.6136 607.923 49.6136ZM619.693 56.1591C622.045 56.1875 623.58 54.4148 623.58 52.25C623.58 50 621.915 48.3864 619.92 48.3864C618.722 48.3864 617.693 48.9716 617.057 49.9318H616.966C616.972 47.0966 618.074 45.4545 619.875 45.4545C621.102 45.4545 621.841 46.2273 622.102 47.2727H623.489C623.205 45.4659 621.83 44.2045 619.875 44.2045C617.256 44.2045 615.648 46.5227 615.648 50.6364C615.648 54.9375 617.784 56.1364 619.693 56.1591ZM619.693 54.9091C618.233 54.9091 617.165 53.6648 617.17 52.2727C617.176 50.8807 618.295 49.6364 619.739 49.6364C621.165 49.6364 622.216 50.8068 622.216 52.25C622.216 53.7273 621.119 54.9091 619.693 54.9091ZM629.609 56.1591C632.178 56.1591 633.655 53.983 633.655 50.1818C633.655 46.4091 632.155 44.2045 629.609 44.2045C627.064 44.2045 625.564 46.4091 625.564 50.1818C625.564 53.983 627.041 56.1591 629.609 56.1591ZM629.609 54.9091C627.916 54.9091 626.928 53.2102 626.928 50.1818C626.928 47.1591 627.928 45.4318 629.609 45.4318C631.291 45.4318 632.291 47.1591 632.291 50.1818C632.291 53.2102 631.303 54.9091 629.609 54.9091ZM635.814 56H643.155V54.75H637.746V54.6591L640.359 51.8636C642.359 49.7216 642.95 48.7216 642.95 47.4318C642.95 45.6364 641.496 44.2045 639.45 44.2045C637.411 44.2045 635.859 45.5909 635.859 47.6364H637.2C637.2 46.3125 638.058 45.4318 639.405 45.4318C640.666 45.4318 641.632 46.2045 641.632 47.4318C641.632 48.5057 641.001 49.3011 639.655 50.7727L635.814 54.9773V56Z" fill="#58606E"/>
<path d="M73.9091 75.0909H69.75V102.568H69.4091L50.3182 75.0909H46.2273V110H50.4545V82.5909H50.7955L69.8182 110H73.9091V75.0909ZM82.3679 110H86.5952V97.25H94.2315C102.362 97.25 106.027 92.3068 106.027 86.1364C106.027 79.9659 102.362 75.0909 94.1634 75.0909H82.3679V110ZM86.5952 93.5V78.8409H94.027C99.7031 78.8409 101.868 81.9432 101.868 86.1364C101.868 90.3295 99.7031 93.5 94.0952 93.5H86.5952ZM131.928 83.8182H136.018C135.831 78.5511 130.973 74.6136 124.223 74.6136C117.541 74.6136 112.291 78.5 112.291 84.3636C112.291 89.0682 115.7 91.8636 121.155 93.4318L125.45 94.6591C129.132 95.6818 132.405 96.9773 132.405 100.455C132.405 104.273 128.723 106.795 123.882 106.795C119.723 106.795 116.041 104.955 115.7 101H111.337C111.746 106.727 116.382 110.614 123.882 110.614C131.928 110.614 136.496 106.182 136.496 100.523C136.496 93.9773 130.291 91.8636 126.678 90.9091L123.132 89.9545C120.541 89.2727 116.382 87.9091 116.382 84.1591C116.382 80.8182 119.45 78.3636 124.087 78.3636C128.314 78.3636 131.518 80.375 131.928 83.8182ZM158.037 99.4318H179.037V95.75H158.037V99.4318ZM158.037 89.3409H179.037V85.6591H158.037V89.3409ZM216.541 90.6705H201.268V94.4205H216.541V90.6705ZM234.46 110.477C241.108 110.477 245.983 105.568 245.983 98.8864C245.983 92.1193 241.278 87.1591 234.869 87.1591C232.517 87.1591 230.233 87.9943 228.801 89.1364H228.597L229.824 78.8409H244.415V75.0909H226.278L224.165 92.2727L228.119 92.75C229.568 91.7102 232.04 90.9602 234.188 90.9773C238.636 91.0114 241.892 94.3864 241.892 98.9545C241.892 103.438 238.756 106.727 234.46 106.727C230.881 106.727 228.034 104.426 227.71 101.273H223.619C223.875 106.591 228.46 110.477 234.46 110.477Z" fill="#282848"/>
<path d="M43.4091 55H44.8182V49.7955H49.8636V48.5455H44.8182V44.6136H50.3864V43.3636H43.4091V55ZM55.6364 55.1818C57.4091 55.1818 58.7045 54.2955 59.1136 52.9773L57.8182 52.6136C57.4773 53.5227 56.6875 53.9773 55.6364 53.9773C54.0625 53.9773 52.9773 52.9602 52.9148 51.0909H59.25V50.5227C59.25 47.2727 57.3182 46.1591 55.5 46.1591C53.1364 46.1591 51.5682 48.0227 51.5682 50.7045C51.5682 53.3864 53.1136 55.1818 55.6364 55.1818ZM52.9148 49.9318C53.0057 48.5739 53.9659 47.3636 55.5 47.3636C56.9545 47.3636 57.8864 48.4545 57.8864 49.9318H52.9148ZM61.4716 55H62.767V53.6591H62.9261C63.2216 54.1364 63.7898 55.1818 65.4716 55.1818C67.6534 55.1818 69.1761 53.4318 69.1761 50.6591C69.1761 47.9091 67.6534 46.1591 65.4489 46.1591C63.7443 46.1591 63.2216 47.2045 62.9261 47.6591H62.8125V43.3636H61.4716V55ZM62.7898 50.6364C62.7898 48.6818 63.6534 47.3636 65.2898 47.3636C66.9943 47.3636 67.8352 48.7955 67.8352 50.6364C67.8352 52.5 66.9716 53.9773 65.2898 53.9773C63.6761 53.9773 62.7898 52.6136 62.7898 50.6364ZM75.7045 55H83.0455V53.75H77.6364V53.6591L80.25 50.8636C82.25 48.7216 82.8409 47.7216 82.8409 46.4318C82.8409 44.6364 81.3864 43.2045 79.3409 43.2045C77.3011 43.2045 75.75 44.5909 75.75 46.6364H77.0909C77.0909 45.3125 77.9489 44.4318 79.2955 44.4318C80.5568 44.4318 81.5227 45.2045 81.5227 46.4318C81.5227 47.5057 80.892 48.3011 79.5455 49.7727L75.7045 53.9773V55ZM89.1875 55.1591C91.7557 55.1591 93.233 52.983 93.233 49.1818C93.233 45.4091 91.733 43.2045 89.1875 43.2045C86.642 43.2045 85.142 45.4091 85.142 49.1818C85.142 52.983 86.6193 55.1591 89.1875 55.1591ZM89.1875 53.9091C87.4943 53.9091 86.5057 52.2102 86.5057 49.1818C86.5057 46.1591 87.5057 44.4318 89.1875 44.4318C90.8693 44.4318 91.8693 46.1591 91.8693 49.1818C91.8693 52.2102 90.8807 53.9091 89.1875 53.9091ZM95.392 55H102.733V53.75H97.3239V53.6591L99.9375 50.8636C101.938 48.7216 102.528 47.7216 102.528 46.4318C102.528 44.6364 101.074 43.2045 99.0284 43.2045C96.9886 43.2045 95.4375 44.5909 95.4375 46.6364H96.7784C96.7784 45.3125 97.6364 44.4318 98.983 44.4318C100.244 44.4318 101.21 45.2045 101.21 46.4318C101.21 47.5057 100.58 48.3011 99.233 49.7727L95.392 53.9773V55ZM108.875 55.1591C111.443 55.1591 112.92 52.983 112.92 49.1818C112.92 45.4091 111.42 43.2045 108.875 43.2045C106.33 43.2045 104.83 45.4091 104.83 49.1818C104.83 52.983 106.307 55.1591 108.875 55.1591ZM108.875 53.9091C107.182 53.9091 106.193 52.2102 106.193 49.1818C106.193 46.1591 107.193 44.4318 108.875 44.4318C110.557 44.4318 111.557 46.1591 111.557 49.1818C111.557 52.2102 110.568 53.9091 108.875 53.9091Z" fill="#58606E"/>
</svg>
