<svg width="800" height="405" viewBox="0 0 800 405" fill="none" xmlns="http://www.w3.org/2000/svg">
<rect width="800" height="405" rx="12" fill="#F5F7FA"/>
<rect x="110" y="71" width="124" height="238" rx="4" fill="#282848"/>
<path d="M139.023 51.04V52.1133H138.791C137.807 52.1315 137.023 52.4232 136.439 52.9883C135.856 53.5534 135.519 54.3486 135.428 55.374C135.952 54.7725 136.667 54.4717 137.574 54.4717C138.44 54.4717 139.131 54.777 139.646 55.3877C140.165 55.9984 140.425 56.7868 140.425 57.7529C140.425 58.7783 140.145 59.5986 139.584 60.2139C139.028 60.8291 138.281 61.1367 137.342 61.1367C136.389 61.1367 135.617 60.7721 135.024 60.043C134.432 59.3092 134.136 58.3659 134.136 57.2129V56.7275C134.136 54.8955 134.525 53.4964 135.305 52.5303C136.089 51.5596 137.253 51.0628 138.798 51.04H139.023ZM137.362 55.5244C136.929 55.5244 136.531 55.6543 136.166 55.9141C135.801 56.1738 135.549 56.4997 135.407 56.8916V57.3564C135.407 58.1768 135.592 58.8376 135.961 59.3389C136.33 59.8402 136.79 60.0908 137.342 60.0908C137.911 60.0908 138.358 59.8812 138.682 59.4619C139.01 59.0426 139.174 58.4935 139.174 57.8145C139.174 57.1309 139.007 56.5794 138.675 56.1602C138.347 55.7363 137.909 55.5244 137.362 55.5244ZM142.503 56.0098L143.009 51.0469H148.108V52.2158H144.082L143.781 54.9297C144.269 54.6426 144.823 54.499 145.442 54.499C146.349 54.499 147.069 54.7998 147.603 55.4014C148.136 55.9984 148.402 56.8073 148.402 57.8281C148.402 58.8535 148.124 59.6624 147.568 60.2549C147.017 60.8428 146.244 61.1367 145.251 61.1367C144.371 61.1367 143.654 60.8929 143.098 60.4053C142.542 59.9176 142.225 59.2432 142.147 58.3818H143.344C143.421 58.9515 143.624 59.3822 143.952 59.6738C144.28 59.9609 144.713 60.1045 145.251 60.1045C145.839 60.1045 146.299 59.904 146.632 59.5029C146.969 59.1019 147.138 58.5482 147.138 57.8418C147.138 57.1764 146.955 56.6432 146.591 56.2422C146.231 55.8366 145.75 55.6338 145.148 55.6338C144.597 55.6338 144.164 55.7546 143.85 55.9961L143.515 56.2695L142.503 56.0098ZM154.575 53.6035L154.609 54.4238C155.152 53.7858 155.883 53.4668 156.804 53.4668C157.838 53.4668 158.542 53.8633 158.916 54.6562C159.162 54.3008 159.481 54.0137 159.873 53.7949C160.27 53.5762 160.737 53.4668 161.274 53.4668C162.897 53.4668 163.722 54.3258 163.749 56.0439V61H162.484V56.1191C162.484 55.5905 162.364 55.1963 162.122 54.9365C161.881 54.6722 161.475 54.54 160.905 54.54C160.436 54.54 160.046 54.6813 159.736 54.9639C159.426 55.2419 159.246 55.6178 159.196 56.0918V61H157.925V56.1533C157.925 55.0778 157.398 54.54 156.346 54.54C155.516 54.54 154.949 54.8932 154.644 55.5996V61H153.379V53.6035H154.575ZM168.732 61.1367C167.73 61.1367 166.914 60.8086 166.285 60.1523C165.656 59.4915 165.342 58.6097 165.342 57.5068V57.2744C165.342 56.5407 165.481 55.8867 165.759 55.3125C166.041 54.7337 166.433 54.2826 166.935 53.959C167.44 53.6309 167.987 53.4668 168.575 53.4668C169.537 53.4668 170.284 53.7835 170.817 54.417C171.351 55.0505 171.617 55.9574 171.617 57.1377V57.6641H166.606C166.625 58.3932 166.837 58.9834 167.242 59.4346C167.652 59.8812 168.172 60.1045 168.801 60.1045C169.247 60.1045 169.626 60.0133 169.936 59.8311C170.245 59.6488 170.517 59.4072 170.749 59.1064L171.521 59.708C170.902 60.6605 169.972 61.1367 168.732 61.1367ZM168.575 54.5059C168.065 54.5059 167.636 54.6927 167.29 55.0664C166.944 55.4355 166.729 55.9551 166.647 56.625H170.353V56.5293C170.316 55.8867 170.143 55.39 169.833 55.0391C169.523 54.6836 169.104 54.5059 168.575 54.5059ZM174.283 53.6035L174.324 54.5332C174.889 53.8223 175.628 53.4668 176.539 53.4668C178.102 53.4668 178.891 54.3486 178.904 56.1123V61H177.64V56.1055C177.635 55.5723 177.512 55.1781 177.271 54.9229C177.034 54.6676 176.662 54.54 176.156 54.54C175.746 54.54 175.386 54.6494 175.076 54.8682C174.766 55.0869 174.525 55.374 174.352 55.7295V61H173.087V53.6035H174.283ZM182.527 51.8125V53.6035H183.908V54.5811H182.527V59.168C182.527 59.4642 182.589 59.6875 182.712 59.8379C182.835 59.9837 183.045 60.0566 183.341 60.0566C183.487 60.0566 183.687 60.0293 183.942 59.9746V61C183.61 61.0911 183.286 61.1367 182.972 61.1367C182.407 61.1367 181.98 60.9658 181.693 60.624C181.406 60.2822 181.263 59.7969 181.263 59.168V54.5811H179.916V53.6035H181.263V51.8125H182.527ZM186.766 61H185.501V53.6035H186.766V61ZM185.398 51.6416C185.398 51.4365 185.46 51.2633 185.583 51.1221C185.711 50.9808 185.897 50.9102 186.144 50.9102C186.39 50.9102 186.576 50.9808 186.704 51.1221C186.832 51.2633 186.896 51.4365 186.896 51.6416C186.896 51.8467 186.832 52.0176 186.704 52.1543C186.576 52.291 186.39 52.3594 186.144 52.3594C185.897 52.3594 185.711 52.291 185.583 52.1543C185.46 52.0176 185.398 51.8467 185.398 51.6416ZM188.461 57.2334C188.461 56.5088 188.602 55.8571 188.885 55.2783C189.172 54.6995 189.568 54.2529 190.074 53.9385C190.585 53.624 191.166 53.4668 191.817 53.4668C192.825 53.4668 193.638 53.8154 194.258 54.5127C194.882 55.21 195.194 56.1374 195.194 57.2949V57.3838C195.194 58.1038 195.055 58.751 194.777 59.3252C194.504 59.8949 194.11 60.3392 193.595 60.6582C193.084 60.9772 192.496 61.1367 191.831 61.1367C190.828 61.1367 190.015 60.7881 189.391 60.0908C188.771 59.3936 188.461 58.4707 188.461 57.3223V57.2334ZM189.732 57.3838C189.732 58.2041 189.922 58.8626 190.3 59.3594C190.683 59.8561 191.193 60.1045 191.831 60.1045C192.474 60.1045 192.984 59.8538 193.362 59.3525C193.741 58.8467 193.93 58.1403 193.93 57.2334C193.93 56.4222 193.736 55.766 193.349 55.2646C192.966 54.7588 192.455 54.5059 191.817 54.5059C191.193 54.5059 190.689 54.7542 190.307 55.251C189.924 55.7477 189.732 56.4587 189.732 57.3838ZM197.977 53.6035L198.018 54.5332C198.583 53.8223 199.321 53.4668 200.232 53.4668C201.796 53.4668 202.584 54.3486 202.598 56.1123V61H201.333V56.1055C201.328 55.5723 201.205 55.1781 200.964 54.9229C200.727 54.6676 200.355 54.54 199.85 54.54C199.439 54.54 199.079 54.6494 198.77 54.8682C198.46 55.0869 198.218 55.374 198.045 55.7295V61H196.78V53.6035H197.977ZM208.812 59.0381C208.812 58.6963 208.682 58.432 208.422 58.2451C208.167 58.0537 207.718 57.8896 207.075 57.7529C206.437 57.6162 205.929 57.4521 205.551 57.2607C205.177 57.0693 204.899 56.8415 204.717 56.5771C204.539 56.3128 204.45 55.9984 204.45 55.6338C204.45 55.0277 204.705 54.515 205.216 54.0957C205.731 53.6764 206.387 53.4668 207.185 53.4668C208.023 53.4668 208.702 53.6833 209.222 54.1162C209.746 54.5492 210.008 55.1029 210.008 55.7773H208.736C208.736 55.431 208.588 55.1325 208.292 54.8818C208 54.6312 207.631 54.5059 207.185 54.5059C206.724 54.5059 206.364 54.6061 206.104 54.8066C205.845 55.0072 205.715 55.2692 205.715 55.5928C205.715 55.8981 205.836 56.1283 206.077 56.2832C206.319 56.4382 206.754 56.5863 207.383 56.7275C208.016 56.8688 208.529 57.0374 208.921 57.2334C209.313 57.4294 209.602 57.6663 209.789 57.9443C209.98 58.2178 210.076 58.5527 210.076 58.9492C210.076 59.61 209.812 60.141 209.283 60.542C208.755 60.9385 208.069 61.1367 207.226 61.1367C206.633 61.1367 206.109 61.0319 205.653 60.8223C205.198 60.6126 204.84 60.321 204.58 59.9473C204.325 59.569 204.197 59.1611 204.197 58.7236H205.462C205.485 59.1475 205.653 59.4847 205.968 59.7354C206.287 59.9814 206.706 60.1045 207.226 60.1045C207.704 60.1045 208.087 60.0088 208.374 59.8174C208.666 59.6214 208.812 59.3617 208.812 59.0381Z" fill="#282848"/>
<path d="M125.256 329.127H122.057V338H120.751V329.127H117.559V328.047H125.256V329.127ZM127.908 338H126.644V330.604H127.908V338ZM126.541 328.642C126.541 328.437 126.603 328.263 126.726 328.122C126.853 327.981 127.04 327.91 127.286 327.91C127.532 327.91 127.719 327.981 127.847 328.122C127.974 328.263 128.038 328.437 128.038 328.642C128.038 328.847 127.974 329.018 127.847 329.154C127.719 329.291 127.532 329.359 127.286 329.359C127.04 329.359 126.853 329.291 126.726 329.154C126.603 329.018 126.541 328.847 126.541 328.642ZM131.128 330.604L131.162 331.424C131.704 330.786 132.436 330.467 133.356 330.467C134.391 330.467 135.095 330.863 135.469 331.656C135.715 331.301 136.034 331.014 136.426 330.795C136.822 330.576 137.289 330.467 137.827 330.467C139.45 330.467 140.274 331.326 140.302 333.044V338H139.037V333.119C139.037 332.59 138.916 332.196 138.675 331.937C138.433 331.672 138.028 331.54 137.458 331.54C136.989 331.54 136.599 331.681 136.289 331.964C135.979 332.242 135.799 332.618 135.749 333.092V338H134.478V333.153C134.478 332.078 133.951 331.54 132.898 331.54C132.069 331.54 131.502 331.893 131.196 332.6V338H129.932V330.604H131.128ZM145.285 338.137C144.283 338.137 143.467 337.809 142.838 337.152C142.209 336.492 141.895 335.61 141.895 334.507V334.274C141.895 333.541 142.034 332.887 142.312 332.312C142.594 331.734 142.986 331.283 143.487 330.959C143.993 330.631 144.54 330.467 145.128 330.467C146.09 330.467 146.837 330.784 147.37 331.417C147.903 332.05 148.17 332.957 148.17 334.138V334.664H143.159C143.177 335.393 143.389 335.983 143.795 336.435C144.205 336.881 144.725 337.104 145.354 337.104C145.8 337.104 146.178 337.013 146.488 336.831C146.798 336.649 147.069 336.407 147.302 336.106L148.074 336.708C147.454 337.66 146.525 338.137 145.285 338.137ZM145.128 331.506C144.618 331.506 144.189 331.693 143.843 332.066C143.496 332.436 143.282 332.955 143.2 333.625H146.905V333.529C146.869 332.887 146.696 332.39 146.386 332.039C146.076 331.684 145.657 331.506 145.128 331.506ZM157.679 338C157.606 337.854 157.547 337.594 157.501 337.221C156.913 337.831 156.211 338.137 155.396 338.137C154.666 338.137 154.067 337.932 153.598 337.521C153.133 337.107 152.9 336.583 152.9 335.949C152.9 335.179 153.192 334.582 153.775 334.158C154.363 333.73 155.188 333.516 156.25 333.516H157.48V332.935C157.48 332.493 157.348 332.142 157.084 331.882C156.82 331.618 156.43 331.485 155.915 331.485C155.464 331.485 155.086 331.599 154.78 331.827C154.475 332.055 154.322 332.331 154.322 332.654H153.051C153.051 332.285 153.181 331.93 153.44 331.588C153.705 331.242 154.06 330.968 154.507 330.768C154.958 330.567 155.452 330.467 155.99 330.467C156.842 330.467 157.51 330.681 157.993 331.109C158.476 331.533 158.727 332.119 158.745 332.866V336.271C158.745 336.95 158.832 337.49 159.005 337.891V338H157.679ZM155.58 337.036C155.977 337.036 156.353 336.934 156.708 336.729C157.063 336.523 157.321 336.257 157.48 335.929V334.411H156.489C154.94 334.411 154.165 334.865 154.165 335.771C154.165 336.168 154.297 336.478 154.562 336.701C154.826 336.924 155.165 337.036 155.58 337.036ZM161.924 330.604L161.965 331.533C162.53 330.822 163.268 330.467 164.18 330.467C165.743 330.467 166.531 331.349 166.545 333.112V338H165.28V333.105C165.276 332.572 165.153 332.178 164.911 331.923C164.674 331.668 164.303 331.54 163.797 331.54C163.387 331.54 163.027 331.649 162.717 331.868C162.407 332.087 162.165 332.374 161.992 332.729V338H160.728V330.604H161.924ZM168.145 334.24C168.145 333.105 168.413 332.194 168.951 331.506C169.489 330.813 170.193 330.467 171.063 330.467C171.929 330.467 172.615 330.763 173.121 331.355V327.5H174.386V338H173.224L173.162 337.207C172.656 337.827 171.952 338.137 171.05 338.137C170.193 338.137 169.493 337.786 168.951 337.084C168.413 336.382 168.145 335.466 168.145 334.336V334.24ZM169.409 334.384C169.409 335.222 169.582 335.879 169.929 336.353C170.275 336.826 170.754 337.063 171.364 337.063C172.166 337.063 172.752 336.703 173.121 335.983V332.586C172.743 331.889 172.162 331.54 171.378 331.54C170.758 331.54 170.275 331.779 169.929 332.258C169.582 332.736 169.409 333.445 169.409 334.384ZM184.394 338C184.321 337.854 184.261 337.594 184.216 337.221C183.628 337.831 182.926 338.137 182.11 338.137C181.381 338.137 180.782 337.932 180.312 337.521C179.848 337.107 179.615 336.583 179.615 335.949C179.615 335.179 179.907 334.582 180.49 334.158C181.078 333.73 181.903 333.516 182.965 333.516H184.195V332.935C184.195 332.493 184.063 332.142 183.799 331.882C183.535 331.618 183.145 331.485 182.63 331.485C182.179 331.485 181.8 331.599 181.495 331.827C181.19 332.055 181.037 332.331 181.037 332.654H179.766C179.766 332.285 179.896 331.93 180.155 331.588C180.42 331.242 180.775 330.968 181.222 330.768C181.673 330.567 182.167 330.467 182.705 330.467C183.557 330.467 184.225 330.681 184.708 331.109C185.191 331.533 185.442 332.119 185.46 332.866V336.271C185.46 336.95 185.547 337.49 185.72 337.891V338H184.394ZM182.295 337.036C182.691 337.036 183.067 336.934 183.423 336.729C183.778 336.523 184.036 336.257 184.195 335.929V334.411H183.204C181.655 334.411 180.88 334.865 180.88 335.771C180.88 336.168 181.012 336.478 181.276 336.701C181.541 336.924 181.88 337.036 182.295 337.036ZM188.632 330.604L188.666 331.424C189.208 330.786 189.94 330.467 190.86 330.467C191.895 330.467 192.599 330.863 192.973 331.656C193.219 331.301 193.538 331.014 193.93 330.795C194.326 330.576 194.793 330.467 195.331 330.467C196.953 330.467 197.778 331.326 197.806 333.044V338H196.541V333.119C196.541 332.59 196.42 332.196 196.179 331.937C195.937 331.672 195.532 331.54 194.962 331.54C194.493 331.54 194.103 331.681 193.793 331.964C193.483 332.242 193.303 332.618 193.253 333.092V338H191.981V333.153C191.981 332.078 191.455 331.54 190.402 331.54C189.573 331.54 189.006 331.893 188.7 332.6V338H187.436V330.604H188.632ZM199.385 334.233C199.385 333.509 199.526 332.857 199.809 332.278C200.096 331.7 200.492 331.253 200.998 330.938C201.508 330.624 202.09 330.467 202.741 330.467C203.748 330.467 204.562 330.815 205.182 331.513C205.806 332.21 206.118 333.137 206.118 334.295V334.384C206.118 335.104 205.979 335.751 205.701 336.325C205.428 336.895 205.034 337.339 204.519 337.658C204.008 337.977 203.42 338.137 202.755 338.137C201.752 338.137 200.939 337.788 200.314 337.091C199.695 336.394 199.385 335.471 199.385 334.322V334.233ZM200.656 334.384C200.656 335.204 200.845 335.863 201.224 336.359C201.606 336.856 202.117 337.104 202.755 337.104C203.397 337.104 203.908 336.854 204.286 336.353C204.664 335.847 204.854 335.14 204.854 334.233C204.854 333.422 204.66 332.766 204.272 332.265C203.89 331.759 203.379 331.506 202.741 331.506C202.117 331.506 201.613 331.754 201.23 332.251C200.848 332.748 200.656 333.459 200.656 334.384ZM212.271 337.269C211.778 337.847 211.056 338.137 210.104 338.137C209.315 338.137 208.714 337.909 208.299 337.453C207.889 336.993 207.681 336.314 207.677 335.416V330.604H208.941V335.382C208.941 336.503 209.397 337.063 210.309 337.063C211.275 337.063 211.917 336.703 212.236 335.983V330.604H213.501V338H212.298L212.271 337.269ZM216.625 330.604L216.666 331.533C217.231 330.822 217.969 330.467 218.881 330.467C220.444 330.467 221.232 331.349 221.246 333.112V338H219.981V333.105C219.977 332.572 219.854 332.178 219.612 331.923C219.375 331.668 219.004 331.54 218.498 331.54C218.088 331.54 217.728 331.649 217.418 331.868C217.108 332.087 216.867 332.374 216.693 332.729V338H215.429V330.604H216.625ZM224.869 328.812V330.604H226.25V331.581H224.869V336.168C224.869 336.464 224.931 336.688 225.054 336.838C225.177 336.984 225.386 337.057 225.683 337.057C225.828 337.057 226.029 337.029 226.284 336.975V338C225.951 338.091 225.628 338.137 225.313 338.137C224.748 338.137 224.322 337.966 224.035 337.624C223.748 337.282 223.604 336.797 223.604 336.168V331.581H222.258V330.604H223.604V328.812H224.869ZM133.842 350.233C133.842 349.509 133.983 348.857 134.266 348.278C134.553 347.7 134.949 347.253 135.455 346.938C135.965 346.624 136.547 346.467 137.198 346.467C138.205 346.467 139.019 346.815 139.639 347.513C140.263 348.21 140.575 349.137 140.575 350.295V350.384C140.575 351.104 140.436 351.751 140.158 352.325C139.885 352.895 139.491 353.339 138.976 353.658C138.465 353.977 137.877 354.137 137.212 354.137C136.209 354.137 135.396 353.788 134.771 353.091C134.152 352.394 133.842 351.471 133.842 350.322V350.233ZM135.113 350.384C135.113 351.204 135.302 351.863 135.681 352.359C136.063 352.856 136.574 353.104 137.212 353.104C137.854 353.104 138.365 352.854 138.743 352.353C139.121 351.847 139.311 351.14 139.311 350.233C139.311 349.422 139.117 348.766 138.729 348.265C138.347 347.759 137.836 347.506 137.198 347.506C136.574 347.506 136.07 347.754 135.688 348.251C135.305 348.748 135.113 349.459 135.113 350.384ZM142.783 354V347.581H141.614V346.604H142.783V345.845C142.783 345.052 142.995 344.439 143.419 344.006C143.843 343.573 144.442 343.356 145.217 343.356C145.508 343.356 145.798 343.395 146.085 343.473L146.017 344.498C145.802 344.457 145.575 344.437 145.333 344.437C144.923 344.437 144.606 344.557 144.383 344.799C144.16 345.036 144.048 345.378 144.048 345.824V346.604H145.627V347.581H144.048V354H142.783ZM150.193 350.24C150.193 349.078 150.46 348.16 150.993 347.485C151.526 346.806 152.242 346.467 153.14 346.467C154.015 346.467 154.705 346.761 155.211 347.349L155.266 346.604H156.428V356.844H155.163V353.316C154.653 353.863 153.974 354.137 153.126 354.137C152.233 354.137 151.52 353.79 150.986 353.098C150.458 352.4 150.193 351.478 150.193 350.329V350.24ZM151.458 350.384C151.458 351.231 151.636 351.897 151.991 352.38C152.351 352.863 152.834 353.104 153.44 353.104C154.192 353.104 154.767 352.772 155.163 352.106V348.483C154.762 347.832 154.192 347.506 153.454 347.506C152.843 347.506 152.358 347.75 151.998 348.237C151.638 348.72 151.458 349.436 151.458 350.384ZM163.024 353.269C162.532 353.847 161.81 354.137 160.857 354.137C160.069 354.137 159.467 353.909 159.053 353.453C158.643 352.993 158.435 352.314 158.431 351.416V346.604H159.695V351.382C159.695 352.503 160.151 353.063 161.062 353.063C162.029 353.063 162.671 352.703 162.99 351.983V346.604H164.255V354H163.052L163.024 353.269ZM169.252 354.137C168.249 354.137 167.434 353.809 166.805 353.152C166.176 352.492 165.861 351.61 165.861 350.507V350.274C165.861 349.541 166 348.887 166.278 348.312C166.561 347.734 166.953 347.283 167.454 346.959C167.96 346.631 168.507 346.467 169.095 346.467C170.056 346.467 170.804 346.784 171.337 347.417C171.87 348.05 172.137 348.957 172.137 350.138V350.664H167.126C167.144 351.393 167.356 351.983 167.762 352.435C168.172 352.881 168.691 353.104 169.32 353.104C169.767 353.104 170.145 353.013 170.455 352.831C170.765 352.649 171.036 352.407 171.269 352.106L172.041 352.708C171.421 353.66 170.492 354.137 169.252 354.137ZM169.095 347.506C168.584 347.506 168.156 347.693 167.81 348.066C167.463 348.436 167.249 348.955 167.167 349.625H170.872V349.529C170.836 348.887 170.662 348.39 170.353 348.039C170.043 347.684 169.623 347.506 169.095 347.506ZM177.913 352.038C177.913 351.696 177.783 351.432 177.523 351.245C177.268 351.054 176.819 350.89 176.177 350.753C175.539 350.616 175.031 350.452 174.652 350.261C174.279 350.069 174.001 349.841 173.818 349.577C173.641 349.313 173.552 348.998 173.552 348.634C173.552 348.028 173.807 347.515 174.317 347.096C174.832 346.676 175.489 346.467 176.286 346.467C177.125 346.467 177.804 346.683 178.323 347.116C178.847 347.549 179.109 348.103 179.109 348.777H177.838C177.838 348.431 177.69 348.132 177.394 347.882C177.102 347.631 176.733 347.506 176.286 347.506C175.826 347.506 175.466 347.606 175.206 347.807C174.946 348.007 174.816 348.269 174.816 348.593C174.816 348.898 174.937 349.128 175.179 349.283C175.42 349.438 175.855 349.586 176.484 349.728C177.118 349.869 177.631 350.037 178.022 350.233C178.414 350.429 178.704 350.666 178.891 350.944C179.082 351.218 179.178 351.553 179.178 351.949C179.178 352.61 178.913 353.141 178.385 353.542C177.856 353.938 177.17 354.137 176.327 354.137C175.735 354.137 175.211 354.032 174.755 353.822C174.299 353.613 173.941 353.321 173.682 352.947C173.426 352.569 173.299 352.161 173.299 351.724H174.563C174.586 352.147 174.755 352.485 175.069 352.735C175.388 352.981 175.808 353.104 176.327 353.104C176.806 353.104 177.188 353.009 177.476 352.817C177.767 352.621 177.913 352.362 177.913 352.038ZM182.541 344.812V346.604H183.922V347.581H182.541V352.168C182.541 352.464 182.603 352.688 182.726 352.838C182.849 352.984 183.058 353.057 183.354 353.057C183.5 353.057 183.701 353.029 183.956 352.975V354C183.623 354.091 183.3 354.137 182.985 354.137C182.42 354.137 181.994 353.966 181.707 353.624C181.42 353.282 181.276 352.797 181.276 352.168V347.581H179.93V346.604H181.276V344.812H182.541ZM186.779 354H185.515V346.604H186.779V354ZM185.412 344.642C185.412 344.437 185.474 344.263 185.597 344.122C185.724 343.981 185.911 343.91 186.157 343.91C186.403 343.91 186.59 343.981 186.718 344.122C186.845 344.263 186.909 344.437 186.909 344.642C186.909 344.847 186.845 345.018 186.718 345.154C186.59 345.291 186.403 345.359 186.157 345.359C185.911 345.359 185.724 345.291 185.597 345.154C185.474 345.018 185.412 344.847 185.412 344.642ZM188.475 350.233C188.475 349.509 188.616 348.857 188.898 348.278C189.186 347.7 189.582 347.253 190.088 346.938C190.598 346.624 191.179 346.467 191.831 346.467C192.838 346.467 193.652 346.815 194.271 347.513C194.896 348.21 195.208 349.137 195.208 350.295V350.384C195.208 351.104 195.069 351.751 194.791 352.325C194.518 352.895 194.123 353.339 193.608 353.658C193.098 353.977 192.51 354.137 191.845 354.137C190.842 354.137 190.029 353.788 189.404 353.091C188.785 352.394 188.475 351.471 188.475 350.322V350.233ZM189.746 350.384C189.746 351.204 189.935 351.863 190.313 352.359C190.696 352.856 191.207 353.104 191.845 353.104C192.487 353.104 192.998 352.854 193.376 352.353C193.754 351.847 193.943 351.14 193.943 350.233C193.943 349.422 193.75 348.766 193.362 348.265C192.979 347.759 192.469 347.506 191.831 347.506C191.207 347.506 190.703 347.754 190.32 348.251C189.938 348.748 189.746 349.459 189.746 350.384ZM197.99 346.604L198.031 347.533C198.596 346.822 199.335 346.467 200.246 346.467C201.809 346.467 202.598 347.349 202.611 349.112V354H201.347V349.105C201.342 348.572 201.219 348.178 200.978 347.923C200.741 347.668 200.369 347.54 199.863 347.54C199.453 347.54 199.093 347.649 198.783 347.868C198.473 348.087 198.232 348.374 198.059 348.729V354H196.794V346.604H197.99ZM208.825 352.038C208.825 351.696 208.695 351.432 208.436 351.245C208.18 351.054 207.731 350.89 207.089 350.753C206.451 350.616 205.943 350.452 205.564 350.261C205.191 350.069 204.913 349.841 204.73 349.577C204.553 349.313 204.464 348.998 204.464 348.634C204.464 348.028 204.719 347.515 205.229 347.096C205.744 346.676 206.401 346.467 207.198 346.467C208.037 346.467 208.716 346.683 209.235 347.116C209.759 347.549 210.021 348.103 210.021 348.777H208.75C208.75 348.431 208.602 348.132 208.306 347.882C208.014 347.631 207.645 347.506 207.198 347.506C206.738 347.506 206.378 347.606 206.118 347.807C205.858 348.007 205.729 348.269 205.729 348.593C205.729 348.898 205.849 349.128 206.091 349.283C206.332 349.438 206.768 349.586 207.396 349.728C208.03 349.869 208.543 350.037 208.935 350.233C209.326 350.429 209.616 350.666 209.803 350.944C209.994 351.218 210.09 351.553 210.09 351.949C210.09 352.61 209.826 353.141 209.297 353.542C208.768 353.938 208.082 354.137 207.239 354.137C206.647 354.137 206.123 354.032 205.667 353.822C205.211 353.613 204.854 353.321 204.594 352.947C204.339 352.569 204.211 352.161 204.211 351.724H205.476C205.498 352.147 205.667 352.485 205.981 352.735C206.3 352.981 206.72 353.104 207.239 353.104C207.718 353.104 208.101 353.009 208.388 352.817C208.679 352.621 208.825 352.362 208.825 352.038Z" fill="#282848"/>
<rect x="262" y="210" width="124" height="99" rx="4" fill="#39395A"/>
<path d="M323.487 200H316.966V199.091L320.411 195.263C320.922 194.684 321.272 194.215 321.464 193.854C321.66 193.49 321.758 193.114 321.758 192.727C321.758 192.207 321.601 191.781 321.286 191.448C320.972 191.116 320.552 190.949 320.028 190.949C319.399 190.949 318.91 191.129 318.559 191.489C318.212 191.845 318.039 192.341 318.039 192.979H316.774C316.774 192.063 317.068 191.323 317.656 190.758C318.249 190.193 319.039 189.91 320.028 189.91C320.953 189.91 321.685 190.154 322.223 190.642C322.76 191.125 323.029 191.77 323.029 192.576C323.029 193.556 322.405 194.723 321.156 196.076L318.49 198.968H323.487V200ZM331.253 190.758L327.131 200H325.805L329.913 191.086H324.526V190.047H331.253V190.758Z" fill="#282848"/>
<path d="M267.022 333.974H264.685V338H263.365V328.047H266.66C267.781 328.047 268.643 328.302 269.244 328.812C269.85 329.323 270.153 330.066 270.153 331.041C270.153 331.661 269.985 332.201 269.647 332.661C269.315 333.121 268.85 333.465 268.253 333.693L270.591 337.918V338H269.183L267.022 333.974ZM264.685 332.9H266.701C267.353 332.9 267.87 332.732 268.253 332.395C268.64 332.057 268.834 331.606 268.834 331.041C268.834 330.426 268.649 329.954 268.28 329.626C267.916 329.298 267.387 329.132 266.694 329.127H264.685V332.9ZM274.87 338.137C273.868 338.137 273.052 337.809 272.423 337.152C271.794 336.492 271.479 335.61 271.479 334.507V334.274C271.479 333.541 271.618 332.887 271.896 332.312C272.179 331.734 272.571 331.283 273.072 330.959C273.578 330.631 274.125 330.467 274.713 330.467C275.674 330.467 276.422 330.784 276.955 331.417C277.488 332.05 277.755 332.957 277.755 334.138V334.664H272.744C272.762 335.393 272.974 335.983 273.38 336.435C273.79 336.881 274.31 337.104 274.938 337.104C275.385 337.104 275.763 337.013 276.073 336.831C276.383 336.649 276.654 336.407 276.887 336.106L277.659 336.708C277.039 337.66 276.11 338.137 274.87 338.137ZM274.713 331.506C274.202 331.506 273.774 331.693 273.428 332.066C273.081 332.436 272.867 332.955 272.785 333.625H276.49V333.529C276.454 332.887 276.281 332.39 275.971 332.039C275.661 331.684 275.242 331.506 274.713 331.506ZM285.473 334.384C285.473 335.509 285.215 336.416 284.7 337.104C284.185 337.793 283.488 338.137 282.608 338.137C281.711 338.137 281.004 337.852 280.489 337.282V340.844H279.225V330.604H280.38L280.441 331.424C280.956 330.786 281.672 330.467 282.588 330.467C283.477 330.467 284.178 330.802 284.693 331.472C285.213 332.142 285.473 333.074 285.473 334.268V334.384ZM284.208 334.24C284.208 333.406 284.03 332.748 283.675 332.265C283.319 331.782 282.832 331.54 282.212 331.54C281.446 331.54 280.872 331.88 280.489 332.559V336.093C280.868 336.767 281.446 337.104 282.226 337.104C282.832 337.104 283.312 336.865 283.668 336.387C284.028 335.904 284.208 335.188 284.208 334.24ZM290.155 338.137C289.153 338.137 288.337 337.809 287.708 337.152C287.079 336.492 286.765 335.61 286.765 334.507V334.274C286.765 333.541 286.904 332.887 287.182 332.312C287.464 331.734 287.856 331.283 288.357 330.959C288.863 330.631 289.41 330.467 289.998 330.467C290.96 330.467 291.707 330.784 292.24 331.417C292.773 332.05 293.04 332.957 293.04 334.138V334.664H288.029C288.048 335.393 288.259 335.983 288.665 336.435C289.075 336.881 289.595 337.104 290.224 337.104C290.67 337.104 291.049 337.013 291.358 336.831C291.668 336.649 291.939 336.407 292.172 336.106L292.944 336.708C292.325 337.66 291.395 338.137 290.155 338.137ZM289.998 331.506C289.488 331.506 289.059 331.693 288.713 332.066C288.367 332.436 288.152 332.955 288.07 333.625H291.775V333.529C291.739 332.887 291.566 332.39 291.256 332.039C290.946 331.684 290.527 331.506 289.998 331.506ZM299.076 338C299.003 337.854 298.944 337.594 298.898 337.221C298.311 337.831 297.609 338.137 296.793 338.137C296.064 338.137 295.465 337.932 294.995 337.521C294.53 337.107 294.298 336.583 294.298 335.949C294.298 335.179 294.59 334.582 295.173 334.158C295.761 333.73 296.586 333.516 297.647 333.516H298.878V332.935C298.878 332.493 298.746 332.142 298.481 331.882C298.217 331.618 297.827 331.485 297.312 331.485C296.861 331.485 296.483 331.599 296.178 331.827C295.872 332.055 295.72 332.331 295.72 332.654H294.448C294.448 332.285 294.578 331.93 294.838 331.588C295.102 331.242 295.458 330.968 295.904 330.768C296.355 330.567 296.85 330.467 297.388 330.467C298.24 330.467 298.908 330.681 299.391 331.109C299.874 331.533 300.124 332.119 300.143 332.866V336.271C300.143 336.95 300.229 337.49 300.402 337.891V338H299.076ZM296.978 337.036C297.374 337.036 297.75 336.934 298.105 336.729C298.461 336.523 298.718 336.257 298.878 335.929V334.411H297.887C296.337 334.411 295.562 334.865 295.562 335.771C295.562 336.168 295.695 336.478 295.959 336.701C296.223 336.924 296.563 337.036 296.978 337.036ZM303.841 328.812V330.604H305.222V331.581H303.841V336.168C303.841 336.464 303.902 336.688 304.025 336.838C304.148 336.984 304.358 337.057 304.654 337.057C304.8 337.057 305.001 337.029 305.256 336.975V338C304.923 338.091 304.6 338.137 304.285 338.137C303.72 338.137 303.294 337.966 303.007 337.624C302.72 337.282 302.576 336.797 302.576 336.168V331.581H301.229V330.604H302.576V328.812H303.841ZM309.774 338.137C308.772 338.137 307.956 337.809 307.327 337.152C306.698 336.492 306.384 335.61 306.384 334.507V334.274C306.384 333.541 306.523 332.887 306.801 332.312C307.083 331.734 307.475 331.283 307.977 330.959C308.482 330.631 309.029 330.467 309.617 330.467C310.579 330.467 311.326 330.784 311.859 331.417C312.393 332.05 312.659 332.957 312.659 334.138V334.664H307.648C307.667 335.393 307.879 335.983 308.284 336.435C308.694 336.881 309.214 337.104 309.843 337.104C310.289 337.104 310.668 337.013 310.978 336.831C311.287 336.649 311.559 336.407 311.791 336.106L312.563 336.708C311.944 337.66 311.014 338.137 309.774 338.137ZM309.617 331.506C309.107 331.506 308.678 331.693 308.332 332.066C307.986 332.436 307.771 332.955 307.689 333.625H311.395V333.529C311.358 332.887 311.185 332.39 310.875 332.039C310.565 331.684 310.146 331.506 309.617 331.506ZM313.821 334.24C313.821 333.105 314.09 332.194 314.628 331.506C315.166 330.813 315.87 330.467 316.74 330.467C317.606 330.467 318.292 330.763 318.798 331.355V327.5H320.062V338H318.9L318.839 337.207C318.333 337.827 317.629 338.137 316.727 338.137C315.87 338.137 315.17 337.786 314.628 337.084C314.09 336.382 313.821 335.466 313.821 334.336V334.24ZM315.086 334.384C315.086 335.222 315.259 335.879 315.605 336.353C315.952 336.826 316.43 337.063 317.041 337.063C317.843 337.063 318.429 336.703 318.798 335.983V332.586C318.42 331.889 317.839 331.54 317.055 331.54C316.435 331.54 315.952 331.779 315.605 332.258C315.259 332.736 315.086 333.445 315.086 334.384ZM325.196 334.24C325.196 333.078 325.463 332.16 325.996 331.485C326.529 330.806 327.245 330.467 328.143 330.467C329.018 330.467 329.708 330.761 330.214 331.349L330.269 330.604H331.431V340.844H330.166V337.316C329.656 337.863 328.977 338.137 328.129 338.137C327.236 338.137 326.522 337.79 325.989 337.098C325.461 336.4 325.196 335.478 325.196 334.329V334.24ZM326.461 334.384C326.461 335.231 326.639 335.897 326.994 336.38C327.354 336.863 327.837 337.104 328.443 337.104C329.195 337.104 329.77 336.772 330.166 336.106V332.483C329.765 331.832 329.195 331.506 328.457 331.506C327.846 331.506 327.361 331.75 327.001 332.237C326.641 332.72 326.461 333.436 326.461 334.384ZM338.027 337.269C337.535 337.847 336.813 338.137 335.86 338.137C335.072 338.137 334.47 337.909 334.056 337.453C333.646 336.993 333.438 336.314 333.434 335.416V330.604H334.698V335.382C334.698 336.503 335.154 337.063 336.065 337.063C337.032 337.063 337.674 336.703 337.993 335.983V330.604H339.258V338H338.055L338.027 337.269ZM344.255 338.137C343.252 338.137 342.437 337.809 341.808 337.152C341.179 336.492 340.864 335.61 340.864 334.507V334.274C340.864 333.541 341.003 332.887 341.281 332.312C341.564 331.734 341.956 331.283 342.457 330.959C342.963 330.631 343.51 330.467 344.098 330.467C345.059 330.467 345.807 330.784 346.34 331.417C346.873 332.05 347.14 332.957 347.14 334.138V334.664H342.129C342.147 335.393 342.359 335.983 342.765 336.435C343.175 336.881 343.694 337.104 344.323 337.104C344.77 337.104 345.148 337.013 345.458 336.831C345.768 336.649 346.039 336.407 346.271 336.106L347.044 336.708C346.424 337.66 345.494 338.137 344.255 338.137ZM344.098 331.506C343.587 331.506 343.159 331.693 342.812 332.066C342.466 332.436 342.252 332.955 342.17 333.625H345.875V333.529C345.839 332.887 345.665 332.39 345.355 332.039C345.046 331.684 344.626 331.506 344.098 331.506ZM352.916 336.038C352.916 335.696 352.786 335.432 352.526 335.245C352.271 335.054 351.822 334.89 351.18 334.753C350.542 334.616 350.034 334.452 349.655 334.261C349.282 334.069 349.004 333.841 348.821 333.577C348.644 333.313 348.555 332.998 348.555 332.634C348.555 332.028 348.81 331.515 349.32 331.096C349.835 330.676 350.492 330.467 351.289 330.467C352.128 330.467 352.807 330.683 353.326 331.116C353.85 331.549 354.112 332.103 354.112 332.777H352.841C352.841 332.431 352.693 332.132 352.396 331.882C352.105 331.631 351.736 331.506 351.289 331.506C350.829 331.506 350.469 331.606 350.209 331.807C349.949 332.007 349.819 332.269 349.819 332.593C349.819 332.898 349.94 333.128 350.182 333.283C350.423 333.438 350.858 333.586 351.487 333.728C352.121 333.869 352.633 334.037 353.025 334.233C353.417 334.429 353.707 334.666 353.894 334.944C354.085 335.218 354.181 335.553 354.181 335.949C354.181 336.61 353.916 337.141 353.388 337.542C352.859 337.938 352.173 338.137 351.33 338.137C350.738 338.137 350.214 338.032 349.758 337.822C349.302 337.613 348.944 337.321 348.685 336.947C348.429 336.569 348.302 336.161 348.302 335.724H349.566C349.589 336.147 349.758 336.485 350.072 336.735C350.391 336.981 350.811 337.104 351.33 337.104C351.809 337.104 352.191 337.009 352.479 336.817C352.77 336.621 352.916 336.362 352.916 336.038ZM357.544 328.812V330.604H358.925V331.581H357.544V336.168C357.544 336.464 357.605 336.688 357.729 336.838C357.852 336.984 358.061 337.057 358.357 337.057C358.503 337.057 358.704 337.029 358.959 336.975V338C358.626 338.091 358.303 338.137 357.988 338.137C357.423 338.137 356.997 337.966 356.71 337.624C356.423 337.282 356.279 336.797 356.279 336.168V331.581H354.933V330.604H356.279V328.812H357.544ZM361.782 338H360.518V330.604H361.782V338ZM360.415 328.642C360.415 328.437 360.477 328.263 360.6 328.122C360.727 327.981 360.914 327.91 361.16 327.91C361.406 327.91 361.593 327.981 361.721 328.122C361.848 328.263 361.912 328.437 361.912 328.642C361.912 328.847 361.848 329.018 361.721 329.154C361.593 329.291 361.406 329.359 361.16 329.359C360.914 329.359 360.727 329.291 360.6 329.154C360.477 329.018 360.415 328.847 360.415 328.642ZM363.478 334.233C363.478 333.509 363.619 332.857 363.901 332.278C364.188 331.7 364.585 331.253 365.091 330.938C365.601 330.624 366.182 330.467 366.834 330.467C367.841 330.467 368.655 330.815 369.274 331.513C369.899 332.21 370.211 333.137 370.211 334.295V334.384C370.211 335.104 370.072 335.751 369.794 336.325C369.521 336.895 369.126 337.339 368.611 337.658C368.101 337.977 367.513 338.137 366.848 338.137C365.845 338.137 365.032 337.788 364.407 337.091C363.787 336.394 363.478 335.471 363.478 334.322V334.233ZM364.749 334.384C364.749 335.204 364.938 335.863 365.316 336.359C365.699 336.856 366.21 337.104 366.848 337.104C367.49 337.104 368.001 336.854 368.379 336.353C368.757 335.847 368.946 335.14 368.946 334.233C368.946 333.422 368.753 332.766 368.365 332.265C367.982 331.759 367.472 331.506 366.834 331.506C366.21 331.506 365.706 331.754 365.323 332.251C364.94 332.748 364.749 333.459 364.749 334.384ZM372.993 330.604L373.034 331.533C373.599 330.822 374.338 330.467 375.249 330.467C376.812 330.467 377.601 331.349 377.614 333.112V338H376.35V333.105C376.345 332.572 376.222 332.178 375.98 331.923C375.743 331.668 375.372 331.54 374.866 331.54C374.456 331.54 374.096 331.649 373.786 331.868C373.476 332.087 373.235 332.374 373.062 332.729V338H371.797V330.604H372.993ZM383.828 336.038C383.828 335.696 383.698 335.432 383.438 335.245C383.183 335.054 382.734 334.89 382.092 334.753C381.454 334.616 380.946 334.452 380.567 334.261C380.194 334.069 379.916 333.841 379.733 333.577C379.556 333.313 379.467 332.998 379.467 332.634C379.467 332.028 379.722 331.515 380.232 331.096C380.747 330.676 381.404 330.467 382.201 330.467C383.04 330.467 383.719 330.683 384.238 331.116C384.762 331.549 385.024 332.103 385.024 332.777H383.753C383.753 332.431 383.605 332.132 383.309 331.882C383.017 331.631 382.648 331.506 382.201 331.506C381.741 331.506 381.381 331.606 381.121 331.807C380.861 332.007 380.731 332.269 380.731 332.593C380.731 332.898 380.852 333.128 381.094 333.283C381.335 333.438 381.771 333.586 382.399 333.728C383.033 333.869 383.546 334.037 383.938 334.233C384.329 334.429 384.619 334.666 384.806 334.944C384.997 335.218 385.093 335.553 385.093 335.949C385.093 336.61 384.828 337.141 384.3 337.542C383.771 337.938 383.085 338.137 382.242 338.137C381.65 338.137 381.126 338.032 380.67 337.822C380.214 337.613 379.856 337.321 379.597 336.947C379.341 336.569 379.214 336.161 379.214 335.724H380.479C380.501 336.147 380.67 336.485 380.984 336.735C381.303 336.981 381.723 337.104 382.242 337.104C382.721 337.104 383.104 337.009 383.391 336.817C383.682 336.621 383.828 336.362 383.828 336.038Z" fill="#282848"/>
<rect x="414" y="254" width="124" height="55" rx="4" fill="#71718E"/>
<path d="M473.122 244H471.851V235.571L469.301 236.508V235.359L472.924 233.999H473.122V244ZM477.408 239.01L477.914 234.047H483.014V235.216H478.987L478.687 237.93C479.174 237.643 479.728 237.499 480.348 237.499C481.255 237.499 481.975 237.8 482.508 238.401C483.041 238.998 483.308 239.807 483.308 240.828C483.308 241.854 483.03 242.662 482.474 243.255C481.922 243.843 481.15 244.137 480.156 244.137C479.277 244.137 478.559 243.893 478.003 243.405C477.447 242.918 477.13 242.243 477.053 241.382H478.249C478.326 241.951 478.529 242.382 478.857 242.674C479.186 242.961 479.618 243.104 480.156 243.104C480.744 243.104 481.204 242.904 481.537 242.503C481.874 242.102 482.043 241.548 482.043 240.842C482.043 240.176 481.861 239.643 481.496 239.242C481.136 238.837 480.655 238.634 480.054 238.634C479.502 238.634 479.069 238.755 478.755 238.996L478.42 239.27L477.408 239.01Z" fill="#282848"/>
<path d="M478.216 328.047V334.814C478.211 335.753 477.915 336.521 477.327 337.118C476.744 337.715 475.951 338.05 474.948 338.123L474.6 338.137C473.51 338.137 472.642 337.843 471.995 337.255C471.348 336.667 471.02 335.858 471.011 334.828V328.047H472.31V334.787C472.31 335.507 472.508 336.068 472.904 336.469C473.301 336.865 473.866 337.063 474.6 337.063C475.342 337.063 475.91 336.865 476.302 336.469C476.698 336.072 476.896 335.514 476.896 334.794V328.047H478.216ZM481.695 338H480.383V328.047H481.695V338Z" fill="#282848"/>
<rect x="566" y="276" width="124" height="33" rx="4" fill="#9898B3"/>
<path d="M629.743 261.625C629.479 261.939 629.162 262.192 628.793 262.384C628.428 262.575 628.027 262.671 627.59 262.671C627.016 262.671 626.514 262.53 626.086 262.247C625.662 261.965 625.334 261.568 625.102 261.058C624.869 260.543 624.753 259.975 624.753 259.355C624.753 258.69 624.878 258.091 625.129 257.558C625.384 257.024 625.744 256.617 626.209 256.334C626.674 256.051 627.216 255.91 627.836 255.91C628.82 255.91 629.595 256.279 630.16 257.018C630.73 257.751 631.015 258.754 631.015 260.025V260.395C631.015 262.331 630.632 263.746 629.866 264.64C629.101 265.528 627.945 265.984 626.4 266.007H626.154V264.94H626.421C627.465 264.922 628.267 264.651 628.827 264.127C629.388 263.598 629.693 262.764 629.743 261.625ZM627.795 261.625C628.219 261.625 628.608 261.495 628.964 261.235C629.324 260.976 629.586 260.654 629.75 260.271V259.766C629.75 258.936 629.57 258.262 629.21 257.742C628.85 257.223 628.394 256.963 627.843 256.963C627.287 256.963 626.84 257.177 626.503 257.605C626.166 258.029 625.997 258.59 625.997 259.287C625.997 259.966 626.159 260.527 626.482 260.969C626.811 261.406 627.248 261.625 627.795 261.625Z" fill="#282848"/>
<path d="M575.151 333.345C575.151 334.306 574.999 335.136 574.693 335.833C574.388 336.526 573.96 337.068 573.408 337.46L575.186 338.854L574.29 339.682L572.191 338.014C571.863 338.096 571.517 338.137 571.152 338.137C570.368 338.137 569.674 337.945 569.067 337.562C568.461 337.175 567.99 336.626 567.652 335.915C567.32 335.2 567.149 334.372 567.14 333.434V332.716C567.14 331.759 567.306 330.913 567.639 330.18C567.971 329.446 568.441 328.885 569.047 328.498C569.658 328.106 570.355 327.91 571.139 327.91C571.941 327.91 572.645 328.104 573.251 328.491C573.862 328.879 574.331 329.437 574.659 330.166C574.987 330.891 575.151 331.738 575.151 332.709V333.345ZM573.839 332.702C573.839 331.531 573.604 330.629 573.135 329.995C572.67 329.357 572.005 329.038 571.139 329.038C570.314 329.038 569.662 329.355 569.184 329.988C568.71 330.617 568.466 331.492 568.452 332.613V333.345C568.452 334.484 568.689 335.382 569.163 336.038C569.642 336.694 570.305 337.022 571.152 337.022C572 337.022 572.656 336.715 573.121 336.1C573.586 335.48 573.825 334.593 573.839 333.44V332.702ZM581.543 337.269C581.051 337.847 580.328 338.137 579.376 338.137C578.588 338.137 577.986 337.909 577.571 337.453C577.161 336.993 576.954 336.314 576.949 335.416V330.604H578.214V335.382C578.214 336.503 578.67 337.063 579.581 337.063C580.547 337.063 581.19 336.703 581.509 335.983V330.604H582.773V338H581.57L581.543 337.269ZM587.771 338.137C586.768 338.137 585.952 337.809 585.323 337.152C584.694 336.492 584.38 335.61 584.38 334.507V334.274C584.38 333.541 584.519 332.887 584.797 332.312C585.079 331.734 585.471 331.283 585.973 330.959C586.479 330.631 587.025 330.467 587.613 330.467C588.575 330.467 589.322 330.784 589.855 331.417C590.389 332.05 590.655 332.957 590.655 334.138V334.664H585.645C585.663 335.393 585.875 335.983 586.28 336.435C586.69 336.881 587.21 337.104 587.839 337.104C588.285 337.104 588.664 337.013 588.974 336.831C589.284 336.649 589.555 336.407 589.787 336.106L590.56 336.708C589.94 337.66 589.01 338.137 587.771 338.137ZM587.613 331.506C587.103 331.506 586.674 331.693 586.328 332.066C585.982 332.436 585.768 332.955 585.686 333.625H589.391V333.529C589.354 332.887 589.181 332.39 588.871 332.039C588.561 331.684 588.142 331.506 587.613 331.506ZM596.432 336.038C596.432 335.696 596.302 335.432 596.042 335.245C595.787 335.054 595.338 334.89 594.695 334.753C594.057 334.616 593.549 334.452 593.171 334.261C592.797 334.069 592.519 333.841 592.337 333.577C592.159 333.313 592.07 332.998 592.07 332.634C592.07 332.028 592.326 331.515 592.836 331.096C593.351 330.676 594.007 330.467 594.805 330.467C595.643 330.467 596.322 330.683 596.842 331.116C597.366 331.549 597.628 332.103 597.628 332.777H596.356C596.356 332.431 596.208 332.132 595.912 331.882C595.62 331.631 595.251 331.506 594.805 331.506C594.344 331.506 593.984 331.606 593.725 331.807C593.465 332.007 593.335 332.269 593.335 332.593C593.335 332.898 593.456 333.128 593.697 333.283C593.939 333.438 594.374 333.586 595.003 333.728C595.636 333.869 596.149 334.037 596.541 334.233C596.933 334.429 597.222 334.666 597.409 334.944C597.601 335.218 597.696 335.553 597.696 335.949C597.696 336.61 597.432 337.141 596.903 337.542C596.375 337.938 595.689 338.137 594.846 338.137C594.253 338.137 593.729 338.032 593.273 337.822C592.818 337.613 592.46 337.321 592.2 336.947C591.945 336.569 591.817 336.161 591.817 335.724H593.082C593.105 336.147 593.273 336.485 593.588 336.735C593.907 336.981 594.326 337.104 594.846 337.104C595.324 337.104 595.707 337.009 595.994 336.817C596.286 336.621 596.432 336.362 596.432 336.038ZM601.06 328.812V330.604H602.44V331.581H601.06V336.168C601.06 336.464 601.121 336.688 601.244 336.838C601.367 336.984 601.577 337.057 601.873 337.057C602.019 337.057 602.219 337.029 602.475 336.975V338C602.142 338.091 601.818 338.137 601.504 338.137C600.939 338.137 600.513 337.966 600.226 337.624C599.938 337.282 599.795 336.797 599.795 336.168V331.581H598.448V330.604H599.795V328.812H601.06ZM605.298 338H604.033V330.604H605.298V338ZM603.931 328.642C603.931 328.437 603.992 328.263 604.115 328.122C604.243 327.981 604.43 327.91 604.676 327.91C604.922 327.91 605.109 327.981 605.236 328.122C605.364 328.263 605.428 328.437 605.428 328.642C605.428 328.847 605.364 329.018 605.236 329.154C605.109 329.291 604.922 329.359 604.676 329.359C604.43 329.359 604.243 329.291 604.115 329.154C603.992 329.018 603.931 328.847 603.931 328.642ZM606.993 334.233C606.993 333.509 607.134 332.857 607.417 332.278C607.704 331.7 608.101 331.253 608.606 330.938C609.117 330.624 609.698 330.467 610.35 330.467C611.357 330.467 612.17 330.815 612.79 331.513C613.414 332.21 613.727 333.137 613.727 334.295V334.384C613.727 335.104 613.588 335.751 613.31 336.325C613.036 336.895 612.642 337.339 612.127 337.658C611.617 337.977 611.029 338.137 610.363 338.137C609.361 338.137 608.547 337.788 607.923 337.091C607.303 336.394 606.993 335.471 606.993 334.322V334.233ZM608.265 334.384C608.265 335.204 608.454 335.863 608.832 336.359C609.215 336.856 609.725 337.104 610.363 337.104C611.006 337.104 611.516 336.854 611.895 336.353C612.273 335.847 612.462 335.14 612.462 334.233C612.462 333.422 612.268 332.766 611.881 332.265C611.498 331.759 610.988 331.506 610.35 331.506C609.725 331.506 609.222 331.754 608.839 332.251C608.456 332.748 608.265 333.459 608.265 334.384ZM616.509 330.604L616.55 331.533C617.115 330.822 617.853 330.467 618.765 330.467C620.328 330.467 621.116 331.349 621.13 333.112V338H619.865V333.105C619.861 332.572 619.738 332.178 619.496 331.923C619.259 331.668 618.888 331.54 618.382 331.54C617.972 331.54 617.612 331.649 617.302 331.868C616.992 332.087 616.75 332.374 616.577 332.729V338H615.312V330.604H616.509ZM627.344 336.038C627.344 335.696 627.214 335.432 626.954 335.245C626.699 335.054 626.25 334.89 625.607 334.753C624.969 334.616 624.461 334.452 624.083 334.261C623.709 334.069 623.431 333.841 623.249 333.577C623.071 333.313 622.982 332.998 622.982 332.634C622.982 332.028 623.238 331.515 623.748 331.096C624.263 330.676 624.919 330.467 625.717 330.467C626.555 330.467 627.234 330.683 627.754 331.116C628.278 331.549 628.54 332.103 628.54 332.777H627.269C627.269 332.431 627.12 332.132 626.824 331.882C626.533 331.631 626.163 331.506 625.717 331.506C625.257 331.506 624.896 331.606 624.637 331.807C624.377 332.007 624.247 332.269 624.247 332.593C624.247 332.898 624.368 333.128 624.609 333.283C624.851 333.438 625.286 333.586 625.915 333.728C626.549 333.869 627.061 334.037 627.453 334.233C627.845 334.429 628.134 334.666 628.321 334.944C628.513 335.218 628.608 335.553 628.608 335.949C628.608 336.61 628.344 337.141 627.815 337.542C627.287 337.938 626.601 338.137 625.758 338.137C625.165 338.137 624.641 338.032 624.186 337.822C623.73 337.613 623.372 337.321 623.112 336.947C622.857 336.569 622.729 336.161 622.729 335.724H623.994C624.017 336.147 624.186 336.485 624.5 336.735C624.819 336.981 625.238 337.104 625.758 337.104C626.236 337.104 626.619 337.009 626.906 336.817C627.198 336.621 627.344 336.362 627.344 336.038ZM630.345 330.85L629.627 330.357C630.051 329.765 630.27 329.141 630.283 328.484V327.5H631.534V328.389C631.53 328.844 631.416 329.3 631.192 329.756C630.974 330.207 630.691 330.572 630.345 330.85ZM637.721 330.604L637.755 331.424C638.297 330.786 639.029 330.467 639.949 330.467C640.984 330.467 641.688 330.863 642.062 331.656C642.308 331.301 642.627 331.014 643.019 330.795C643.415 330.576 643.882 330.467 644.42 330.467C646.042 330.467 646.867 331.326 646.895 333.044V338H645.63V333.119C645.63 332.59 645.509 332.196 645.268 331.937C645.026 331.672 644.62 331.54 644.051 331.54C643.581 331.54 643.192 331.681 642.882 331.964C642.572 332.242 642.392 332.618 642.342 333.092V338H641.07V333.153C641.07 332.078 640.544 331.54 639.491 331.54C638.662 331.54 638.094 331.893 637.789 332.6V338H636.524V330.604H637.721ZM651.878 338.137C650.875 338.137 650.06 337.809 649.431 337.152C648.802 336.492 648.487 335.61 648.487 334.507V334.274C648.487 333.541 648.626 332.887 648.904 332.312C649.187 331.734 649.579 331.283 650.08 330.959C650.586 330.631 651.133 330.467 651.721 330.467C652.682 330.467 653.43 330.784 653.963 331.417C654.496 332.05 654.763 332.957 654.763 334.138V334.664H649.752C649.77 335.393 649.982 335.983 650.388 336.435C650.798 336.881 651.317 337.104 651.946 337.104C652.393 337.104 652.771 337.013 653.081 336.831C653.391 336.649 653.662 336.407 653.895 336.106L654.667 336.708C654.047 337.66 653.118 338.137 651.878 338.137ZM651.721 331.506C651.21 331.506 650.782 331.693 650.436 332.066C650.089 332.436 649.875 332.955 649.793 333.625H653.498V333.529C653.462 332.887 653.288 332.39 652.979 332.039C652.669 331.684 652.249 331.506 651.721 331.506ZM660.799 338C660.726 337.854 660.667 337.594 660.621 337.221C660.033 337.831 659.331 338.137 658.516 338.137C657.786 338.137 657.187 337.932 656.718 337.521C656.253 337.107 656.021 336.583 656.021 335.949C656.021 335.179 656.312 334.582 656.896 334.158C657.483 333.73 658.308 333.516 659.37 333.516H660.601V332.935C660.601 332.493 660.468 332.142 660.204 331.882C659.94 331.618 659.55 331.485 659.035 331.485C658.584 331.485 658.206 331.599 657.9 331.827C657.595 332.055 657.442 332.331 657.442 332.654H656.171C656.171 332.285 656.301 331.93 656.561 331.588C656.825 331.242 657.18 330.968 657.627 330.768C658.078 330.567 658.573 330.467 659.11 330.467C659.963 330.467 660.63 330.681 661.113 331.109C661.596 331.533 661.847 332.119 661.865 332.866V336.271C661.865 336.95 661.952 337.49 662.125 337.891V338H660.799ZM658.7 337.036C659.097 337.036 659.473 336.934 659.828 336.729C660.184 336.523 660.441 336.257 660.601 335.929V334.411H659.609C658.06 334.411 657.285 334.865 657.285 335.771C657.285 336.168 657.417 336.478 657.682 336.701C657.946 336.924 658.285 337.036 658.7 337.036ZM665.044 330.604L665.085 331.533C665.65 330.822 666.388 330.467 667.3 330.467C668.863 330.467 669.651 331.349 669.665 333.112V338H668.4V333.105C668.396 332.572 668.273 332.178 668.031 331.923C667.794 331.668 667.423 331.54 666.917 331.54C666.507 331.54 666.147 331.649 665.837 331.868C665.527 332.087 665.285 332.374 665.112 332.729V338H663.848V330.604H665.044ZM672.946 338H671.682V330.604H672.946V338ZM671.579 328.642C671.579 328.437 671.641 328.263 671.764 328.122C671.891 327.981 672.078 327.91 672.324 327.91C672.57 327.91 672.757 327.981 672.885 328.122C673.012 328.263 673.076 328.437 673.076 328.642C673.076 328.847 673.012 329.018 672.885 329.154C672.757 329.291 672.57 329.359 672.324 329.359C672.078 329.359 671.891 329.291 671.764 329.154C671.641 329.018 671.579 328.847 671.579 328.642ZM676.173 330.604L676.214 331.533C676.779 330.822 677.517 330.467 678.429 330.467C679.992 330.467 680.78 331.349 680.794 333.112V338H679.529V333.105C679.525 332.572 679.402 332.178 679.16 331.923C678.923 331.668 678.552 331.54 678.046 331.54C677.636 331.54 677.276 331.649 676.966 331.868C676.656 332.087 676.414 332.374 676.241 332.729V338H674.977V330.604H676.173ZM682.4 334.24C682.4 333.087 682.667 332.171 683.2 331.492C683.733 330.809 684.44 330.467 685.319 330.467C686.222 330.467 686.926 330.786 687.432 331.424L687.493 330.604H688.648V337.822C688.648 338.779 688.364 339.534 687.794 340.085C687.229 340.636 686.468 340.912 685.511 340.912C684.978 340.912 684.456 340.798 683.945 340.57C683.435 340.342 683.045 340.03 682.776 339.634L683.433 338.875C683.975 339.545 684.638 339.88 685.422 339.88C686.037 339.88 686.516 339.707 686.857 339.36C687.204 339.014 687.377 338.526 687.377 337.897V337.262C686.871 337.845 686.181 338.137 685.306 338.137C684.44 338.137 683.738 337.788 683.2 337.091C682.667 336.394 682.4 335.443 682.4 334.24ZM683.672 334.384C683.672 335.218 683.843 335.874 684.185 336.353C684.526 336.826 685.005 337.063 685.62 337.063C686.418 337.063 687.003 336.701 687.377 335.977V332.6C686.99 331.893 686.409 331.54 685.634 331.54C685.019 331.54 684.538 331.779 684.191 332.258C683.845 332.736 683.672 333.445 683.672 334.384Z" fill="#282848"/>
</svg>
