<svg width="801" height="100" viewBox="0 0 801 100" fill="none" xmlns="http://www.w3.org/2000/svg">
<path d="M0.973633 75L5.92188 62.1152H7.75879L13.0322 75H11.0898L9.58691 71.0977H4.19922L2.78418 75H0.973633ZM4.69141 69.709H9.05957L7.71484 66.1406C7.30469 65.0566 7 64.166 6.80078 63.4688C6.63672 64.2949 6.40527 65.1152 6.10645 65.9297L4.69141 69.709ZM13.5423 75.7734L15.0804 76.002C15.1449 76.4766 15.3236 76.8223 15.6166 77.0391C16.0091 77.332 16.5453 77.4785 17.225 77.4785C17.9574 77.4785 18.5228 77.332 18.9213 77.0391C19.3197 76.7461 19.5892 76.3359 19.7298 75.8086C19.8119 75.4863 19.85 74.8096 19.8441 73.7783C19.1527 74.5928 18.2914 75 17.2601 75C15.9769 75 14.9838 74.5371 14.2806 73.6113C13.5775 72.6855 13.2259 71.5752 13.2259 70.2803C13.2259 69.3896 13.3871 68.5693 13.7093 67.8193C14.0316 67.0635 14.4974 66.4805 15.1068 66.0703C15.722 65.6602 16.4427 65.4551 17.2689 65.4551C18.3705 65.4551 19.2787 65.9004 19.9935 66.791V65.666H21.4525V73.7344C21.4525 75.1875 21.3031 76.2158 21.0043 76.8193C20.7113 77.4287 20.2425 77.9092 19.598 78.2607C18.9593 78.6123 18.1713 78.7881 17.2338 78.7881C16.1205 78.7881 15.2211 78.5361 14.5355 78.0322C13.85 77.5342 13.5189 76.7812 13.5423 75.7734ZM14.8519 70.166C14.8519 71.3906 15.0951 72.2842 15.5814 72.8467C16.0677 73.4092 16.6771 73.6904 17.4095 73.6904C18.1361 73.6904 18.7455 73.4121 19.2377 72.8555C19.7298 72.293 19.9759 71.4141 19.9759 70.2188C19.9759 69.0762 19.7211 68.2148 19.2113 67.6348C18.7074 67.0547 18.098 66.7646 17.3832 66.7646C16.68 66.7646 16.0824 67.0518 15.5902 67.626C15.098 68.1943 14.8519 69.041 14.8519 70.166ZM29.8816 71.9941L31.5163 72.1963C31.2585 73.1514 30.781 73.8926 30.0837 74.4199C29.3864 74.9473 28.4958 75.2109 27.4118 75.2109C26.0466 75.2109 24.9626 74.792 24.1599 73.9541C23.363 73.1104 22.9646 71.9297 22.9646 70.4121C22.9646 68.8418 23.3689 67.623 24.1775 66.7559C24.9861 65.8887 26.0349 65.4551 27.3239 65.4551C28.572 65.4551 29.5915 65.8799 30.3825 66.7295C31.1736 67.5791 31.5691 68.7744 31.5691 70.3154C31.5691 70.4092 31.5661 70.5498 31.5603 70.7373H24.5993C24.6579 71.7627 24.948 72.5479 25.4695 73.0928C25.9909 73.6377 26.6413 73.9102 27.4206 73.9102C28.0007 73.9102 28.4958 73.7578 28.906 73.4531C29.3161 73.1484 29.6413 72.6621 29.8816 71.9941ZM24.6872 69.4365H29.8991C29.8288 68.6514 29.6296 68.0625 29.3015 67.6699C28.7976 67.0605 28.1443 66.7559 27.3415 66.7559C26.615 66.7559 26.0027 66.999 25.5046 67.4854C25.0124 67.9717 24.74 68.6221 24.6872 69.4365ZM33.1514 75V65.666H34.5753V66.9932C35.2608 65.9678 36.2511 65.4551 37.546 65.4551C38.1085 65.4551 38.6241 65.5576 39.0929 65.7627C39.5675 65.9619 39.922 66.2256 40.1563 66.5537C40.3907 66.8818 40.5548 67.2715 40.6485 67.7227C40.7071 68.0156 40.7364 68.5283 40.7364 69.2607V75H39.1544V69.3223C39.1544 68.6777 39.0929 68.1973 38.9698 67.8809C38.8468 67.5586 38.627 67.3037 38.3106 67.1162C38.0001 66.9229 37.6339 66.8262 37.212 66.8262C36.5382 66.8262 35.9552 67.04 35.463 67.4678C34.9766 67.8955 34.7335 68.707 34.7335 69.9023V75H33.1514ZM46.2651 73.585L46.4936 74.9824C46.0483 75.0762 45.6498 75.123 45.2983 75.123C44.7241 75.123 44.2788 75.0322 43.9623 74.8506C43.6459 74.6689 43.4233 74.4316 43.2944 74.1387C43.1655 73.8398 43.101 73.2158 43.101 72.2666V66.8965H41.9409V65.666H43.101V63.3545L44.6743 62.4053V65.666H46.2651V66.8965H44.6743V72.3545C44.6743 72.8057 44.7006 73.0957 44.7534 73.2246C44.812 73.3535 44.9028 73.4561 45.0258 73.5322C45.1547 73.6084 45.3364 73.6465 45.5707 73.6465C45.7465 73.6465 45.978 73.626 46.2651 73.585ZM51.4777 72.2139L53.0421 71.9678C53.13 72.5947 53.3732 73.0752 53.7716 73.4092C54.1759 73.7432 54.7384 73.9102 55.4591 73.9102C56.1857 73.9102 56.7248 73.7637 57.0763 73.4707C57.4279 73.1719 57.6037 72.8232 57.6037 72.4248C57.6037 72.0674 57.4484 71.7861 57.1379 71.5811C56.9211 71.4404 56.382 71.2617 55.5207 71.0449C54.3605 70.752 53.5548 70.5 53.1037 70.2891C52.6584 70.0723 52.3185 69.7764 52.0841 69.4014C51.8556 69.0205 51.7414 68.6016 51.7414 68.1445C51.7414 67.7285 51.8351 67.3447 52.0226 66.9932C52.216 66.6357 52.4767 66.3398 52.8048 66.1055C53.0509 65.9238 53.3849 65.7715 53.8068 65.6484C54.2345 65.5195 54.6916 65.4551 55.1779 65.4551C55.9103 65.4551 56.5519 65.5605 57.1027 65.7715C57.6593 65.9824 58.0695 66.2695 58.3332 66.6328C58.5968 66.9902 58.7785 67.4707 58.8781 68.0742L57.3312 68.2852C57.2609 67.8047 57.0558 67.4297 56.716 67.1602C56.382 66.8906 55.9074 66.7559 55.2921 66.7559C54.5656 66.7559 54.047 66.876 53.7365 67.1162C53.4259 67.3564 53.2707 67.6377 53.2707 67.96C53.2707 68.165 53.3351 68.3496 53.464 68.5137C53.5929 68.6836 53.7951 68.8242 54.0705 68.9355C54.2287 68.9941 54.6945 69.1289 55.4679 69.3398C56.5871 69.6387 57.3664 69.8848 57.8058 70.0781C58.2511 70.2656 58.5998 70.541 58.8517 70.9043C59.1037 71.2676 59.2296 71.7188 59.2296 72.2578C59.2296 72.7852 59.0744 73.2832 58.7638 73.752C58.4591 74.2148 58.0168 74.5752 57.4367 74.833C56.8566 75.085 56.2004 75.2109 55.4679 75.2109C54.255 75.2109 53.3293 74.959 52.6906 74.4551C52.0578 73.9512 51.6535 73.2041 51.4777 72.2139ZM66.8677 75V73.6289C66.1411 74.6836 65.1538 75.2109 63.9058 75.2109C63.355 75.2109 62.8394 75.1055 62.3589 74.8945C61.8843 74.6836 61.5298 74.4199 61.2954 74.1035C61.0669 73.7812 60.9058 73.3887 60.812 72.9258C60.7476 72.6152 60.7154 72.123 60.7154 71.4492V65.666H62.2974V70.8428C62.2974 71.6689 62.3296 72.2256 62.3941 72.5127C62.4937 72.9287 62.7046 73.2568 63.0269 73.4971C63.3491 73.7314 63.7476 73.8486 64.2222 73.8486C64.6968 73.8486 65.1421 73.7285 65.5581 73.4883C65.9741 73.2422 66.2671 72.9111 66.437 72.4951C66.6128 72.0732 66.7007 71.4639 66.7007 70.667V65.666H68.2827V75H66.8677ZM71.869 75H70.4013V62.1152H71.9833V66.7119C72.6513 65.874 73.5038 65.4551 74.5409 65.4551C75.1151 65.4551 75.6571 65.5723 76.1669 65.8066C76.6825 66.0352 77.1044 66.3604 77.4325 66.7822C77.7665 67.1982 78.0272 67.7021 78.2147 68.2939C78.4022 68.8857 78.496 69.5186 78.496 70.1924C78.496 71.792 78.1005 73.0283 77.3095 73.9014C76.5184 74.7744 75.5692 75.2109 74.4618 75.2109C73.3602 75.2109 72.496 74.751 71.869 73.8311V75ZM71.8514 70.2627C71.8514 71.3818 72.0038 72.1904 72.3085 72.6885C72.8065 73.5029 73.4804 73.9102 74.33 73.9102C75.0214 73.9102 75.619 73.6113 76.1229 73.0137C76.6268 72.4102 76.8788 71.5137 76.8788 70.3242C76.8788 69.1055 76.6356 68.2061 76.1493 67.626C75.6688 67.0459 75.0858 66.7559 74.4003 66.7559C73.7089 66.7559 73.1112 67.0576 72.6073 67.6611C72.1034 68.2588 71.8514 69.126 71.8514 70.2627ZM80.0696 75V65.666H81.4846V66.9756C81.7776 66.5186 82.1672 66.1523 82.6536 65.877C83.1399 65.5957 83.6936 65.4551 84.3147 65.4551C85.0061 65.4551 85.5715 65.5986 86.011 65.8857C86.4563 66.1729 86.7698 66.5742 86.9514 67.0898C87.6897 66 88.6506 65.4551 89.8342 65.4551C90.76 65.4551 91.4719 65.7129 91.97 66.2285C92.468 66.7383 92.717 67.5264 92.717 68.5928V75H91.1438V69.1201C91.1438 68.4873 91.0911 68.0332 90.9856 67.7578C90.886 67.4766 90.7014 67.251 90.4319 67.0811C90.1623 66.9111 89.8459 66.8262 89.4827 66.8262C88.8264 66.8262 88.2815 67.0459 87.8479 67.4854C87.4143 67.9189 87.1975 68.6162 87.1975 69.5771V75H85.6155V68.9355C85.6155 68.2324 85.4866 67.7051 85.2288 67.3535C84.9709 67.002 84.5491 66.8262 83.9631 66.8262C83.5178 66.8262 83.1047 66.9434 82.7239 67.1777C82.3489 67.4121 82.0764 67.7549 81.9065 68.2061C81.7366 68.6572 81.6516 69.3076 81.6516 70.1572V75H80.0696ZM94.7125 63.9346V62.1152H96.2945V63.9346H94.7125ZM94.7125 75V65.666H96.2945V75H94.7125ZM101.806 73.585L102.034 74.9824C101.589 75.0762 101.19 75.123 100.839 75.123C100.265 75.123 99.8193 75.0322 99.5029 74.8506C99.1865 74.6689 98.9638 74.4316 98.8349 74.1387C98.706 73.8398 98.6416 73.2158 98.6416 72.2666V66.8965H97.4814V65.666H98.6416V63.3545L100.215 62.4053V65.666H101.806V66.8965H100.215V72.3545C100.215 72.8057 100.241 73.0957 100.294 73.2246C100.353 73.3535 100.443 73.4561 100.566 73.5322C100.695 73.6084 100.877 73.6465 101.111 73.6465C101.287 73.6465 101.519 73.626 101.806 73.585ZM102.368 72.2139L103.933 71.9678C104.021 72.5947 104.264 73.0752 104.662 73.4092C105.067 73.7432 105.629 73.9102 106.35 73.9102C107.076 73.9102 107.616 73.7637 107.967 73.4707C108.319 73.1719 108.494 72.8232 108.494 72.4248C108.494 72.0674 108.339 71.7861 108.029 71.5811C107.812 71.4404 107.273 71.2617 106.411 71.0449C105.251 70.752 104.446 70.5 103.994 70.2891C103.549 70.0723 103.209 69.7764 102.975 69.4014C102.746 69.0205 102.632 68.6016 102.632 68.1445C102.632 67.7285 102.726 67.3447 102.913 66.9932C103.107 66.6357 103.368 66.3398 103.696 66.1055C103.942 65.9238 104.276 65.7715 104.698 65.6484C105.125 65.5195 105.582 65.4551 106.069 65.4551C106.801 65.4551 107.443 65.5605 107.993 65.7715C108.55 65.9824 108.96 66.2695 109.224 66.6328C109.488 66.9902 109.669 67.4707 109.769 68.0742L108.222 68.2852C108.152 67.8047 107.947 67.4297 107.607 67.1602C107.273 66.8906 106.798 66.7559 106.183 66.7559C105.456 66.7559 104.938 66.876 104.627 67.1162C104.317 67.3564 104.161 67.6377 104.161 67.96C104.161 68.165 104.226 68.3496 104.355 68.5137C104.484 68.6836 104.686 68.8242 104.961 68.9355C105.119 68.9941 105.585 69.1289 106.359 69.3398C107.478 69.6387 108.257 69.8848 108.697 70.0781C109.142 70.2656 109.491 70.541 109.743 70.9043C109.994 71.2676 110.12 71.7188 110.12 72.2578C110.12 72.7852 109.965 73.2832 109.655 73.752C109.35 74.2148 108.908 74.5752 108.327 74.833C107.747 75.085 107.091 75.2109 106.359 75.2109C105.146 75.2109 104.22 74.959 103.581 74.4551C102.949 73.9512 102.544 73.2041 102.368 72.2139ZM119.745 73.585L119.974 74.9824C119.528 75.0762 119.13 75.123 118.778 75.123C118.204 75.123 117.759 75.0322 117.442 74.8506C117.126 74.6689 116.903 74.4316 116.774 74.1387C116.646 73.8398 116.581 73.2158 116.581 72.2666V66.8965H115.421V65.666H116.581V63.3545L118.154 62.4053V65.666H119.745V66.8965H118.154V72.3545C118.154 72.8057 118.181 73.0957 118.233 73.2246C118.292 73.3535 118.383 73.4561 118.506 73.5322C118.635 73.6084 118.816 73.6465 119.051 73.6465C119.227 73.6465 119.458 73.626 119.745 73.585ZM120.352 70.333C120.352 68.6045 120.832 67.3242 121.793 66.4922C122.596 65.8008 123.575 65.4551 124.729 65.4551C126.012 65.4551 127.061 65.877 127.875 66.7207C128.69 67.5586 129.097 68.7188 129.097 70.2012C129.097 71.4023 128.915 72.3486 128.552 73.04C128.195 73.7256 127.67 74.2588 126.979 74.6396C126.293 75.0205 125.543 75.2109 124.729 75.2109C123.422 75.2109 122.365 74.792 121.556 73.9541C120.753 73.1162 120.352 71.9092 120.352 70.333ZM121.978 70.333C121.978 71.5283 122.239 72.4248 122.76 73.0225C123.282 73.6143 123.938 73.9102 124.729 73.9102C125.514 73.9102 126.167 73.6113 126.689 73.0137C127.21 72.416 127.471 71.5049 127.471 70.2803C127.471 69.126 127.207 68.2529 126.68 67.6611C126.159 67.0635 125.508 66.7646 124.729 66.7646C123.938 66.7646 123.282 67.0605 122.76 67.6523C122.239 68.2441 121.978 69.1377 121.978 70.333ZM1.55371 93.2139L3.11816 92.9678C3.20605 93.5947 3.44922 94.0752 3.84766 94.4092C4.25195 94.7432 4.81445 94.9102 5.53516 94.9102C6.26172 94.9102 6.80078 94.7637 7.15234 94.4707C7.50391 94.1719 7.67969 93.8232 7.67969 93.4248C7.67969 93.0674 7.52441 92.7861 7.21387 92.5811C6.99707 92.4404 6.45801 92.2617 5.59668 92.0449C4.43652 91.752 3.63086 91.5 3.17969 91.2891C2.73438 91.0723 2.39453 90.7764 2.16016 90.4014C1.93164 90.0205 1.81738 89.6016 1.81738 89.1445C1.81738 88.7285 1.91113 88.3447 2.09863 87.9932C2.29199 87.6357 2.55273 87.3398 2.88086 87.1055C3.12695 86.9238 3.46094 86.7715 3.88281 86.6484C4.31055 86.5195 4.76758 86.4551 5.25391 86.4551C5.98633 86.4551 6.62793 86.5605 7.17871 86.7715C7.73535 86.9824 8.14551 87.2695 8.40918 87.6328C8.67285 87.9902 8.85449 88.4707 8.9541 89.0742L7.40723 89.2852C7.33691 88.8047 7.13184 88.4297 6.79199 88.1602C6.45801 87.8906 5.9834 87.7559 5.36816 87.7559C4.6416 87.7559 4.12305 87.876 3.8125 88.1162C3.50195 88.3564 3.34668 88.6377 3.34668 88.96C3.34668 89.165 3.41113 89.3496 3.54004 89.5137C3.66895 89.6836 3.87109 89.8242 4.14648 89.9355C4.30469 89.9941 4.77051 90.1289 5.54395 90.3398C6.66309 90.6387 7.44238 90.8848 7.88184 91.0781C8.32715 91.2656 8.67578 91.541 8.92773 91.9043C9.17969 92.2676 9.30566 92.7188 9.30566 93.2578C9.30566 93.7852 9.15039 94.2832 8.83984 94.752C8.53516 95.2148 8.09277 95.5752 7.5127 95.833C6.93262 96.085 6.27637 96.2109 5.54395 96.2109C4.33105 96.2109 3.40527 95.959 2.7666 95.4551C2.13379 94.9512 1.72949 94.2041 1.55371 93.2139ZM17.2162 92.9941L18.8509 93.1963C18.5931 94.1514 18.1156 94.8926 17.4183 95.4199C16.7211 95.9473 15.8304 96.2109 14.7464 96.2109C13.3812 96.2109 12.2972 95.792 11.4945 94.9541C10.6976 94.1104 10.2992 92.9297 10.2992 91.4121C10.2992 89.8418 10.7035 88.623 11.5121 87.7559C12.3207 86.8887 13.3695 86.4551 14.6586 86.4551C15.9066 86.4551 16.9261 86.8799 17.7171 87.7295C18.5082 88.5791 18.9037 89.7744 18.9037 91.3154C18.9037 91.4092 18.9007 91.5498 18.8949 91.7373H11.9339C11.9925 92.7627 12.2826 93.5479 12.8041 94.0928C13.3255 94.6377 13.9759 94.9102 14.7552 94.9102C15.3353 94.9102 15.8304 94.7578 16.2406 94.4531C16.6507 94.1484 16.9759 93.6621 17.2162 92.9941ZM12.0218 90.4365H17.2338C17.1634 89.6514 16.9642 89.0625 16.6361 88.6699C16.1322 88.0605 15.4789 87.7559 14.6761 87.7559C13.9496 87.7559 13.3373 87.999 12.8392 88.4854C12.347 88.9717 12.0746 89.6221 12.0218 90.4365ZM23.0788 96L19.528 86.666H21.198L23.2019 92.2559C23.4187 92.8594 23.6179 93.4863 23.7995 94.1367C23.9402 93.6445 24.1364 93.0527 24.3884 92.3613L26.4626 86.666H28.0886L24.5554 96H23.0788ZM35.5157 92.9941L37.1505 93.1963C36.8927 94.1514 36.4151 94.8926 35.7179 95.4199C35.0206 95.9473 34.13 96.2109 33.046 96.2109C31.6807 96.2109 30.5968 95.792 29.794 94.9541C28.9971 94.1104 28.5987 92.9297 28.5987 91.4121C28.5987 89.8418 29.003 88.623 29.8116 87.7559C30.6202 86.8887 31.669 86.4551 32.9581 86.4551C34.2061 86.4551 35.2257 86.8799 36.0167 87.7295C36.8077 88.5791 37.2032 89.7744 37.2032 91.3154C37.2032 91.4092 37.2003 91.5498 37.1944 91.7373H30.2335C30.2921 92.7627 30.5821 93.5479 31.1036 94.0928C31.6251 94.6377 32.2755 94.9102 33.0548 94.9102C33.6348 94.9102 34.13 94.7578 34.5401 94.4531C34.9503 94.1484 35.2755 93.6621 35.5157 92.9941ZM30.3214 90.4365H35.5333C35.463 89.6514 35.2638 89.0625 34.9356 88.6699C34.4317 88.0605 33.7784 87.7559 32.9757 87.7559C32.2491 87.7559 31.6368 87.999 31.1388 88.4854C30.6466 88.9717 30.3741 89.6221 30.3214 90.4365ZM38.768 96V86.666H40.1918V88.0811C40.5551 87.4189 40.8891 86.9824 41.1938 86.7715C41.5043 86.5605 41.8442 86.4551 42.2133 86.4551C42.7465 86.4551 43.2885 86.625 43.8393 86.9648L43.2944 88.4326C42.9077 88.2041 42.5209 88.0898 42.1342 88.0898C41.7885 88.0898 41.478 88.1953 41.2026 88.4062C40.9272 88.6113 40.7309 88.8984 40.6137 89.2676C40.4379 89.8301 40.35 90.4453 40.35 91.1133V96H38.768ZM50.5105 94.8486C49.9246 95.3467 49.3592 95.6982 48.8143 95.9033C48.2752 96.1084 47.6951 96.2109 47.074 96.2109C46.0486 96.2109 45.2605 95.9619 44.7098 95.4639C44.159 94.96 43.8836 94.3184 43.8836 93.5391C43.8836 93.082 43.9861 92.666 44.1912 92.291C44.4021 91.9102 44.6746 91.6055 45.0086 91.377C45.3484 91.1484 45.7293 90.9756 46.1512 90.8584C46.4617 90.7764 46.9305 90.6973 47.5574 90.6211C48.8348 90.4688 49.7752 90.2871 50.3787 90.0762C50.3846 89.8594 50.3875 89.7217 50.3875 89.6631C50.3875 89.0186 50.2381 88.5645 49.9393 88.3008C49.535 87.9434 48.9344 87.7646 48.1375 87.7646C47.3934 87.7646 46.8426 87.8965 46.4852 88.1602C46.1336 88.418 45.8729 88.8779 45.7029 89.54L44.1561 89.3291C44.2967 88.667 44.5281 88.1338 44.8504 87.7295C45.1727 87.3193 45.6385 87.0059 46.2479 86.7891C46.8572 86.5664 47.5633 86.4551 48.366 86.4551C49.1629 86.4551 49.8104 86.5488 50.3084 86.7363C50.8064 86.9238 51.1727 87.1611 51.407 87.4482C51.6414 87.7295 51.8055 88.0869 51.8992 88.5205C51.952 88.79 51.9783 89.2764 51.9783 89.9795V92.0889C51.9783 93.5596 52.0105 94.4912 52.075 94.8838C52.1453 95.2705 52.2801 95.6426 52.4793 96H50.827C50.6629 95.6719 50.5574 95.2881 50.5105 94.8486ZM50.3787 91.3154C49.8045 91.5498 48.9432 91.749 47.7947 91.9131C47.1443 92.0068 46.6844 92.1123 46.4148 92.2295C46.1453 92.3467 45.9373 92.5195 45.7908 92.748C45.6443 92.9707 45.5711 93.2197 45.5711 93.4951C45.5711 93.917 45.7293 94.2686 46.0457 94.5498C46.368 94.8311 46.8367 94.9717 47.452 94.9717C48.0613 94.9717 48.6033 94.8398 49.0779 94.5762C49.5525 94.3066 49.9012 93.9404 50.1238 93.4775C50.2938 93.1201 50.3787 92.5928 50.3787 91.8955V91.3154ZM54.0441 96V83.1152H55.6261V96H54.0441ZM62.3768 96V86.666H63.7919V87.9756C64.0848 87.5186 64.4745 87.1523 64.9608 86.877C65.4471 86.5957 66.0009 86.4551 66.622 86.4551C67.3134 86.4551 67.8788 86.5986 68.3182 86.8857C68.7636 87.1729 69.077 87.5742 69.2587 88.0898C69.997 87 70.9579 86.4551 72.1415 86.4551C73.0673 86.4551 73.7792 86.7129 74.2772 87.2285C74.7753 87.7383 75.0243 88.5264 75.0243 89.5928V96H73.4511V90.1201C73.4511 89.4873 73.3983 89.0332 73.2929 88.7578C73.1932 88.4766 73.0087 88.251 72.7391 88.0811C72.4696 87.9111 72.1532 87.8262 71.7899 87.8262C71.1337 87.8262 70.5887 88.0459 70.1552 88.4854C69.7216 88.9189 69.5048 89.6162 69.5048 90.5771V96H67.9227V89.9355C67.9227 89.2324 67.7938 88.7051 67.536 88.3535C67.2782 88.002 66.8563 87.8262 66.2704 87.8262C65.8251 87.8262 65.412 87.9434 65.0311 88.1777C64.6561 88.4121 64.3837 88.7549 64.2137 89.2061C64.0438 89.6572 63.9589 90.3076 63.9589 91.1572V96H62.3768ZM83.1018 94.8486C82.5159 95.3467 81.9504 95.6982 81.4055 95.9033C80.8664 96.1084 80.2864 96.2109 79.6653 96.2109C78.6399 96.2109 77.8518 95.9619 77.301 95.4639C76.7502 94.96 76.4748 94.3184 76.4748 93.5391C76.4748 93.082 76.5774 92.666 76.7825 92.291C76.9934 91.9102 77.2659 91.6055 77.5998 91.377C77.9397 91.1484 78.3205 90.9756 78.7424 90.8584C79.053 90.7764 79.5217 90.6973 80.1487 90.6211C81.426 90.4688 82.3664 90.2871 82.97 90.0762C82.9758 89.8594 82.9788 89.7217 82.9788 89.6631C82.9788 89.0186 82.8293 88.5645 82.5305 88.3008C82.1262 87.9434 81.5256 87.7646 80.7288 87.7646C79.9846 87.7646 79.4338 87.8965 79.0764 88.1602C78.7248 88.418 78.4641 88.8779 78.2942 89.54L76.7473 89.3291C76.8879 88.667 77.1194 88.1338 77.4416 87.7295C77.7639 87.3193 78.2297 87.0059 78.8391 86.7891C79.4485 86.5664 80.1545 86.4551 80.9573 86.4551C81.7541 86.4551 82.4016 86.5488 82.8997 86.7363C83.3977 86.9238 83.7639 87.1611 83.9983 87.4482C84.2327 87.7295 84.3967 88.0869 84.4905 88.5205C84.5432 88.79 84.5696 89.2764 84.5696 89.9795V92.0889C84.5696 93.5596 84.6018 94.4912 84.6663 94.8838C84.7366 95.2705 84.8713 95.6426 85.0705 96H83.4182C83.2541 95.6719 83.1487 95.2881 83.1018 94.8486ZM82.97 91.3154C82.3957 91.5498 81.5344 91.749 80.386 91.9131C79.7356 92.0068 79.2756 92.1123 79.0061 92.2295C78.7366 92.3467 78.5286 92.5195 78.3821 92.748C78.2356 92.9707 78.1623 93.2197 78.1623 93.4951C78.1623 93.917 78.3205 94.2686 78.637 94.5498C78.9592 94.8311 79.428 94.9717 80.0432 94.9717C80.6526 94.9717 81.1946 94.8398 81.6692 94.5762C82.1438 94.3066 82.4924 93.9404 82.7151 93.4775C82.885 93.1201 82.97 92.5928 82.97 91.8955V91.3154ZM86.6529 96V86.666H88.0768V88.0811C88.44 87.4189 88.774 86.9824 89.0787 86.7715C89.3893 86.5605 89.7291 86.4551 90.0982 86.4551C90.6314 86.4551 91.1734 86.625 91.7242 86.9648L91.1793 88.4326C90.7926 88.2041 90.4059 88.0898 90.0191 88.0898C89.6734 88.0898 89.3629 88.1953 89.0875 88.4062C88.8121 88.6113 88.6158 88.8984 88.4986 89.2676C88.3229 89.8301 88.235 90.4453 88.235 91.1133V96H86.6529ZM92.3134 96V83.1152H93.8955V90.4629L97.6396 86.666H99.6875L96.1191 90.1289L100.048 96H98.0966L95.0117 91.2275L93.8955 92.2998V96H92.3134ZM107.334 92.9941L108.969 93.1963C108.711 94.1514 108.234 94.8926 107.536 95.4199C106.839 95.9473 105.949 96.2109 104.865 96.2109C103.499 96.2109 102.415 95.792 101.613 94.9541C100.816 94.1104 100.417 92.9297 100.417 91.4121C100.417 89.8418 100.822 88.623 101.63 87.7559C102.439 86.8887 103.488 86.4551 104.777 86.4551C106.025 86.4551 107.044 86.8799 107.835 87.7295C108.626 88.5791 109.022 89.7744 109.022 91.3154C109.022 91.4092 109.019 91.5498 109.013 91.7373H102.052C102.111 92.7627 102.401 93.5479 102.922 94.0928C103.444 94.6377 104.094 94.9102 104.873 94.9102C105.453 94.9102 105.949 94.7578 106.359 94.4531C106.769 94.1484 107.094 93.6621 107.334 92.9941ZM102.14 90.4365H107.352C107.282 89.6514 107.082 89.0625 106.754 88.6699C106.25 88.0605 105.597 87.7559 104.794 87.7559C104.068 87.7559 103.455 87.999 102.957 88.4854C102.465 88.9717 102.193 89.6221 102.14 90.4365ZM114.058 94.585L114.287 95.9824C113.841 96.0762 113.443 96.123 113.091 96.123C112.517 96.123 112.072 96.0322 111.756 95.8506C111.439 95.6689 111.216 95.4316 111.088 95.1387C110.959 94.8398 110.894 94.2158 110.894 93.2666V87.8965H109.734V86.666H110.894V84.3545L112.467 83.4053V86.666H114.058V87.8965H112.467V93.3545C112.467 93.8057 112.494 94.0957 112.547 94.2246C112.605 94.3535 112.696 94.4561 112.819 94.5322C112.948 94.6084 113.13 94.6465 113.364 94.6465C113.54 94.6465 113.771 94.626 114.058 94.585ZM114.621 93.2139L116.186 92.9678C116.273 93.5947 116.517 94.0752 116.915 94.4092C117.319 94.7432 117.882 94.9102 118.603 94.9102C119.329 94.9102 119.868 94.7637 120.22 94.4707C120.571 94.1719 120.747 93.8232 120.747 93.4248C120.747 93.0674 120.592 92.7861 120.281 92.5811C120.064 92.4404 119.525 92.2617 118.664 92.0449C117.504 91.752 116.698 91.5 116.247 91.2891C115.802 91.0723 115.462 90.7764 115.228 90.4014C114.999 90.0205 114.885 89.6016 114.885 89.1445C114.885 88.7285 114.979 88.3447 115.166 87.9932C115.359 87.6357 115.62 87.3398 115.948 87.1055C116.194 86.9238 116.528 86.7715 116.95 86.6484C117.378 86.5195 117.835 86.4551 118.321 86.4551C119.054 86.4551 119.695 86.5605 120.246 86.7715C120.803 86.9824 121.213 87.2695 121.477 87.6328C121.74 87.9902 121.922 88.4707 122.022 89.0742L120.475 89.2852C120.404 88.8047 120.199 88.4297 119.859 88.1602C119.525 87.8906 119.051 87.7559 118.436 87.7559C117.709 87.7559 117.19 87.876 116.88 88.1162C116.569 88.3564 116.414 88.6377 116.414 88.96C116.414 89.165 116.479 89.3496 116.607 89.5137C116.736 89.6836 116.939 89.8242 117.214 89.9355C117.372 89.9941 117.838 90.1289 118.611 90.3398C119.731 90.6387 120.51 90.8848 120.949 91.0781C121.395 91.2656 121.743 91.541 121.995 91.9043C122.247 92.2676 122.373 92.7188 122.373 93.2578C122.373 93.7852 122.218 94.2832 121.907 94.752C121.603 95.2148 121.16 95.5752 120.58 95.833C120 96.085 119.344 96.2109 118.611 96.2109C117.398 96.2109 116.473 95.959 115.834 95.4551C115.201 94.9512 114.797 94.2041 114.621 93.2139Z" fill="#282848"/>
<path d="M238.974 75L243.922 62.1152H245.759L251.032 75H249.09L247.587 71.0977H242.199L240.784 75H238.974ZM242.691 69.709H247.06L245.715 66.1406C245.305 65.0566 245 64.166 244.801 63.4688C244.637 64.2949 244.405 65.1152 244.106 65.9297L242.691 69.709ZM251.542 75.7734L253.08 76.002C253.145 76.4766 253.324 76.8223 253.617 77.0391C254.009 77.332 254.545 77.4785 255.225 77.4785C255.957 77.4785 256.523 77.332 256.921 77.0391C257.32 76.7461 257.589 76.3359 257.73 75.8086C257.812 75.4863 257.85 74.8096 257.844 73.7783C257.153 74.5928 256.291 75 255.26 75C253.977 75 252.984 74.5371 252.281 73.6113C251.578 72.6855 251.226 71.5752 251.226 70.2803C251.226 69.3896 251.387 68.5693 251.709 67.8193C252.032 67.0635 252.497 66.4805 253.107 66.0703C253.722 65.6602 254.443 65.4551 255.269 65.4551C256.37 65.4551 257.279 65.9004 257.994 66.791V65.666H259.453V73.7344C259.453 75.1875 259.303 76.2158 259.004 76.8193C258.711 77.4287 258.243 77.9092 257.598 78.2607C256.959 78.6123 256.171 78.7881 255.234 78.7881C254.12 78.7881 253.221 78.5361 252.536 78.0322C251.85 77.5342 251.519 76.7812 251.542 75.7734ZM252.852 70.166C252.852 71.3906 253.095 72.2842 253.581 72.8467C254.068 73.4092 254.677 73.6904 255.41 73.6904C256.136 73.6904 256.745 73.4121 257.238 72.8555C257.73 72.293 257.976 71.4141 257.976 70.2188C257.976 69.0762 257.721 68.2148 257.211 67.6348C256.707 67.0547 256.098 66.7646 255.383 66.7646C254.68 66.7646 254.082 67.0518 253.59 67.626C253.098 68.1943 252.852 69.041 252.852 70.166ZM267.882 71.9941L269.516 72.1963C269.259 73.1514 268.781 73.8926 268.084 74.4199C267.386 74.9473 266.496 75.2109 265.412 75.2109C264.047 75.2109 262.963 74.792 262.16 73.9541C261.363 73.1104 260.965 71.9297 260.965 70.4121C260.965 68.8418 261.369 67.623 262.177 66.7559C262.986 65.8887 264.035 65.4551 265.324 65.4551C266.572 65.4551 267.592 65.8799 268.383 66.7295C269.174 67.5791 269.569 68.7744 269.569 70.3154C269.569 70.4092 269.566 70.5498 269.56 70.7373H262.599C262.658 71.7627 262.948 72.5479 263.469 73.0928C263.991 73.6377 264.641 73.9102 265.421 73.9102C266.001 73.9102 266.496 73.7578 266.906 73.4531C267.316 73.1484 267.641 72.6621 267.882 71.9941ZM262.687 69.4365H267.899C267.829 68.6514 267.63 68.0625 267.301 67.6699C266.798 67.0605 266.144 66.7559 265.342 66.7559C264.615 66.7559 264.003 66.999 263.505 67.4854C263.012 67.9717 262.74 68.6221 262.687 69.4365ZM271.151 75V65.666H272.575V66.9932C273.261 65.9678 274.251 65.4551 275.546 65.4551C276.108 65.4551 276.624 65.5576 277.093 65.7627C277.567 65.9619 277.922 66.2256 278.156 66.5537C278.391 66.8818 278.555 67.2715 278.649 67.7227C278.707 68.0156 278.736 68.5283 278.736 69.2607V75H277.154V69.3223C277.154 68.6777 277.093 68.1973 276.97 67.8809C276.847 67.5586 276.627 67.3037 276.311 67.1162C276 66.9229 275.634 66.8262 275.212 66.8262C274.538 66.8262 273.955 67.04 273.463 67.4678C272.977 67.8955 272.733 68.707 272.733 69.9023V75H271.151ZM284.265 73.585L284.494 74.9824C284.048 75.0762 283.65 75.123 283.298 75.123C282.724 75.123 282.279 75.0322 281.962 74.8506C281.646 74.6689 281.423 74.4316 281.294 74.1387C281.165 73.8398 281.101 73.2158 281.101 72.2666V66.8965H279.941V65.666H281.101V63.3545L282.674 62.4053V65.666H284.265V66.8965H282.674V72.3545C282.674 72.8057 282.701 73.0957 282.753 73.2246C282.812 73.3535 282.903 73.4561 283.026 73.5322C283.155 73.6084 283.336 73.6465 283.571 73.6465C283.747 73.6465 283.978 73.626 284.265 73.585ZM290.093 75V65.666H291.517V67.0811C291.88 66.4189 292.214 65.9824 292.519 65.7715C292.829 65.5605 293.169 65.4551 293.538 65.4551C294.071 65.4551 294.613 65.625 295.164 65.9648L294.619 67.4326C294.233 67.2041 293.846 67.0898 293.459 67.0898C293.113 67.0898 292.803 67.1953 292.528 67.4062C292.252 67.6113 292.056 67.8984 291.939 68.2676C291.763 68.8301 291.675 69.4453 291.675 70.1133V75H290.093ZM302.134 71.9941L303.769 72.1963C303.511 73.1514 303.034 73.8926 302.336 74.4199C301.639 74.9473 300.749 75.2109 299.665 75.2109C298.299 75.2109 297.215 74.792 296.413 73.9541C295.616 73.1104 295.217 71.9297 295.217 70.4121C295.217 68.8418 295.622 67.623 296.43 66.7559C297.239 65.8887 298.288 65.4551 299.577 65.4551C300.825 65.4551 301.844 65.8799 302.635 66.7295C303.426 67.5791 303.822 68.7744 303.822 70.3154C303.822 70.4092 303.819 70.5498 303.813 70.7373H296.852C296.911 71.7627 297.201 72.5479 297.722 73.0928C298.244 73.6377 298.894 73.9102 299.673 73.9102C300.253 73.9102 300.749 73.7578 301.159 73.4531C301.569 73.1484 301.894 72.6621 302.134 71.9941ZM296.94 69.4365H302.152C302.082 68.6514 301.882 68.0625 301.554 67.6699C301.05 67.0605 300.397 66.7559 299.594 66.7559C298.868 66.7559 298.255 66.999 297.757 67.4854C297.265 67.9717 296.993 68.6221 296.94 69.4365ZM311.495 71.5811L313.051 71.7832C312.881 72.8555 312.444 73.6963 311.741 74.3057C311.044 74.9092 310.185 75.2109 309.166 75.2109C307.889 75.2109 306.86 74.7949 306.081 73.9629C305.308 73.125 304.921 71.9268 304.921 70.3682C304.921 69.3604 305.088 68.4785 305.422 67.7227C305.756 66.9668 306.263 66.4014 306.942 66.0264C307.628 65.6455 308.372 65.4551 309.175 65.4551C310.188 65.4551 311.017 65.7129 311.662 66.2285C312.307 66.7383 312.72 67.4648 312.901 68.4082L311.363 68.6455C311.217 68.0186 310.956 67.5469 310.581 67.2305C310.212 66.9141 309.764 66.7559 309.236 66.7559C308.439 66.7559 307.792 67.043 307.294 67.6172C306.796 68.1855 306.547 69.0879 306.547 70.3242C306.547 71.5781 306.787 72.4893 307.267 73.0576C307.748 73.626 308.375 73.9102 309.148 73.9102C309.769 73.9102 310.288 73.7197 310.704 73.3389C311.12 72.958 311.384 72.3721 311.495 71.5811ZM320.434 71.9941L322.069 72.1963C321.811 73.1514 321.333 73.8926 320.636 74.4199C319.939 74.9473 319.048 75.2109 317.964 75.2109C316.599 75.2109 315.515 74.792 314.712 73.9541C313.915 73.1104 313.517 71.9297 313.517 70.4121C313.517 68.8418 313.921 67.623 314.73 66.7559C315.538 65.8887 316.587 65.4551 317.876 65.4551C319.124 65.4551 320.144 65.8799 320.935 66.7295C321.726 67.5791 322.121 68.7744 322.121 70.3154C322.121 70.4092 322.118 70.5498 322.113 70.7373H315.152C315.21 71.7627 315.5 72.5479 316.022 73.0928C316.543 73.6377 317.194 73.9102 317.973 73.9102C318.553 73.9102 319.048 73.7578 319.458 73.4531C319.868 73.1484 320.194 72.6621 320.434 71.9941ZM315.239 69.4365H320.451C320.381 68.6514 320.182 68.0625 319.854 67.6699C319.35 67.0605 318.697 66.7559 317.894 66.7559C317.167 66.7559 316.555 66.999 316.057 67.4854C315.565 67.9717 315.292 68.6221 315.239 69.4365ZM323.713 63.9346V62.1152H325.295V63.9346H323.713ZM323.713 75V65.666H325.295V75H323.713ZM329.944 75L326.394 65.666H328.063L330.067 71.2559C330.284 71.8594 330.483 72.4863 330.665 73.1367C330.806 72.6445 331.002 72.0527 331.254 71.3613L333.328 65.666H334.954L331.421 75H329.944ZM342.381 71.9941L344.016 72.1963C343.758 73.1514 343.281 73.8926 342.583 74.4199C341.886 74.9473 340.995 75.2109 339.911 75.2109C338.546 75.2109 337.462 74.792 336.659 73.9541C335.863 73.1104 335.464 71.9297 335.464 70.4121C335.464 68.8418 335.868 67.623 336.677 66.7559C337.486 65.8887 338.534 65.4551 339.824 65.4551C341.072 65.4551 342.091 65.8799 342.882 66.7295C343.673 67.5791 344.069 68.7744 344.069 70.3154C344.069 70.4092 344.066 70.5498 344.06 70.7373H337.099C337.158 71.7627 337.448 72.5479 337.969 73.0928C338.491 73.6377 339.141 73.9102 339.92 73.9102C340.5 73.9102 340.995 73.7578 341.406 73.4531C341.816 73.1484 342.141 72.6621 342.381 71.9941ZM337.187 69.4365H342.399C342.328 68.6514 342.129 68.0625 341.801 67.6699C341.297 67.0605 340.644 66.7559 339.841 66.7559C339.115 66.7559 338.502 66.999 338.004 67.4854C337.512 67.9717 337.24 68.6221 337.187 69.4365ZM345.018 72.2139L346.583 71.9678C346.671 72.5947 346.914 73.0752 347.312 73.4092C347.716 73.7432 348.279 73.9102 349 73.9102C349.726 73.9102 350.265 73.7637 350.617 73.4707C350.968 73.1719 351.144 72.8232 351.144 72.4248C351.144 72.0674 350.989 71.7861 350.678 71.5811C350.462 71.4404 349.923 71.2617 349.061 71.0449C347.901 70.752 347.095 70.5 346.644 70.2891C346.199 70.0723 345.859 69.7764 345.625 69.4014C345.396 69.0205 345.282 68.6016 345.282 68.1445C345.282 67.7285 345.376 67.3447 345.563 66.9932C345.757 66.6357 346.017 66.3398 346.345 66.1055C346.591 65.9238 346.925 65.7715 347.347 65.6484C347.775 65.5195 348.232 65.4551 348.718 65.4551C349.451 65.4551 350.092 65.5605 350.643 65.7715C351.2 65.9824 351.61 66.2695 351.874 66.6328C352.137 66.9902 352.319 67.4707 352.419 68.0742L350.872 68.2852C350.801 67.8047 350.596 67.4297 350.257 67.1602C349.923 66.8906 349.448 66.7559 348.833 66.7559C348.106 66.7559 347.588 66.876 347.277 67.1162C346.966 67.3564 346.811 67.6377 346.811 67.96C346.811 68.165 346.876 68.3496 347.005 68.5137C347.133 68.6836 347.336 68.8242 347.611 68.9355C347.769 68.9941 348.235 69.1289 349.008 69.3398C350.128 69.6387 350.907 69.8848 351.346 70.0781C351.792 70.2656 352.14 70.541 352.392 70.9043C352.644 71.2676 352.77 71.7188 352.77 72.2578C352.77 72.7852 352.615 73.2832 352.304 73.752C352 74.2148 351.557 74.5752 350.977 74.833C350.397 75.085 349.741 75.2109 349.008 75.2109C347.796 75.2109 346.87 74.959 346.231 74.4551C345.598 73.9512 345.194 73.2041 345.018 72.2139ZM246.137 99.5771V95.0068C245.891 95.3525 245.545 95.6396 245.1 95.8682C244.66 96.0967 244.191 96.2109 243.693 96.2109C242.586 96.2109 241.631 95.7686 240.828 94.8838C240.031 93.999 239.633 92.7861 239.633 91.2451C239.633 90.3076 239.794 89.4668 240.116 88.7227C240.444 87.9785 240.916 87.416 241.531 87.0352C242.152 86.6484 242.832 86.4551 243.57 86.4551C244.725 86.4551 245.633 86.9414 246.295 87.9141V86.666H247.719V99.5771H246.137ZM241.259 91.3066C241.259 92.5078 241.511 93.4102 242.015 94.0137C242.519 94.6113 243.122 94.9102 243.825 94.9102C244.499 94.9102 245.079 94.626 245.565 94.0576C246.052 93.4834 246.295 92.6133 246.295 91.4473C246.295 90.2051 246.037 89.2705 245.521 88.6436C245.012 88.0166 244.411 87.7031 243.72 87.7031C243.034 87.7031 242.451 87.9961 241.971 88.582C241.496 89.1621 241.259 90.0703 241.259 91.3066ZM255.963 96V94.6289C255.237 95.6836 254.249 96.2109 253.001 96.2109C252.451 96.2109 251.935 96.1055 251.454 95.8945C250.98 95.6836 250.625 95.4199 250.391 95.1035C250.162 94.7812 250.001 94.3887 249.908 93.9258C249.843 93.6152 249.811 93.123 249.811 92.4492V86.666H251.393V91.8428C251.393 92.6689 251.425 93.2256 251.49 93.5127C251.589 93.9287 251.8 94.2568 252.122 94.4971C252.445 94.7314 252.843 94.8486 253.318 94.8486C253.792 94.8486 254.238 94.7285 254.654 94.4883C255.07 94.2422 255.363 93.9111 255.533 93.4951C255.708 93.0732 255.796 92.4639 255.796 91.667V86.666H257.378V96H255.963ZM258.917 91.333C258.917 89.6045 259.397 88.3242 260.358 87.4922C261.161 86.8008 262.139 86.4551 263.294 86.4551C264.577 86.4551 265.626 86.877 266.44 87.7207C267.255 88.5586 267.662 89.7188 267.662 91.2012C267.662 92.4023 267.48 93.3486 267.117 94.04C266.759 94.7256 266.235 95.2588 265.544 95.6396C264.858 96.0205 264.108 96.2109 263.294 96.2109C261.987 96.2109 260.929 95.792 260.121 94.9541C259.318 94.1162 258.917 92.9092 258.917 91.333ZM260.543 91.333C260.543 92.5283 260.803 93.4248 261.325 94.0225C261.846 94.6143 262.503 94.9102 263.294 94.9102C264.079 94.9102 264.732 94.6113 265.254 94.0137C265.775 93.416 266.036 92.5049 266.036 91.2803C266.036 90.126 265.772 89.2529 265.245 88.6611C264.723 88.0635 264.073 87.7646 263.294 87.7646C262.503 87.7646 261.846 88.0605 261.325 88.6523C260.803 89.2441 260.543 90.1377 260.543 91.333ZM272.619 94.585L272.848 95.9824C272.402 96.0762 272.004 96.123 271.652 96.123C271.078 96.123 270.633 96.0322 270.316 95.8506C270 95.6689 269.777 95.4316 269.649 95.1387C269.52 94.8398 269.455 94.2158 269.455 93.2666V87.8965H268.295V86.666H269.455V84.3545L271.028 83.4053V86.666H272.619V87.8965H271.028V93.3545C271.028 93.8057 271.055 94.0957 271.108 94.2246C271.166 94.3535 271.257 94.4561 271.38 94.5322C271.509 94.6084 271.691 94.6465 271.925 94.6465C272.101 94.6465 272.332 94.626 272.619 94.585ZM280.205 92.9941L281.839 93.1963C281.581 94.1514 281.104 94.8926 280.407 95.4199C279.709 95.9473 278.819 96.2109 277.735 96.2109C276.37 96.2109 275.286 95.792 274.483 94.9541C273.686 94.1104 273.288 92.9297 273.288 91.4121C273.288 89.8418 273.692 88.623 274.5 87.7559C275.309 86.8887 276.358 86.4551 277.647 86.4551C278.895 86.4551 279.914 86.8799 280.706 87.7295C281.497 88.5791 281.892 89.7744 281.892 91.3154C281.892 91.4092 281.889 91.5498 281.883 91.7373H274.922C274.981 92.7627 275.271 93.5479 275.792 94.0928C276.314 94.6377 276.964 94.9102 277.744 94.9102C278.324 94.9102 278.819 94.7578 279.229 94.4531C279.639 94.1484 279.964 93.6621 280.205 92.9941ZM275.01 90.4365H280.222C280.152 89.6514 279.953 89.0625 279.624 88.6699C279.121 88.0605 278.467 87.7559 277.664 87.7559C276.938 87.7559 276.326 87.999 275.828 88.4854C275.335 88.9717 275.063 89.6221 275.01 90.4365ZM282.842 93.2139L284.406 92.9678C284.494 93.5947 284.737 94.0752 285.136 94.4092C285.54 94.7432 286.102 94.9102 286.823 94.9102C287.55 94.9102 288.089 94.7637 288.44 94.4707C288.792 94.1719 288.968 93.8232 288.968 93.4248C288.968 93.0674 288.812 92.7861 288.502 92.5811C288.285 92.4404 287.746 92.2617 286.885 92.0449C285.724 91.752 284.919 91.5 284.468 91.2891C284.022 91.0723 283.682 90.7764 283.448 90.4014C283.22 90.0205 283.105 89.6016 283.105 89.1445C283.105 88.7285 283.199 88.3447 283.387 87.9932C283.58 87.6357 283.841 87.3398 284.169 87.1055C284.415 86.9238 284.749 86.7715 285.171 86.6484C285.598 86.5195 286.055 86.4551 286.542 86.4551C287.274 86.4551 287.916 86.5605 288.467 86.7715C289.023 86.9824 289.433 87.2695 289.697 87.6328C289.961 87.9902 290.142 88.4707 290.242 89.0742L288.695 89.2852C288.625 88.8047 288.42 88.4297 288.08 88.1602C287.746 87.8906 287.271 87.7559 286.656 87.7559C285.929 87.7559 285.411 87.876 285.1 88.1162C284.79 88.3564 284.635 88.6377 284.635 88.96C284.635 89.165 284.699 89.3496 284.828 89.5137C284.957 89.6836 285.159 89.8242 285.434 89.9355C285.593 89.9941 286.058 90.1289 286.832 90.3398C287.951 90.6387 288.73 90.8848 289.17 91.0781C289.615 91.2656 289.964 91.541 290.216 91.9043C290.468 92.2676 290.594 92.7188 290.594 93.2578C290.594 93.7852 290.438 94.2832 290.128 94.752C289.823 95.2148 289.381 95.5752 288.801 95.833C288.221 96.085 287.564 96.2109 286.832 96.2109C285.619 96.2109 284.693 95.959 284.054 95.4551C283.422 94.9512 283.017 94.2041 282.842 93.2139Z" fill="#282848"/>
<path d="M460.974 75L465.922 62.1152H467.759L473.032 75H471.09L469.587 71.0977H464.199L462.784 75H460.974ZM464.691 69.709H469.06L467.715 66.1406C467.305 65.0566 467 64.166 466.801 63.4688C466.637 64.2949 466.405 65.1152 466.106 65.9297L464.691 69.709ZM473.542 75.7734L475.08 76.002C475.145 76.4766 475.324 76.8223 475.617 77.0391C476.009 77.332 476.545 77.4785 477.225 77.4785C477.957 77.4785 478.523 77.332 478.921 77.0391C479.32 76.7461 479.589 76.3359 479.73 75.8086C479.812 75.4863 479.85 74.8096 479.844 73.7783C479.153 74.5928 478.291 75 477.26 75C475.977 75 474.984 74.5371 474.281 73.6113C473.578 72.6855 473.226 71.5752 473.226 70.2803C473.226 69.3896 473.387 68.5693 473.709 67.8193C474.032 67.0635 474.497 66.4805 475.107 66.0703C475.722 65.6602 476.443 65.4551 477.269 65.4551C478.37 65.4551 479.279 65.9004 479.994 66.791V65.666H481.453V73.7344C481.453 75.1875 481.303 76.2158 481.004 76.8193C480.711 77.4287 480.243 77.9092 479.598 78.2607C478.959 78.6123 478.171 78.7881 477.234 78.7881C476.12 78.7881 475.221 78.5361 474.536 78.0322C473.85 77.5342 473.519 76.7812 473.542 75.7734ZM474.852 70.166C474.852 71.3906 475.095 72.2842 475.581 72.8467C476.068 73.4092 476.677 73.6904 477.41 73.6904C478.136 73.6904 478.745 73.4121 479.238 72.8555C479.73 72.293 479.976 71.4141 479.976 70.2188C479.976 69.0762 479.721 68.2148 479.211 67.6348C478.707 67.0547 478.098 66.7646 477.383 66.7646C476.68 66.7646 476.082 67.0518 475.59 67.626C475.098 68.1943 474.852 69.041 474.852 70.166ZM489.882 71.9941L491.516 72.1963C491.259 73.1514 490.781 73.8926 490.084 74.4199C489.386 74.9473 488.496 75.2109 487.412 75.2109C486.047 75.2109 484.963 74.792 484.16 73.9541C483.363 73.1104 482.965 71.9297 482.965 70.4121C482.965 68.8418 483.369 67.623 484.177 66.7559C484.986 65.8887 486.035 65.4551 487.324 65.4551C488.572 65.4551 489.592 65.8799 490.383 66.7295C491.174 67.5791 491.569 68.7744 491.569 70.3154C491.569 70.4092 491.566 70.5498 491.56 70.7373H484.599C484.658 71.7627 484.948 72.5479 485.469 73.0928C485.991 73.6377 486.641 73.9102 487.421 73.9102C488.001 73.9102 488.496 73.7578 488.906 73.4531C489.316 73.1484 489.641 72.6621 489.882 71.9941ZM484.687 69.4365H489.899C489.829 68.6514 489.63 68.0625 489.301 67.6699C488.798 67.0605 488.144 66.7559 487.342 66.7559C486.615 66.7559 486.003 66.999 485.505 67.4854C485.012 67.9717 484.74 68.6221 484.687 69.4365ZM493.151 75V65.666H494.575V66.9932C495.261 65.9678 496.251 65.4551 497.546 65.4551C498.108 65.4551 498.624 65.5576 499.093 65.7627C499.567 65.9619 499.922 66.2256 500.156 66.5537C500.391 66.8818 500.555 67.2715 500.649 67.7227C500.707 68.0156 500.736 68.5283 500.736 69.2607V75H499.154V69.3223C499.154 68.6777 499.093 68.1973 498.97 67.8809C498.847 67.5586 498.627 67.3037 498.311 67.1162C498 66.9229 497.634 66.8262 497.212 66.8262C496.538 66.8262 495.955 67.04 495.463 67.4678C494.977 67.8955 494.733 68.707 494.733 69.9023V75H493.151ZM506.265 73.585L506.494 74.9824C506.048 75.0762 505.65 75.123 505.298 75.123C504.724 75.123 504.279 75.0322 503.962 74.8506C503.646 74.6689 503.423 74.4316 503.294 74.1387C503.165 73.8398 503.101 73.2158 503.101 72.2666V66.8965H501.941V65.666H503.101V63.3545L504.674 62.4053V65.666H506.265V66.8965H504.674V72.3545C504.674 72.8057 504.701 73.0957 504.753 73.2246C504.812 73.3535 504.903 73.4561 505.026 73.5322C505.155 73.6084 505.336 73.6465 505.571 73.6465C505.747 73.6465 505.978 73.626 506.265 73.585ZM512.111 78.5771V65.666H513.552V66.8789C513.892 66.4043 514.276 66.0498 514.703 65.8154C515.131 65.5752 515.65 65.4551 516.259 65.4551C517.056 65.4551 517.759 65.6602 518.368 66.0703C518.978 66.4805 519.438 67.0605 519.748 67.8105C520.059 68.5547 520.214 69.3721 520.214 70.2627C520.214 71.2178 520.041 72.0791 519.695 72.8467C519.356 73.6084 518.858 74.1943 518.201 74.6045C517.551 75.0088 516.865 75.2109 516.145 75.2109C515.617 75.2109 515.143 75.0996 514.721 74.877C514.305 74.6543 513.962 74.373 513.693 74.0332V78.5771H512.111ZM513.543 70.3857C513.543 71.5869 513.786 72.4746 514.273 73.0488C514.759 73.623 515.348 73.9102 516.039 73.9102C516.742 73.9102 517.343 73.6143 517.841 73.0225C518.345 72.4248 518.597 71.502 518.597 70.2539C518.597 69.0645 518.351 68.1738 517.859 67.582C517.372 66.9902 516.789 66.6943 516.11 66.6943C515.436 66.6943 514.838 67.0107 514.317 67.6436C513.801 68.2705 513.543 69.1846 513.543 70.3857ZM521.752 75V65.666H523.176V67.0811C523.54 66.4189 523.874 65.9824 524.178 65.7715C524.489 65.5605 524.829 65.4551 525.198 65.4551C525.731 65.4551 526.273 65.625 526.824 65.9648L526.279 67.4326C525.892 67.2041 525.505 67.0898 525.119 67.0898C524.773 67.0898 524.462 67.1953 524.187 67.4062C523.912 67.6113 523.715 67.8984 523.598 68.2676C523.422 68.8301 523.334 69.4453 523.334 70.1133V75H521.752ZM533.794 71.9941L535.429 72.1963C535.171 73.1514 534.693 73.8926 533.996 74.4199C533.299 74.9473 532.408 75.2109 531.324 75.2109C529.959 75.2109 528.875 74.792 528.072 73.9541C527.275 73.1104 526.877 71.9297 526.877 70.4121C526.877 68.8418 527.281 67.623 528.09 66.7559C528.898 65.8887 529.947 65.4551 531.236 65.4551C532.484 65.4551 533.504 65.8799 534.295 66.7295C535.086 67.5791 535.481 68.7744 535.481 70.3154C535.481 70.4092 535.478 70.5498 535.473 70.7373H528.512C528.57 71.7627 528.86 72.5479 529.382 73.0928C529.903 73.6377 530.554 73.9102 531.333 73.9102C531.913 73.9102 532.408 73.7578 532.818 73.4531C533.228 73.1484 533.554 72.6621 533.794 71.9941ZM528.599 69.4365H533.811C533.741 68.6514 533.542 68.0625 533.214 67.6699C532.71 67.0605 532.057 66.7559 531.254 66.7559C530.527 66.7559 529.915 66.999 529.417 67.4854C528.925 67.9717 528.652 68.6221 528.599 69.4365ZM536.431 72.2139L537.995 71.9678C538.083 72.5947 538.326 73.0752 538.725 73.4092C539.129 73.7432 539.692 73.9102 540.412 73.9102C541.139 73.9102 541.678 73.7637 542.03 73.4707C542.381 73.1719 542.557 72.8232 542.557 72.4248C542.557 72.0674 542.402 71.7861 542.091 71.5811C541.874 71.4404 541.335 71.2617 540.474 71.0449C539.314 70.752 538.508 70.5 538.057 70.2891C537.612 70.0723 537.272 69.7764 537.037 69.4014C536.809 69.0205 536.695 68.6016 536.695 68.1445C536.695 67.7285 536.788 67.3447 536.976 66.9932C537.169 66.6357 537.43 66.3398 537.758 66.1055C538.004 65.9238 538.338 65.7715 538.76 65.6484C539.188 65.5195 539.645 65.4551 540.131 65.4551C540.864 65.4551 541.505 65.5605 542.056 65.7715C542.613 65.9824 543.023 66.2695 543.286 66.6328C543.55 66.9902 543.732 67.4707 543.831 68.0742L542.284 68.2852C542.214 67.8047 542.009 67.4297 541.669 67.1602C541.335 66.8906 540.861 66.7559 540.245 66.7559C539.519 66.7559 539 66.876 538.69 67.1162C538.379 67.3564 538.224 67.6377 538.224 67.96C538.224 68.165 538.288 68.3496 538.417 68.5137C538.546 68.6836 538.748 68.8242 539.024 68.9355C539.182 68.9941 539.648 69.1289 540.421 69.3398C541.54 69.6387 542.32 69.8848 542.759 70.0781C543.204 70.2656 543.553 70.541 543.805 70.9043C544.057 71.2676 544.183 71.7188 544.183 72.2578C544.183 72.7852 544.028 73.2832 543.717 73.752C543.412 74.2148 542.97 74.5752 542.39 74.833C541.81 75.085 541.154 75.2109 540.421 75.2109C539.208 75.2109 538.282 74.959 537.644 74.4551C537.011 73.9512 536.607 73.2041 536.431 72.2139ZM552.093 71.9941L553.728 72.1963C553.47 73.1514 552.993 73.8926 552.296 74.4199C551.598 74.9473 550.708 75.2109 549.624 75.2109C548.258 75.2109 547.174 74.792 546.372 73.9541C545.575 73.1104 545.176 71.9297 545.176 70.4121C545.176 68.8418 545.581 67.623 546.389 66.7559C547.198 65.8887 548.247 65.4551 549.536 65.4551C550.784 65.4551 551.803 65.8799 552.594 66.7295C553.385 67.5791 553.781 68.7744 553.781 70.3154C553.781 70.4092 553.778 70.5498 553.772 70.7373H546.811C546.87 71.7627 547.16 72.5479 547.681 73.0928C548.203 73.6377 548.853 73.9102 549.632 73.9102C550.213 73.9102 550.708 73.7578 551.118 73.4531C551.528 73.1484 551.853 72.6621 552.093 71.9941ZM546.899 69.4365H552.111C552.041 68.6514 551.841 68.0625 551.513 67.6699C551.009 67.0605 550.356 66.7559 549.553 66.7559C548.827 66.7559 548.214 66.999 547.716 67.4854C547.224 67.9717 546.952 68.6221 546.899 69.4365ZM555.363 75V65.666H556.787V66.9932C557.473 65.9678 558.463 65.4551 559.758 65.4551C560.32 65.4551 560.836 65.5576 561.305 65.7627C561.779 65.9619 562.134 66.2256 562.368 66.5537C562.603 66.8818 562.767 67.2715 562.86 67.7227C562.919 68.0156 562.948 68.5283 562.948 69.2607V75H561.366V69.3223C561.366 68.6777 561.305 68.1973 561.182 67.8809C561.059 67.5586 560.839 67.3037 560.522 67.1162C560.212 66.9229 559.846 66.8262 559.424 66.8262C558.75 66.8262 558.167 67.04 557.675 67.4678C557.188 67.8955 556.945 68.707 556.945 69.9023V75H555.363ZM568.477 73.585L568.705 74.9824C568.26 75.0762 567.862 75.123 567.51 75.123C566.936 75.123 566.491 75.0322 566.174 74.8506C565.858 74.6689 565.635 74.4316 565.506 74.1387C565.377 73.8398 565.313 73.2158 565.313 72.2666V66.8965H564.153V65.666H565.313V63.3545L566.886 62.4053V65.666H568.477V66.8965H566.886V72.3545C566.886 72.8057 566.912 73.0957 566.965 73.2246C567.024 73.3535 567.115 73.4561 567.238 73.5322C567.367 73.6084 567.548 73.6465 567.783 73.6465C567.958 73.6465 568.19 73.626 568.477 73.585ZM569.04 72.2139L570.604 71.9678C570.692 72.5947 570.935 73.0752 571.334 73.4092C571.738 73.7432 572.3 73.9102 573.021 73.9102C573.748 73.9102 574.287 73.7637 574.638 73.4707C574.99 73.1719 575.166 72.8232 575.166 72.4248C575.166 72.0674 575.01 71.7861 574.7 71.5811C574.483 71.4404 573.944 71.2617 573.083 71.0449C571.923 70.752 571.117 70.5 570.666 70.2891C570.22 70.0723 569.881 69.7764 569.646 69.4014C569.418 69.0205 569.303 68.6016 569.303 68.1445C569.303 67.7285 569.397 67.3447 569.585 66.9932C569.778 66.6357 570.039 66.3398 570.367 66.1055C570.613 65.9238 570.947 65.7715 571.369 65.6484C571.797 65.5195 572.254 65.4551 572.74 65.4551C573.472 65.4551 574.114 65.5605 574.665 65.7715C575.221 65.9824 575.632 66.2695 575.895 66.6328C576.159 66.9902 576.341 67.4707 576.44 68.0742L574.893 68.2852C574.823 67.8047 574.618 67.4297 574.278 67.1602C573.944 66.8906 573.469 66.7559 572.854 66.7559C572.128 66.7559 571.609 66.876 571.299 67.1162C570.988 67.3564 570.833 67.6377 570.833 67.96C570.833 68.165 570.897 68.3496 571.026 68.5137C571.155 68.6836 571.357 68.8242 571.632 68.9355C571.791 68.9941 572.257 69.1289 573.03 69.3398C574.149 69.6387 574.928 69.8848 575.368 70.0781C575.813 70.2656 576.162 70.541 576.414 70.9043C576.666 71.2676 576.792 71.7188 576.792 72.2578C576.792 72.7852 576.636 73.2832 576.326 73.752C576.021 74.2148 575.579 74.5752 574.999 74.833C574.419 75.085 573.762 75.2109 573.03 75.2109C571.817 75.2109 570.891 74.959 570.253 74.4551C569.62 73.9512 569.216 73.2041 569.04 72.2139ZM468.137 99.5771V95.0068C467.891 95.3525 467.545 95.6396 467.1 95.8682C466.66 96.0967 466.191 96.2109 465.693 96.2109C464.586 96.2109 463.631 95.7686 462.828 94.8838C462.031 93.999 461.633 92.7861 461.633 91.2451C461.633 90.3076 461.794 89.4668 462.116 88.7227C462.444 87.9785 462.916 87.416 463.531 87.0352C464.152 86.6484 464.832 86.4551 465.57 86.4551C466.725 86.4551 467.633 86.9414 468.295 87.9141V86.666H469.719V99.5771H468.137ZM463.259 91.3066C463.259 92.5078 463.511 93.4102 464.015 94.0137C464.519 94.6113 465.122 94.9102 465.825 94.9102C466.499 94.9102 467.079 94.626 467.565 94.0576C468.052 93.4834 468.295 92.6133 468.295 91.4473C468.295 90.2051 468.037 89.2705 467.521 88.6436C467.012 88.0166 466.411 87.7031 465.72 87.7031C465.034 87.7031 464.451 87.9961 463.971 88.582C463.496 89.1621 463.259 90.0703 463.259 91.3066ZM477.963 96V94.6289C477.237 95.6836 476.249 96.2109 475.001 96.2109C474.451 96.2109 473.935 96.1055 473.454 95.8945C472.98 95.6836 472.625 95.4199 472.391 95.1035C472.162 94.7812 472.001 94.3887 471.908 93.9258C471.843 93.6152 471.811 93.123 471.811 92.4492V86.666H473.393V91.8428C473.393 92.6689 473.425 93.2256 473.49 93.5127C473.589 93.9287 473.8 94.2568 474.122 94.4971C474.445 94.7314 474.843 94.8486 475.318 94.8486C475.792 94.8486 476.238 94.7285 476.654 94.4883C477.07 94.2422 477.363 93.9111 477.533 93.4951C477.708 93.0732 477.796 92.4639 477.796 91.667V86.666H479.378V96H477.963ZM480.917 91.333C480.917 89.6045 481.397 88.3242 482.358 87.4922C483.161 86.8008 484.139 86.4551 485.294 86.4551C486.577 86.4551 487.626 86.877 488.44 87.7207C489.255 88.5586 489.662 89.7188 489.662 91.2012C489.662 92.4023 489.48 93.3486 489.117 94.04C488.759 94.7256 488.235 95.2588 487.544 95.6396C486.858 96.0205 486.108 96.2109 485.294 96.2109C483.987 96.2109 482.929 95.792 482.121 94.9541C481.318 94.1162 480.917 92.9092 480.917 91.333ZM482.543 91.333C482.543 92.5283 482.803 93.4248 483.325 94.0225C483.846 94.6143 484.503 94.9102 485.294 94.9102C486.079 94.9102 486.732 94.6113 487.254 94.0137C487.775 93.416 488.036 92.5049 488.036 91.2803C488.036 90.126 487.772 89.2529 487.245 88.6611C486.723 88.0635 486.073 87.7646 485.294 87.7646C484.503 87.7646 483.846 88.0605 483.325 88.6523C482.803 89.2441 482.543 90.1377 482.543 91.333ZM494.619 94.585L494.848 95.9824C494.402 96.0762 494.004 96.123 493.652 96.123C493.078 96.123 492.633 96.0322 492.316 95.8506C492 95.6689 491.777 95.4316 491.649 95.1387C491.52 94.8398 491.455 94.2158 491.455 93.2666V87.8965H490.295V86.666H491.455V84.3545L493.028 83.4053V86.666H494.619V87.8965H493.028V93.3545C493.028 93.8057 493.055 94.0957 493.108 94.2246C493.166 94.3535 493.257 94.4561 493.38 94.5322C493.509 94.6084 493.691 94.6465 493.925 94.6465C494.101 94.6465 494.332 94.626 494.619 94.585ZM502.205 92.9941L503.839 93.1963C503.581 94.1514 503.104 94.8926 502.407 95.4199C501.709 95.9473 500.819 96.2109 499.735 96.2109C498.37 96.2109 497.286 95.792 496.483 94.9541C495.686 94.1104 495.288 92.9297 495.288 91.4121C495.288 89.8418 495.692 88.623 496.5 87.7559C497.309 86.8887 498.358 86.4551 499.647 86.4551C500.895 86.4551 501.914 86.8799 502.706 87.7295C503.497 88.5791 503.892 89.7744 503.892 91.3154C503.892 91.4092 503.889 91.5498 503.883 91.7373H496.922C496.981 92.7627 497.271 93.5479 497.792 94.0928C498.314 94.6377 498.964 94.9102 499.744 94.9102C500.324 94.9102 500.819 94.7578 501.229 94.4531C501.639 94.1484 501.964 93.6621 502.205 92.9941ZM497.01 90.4365H502.222C502.152 89.6514 501.953 89.0625 501.624 88.6699C501.121 88.0605 500.467 87.7559 499.664 87.7559C498.938 87.7559 498.326 87.999 497.828 88.4854C497.335 88.9717 497.063 89.6221 497.01 90.4365ZM504.842 93.2139L506.406 92.9678C506.494 93.5947 506.737 94.0752 507.136 94.4092C507.54 94.7432 508.102 94.9102 508.823 94.9102C509.55 94.9102 510.089 94.7637 510.44 94.4707C510.792 94.1719 510.968 93.8232 510.968 93.4248C510.968 93.0674 510.812 92.7861 510.502 92.5811C510.285 92.4404 509.746 92.2617 508.885 92.0449C507.724 91.752 506.919 91.5 506.468 91.2891C506.022 91.0723 505.682 90.7764 505.448 90.4014C505.22 90.0205 505.105 89.6016 505.105 89.1445C505.105 88.7285 505.199 88.3447 505.387 87.9932C505.58 87.6357 505.841 87.3398 506.169 87.1055C506.415 86.9238 506.749 86.7715 507.171 86.6484C507.598 86.5195 508.055 86.4551 508.542 86.4551C509.274 86.4551 509.916 86.5605 510.467 86.7715C511.023 86.9824 511.433 87.2695 511.697 87.6328C511.961 87.9902 512.142 88.4707 512.242 89.0742L510.695 89.2852C510.625 88.8047 510.42 88.4297 510.08 88.1602C509.746 87.8906 509.271 87.7559 508.656 87.7559C507.929 87.7559 507.411 87.876 507.1 88.1162C506.79 88.3564 506.635 88.6377 506.635 88.96C506.635 89.165 506.699 89.3496 506.828 89.5137C506.957 89.6836 507.159 89.8242 507.434 89.9355C507.593 89.9941 508.058 90.1289 508.832 90.3398C509.951 90.6387 510.73 90.8848 511.17 91.0781C511.615 91.2656 511.964 91.541 512.216 91.9043C512.468 92.2676 512.594 92.7188 512.594 93.2578C512.594 93.7852 512.438 94.2832 512.128 94.752C511.823 95.2148 511.381 95.5752 510.801 95.833C510.221 96.085 509.564 96.2109 508.832 96.2109C507.619 96.2109 506.693 95.959 506.054 95.4551C505.422 94.9512 505.017 94.2041 504.842 93.2139ZM522.218 94.585L522.447 95.9824C522.001 96.0762 521.603 96.123 521.251 96.123C520.677 96.123 520.232 96.0322 519.916 95.8506C519.599 95.6689 519.376 95.4316 519.248 95.1387C519.119 94.8398 519.054 94.2158 519.054 93.2666V87.8965H517.894V86.666H519.054V84.3545L520.627 83.4053V86.666H522.218V87.8965H520.627V93.3545C520.627 93.8057 520.654 94.0957 520.707 94.2246C520.765 94.3535 520.856 94.4561 520.979 94.5322C521.108 94.6084 521.29 94.6465 521.524 94.6465C521.7 94.6465 521.931 94.626 522.218 94.585ZM522.825 91.333C522.825 89.6045 523.306 88.3242 524.266 87.4922C525.069 86.8008 526.048 86.4551 527.202 86.4551C528.485 86.4551 529.534 86.877 530.349 87.7207C531.163 88.5586 531.57 89.7188 531.57 91.2012C531.57 92.4023 531.389 93.3486 531.025 94.04C530.668 94.7256 530.143 95.2588 529.452 95.6396C528.766 96.0205 528.016 96.2109 527.202 96.2109C525.895 96.2109 524.838 95.792 524.029 94.9541C523.226 94.1162 522.825 92.9092 522.825 91.333ZM524.451 91.333C524.451 92.5283 524.712 93.4248 525.233 94.0225C525.755 94.6143 526.411 94.9102 527.202 94.9102C527.987 94.9102 528.641 94.6113 529.162 94.0137C529.683 93.416 529.944 92.5049 529.944 91.2803C529.944 90.126 529.681 89.2529 529.153 88.6611C528.632 88.0635 527.981 87.7646 527.202 87.7646C526.411 87.7646 525.755 88.0605 525.233 88.6523C524.712 89.2441 524.451 90.1377 524.451 91.333ZM537.732 84.9346V83.1152H539.314V84.9346H537.732ZM537.732 96V86.666H539.314V96H537.732ZM541.371 96V86.666H542.795V87.9932C543.48 86.9678 544.471 86.4551 545.766 86.4551C546.328 86.4551 546.844 86.5576 547.312 86.7627C547.787 86.9619 548.142 87.2256 548.376 87.5537C548.61 87.8818 548.774 88.2715 548.868 88.7227C548.927 89.0156 548.956 89.5283 548.956 90.2607V96H547.374V90.3223C547.374 89.6777 547.312 89.1973 547.189 88.8809C547.066 88.5586 546.847 88.3037 546.53 88.1162C546.22 87.9229 545.853 87.8262 545.432 87.8262C544.758 87.8262 544.175 88.04 543.683 88.4678C543.196 88.8955 542.953 89.707 542.953 90.9023V96H541.371ZM550.398 93.2139L551.962 92.9678C552.05 93.5947 552.293 94.0752 552.692 94.4092C553.096 94.7432 553.659 94.9102 554.379 94.9102C555.106 94.9102 555.645 94.7637 555.996 94.4707C556.348 94.1719 556.524 93.8232 556.524 93.4248C556.524 93.0674 556.368 92.7861 556.058 92.5811C555.841 92.4404 555.302 92.2617 554.441 92.0449C553.281 91.752 552.475 91.5 552.024 91.2891C551.578 91.0723 551.239 90.7764 551.004 90.4014C550.776 90.0205 550.661 89.6016 550.661 89.1445C550.661 88.7285 550.755 88.3447 550.943 87.9932C551.136 87.6357 551.397 87.3398 551.725 87.1055C551.971 86.9238 552.305 86.7715 552.727 86.6484C553.155 86.5195 553.612 86.4551 554.098 86.4551C554.83 86.4551 555.472 86.5605 556.023 86.7715C556.579 86.9824 556.99 87.2695 557.253 87.6328C557.517 87.9902 557.699 88.4707 557.798 89.0742L556.251 89.2852C556.181 88.8047 555.976 88.4297 555.636 88.1602C555.302 87.8906 554.827 87.7559 554.212 87.7559C553.486 87.7559 552.967 87.876 552.657 88.1162C552.346 88.3564 552.191 88.6377 552.191 88.96C552.191 89.165 552.255 89.3496 552.384 89.5137C552.513 89.6836 552.715 89.8242 552.991 89.9355C553.149 89.9941 553.615 90.1289 554.388 90.3398C555.507 90.6387 556.286 90.8848 556.726 91.0781C557.171 91.2656 557.52 91.541 557.772 91.9043C558.024 92.2676 558.15 92.7188 558.15 93.2578C558.15 93.7852 557.994 94.2832 557.684 94.752C557.379 95.2148 556.937 95.5752 556.357 95.833C555.777 96.085 555.12 96.2109 554.388 96.2109C553.175 96.2109 552.249 95.959 551.611 95.4551C550.978 94.9512 550.574 94.2041 550.398 93.2139ZM565.788 96V94.6289C565.061 95.6836 564.074 96.2109 562.826 96.2109C562.275 96.2109 561.759 96.1055 561.279 95.8945C560.804 95.6836 560.45 95.4199 560.216 95.1035C559.987 94.7812 559.826 94.3887 559.732 93.9258C559.668 93.6152 559.635 93.123 559.635 92.4492V86.666H561.217V91.8428C561.217 92.6689 561.25 93.2256 561.314 93.5127C561.414 93.9287 561.625 94.2568 561.947 94.4971C562.269 94.7314 562.668 94.8486 563.142 94.8486C563.617 94.8486 564.062 94.7285 564.478 94.4883C564.894 94.2422 565.187 93.9111 565.357 93.4951C565.533 93.0732 565.621 92.4639 565.621 91.667V86.666H567.203V96H565.788ZM569.313 96V86.666H570.736V88.0811C571.1 87.4189 571.434 86.9824 571.738 86.7715C572.049 86.5605 572.389 86.4551 572.758 86.4551C573.291 86.4551 573.833 86.625 574.384 86.9648L573.839 88.4326C573.452 88.2041 573.065 88.0898 572.679 88.0898C572.333 88.0898 572.022 88.1953 571.747 88.4062C571.472 88.6113 571.275 88.8984 571.158 89.2676C570.982 89.8301 570.895 90.4453 570.895 91.1133V96H569.313ZM581.354 92.9941L582.989 93.1963C582.731 94.1514 582.253 94.8926 581.556 95.4199C580.859 95.9473 579.968 96.2109 578.884 96.2109C577.519 96.2109 576.435 95.792 575.632 94.9541C574.835 94.1104 574.437 92.9297 574.437 91.4121C574.437 89.8418 574.841 88.623 575.65 87.7559C576.458 86.8887 577.507 86.4551 578.796 86.4551C580.044 86.4551 581.064 86.8799 581.855 87.7295C582.646 88.5791 583.041 89.7744 583.041 91.3154C583.041 91.4092 583.038 91.5498 583.033 91.7373H576.072C576.13 92.7627 576.42 93.5479 576.942 94.0928C577.463 94.6377 578.114 94.9102 578.893 94.9102C579.473 94.9102 579.968 94.7578 580.378 94.4531C580.788 94.1484 581.114 93.6621 581.354 92.9941ZM576.16 90.4365H581.371C581.301 89.6514 581.102 89.0625 580.774 88.6699C580.27 88.0605 579.617 87.7559 578.814 87.7559C578.087 87.7559 577.475 87.999 576.977 88.4854C576.485 88.9717 576.212 89.6221 576.16 90.4365ZM590.679 96V94.8223C590.088 95.748 589.218 96.2109 588.069 96.2109C587.325 96.2109 586.639 96.0059 586.012 95.5957C585.391 95.1855 584.908 94.6143 584.562 93.8818C584.222 93.1436 584.052 92.2969 584.052 91.3418C584.052 90.4102 584.208 89.5664 584.518 88.8105C584.829 88.0488 585.295 87.4658 585.916 87.0615C586.537 86.6572 587.231 86.4551 587.999 86.4551C588.561 86.4551 589.062 86.5752 589.502 86.8154C589.941 87.0498 590.299 87.3574 590.574 87.7383V83.1152H592.147V96H590.679ZM585.678 91.3418C585.678 92.5371 585.93 93.4307 586.434 94.0225C586.938 94.6143 587.533 94.9102 588.219 94.9102C588.91 94.9102 589.496 94.6289 589.976 94.0664C590.463 93.498 590.706 92.6338 590.706 91.4736C590.706 90.1963 590.46 89.2588 589.968 88.6611C589.475 88.0635 588.869 87.7646 588.148 87.7646C587.445 87.7646 586.856 88.0518 586.382 88.626C585.913 89.2002 585.678 90.1055 585.678 91.3418Z" fill="#282848"/>
<path d="M688.679 75V62.1152H690.384V75H688.679ZM692.836 75V65.666H694.26V66.9932C694.946 65.9678 695.936 65.4551 697.231 65.4551C697.793 65.4551 698.309 65.5576 698.778 65.7627C699.252 65.9619 699.607 66.2256 699.841 66.5537C700.076 66.8818 700.24 67.2715 700.333 67.7227C700.392 68.0156 700.421 68.5283 700.421 69.2607V75H698.839V69.3223C698.839 68.6777 698.778 68.1973 698.655 67.8809C698.532 67.5586 698.312 67.3037 697.995 67.1162C697.685 66.9229 697.319 66.8262 696.897 66.8262C696.223 66.8262 695.64 67.04 695.148 67.4678C694.661 67.8955 694.418 68.707 694.418 69.9023V75H692.836ZM701.863 72.2139L703.427 71.9678C703.515 72.5947 703.759 73.0752 704.157 73.4092C704.561 73.7432 705.124 73.9102 705.844 73.9102C706.571 73.9102 707.11 73.7637 707.462 73.4707C707.813 73.1719 707.989 72.8232 707.989 72.4248C707.989 72.0674 707.834 71.7861 707.523 71.5811C707.306 71.4404 706.767 71.2617 705.906 71.0449C704.746 70.752 703.94 70.5 703.489 70.2891C703.044 70.0723 702.704 69.7764 702.469 69.4014C702.241 69.0205 702.127 68.6016 702.127 68.1445C702.127 67.7285 702.22 67.3447 702.408 66.9932C702.601 66.6357 702.862 66.3398 703.19 66.1055C703.436 65.9238 703.77 65.7715 704.192 65.6484C704.62 65.5195 705.077 65.4551 705.563 65.4551C706.296 65.4551 706.937 65.5605 707.488 65.7715C708.045 65.9824 708.455 66.2695 708.718 66.6328C708.982 66.9902 709.164 67.4707 709.263 68.0742L707.717 68.2852C707.646 67.8047 707.441 67.4297 707.101 67.1602C706.767 66.8906 706.293 66.7559 705.677 66.7559C704.951 66.7559 704.432 66.876 704.122 67.1162C703.811 67.3564 703.656 67.6377 703.656 67.96C703.656 68.165 703.72 68.3496 703.849 68.5137C703.978 68.6836 704.18 68.8242 704.456 68.9355C704.614 68.9941 705.08 69.1289 705.853 69.3398C706.972 69.6387 707.752 69.8848 708.191 70.0781C708.636 70.2656 708.985 70.541 709.237 70.9043C709.489 71.2676 709.615 71.7188 709.615 72.2578C709.615 72.7852 709.46 73.2832 709.149 73.752C708.844 74.2148 708.402 74.5752 707.822 74.833C707.242 75.085 706.586 75.2109 705.853 75.2109C704.64 75.2109 703.715 74.959 703.076 74.4551C702.443 73.9512 702.039 73.2041 701.863 72.2139ZM717.253 75V73.6289C716.526 74.6836 715.539 75.2109 714.291 75.2109C713.74 75.2109 713.225 75.1055 712.744 74.8945C712.27 74.6836 711.915 74.4199 711.681 74.1035C711.452 73.7812 711.291 73.3887 711.197 72.9258C711.133 72.6152 711.101 72.123 711.101 71.4492V65.666H712.683V70.8428C712.683 71.6689 712.715 72.2256 712.779 72.5127C712.879 72.9287 713.09 73.2568 713.412 73.4971C713.734 73.7314 714.133 73.8486 714.608 73.8486C715.082 73.8486 715.527 73.7285 715.943 73.4883C716.359 73.2422 716.652 72.9111 716.822 72.4951C716.998 72.0732 717.086 71.4639 717.086 70.667V65.666H718.668V75H717.253ZM720.778 75V65.666H722.202V67.0811C722.565 66.4189 722.899 65.9824 723.204 65.7715C723.514 65.5605 723.854 65.4551 724.223 65.4551C724.756 65.4551 725.298 65.625 725.849 65.9648L725.304 67.4326C724.917 67.2041 724.531 67.0898 724.144 67.0898C723.798 67.0898 723.488 67.1953 723.212 67.4062C722.937 67.6113 722.741 67.8984 722.623 68.2676C722.448 68.8301 722.36 69.4453 722.36 70.1133V75H720.778ZM732.819 71.9941L734.454 72.1963C734.196 73.1514 733.719 73.8926 733.021 74.4199C732.324 74.9473 731.433 75.2109 730.349 75.2109C728.984 75.2109 727.9 74.792 727.097 73.9541C726.301 73.1104 725.902 71.9297 725.902 70.4121C725.902 68.8418 726.306 67.623 727.115 66.7559C727.924 65.8887 728.972 65.4551 730.262 65.4551C731.51 65.4551 732.529 65.8799 733.32 66.7295C734.111 67.5791 734.507 68.7744 734.507 70.3154C734.507 70.4092 734.504 70.5498 734.498 70.7373H727.537C727.596 71.7627 727.886 72.5479 728.407 73.0928C728.929 73.6377 729.579 73.9102 730.358 73.9102C730.938 73.9102 731.433 73.7578 731.844 73.4531C732.254 73.1484 732.579 72.6621 732.819 71.9941ZM727.625 69.4365H732.837C732.766 68.6514 732.567 68.0625 732.239 67.6699C731.735 67.0605 731.082 66.7559 730.279 66.7559C729.553 66.7559 728.94 66.999 728.442 67.4854C727.95 67.9717 727.678 68.6221 727.625 69.4365ZM742.145 75V73.8223C741.553 74.748 740.683 75.2109 739.534 75.2109C738.79 75.2109 738.105 75.0059 737.478 74.5957C736.857 74.1855 736.373 73.6143 736.028 72.8818C735.688 72.1436 735.518 71.2969 735.518 70.3418C735.518 69.4102 735.673 68.5664 735.984 67.8105C736.294 67.0488 736.76 66.4658 737.381 66.0615C738.002 65.6572 738.696 65.4551 739.464 65.4551C740.027 65.4551 740.528 65.5752 740.967 65.8154C741.406 66.0498 741.764 66.3574 742.039 66.7383V62.1152H743.612V75H742.145ZM737.144 70.3418C737.144 71.5371 737.396 72.4307 737.9 73.0225C738.403 73.6143 738.998 73.9102 739.684 73.9102C740.375 73.9102 740.961 73.6289 741.442 73.0664C741.928 72.498 742.171 71.6338 742.171 70.4736C742.171 69.1963 741.925 68.2588 741.433 67.6611C740.941 67.0635 740.334 66.7646 739.613 66.7646C738.91 66.7646 738.321 67.0518 737.847 67.626C737.378 68.2002 737.144 69.1055 737.144 70.3418ZM750.398 75V65.666H751.813V66.9756C752.106 66.5186 752.496 66.1523 752.982 65.877C753.469 65.5957 754.022 65.4551 754.643 65.4551C755.335 65.4551 755.9 65.5986 756.34 65.8857C756.785 66.1729 757.099 66.5742 757.28 67.0898C758.018 66 758.979 65.4551 760.163 65.4551C761.089 65.4551 761.801 65.7129 762.299 66.2285C762.797 66.7383 763.046 67.5264 763.046 68.5928V75H761.473V69.1201C761.473 68.4873 761.42 68.0332 761.314 67.7578C761.215 67.4766 761.03 67.251 760.761 67.0811C760.491 66.9111 760.175 66.8262 759.811 66.8262C759.155 66.8262 758.61 67.0459 758.177 67.4854C757.743 67.9189 757.526 68.6162 757.526 69.5771V75H755.944V68.9355C755.944 68.2324 755.815 67.7051 755.557 67.3535C755.3 67.002 754.878 66.8262 754.292 66.8262C753.847 66.8262 753.433 66.9434 753.053 67.1777C752.678 67.4121 752.405 67.7549 752.235 68.2061C752.065 68.6572 751.98 69.3076 751.98 70.1572V75H750.398ZM771.123 73.8486C770.537 74.3467 769.972 74.6982 769.427 74.9033C768.888 75.1084 768.308 75.2109 767.687 75.2109C766.661 75.2109 765.873 74.9619 765.323 74.4639C764.772 73.96 764.496 73.3184 764.496 72.5391C764.496 72.082 764.599 71.666 764.804 71.291C765.015 70.9102 765.287 70.6055 765.621 70.377C765.961 70.1484 766.342 69.9756 766.764 69.8584C767.074 69.7764 767.543 69.6973 768.17 69.6211C769.448 69.4688 770.388 69.2871 770.991 69.0762C770.997 68.8594 771 68.7217 771 68.6631C771 68.0186 770.851 67.5645 770.552 67.3008C770.148 66.9434 769.547 66.7646 768.75 66.7646C768.006 66.7646 767.455 66.8965 767.098 67.1602C766.746 67.418 766.486 67.8779 766.316 68.54L764.769 68.3291C764.909 67.667 765.141 67.1338 765.463 66.7295C765.785 66.3193 766.251 66.0059 766.861 65.7891C767.47 65.5664 768.176 65.4551 768.979 65.4551C769.776 65.4551 770.423 65.5488 770.921 65.7363C771.419 65.9238 771.785 66.1611 772.02 66.4482C772.254 66.7295 772.418 67.0869 772.512 67.5205C772.565 67.79 772.591 68.2764 772.591 68.9795V71.0889C772.591 72.5596 772.623 73.4912 772.688 73.8838C772.758 74.2705 772.893 74.6426 773.092 75H771.44C771.276 74.6719 771.17 74.2881 771.123 73.8486ZM770.991 70.3154C770.417 70.5498 769.556 70.749 768.407 70.9131C767.757 71.0068 767.297 71.1123 767.028 71.2295C766.758 71.3467 766.55 71.5195 766.404 71.748C766.257 71.9707 766.184 72.2197 766.184 72.4951C766.184 72.917 766.342 73.2686 766.658 73.5498C766.981 73.8311 767.449 73.9717 768.065 73.9717C768.674 73.9717 769.216 73.8398 769.691 73.5762C770.165 73.3066 770.514 72.9404 770.737 72.4775C770.906 72.1201 770.991 71.5928 770.991 70.8955V70.3154ZM774.701 75V62.1152H776.283V69.4629L780.027 65.666H782.075L778.506 69.1289L782.435 75H780.484L777.399 70.2275L776.283 71.2998V75H774.701ZM789.722 71.9941L791.356 72.1963C791.099 73.1514 790.621 73.8926 789.924 74.4199C789.227 74.9473 788.336 75.2109 787.252 75.2109C785.887 75.2109 784.803 74.792 784 73.9541C783.203 73.1104 782.805 71.9297 782.805 70.4121C782.805 68.8418 783.209 67.623 784.018 66.7559C784.826 65.8887 785.875 65.4551 787.164 65.4551C788.412 65.4551 789.432 65.8799 790.223 66.7295C791.014 67.5791 791.409 68.7744 791.409 70.3154C791.409 70.4092 791.406 70.5498 791.4 70.7373H784.439C784.498 71.7627 784.788 72.5479 785.31 73.0928C785.831 73.6377 786.481 73.9102 787.261 73.9102C787.841 73.9102 788.336 73.7578 788.746 73.4531C789.156 73.1484 789.481 72.6621 789.722 71.9941ZM784.527 69.4365H789.739C789.669 68.6514 789.47 68.0625 789.142 67.6699C788.638 67.0605 787.984 66.7559 787.182 66.7559C786.455 66.7559 785.843 66.999 785.345 67.4854C784.853 67.9717 784.58 68.6221 784.527 69.4365ZM792.359 72.2139L793.923 71.9678C794.011 72.5947 794.254 73.0752 794.653 73.4092C795.057 73.7432 795.619 73.9102 796.34 73.9102C797.067 73.9102 797.606 73.7637 797.957 73.4707C798.309 73.1719 798.485 72.8232 798.485 72.4248C798.485 72.0674 798.329 71.7861 798.019 71.5811C797.802 71.4404 797.263 71.2617 796.402 71.0449C795.242 70.752 794.436 70.5 793.985 70.2891C793.539 70.0723 793.2 69.7764 792.965 69.4014C792.737 69.0205 792.622 68.6016 792.622 68.1445C792.622 67.7285 792.716 67.3447 792.904 66.9932C793.097 66.6357 793.358 66.3398 793.686 66.1055C793.932 65.9238 794.266 65.7715 794.688 65.6484C795.116 65.5195 795.573 65.4551 796.059 65.4551C796.791 65.4551 797.433 65.5605 797.984 65.7715C798.54 65.9824 798.951 66.2695 799.214 66.6328C799.478 66.9902 799.659 67.4707 799.759 68.0742L798.212 68.2852C798.142 67.8047 797.937 67.4297 797.597 67.1602C797.263 66.8906 796.788 66.7559 796.173 66.7559C795.447 66.7559 794.928 66.876 794.618 67.1162C794.307 67.3564 794.152 67.6377 794.152 67.96C794.152 68.165 794.216 68.3496 794.345 68.5137C794.474 68.6836 794.676 68.8242 794.951 68.9355C795.11 68.9941 795.576 69.1289 796.349 69.3398C797.468 69.6387 798.247 69.8848 798.687 70.0781C799.132 70.2656 799.481 70.541 799.733 70.9043C799.985 71.2676 800.111 71.7188 800.111 72.2578C800.111 72.7852 799.955 73.2832 799.645 73.752C799.34 74.2148 798.898 74.5752 798.318 74.833C797.738 75.085 797.081 75.2109 796.349 75.2109C795.136 75.2109 794.21 74.959 793.572 74.4551C792.939 73.9512 792.534 73.2041 792.359 72.2139ZM694.277 94.8486C693.691 95.3467 693.126 95.6982 692.581 95.9033C692.042 96.1084 691.462 96.2109 690.841 96.2109C689.815 96.2109 689.027 95.9619 688.477 95.4639C687.926 94.96 687.65 94.3184 687.65 93.5391C687.65 93.082 687.753 92.666 687.958 92.291C688.169 91.9102 688.441 91.6055 688.775 91.377C689.115 91.1484 689.496 90.9756 689.918 90.8584C690.229 90.7764 690.697 90.6973 691.324 90.6211C692.602 90.4688 693.542 90.2871 694.146 90.0762C694.151 89.8594 694.154 89.7217 694.154 89.6631C694.154 89.0186 694.005 88.5645 693.706 88.3008C693.302 87.9434 692.701 87.7646 691.904 87.7646C691.16 87.7646 690.609 87.8965 690.252 88.1602C689.9 88.418 689.64 88.8779 689.47 89.54L687.923 89.3291C688.063 88.667 688.295 88.1338 688.617 87.7295C688.939 87.3193 689.405 87.0059 690.015 86.7891C690.624 86.5664 691.33 86.4551 692.133 86.4551C692.93 86.4551 693.577 86.5488 694.075 86.7363C694.573 86.9238 694.939 87.1611 695.174 87.4482C695.408 87.7295 695.572 88.0869 695.666 88.5205C695.719 88.79 695.745 89.2764 695.745 89.9795V92.0889C695.745 93.5596 695.777 94.4912 695.842 94.8838C695.912 95.2705 696.047 95.6426 696.246 96H694.594C694.43 95.6719 694.324 95.2881 694.277 94.8486ZM694.146 91.3154C693.571 91.5498 692.71 91.749 691.562 91.9131C690.911 92.0068 690.451 92.1123 690.182 92.2295C689.912 92.3467 689.704 92.5195 689.558 92.748C689.411 92.9707 689.338 93.2197 689.338 93.4951C689.338 93.917 689.496 94.2686 689.812 94.5498C690.135 94.8311 690.604 94.9717 691.219 94.9717C691.828 94.9717 692.37 94.8398 692.845 94.5762C693.319 94.3066 693.668 93.9404 693.891 93.4775C694.061 93.1201 694.146 92.5928 694.146 91.8955V91.3154ZM708.551 96V94.8223C707.96 95.748 707.09 96.2109 705.941 96.2109C705.197 96.2109 704.511 96.0059 703.884 95.5957C703.263 95.1855 702.78 94.6143 702.434 93.8818C702.094 93.1436 701.925 92.2969 701.925 91.3418C701.925 90.4102 702.08 89.5664 702.39 88.8105C702.701 88.0488 703.167 87.4658 703.788 87.0615C704.409 86.6572 705.103 86.4551 705.871 86.4551C706.433 86.4551 706.934 86.5752 707.374 86.8154C707.813 87.0498 708.171 87.3574 708.446 87.7383V83.1152H710.019V96H708.551ZM703.551 91.3418C703.551 92.5371 703.802 93.4307 704.306 94.0225C704.81 94.6143 705.405 94.9102 706.091 94.9102C706.782 94.9102 707.368 94.6289 707.848 94.0664C708.335 93.498 708.578 92.6338 708.578 91.4736C708.578 90.1963 708.332 89.2588 707.84 88.6611C707.347 88.0635 706.741 87.7646 706.02 87.7646C705.317 87.7646 704.728 88.0518 704.254 88.626C703.785 89.2002 703.551 90.1055 703.551 91.3418ZM718.545 92.9941L720.18 93.1963C719.922 94.1514 719.444 94.8926 718.747 95.4199C718.05 95.9473 717.159 96.2109 716.075 96.2109C714.71 96.2109 713.626 95.792 712.823 94.9541C712.026 94.1104 711.628 92.9297 711.628 91.4121C711.628 89.8418 712.032 88.623 712.841 87.7559C713.649 86.8887 714.698 86.4551 715.987 86.4551C717.235 86.4551 718.255 86.8799 719.046 87.7295C719.837 88.5791 720.233 89.7744 720.233 91.3154C720.233 91.4092 720.23 91.5498 720.224 91.7373H713.263C713.321 92.7627 713.611 93.5479 714.133 94.0928C714.654 94.6377 715.305 94.9102 716.084 94.9102C716.664 94.9102 717.159 94.7578 717.569 94.4531C717.98 94.1484 718.305 93.6621 718.545 92.9941ZM713.351 90.4365H718.563C718.492 89.6514 718.293 89.0625 717.965 88.6699C717.461 88.0605 716.808 87.7559 716.005 87.7559C715.278 87.7559 714.666 87.999 714.168 88.4854C713.676 88.9717 713.403 89.6221 713.351 90.4365ZM721.182 93.2139L722.747 92.9678C722.834 93.5947 723.078 94.0752 723.476 94.4092C723.88 94.7432 724.443 94.9102 725.164 94.9102C725.89 94.9102 726.429 94.7637 726.781 94.4707C727.132 94.1719 727.308 93.8232 727.308 93.4248C727.308 93.0674 727.153 92.7861 726.842 92.5811C726.625 92.4404 726.086 92.2617 725.225 92.0449C724.065 91.752 723.259 91.5 722.808 91.2891C722.363 91.0723 722.023 90.7764 721.789 90.4014C721.56 90.0205 721.446 89.6016 721.446 89.1445C721.446 88.7285 721.539 88.3447 721.727 87.9932C721.92 87.6357 722.181 87.3398 722.509 87.1055C722.755 86.9238 723.089 86.7715 723.511 86.6484C723.939 86.5195 724.396 86.4551 724.882 86.4551C725.615 86.4551 726.256 86.5605 726.807 86.7715C727.364 86.9824 727.774 87.2695 728.038 87.6328C728.301 87.9902 728.483 88.4707 728.582 89.0742L727.036 89.2852C726.965 88.8047 726.76 88.4297 726.42 88.1602C726.086 87.8906 725.612 87.7559 724.997 87.7559C724.27 87.7559 723.751 87.876 723.441 88.1162C723.13 88.3564 722.975 88.6377 722.975 88.96C722.975 89.165 723.039 89.3496 723.168 89.5137C723.297 89.6836 723.499 89.8242 723.775 89.9355C723.933 89.9941 724.399 90.1289 725.172 90.3398C726.291 90.6387 727.071 90.8848 727.51 91.0781C727.956 91.2656 728.304 91.541 728.556 91.9043C728.808 92.2676 728.934 92.7188 728.934 93.2578C728.934 93.7852 728.779 94.2832 728.468 94.752C728.164 95.2148 727.721 95.5752 727.141 95.833C726.561 96.085 725.905 96.2109 725.172 96.2109C723.959 96.2109 723.034 95.959 722.395 95.4551C721.762 94.9512 721.358 94.2041 721.182 93.2139ZM730.464 84.9346V83.1152H732.046V84.9346H730.464ZM730.464 96V86.666H732.046V96H730.464ZM740.194 92.5811L741.749 92.7832C741.579 93.8555 741.143 94.6963 740.44 95.3057C739.742 95.9092 738.884 96.2109 737.864 96.2109C736.587 96.2109 735.559 95.7949 734.779 94.9629C734.006 94.125 733.619 92.9268 733.619 91.3682C733.619 90.3604 733.786 89.4785 734.12 88.7227C734.454 87.9668 734.961 87.4014 735.641 87.0264C736.326 86.6455 737.07 86.4551 737.873 86.4551C738.887 86.4551 739.716 86.7129 740.361 87.2285C741.005 87.7383 741.418 88.4648 741.6 89.4082L740.062 89.6455C739.915 89.0186 739.654 88.5469 739.279 88.2305C738.91 87.9141 738.462 87.7559 737.935 87.7559C737.138 87.7559 736.49 88.043 735.992 88.6172C735.494 89.1855 735.245 90.0879 735.245 91.3242C735.245 92.5781 735.486 93.4893 735.966 94.0576C736.446 94.626 737.073 94.9102 737.847 94.9102C738.468 94.9102 738.986 94.7197 739.403 94.3389C739.819 93.958 740.082 93.3721 740.194 92.5811ZM742.751 84.9346V83.1152H744.334V84.9346H742.751ZM742.751 96V86.666H744.334V96H742.751ZM745.802 91.333C745.802 89.6045 746.282 88.3242 747.243 87.4922C748.046 86.8008 749.024 86.4551 750.179 86.4551C751.462 86.4551 752.511 86.877 753.325 87.7207C754.14 88.5586 754.547 89.7188 754.547 91.2012C754.547 92.4023 754.365 93.3486 754.002 94.04C753.644 94.7256 753.12 95.2588 752.429 95.6396C751.743 96.0205 750.993 96.2109 750.179 96.2109C748.872 96.2109 747.814 95.792 747.006 94.9541C746.203 94.1162 745.802 92.9092 745.802 91.333ZM747.428 91.333C747.428 92.5283 747.688 93.4248 748.21 94.0225C748.731 94.6143 749.388 94.9102 750.179 94.9102C750.964 94.9102 751.617 94.6113 752.139 94.0137C752.66 93.416 752.921 92.5049 752.921 91.2803C752.921 90.126 752.657 89.2529 752.13 88.6611C751.608 88.0635 750.958 87.7646 750.179 87.7646C749.388 87.7646 748.731 88.0605 748.21 88.6523C747.688 89.2441 747.428 90.1377 747.428 91.333ZM756.05 96V86.666H757.474V87.9932C758.159 86.9678 759.15 86.4551 760.445 86.4551C761.007 86.4551 761.523 86.5576 761.991 86.7627C762.466 86.9619 762.821 87.2256 763.055 87.5537C763.289 87.8818 763.453 88.2715 763.547 88.7227C763.606 89.0156 763.635 89.5283 763.635 90.2607V96H762.053V90.3223C762.053 89.6777 761.991 89.1973 761.868 88.8809C761.745 88.5586 761.526 88.3037 761.209 88.1162C760.899 87.9229 760.532 87.8262 760.111 87.8262C759.437 87.8262 758.854 88.04 758.362 88.4678C757.875 88.8955 757.632 89.707 757.632 90.9023V96H756.05Z" fill="#282848"/>
<line x1="1" y1="37.5" x2="693" y2="37.4999" stroke="#282848"/>
<circle cx="4.5" cy="37.5" r="3" fill="#282848" stroke="#282848"/>
<circle cx="242.5" cy="37.5" r="3" fill="#282848" stroke="#282848"/>
<path d="M693.481 37.5C693.481 39.1581 692.141 40.5 690.49 40.5C688.84 40.5 687.5 39.1581 687.5 37.5C687.5 35.8419 688.84 34.5 690.49 34.5C692.141 34.5 693.481 35.8419 693.481 37.5Z" fill="#282848" stroke="#282848"/>
<circle cx="464.5" cy="37.5" r="3" fill="#282848" stroke="#282848"/>
</svg>
