<svg width="801" height="120" viewBox="0 0 801 120" fill="none" xmlns="http://www.w3.org/2000/svg">
<path d="M0.973633 95L5.92188 82.1152H7.75879L13.0322 95H11.0898L9.58691 91.0977H4.19922L2.78418 95H0.973633ZM4.69141 89.709H9.05957L7.71484 86.1406C7.30469 85.0566 7 84.166 6.80078 83.4688C6.63672 84.2949 6.40527 85.1152 6.10645 85.9297L4.69141 89.709ZM13.5423 95.7734L15.0804 96.002C15.1449 96.4766 15.3236 96.8223 15.6166 97.0391C16.0091 97.332 16.5453 97.4785 17.225 97.4785C17.9574 97.4785 18.5228 97.332 18.9213 97.0391C19.3197 96.7461 19.5892 96.3359 19.7298 95.8086C19.8119 95.4863 19.85 94.8096 19.8441 93.7783C19.1527 94.5928 18.2914 95 17.2601 95C15.9769 95 14.9838 94.5371 14.2806 93.6113C13.5775 92.6855 13.2259 91.5752 13.2259 90.2803C13.2259 89.3896 13.3871 88.5693 13.7093 87.8193C14.0316 87.0635 14.4974 86.4805 15.1068 86.0703C15.722 85.6602 16.4427 85.4551 17.2689 85.4551C18.3705 85.4551 19.2787 85.9004 19.9935 86.791V85.666H21.4525V93.7344C21.4525 95.1875 21.3031 96.2158 21.0043 96.8193C20.7113 97.4287 20.2425 97.9092 19.598 98.2607C18.9593 98.6123 18.1713 98.7881 17.2338 98.7881C16.1205 98.7881 15.2211 98.5361 14.5355 98.0322C13.85 97.5342 13.5189 96.7812 13.5423 95.7734ZM14.8519 90.166C14.8519 91.3906 15.0951 92.2842 15.5814 92.8467C16.0677 93.4092 16.6771 93.6904 17.4095 93.6904C18.1361 93.6904 18.7455 93.4121 19.2377 92.8555C19.7298 92.293 19.9759 91.4141 19.9759 90.2188C19.9759 89.0762 19.7211 88.2148 19.2113 87.6348C18.7074 87.0547 18.098 86.7646 17.3832 86.7646C16.68 86.7646 16.0824 87.0518 15.5902 87.626C15.098 88.1943 14.8519 89.041 14.8519 90.166ZM29.8816 91.9941L31.5163 92.1963C31.2585 93.1514 30.781 93.8926 30.0837 94.4199C29.3864 94.9473 28.4958 95.2109 27.4118 95.2109C26.0466 95.2109 24.9626 94.792 24.1599 93.9541C23.363 93.1104 22.9646 91.9297 22.9646 90.4121C22.9646 88.8418 23.3689 87.623 24.1775 86.7559C24.9861 85.8887 26.0349 85.4551 27.3239 85.4551C28.572 85.4551 29.5915 85.8799 30.3825 86.7295C31.1736 87.5791 31.5691 88.7744 31.5691 90.3154C31.5691 90.4092 31.5661 90.5498 31.5603 90.7373H24.5993C24.6579 91.7627 24.948 92.5479 25.4695 93.0928C25.9909 93.6377 26.6413 93.9102 27.4206 93.9102C28.0007 93.9102 28.4958 93.7578 28.906 93.4531C29.3161 93.1484 29.6413 92.6621 29.8816 91.9941ZM24.6872 89.4365H29.8991C29.8288 88.6514 29.6296 88.0625 29.3015 87.6699C28.7976 87.0605 28.1443 86.7559 27.3415 86.7559C26.615 86.7559 26.0027 86.999 25.5046 87.4854C25.0124 87.9717 24.74 88.6221 24.6872 89.4365ZM33.1514 95V85.666H34.5753V86.9932C35.2608 85.9678 36.2511 85.4551 37.546 85.4551C38.1085 85.4551 38.6241 85.5576 39.0929 85.7627C39.5675 85.9619 39.922 86.2256 40.1563 86.5537C40.3907 86.8818 40.5548 87.2715 40.6485 87.7227C40.7071 88.0156 40.7364 88.5283 40.7364 89.2607V95H39.1544V89.3223C39.1544 88.6777 39.0929 88.1973 38.9698 87.8809C38.8468 87.5586 38.627 87.3037 38.3106 87.1162C38.0001 86.9229 37.6339 86.8262 37.212 86.8262C36.5382 86.8262 35.9552 87.04 35.463 87.4678C34.9766 87.8955 34.7335 88.707 34.7335 89.9023V95H33.1514ZM46.2651 93.585L46.4936 94.9824C46.0483 95.0762 45.6498 95.123 45.2983 95.123C44.7241 95.123 44.2788 95.0322 43.9623 94.8506C43.6459 94.6689 43.4233 94.4316 43.2944 94.1387C43.1655 93.8398 43.101 93.2158 43.101 92.2666V86.8965H41.9409V85.666H43.101V83.3545L44.6743 82.4053V85.666H46.2651V86.8965H44.6743V92.3545C44.6743 92.8057 44.7006 93.0957 44.7534 93.2246C44.812 93.3535 44.9028 93.4561 45.0258 93.5322C45.1547 93.6084 45.3364 93.6465 45.5707 93.6465C45.7465 93.6465 45.978 93.626 46.2651 93.585ZM51.4777 92.2139L53.0421 91.9678C53.13 92.5947 53.3732 93.0752 53.7716 93.4092C54.1759 93.7432 54.7384 93.9102 55.4591 93.9102C56.1857 93.9102 56.7248 93.7637 57.0763 93.4707C57.4279 93.1719 57.6037 92.8232 57.6037 92.4248C57.6037 92.0674 57.4484 91.7861 57.1379 91.5811C56.9211 91.4404 56.382 91.2617 55.5207 91.0449C54.3605 90.752 53.5548 90.5 53.1037 90.2891C52.6584 90.0723 52.3185 89.7764 52.0841 89.4014C51.8556 89.0205 51.7414 88.6016 51.7414 88.1445C51.7414 87.7285 51.8351 87.3447 52.0226 86.9932C52.216 86.6357 52.4767 86.3398 52.8048 86.1055C53.0509 85.9238 53.3849 85.7715 53.8068 85.6484C54.2345 85.5195 54.6916 85.4551 55.1779 85.4551C55.9103 85.4551 56.5519 85.5605 57.1027 85.7715C57.6593 85.9824 58.0695 86.2695 58.3332 86.6328C58.5968 86.9902 58.7785 87.4707 58.8781 88.0742L57.3312 88.2852C57.2609 87.8047 57.0558 87.4297 56.716 87.1602C56.382 86.8906 55.9074 86.7559 55.2921 86.7559C54.5656 86.7559 54.047 86.876 53.7365 87.1162C53.4259 87.3564 53.2707 87.6377 53.2707 87.96C53.2707 88.165 53.3351 88.3496 53.464 88.5137C53.5929 88.6836 53.7951 88.8242 54.0705 88.9355C54.2287 88.9941 54.6945 89.1289 55.4679 89.3398C56.5871 89.6387 57.3664 89.8848 57.8058 90.0781C58.2511 90.2656 58.5998 90.541 58.8517 90.9043C59.1037 91.2676 59.2296 91.7188 59.2296 92.2578C59.2296 92.7852 59.0744 93.2832 58.7638 93.752C58.4591 94.2148 58.0168 94.5752 57.4367 94.833C56.8566 95.085 56.2004 95.2109 55.4679 95.2109C54.255 95.2109 53.3293 94.959 52.6906 94.4551C52.0578 93.9512 51.6535 93.2041 51.4777 92.2139ZM66.8677 95V93.6289C66.1411 94.6836 65.1538 95.2109 63.9058 95.2109C63.355 95.2109 62.8394 95.1055 62.3589 94.8945C61.8843 94.6836 61.5298 94.4199 61.2954 94.1035C61.0669 93.7812 60.9058 93.3887 60.812 92.9258C60.7476 92.6152 60.7154 92.123 60.7154 91.4492V85.666H62.2974V90.8428C62.2974 91.6689 62.3296 92.2256 62.3941 92.5127C62.4937 92.9287 62.7046 93.2568 63.0269 93.4971C63.3491 93.7314 63.7476 93.8486 64.2222 93.8486C64.6968 93.8486 65.1421 93.7285 65.5581 93.4883C65.9741 93.2422 66.2671 92.9111 66.437 92.4951C66.6128 92.0732 66.7007 91.4639 66.7007 90.667V85.666H68.2827V95H66.8677ZM71.869 95H70.4013V82.1152H71.9833V86.7119C72.6513 85.874 73.5038 85.4551 74.5409 85.4551C75.1151 85.4551 75.6571 85.5723 76.1669 85.8066C76.6825 86.0352 77.1044 86.3604 77.4325 86.7822C77.7665 87.1982 78.0272 87.7021 78.2147 88.2939C78.4022 88.8857 78.496 89.5186 78.496 90.1924C78.496 91.792 78.1005 93.0283 77.3095 93.9014C76.5184 94.7744 75.5692 95.2109 74.4618 95.2109C73.3602 95.2109 72.496 94.751 71.869 93.8311V95ZM71.8514 90.2627C71.8514 91.3818 72.0038 92.1904 72.3085 92.6885C72.8065 93.5029 73.4804 93.9102 74.33 93.9102C75.0214 93.9102 75.619 93.6113 76.1229 93.0137C76.6268 92.4102 76.8788 91.5137 76.8788 90.3242C76.8788 89.1055 76.6356 88.2061 76.1493 87.626C75.6688 87.0459 75.0858 86.7559 74.4003 86.7559C73.7089 86.7559 73.1112 87.0576 72.6073 87.6611C72.1034 88.2588 71.8514 89.126 71.8514 90.2627ZM80.0696 95V85.666H81.4846V86.9756C81.7776 86.5186 82.1672 86.1523 82.6536 85.877C83.1399 85.5957 83.6936 85.4551 84.3147 85.4551C85.0061 85.4551 85.5715 85.5986 86.011 85.8857C86.4563 86.1729 86.7698 86.5742 86.9514 87.0898C87.6897 86 88.6506 85.4551 89.8342 85.4551C90.76 85.4551 91.4719 85.7129 91.97 86.2285C92.468 86.7383 92.717 87.5264 92.717 88.5928V95H91.1438V89.1201C91.1438 88.4873 91.0911 88.0332 90.9856 87.7578C90.886 87.4766 90.7014 87.251 90.4319 87.0811C90.1623 86.9111 89.8459 86.8262 89.4827 86.8262C88.8264 86.8262 88.2815 87.0459 87.8479 87.4854C87.4143 87.9189 87.1975 88.6162 87.1975 89.5771V95H85.6155V88.9355C85.6155 88.2324 85.4866 87.7051 85.2288 87.3535C84.9709 87.002 84.5491 86.8262 83.9631 86.8262C83.5178 86.8262 83.1047 86.9434 82.7239 87.1777C82.3489 87.4121 82.0764 87.7549 81.9065 88.2061C81.7366 88.6572 81.6516 89.3076 81.6516 90.1572V95H80.0696ZM94.7125 83.9346V82.1152H96.2945V83.9346H94.7125ZM94.7125 95V85.666H96.2945V95H94.7125ZM101.806 93.585L102.034 94.9824C101.589 95.0762 101.19 95.123 100.839 95.123C100.265 95.123 99.8193 95.0322 99.5029 94.8506C99.1865 94.6689 98.9638 94.4316 98.8349 94.1387C98.706 93.8398 98.6416 93.2158 98.6416 92.2666V86.8965H97.4814V85.666H98.6416V83.3545L100.215 82.4053V85.666H101.806V86.8965H100.215V92.3545C100.215 92.8057 100.241 93.0957 100.294 93.2246C100.353 93.3535 100.443 93.4561 100.566 93.5322C100.695 93.6084 100.877 93.6465 101.111 93.6465C101.287 93.6465 101.519 93.626 101.806 93.585ZM102.368 92.2139L103.933 91.9678C104.021 92.5947 104.264 93.0752 104.662 93.4092C105.067 93.7432 105.629 93.9102 106.35 93.9102C107.076 93.9102 107.616 93.7637 107.967 93.4707C108.319 93.1719 108.494 92.8232 108.494 92.4248C108.494 92.0674 108.339 91.7861 108.029 91.5811C107.812 91.4404 107.273 91.2617 106.411 91.0449C105.251 90.752 104.446 90.5 103.994 90.2891C103.549 90.0723 103.209 89.7764 102.975 89.4014C102.746 89.0205 102.632 88.6016 102.632 88.1445C102.632 87.7285 102.726 87.3447 102.913 86.9932C103.107 86.6357 103.368 86.3398 103.696 86.1055C103.942 85.9238 104.276 85.7715 104.698 85.6484C105.125 85.5195 105.582 85.4551 106.069 85.4551C106.801 85.4551 107.443 85.5605 107.993 85.7715C108.55 85.9824 108.96 86.2695 109.224 86.6328C109.488 86.9902 109.669 87.4707 109.769 88.0742L108.222 88.2852C108.152 87.8047 107.947 87.4297 107.607 87.1602C107.273 86.8906 106.798 86.7559 106.183 86.7559C105.456 86.7559 104.938 86.876 104.627 87.1162C104.317 87.3564 104.161 87.6377 104.161 87.96C104.161 88.165 104.226 88.3496 104.355 88.5137C104.484 88.6836 104.686 88.8242 104.961 88.9355C105.119 88.9941 105.585 89.1289 106.359 89.3398C107.478 89.6387 108.257 89.8848 108.697 90.0781C109.142 90.2656 109.491 90.541 109.743 90.9043C109.994 91.2676 110.12 91.7188 110.12 92.2578C110.12 92.7852 109.965 93.2832 109.655 93.752C109.35 94.2148 108.908 94.5752 108.327 94.833C107.747 95.085 107.091 95.2109 106.359 95.2109C105.146 95.2109 104.22 94.959 103.581 94.4551C102.949 93.9512 102.544 93.2041 102.368 92.2139ZM119.745 93.585L119.974 94.9824C119.528 95.0762 119.13 95.123 118.778 95.123C118.204 95.123 117.759 95.0322 117.442 94.8506C117.126 94.6689 116.903 94.4316 116.774 94.1387C116.646 93.8398 116.581 93.2158 116.581 92.2666V86.8965H115.421V85.666H116.581V83.3545L118.154 82.4053V85.666H119.745V86.8965H118.154V92.3545C118.154 92.8057 118.181 93.0957 118.233 93.2246C118.292 93.3535 118.383 93.4561 118.506 93.5322C118.635 93.6084 118.816 93.6465 119.051 93.6465C119.227 93.6465 119.458 93.626 119.745 93.585ZM120.352 90.333C120.352 88.6045 120.832 87.3242 121.793 86.4922C122.596 85.8008 123.575 85.4551 124.729 85.4551C126.012 85.4551 127.061 85.877 127.875 86.7207C128.69 87.5586 129.097 88.7188 129.097 90.2012C129.097 91.4023 128.915 92.3486 128.552 93.04C128.195 93.7256 127.67 94.2588 126.979 94.6396C126.293 95.0205 125.543 95.2109 124.729 95.2109C123.422 95.2109 122.365 94.792 121.556 93.9541C120.753 93.1162 120.352 91.9092 120.352 90.333ZM121.978 90.333C121.978 91.5283 122.239 92.4248 122.76 93.0225C123.282 93.6143 123.938 93.9102 124.729 93.9102C125.514 93.9102 126.167 93.6113 126.689 93.0137C127.21 92.416 127.471 91.5049 127.471 90.2803C127.471 89.126 127.207 88.2529 126.68 87.6611C126.159 87.0635 125.508 86.7646 124.729 86.7646C123.938 86.7646 123.282 87.0605 122.76 87.6523C122.239 88.2441 121.978 89.1377 121.978 90.333ZM1.55371 113.214L3.11816 112.968C3.20605 113.595 3.44922 114.075 3.84766 114.409C4.25195 114.743 4.81445 114.91 5.53516 114.91C6.26172 114.91 6.80078 114.764 7.15234 114.471C7.50391 114.172 7.67969 113.823 7.67969 113.425C7.67969 113.067 7.52441 112.786 7.21387 112.581C6.99707 112.44 6.45801 112.262 5.59668 112.045C4.43652 111.752 3.63086 111.5 3.17969 111.289C2.73438 111.072 2.39453 110.776 2.16016 110.401C1.93164 110.021 1.81738 109.602 1.81738 109.145C1.81738 108.729 1.91113 108.345 2.09863 107.993C2.29199 107.636 2.55273 107.34 2.88086 107.105C3.12695 106.924 3.46094 106.771 3.88281 106.648C4.31055 106.52 4.76758 106.455 5.25391 106.455C5.98633 106.455 6.62793 106.561 7.17871 106.771C7.73535 106.982 8.14551 107.27 8.40918 107.633C8.67285 107.99 8.85449 108.471 8.9541 109.074L7.40723 109.285C7.33691 108.805 7.13184 108.43 6.79199 108.16C6.45801 107.891 5.9834 107.756 5.36816 107.756C4.6416 107.756 4.12305 107.876 3.8125 108.116C3.50195 108.356 3.34668 108.638 3.34668 108.96C3.34668 109.165 3.41113 109.35 3.54004 109.514C3.66895 109.684 3.87109 109.824 4.14648 109.936C4.30469 109.994 4.77051 110.129 5.54395 110.34C6.66309 110.639 7.44238 110.885 7.88184 111.078C8.32715 111.266 8.67578 111.541 8.92773 111.904C9.17969 112.268 9.30566 112.719 9.30566 113.258C9.30566 113.785 9.15039 114.283 8.83984 114.752C8.53516 115.215 8.09277 115.575 7.5127 115.833C6.93262 116.085 6.27637 116.211 5.54395 116.211C4.33105 116.211 3.40527 115.959 2.7666 115.455C2.13379 114.951 1.72949 114.204 1.55371 113.214ZM17.2162 112.994L18.8509 113.196C18.5931 114.151 18.1156 114.893 17.4183 115.42C16.7211 115.947 15.8304 116.211 14.7464 116.211C13.3812 116.211 12.2972 115.792 11.4945 114.954C10.6976 114.11 10.2992 112.93 10.2992 111.412C10.2992 109.842 10.7035 108.623 11.5121 107.756C12.3207 106.889 13.3695 106.455 14.6586 106.455C15.9066 106.455 16.9261 106.88 17.7171 107.729C18.5082 108.579 18.9037 109.774 18.9037 111.315C18.9037 111.409 18.9007 111.55 18.8949 111.737H11.9339C11.9925 112.763 12.2826 113.548 12.8041 114.093C13.3255 114.638 13.9759 114.91 14.7552 114.91C15.3353 114.91 15.8304 114.758 16.2406 114.453C16.6507 114.148 16.9759 113.662 17.2162 112.994ZM12.0218 110.437H17.2338C17.1634 109.651 16.9642 109.062 16.6361 108.67C16.1322 108.061 15.4789 107.756 14.6761 107.756C13.9496 107.756 13.3373 107.999 12.8392 108.485C12.347 108.972 12.0746 109.622 12.0218 110.437ZM23.0788 116L19.528 106.666H21.198L23.2019 112.256C23.4187 112.859 23.6179 113.486 23.7995 114.137C23.9402 113.645 24.1364 113.053 24.3884 112.361L26.4626 106.666H28.0886L24.5554 116H23.0788ZM35.5157 112.994L37.1505 113.196C36.8927 114.151 36.4151 114.893 35.7179 115.42C35.0206 115.947 34.13 116.211 33.046 116.211C31.6807 116.211 30.5968 115.792 29.794 114.954C28.9971 114.11 28.5987 112.93 28.5987 111.412C28.5987 109.842 29.003 108.623 29.8116 107.756C30.6202 106.889 31.669 106.455 32.9581 106.455C34.2061 106.455 35.2257 106.88 36.0167 107.729C36.8077 108.579 37.2032 109.774 37.2032 111.315C37.2032 111.409 37.2003 111.55 37.1944 111.737H30.2335C30.2921 112.763 30.5821 113.548 31.1036 114.093C31.6251 114.638 32.2755 114.91 33.0548 114.91C33.6348 114.91 34.13 114.758 34.5401 114.453C34.9503 114.148 35.2755 113.662 35.5157 112.994ZM30.3214 110.437H35.5333C35.463 109.651 35.2638 109.062 34.9356 108.67C34.4317 108.061 33.7784 107.756 32.9757 107.756C32.2491 107.756 31.6368 107.999 31.1388 108.485C30.6466 108.972 30.3741 109.622 30.3214 110.437ZM38.768 116V106.666H40.1918V108.081C40.5551 107.419 40.8891 106.982 41.1938 106.771C41.5043 106.561 41.8442 106.455 42.2133 106.455C42.7465 106.455 43.2885 106.625 43.8393 106.965L43.2944 108.433C42.9077 108.204 42.5209 108.09 42.1342 108.09C41.7885 108.09 41.478 108.195 41.2026 108.406C40.9272 108.611 40.7309 108.898 40.6137 109.268C40.4379 109.83 40.35 110.445 40.35 111.113V116H38.768ZM50.5105 114.849C49.9246 115.347 49.3592 115.698 48.8143 115.903C48.2752 116.108 47.6951 116.211 47.074 116.211C46.0486 116.211 45.2605 115.962 44.7098 115.464C44.159 114.96 43.8836 114.318 43.8836 113.539C43.8836 113.082 43.9861 112.666 44.1912 112.291C44.4021 111.91 44.6746 111.605 45.0086 111.377C45.3484 111.148 45.7293 110.976 46.1512 110.858C46.4617 110.776 46.9305 110.697 47.5574 110.621C48.8348 110.469 49.7752 110.287 50.3787 110.076C50.3846 109.859 50.3875 109.722 50.3875 109.663C50.3875 109.019 50.2381 108.564 49.9393 108.301C49.535 107.943 48.9344 107.765 48.1375 107.765C47.3934 107.765 46.8426 107.896 46.4852 108.16C46.1336 108.418 45.8729 108.878 45.7029 109.54L44.1561 109.329C44.2967 108.667 44.5281 108.134 44.8504 107.729C45.1727 107.319 45.6385 107.006 46.2479 106.789C46.8572 106.566 47.5633 106.455 48.366 106.455C49.1629 106.455 49.8104 106.549 50.3084 106.736C50.8064 106.924 51.1727 107.161 51.407 107.448C51.6414 107.729 51.8055 108.087 51.8992 108.521C51.952 108.79 51.9783 109.276 51.9783 109.979V112.089C51.9783 113.56 52.0105 114.491 52.075 114.884C52.1453 115.271 52.2801 115.643 52.4793 116H50.827C50.6629 115.672 50.5574 115.288 50.5105 114.849ZM50.3787 111.315C49.8045 111.55 48.9432 111.749 47.7947 111.913C47.1443 112.007 46.6844 112.112 46.4148 112.229C46.1453 112.347 45.9373 112.52 45.7908 112.748C45.6443 112.971 45.5711 113.22 45.5711 113.495C45.5711 113.917 45.7293 114.269 46.0457 114.55C46.368 114.831 46.8367 114.972 47.452 114.972C48.0613 114.972 48.6033 114.84 49.0779 114.576C49.5525 114.307 49.9012 113.94 50.1238 113.478C50.2938 113.12 50.3787 112.593 50.3787 111.896V111.315ZM54.0441 116V103.115H55.6261V116H54.0441ZM62.3768 116V106.666H63.7919V107.976C64.0848 107.519 64.4745 107.152 64.9608 106.877C65.4471 106.596 66.0009 106.455 66.622 106.455C67.3134 106.455 67.8788 106.599 68.3182 106.886C68.7636 107.173 69.077 107.574 69.2587 108.09C69.997 107 70.9579 106.455 72.1415 106.455C73.0673 106.455 73.7792 106.713 74.2772 107.229C74.7753 107.738 75.0243 108.526 75.0243 109.593V116H73.4511V110.12C73.4511 109.487 73.3983 109.033 73.2929 108.758C73.1932 108.477 73.0087 108.251 72.7391 108.081C72.4696 107.911 72.1532 107.826 71.7899 107.826C71.1337 107.826 70.5887 108.046 70.1552 108.485C69.7216 108.919 69.5048 109.616 69.5048 110.577V116H67.9227V109.936C67.9227 109.232 67.7938 108.705 67.536 108.354C67.2782 108.002 66.8563 107.826 66.2704 107.826C65.8251 107.826 65.412 107.943 65.0311 108.178C64.6561 108.412 64.3837 108.755 64.2137 109.206C64.0438 109.657 63.9589 110.308 63.9589 111.157V116H62.3768ZM83.1018 114.849C82.5159 115.347 81.9504 115.698 81.4055 115.903C80.8664 116.108 80.2864 116.211 79.6653 116.211C78.6399 116.211 77.8518 115.962 77.301 115.464C76.7502 114.96 76.4748 114.318 76.4748 113.539C76.4748 113.082 76.5774 112.666 76.7825 112.291C76.9934 111.91 77.2659 111.605 77.5998 111.377C77.9397 111.148 78.3205 110.976 78.7424 110.858C79.053 110.776 79.5217 110.697 80.1487 110.621C81.426 110.469 82.3664 110.287 82.97 110.076C82.9758 109.859 82.9788 109.722 82.9788 109.663C82.9788 109.019 82.8293 108.564 82.5305 108.301C82.1262 107.943 81.5256 107.765 80.7288 107.765C79.9846 107.765 79.4338 107.896 79.0764 108.16C78.7248 108.418 78.4641 108.878 78.2942 109.54L76.7473 109.329C76.8879 108.667 77.1194 108.134 77.4416 107.729C77.7639 107.319 78.2297 107.006 78.8391 106.789C79.4485 106.566 80.1545 106.455 80.9573 106.455C81.7541 106.455 82.4016 106.549 82.8997 106.736C83.3977 106.924 83.7639 107.161 83.9983 107.448C84.2327 107.729 84.3967 108.087 84.4905 108.521C84.5432 108.79 84.5696 109.276 84.5696 109.979V112.089C84.5696 113.56 84.6018 114.491 84.6663 114.884C84.7366 115.271 84.8713 115.643 85.0705 116H83.4182C83.2541 115.672 83.1487 115.288 83.1018 114.849ZM82.97 111.315C82.3957 111.55 81.5344 111.749 80.386 111.913C79.7356 112.007 79.2756 112.112 79.0061 112.229C78.7366 112.347 78.5286 112.52 78.3821 112.748C78.2356 112.971 78.1623 113.22 78.1623 113.495C78.1623 113.917 78.3205 114.269 78.637 114.55C78.9592 114.831 79.428 114.972 80.0432 114.972C80.6526 114.972 81.1946 114.84 81.6692 114.576C82.1438 114.307 82.4924 113.94 82.7151 113.478C82.885 113.12 82.97 112.593 82.97 111.896V111.315ZM86.6529 116V106.666H88.0768V108.081C88.44 107.419 88.774 106.982 89.0787 106.771C89.3893 106.561 89.7291 106.455 90.0982 106.455C90.6314 106.455 91.1734 106.625 91.7242 106.965L91.1793 108.433C90.7926 108.204 90.4059 108.09 90.0191 108.09C89.6734 108.09 89.3629 108.195 89.0875 108.406C88.8121 108.611 88.6158 108.898 88.4986 109.268C88.3229 109.83 88.235 110.445 88.235 111.113V116H86.6529ZM92.3134 116V103.115H93.8955V110.463L97.6396 106.666H99.6875L96.1191 110.129L100.048 116H98.0966L95.0117 111.228L93.8955 112.3V116H92.3134ZM107.334 112.994L108.969 113.196C108.711 114.151 108.234 114.893 107.536 115.42C106.839 115.947 105.949 116.211 104.865 116.211C103.499 116.211 102.415 115.792 101.613 114.954C100.816 114.11 100.417 112.93 100.417 111.412C100.417 109.842 100.822 108.623 101.63 107.756C102.439 106.889 103.488 106.455 104.777 106.455C106.025 106.455 107.044 106.88 107.835 107.729C108.626 108.579 109.022 109.774 109.022 111.315C109.022 111.409 109.019 111.55 109.013 111.737H102.052C102.111 112.763 102.401 113.548 102.922 114.093C103.444 114.638 104.094 114.91 104.873 114.91C105.453 114.91 105.949 114.758 106.359 114.453C106.769 114.148 107.094 113.662 107.334 112.994ZM102.14 110.437H107.352C107.282 109.651 107.082 109.062 106.754 108.67C106.25 108.061 105.597 107.756 104.794 107.756C104.068 107.756 103.455 107.999 102.957 108.485C102.465 108.972 102.193 109.622 102.14 110.437ZM114.058 114.585L114.287 115.982C113.841 116.076 113.443 116.123 113.091 116.123C112.517 116.123 112.072 116.032 111.756 115.851C111.439 115.669 111.216 115.432 111.088 115.139C110.959 114.84 110.894 114.216 110.894 113.267V107.896H109.734V106.666H110.894V104.354L112.467 103.405V106.666H114.058V107.896H112.467V113.354C112.467 113.806 112.494 114.096 112.547 114.225C112.605 114.354 112.696 114.456 112.819 114.532C112.948 114.608 113.13 114.646 113.364 114.646C113.54 114.646 113.771 114.626 114.058 114.585ZM114.621 113.214L116.186 112.968C116.273 113.595 116.517 114.075 116.915 114.409C117.319 114.743 117.882 114.91 118.603 114.91C119.329 114.91 119.868 114.764 120.22 114.471C120.571 114.172 120.747 113.823 120.747 113.425C120.747 113.067 120.592 112.786 120.281 112.581C120.064 112.44 119.525 112.262 118.664 112.045C117.504 111.752 116.698 111.5 116.247 111.289C115.802 111.072 115.462 110.776 115.228 110.401C114.999 110.021 114.885 109.602 114.885 109.145C114.885 108.729 114.979 108.345 115.166 107.993C115.359 107.636 115.62 107.34 115.948 107.105C116.194 106.924 116.528 106.771 116.95 106.648C117.378 106.52 117.835 106.455 118.321 106.455C119.054 106.455 119.695 106.561 120.246 106.771C120.803 106.982 121.213 107.27 121.477 107.633C121.74 107.99 121.922 108.471 122.022 109.074L120.475 109.285C120.404 108.805 120.199 108.43 119.859 108.16C119.525 107.891 119.051 107.756 118.436 107.756C117.709 107.756 117.19 107.876 116.88 108.116C116.569 108.356 116.414 108.638 116.414 108.96C116.414 109.165 116.479 109.35 116.607 109.514C116.736 109.684 116.939 109.824 117.214 109.936C117.372 109.994 117.838 110.129 118.611 110.34C119.731 110.639 120.51 110.885 120.949 111.078C121.395 111.266 121.743 111.541 121.995 111.904C122.247 112.268 122.373 112.719 122.373 113.258C122.373 113.785 122.218 114.283 121.907 114.752C121.603 115.215 121.16 115.575 120.58 115.833C120 116.085 119.344 116.211 118.611 116.211C117.398 116.211 116.473 115.959 115.834 115.455C115.201 114.951 114.797 114.204 114.621 113.214Z" fill="#282848"/>
<path d="M238.974 95L243.922 82.1152H245.759L251.032 95H249.09L247.587 91.0977H242.199L240.784 95H238.974ZM242.691 89.709H247.06L245.715 86.1406C245.305 85.0566 245 84.166 244.801 83.4688C244.637 84.2949 244.405 85.1152 244.106 85.9297L242.691 89.709ZM251.542 95.7734L253.08 96.002C253.145 96.4766 253.324 96.8223 253.617 97.0391C254.009 97.332 254.545 97.4785 255.225 97.4785C255.957 97.4785 256.523 97.332 256.921 97.0391C257.32 96.7461 257.589 96.3359 257.73 95.8086C257.812 95.4863 257.85 94.8096 257.844 93.7783C257.153 94.5928 256.291 95 255.26 95C253.977 95 252.984 94.5371 252.281 93.6113C251.578 92.6855 251.226 91.5752 251.226 90.2803C251.226 89.3896 251.387 88.5693 251.709 87.8193C252.032 87.0635 252.497 86.4805 253.107 86.0703C253.722 85.6602 254.443 85.4551 255.269 85.4551C256.37 85.4551 257.279 85.9004 257.994 86.791V85.666H259.453V93.7344C259.453 95.1875 259.303 96.2158 259.004 96.8193C258.711 97.4287 258.243 97.9092 257.598 98.2607C256.959 98.6123 256.171 98.7881 255.234 98.7881C254.12 98.7881 253.221 98.5361 252.536 98.0322C251.85 97.5342 251.519 96.7812 251.542 95.7734ZM252.852 90.166C252.852 91.3906 253.095 92.2842 253.581 92.8467C254.068 93.4092 254.677 93.6904 255.41 93.6904C256.136 93.6904 256.745 93.4121 257.238 92.8555C257.73 92.293 257.976 91.4141 257.976 90.2188C257.976 89.0762 257.721 88.2148 257.211 87.6348C256.707 87.0547 256.098 86.7646 255.383 86.7646C254.68 86.7646 254.082 87.0518 253.59 87.626C253.098 88.1943 252.852 89.041 252.852 90.166ZM267.882 91.9941L269.516 92.1963C269.259 93.1514 268.781 93.8926 268.084 94.4199C267.386 94.9473 266.496 95.2109 265.412 95.2109C264.047 95.2109 262.963 94.792 262.16 93.9541C261.363 93.1104 260.965 91.9297 260.965 90.4121C260.965 88.8418 261.369 87.623 262.177 86.7559C262.986 85.8887 264.035 85.4551 265.324 85.4551C266.572 85.4551 267.592 85.8799 268.383 86.7295C269.174 87.5791 269.569 88.7744 269.569 90.3154C269.569 90.4092 269.566 90.5498 269.56 90.7373H262.599C262.658 91.7627 262.948 92.5479 263.469 93.0928C263.991 93.6377 264.641 93.9102 265.421 93.9102C266.001 93.9102 266.496 93.7578 266.906 93.4531C267.316 93.1484 267.641 92.6621 267.882 91.9941ZM262.687 89.4365H267.899C267.829 88.6514 267.63 88.0625 267.301 87.6699C266.798 87.0605 266.144 86.7559 265.342 86.7559C264.615 86.7559 264.003 86.999 263.505 87.4854C263.012 87.9717 262.74 88.6221 262.687 89.4365ZM271.151 95V85.666H272.575V86.9932C273.261 85.9678 274.251 85.4551 275.546 85.4551C276.108 85.4551 276.624 85.5576 277.093 85.7627C277.567 85.9619 277.922 86.2256 278.156 86.5537C278.391 86.8818 278.555 87.2715 278.649 87.7227C278.707 88.0156 278.736 88.5283 278.736 89.2607V95H277.154V89.3223C277.154 88.6777 277.093 88.1973 276.97 87.8809C276.847 87.5586 276.627 87.3037 276.311 87.1162C276 86.9229 275.634 86.8262 275.212 86.8262C274.538 86.8262 273.955 87.04 273.463 87.4678C272.977 87.8955 272.733 88.707 272.733 89.9023V95H271.151ZM284.265 93.585L284.494 94.9824C284.048 95.0762 283.65 95.123 283.298 95.123C282.724 95.123 282.279 95.0322 281.962 94.8506C281.646 94.6689 281.423 94.4316 281.294 94.1387C281.165 93.8398 281.101 93.2158 281.101 92.2666V86.8965H279.941V85.666H281.101V83.3545L282.674 82.4053V85.666H284.265V86.8965H282.674V92.3545C282.674 92.8057 282.701 93.0957 282.753 93.2246C282.812 93.3535 282.903 93.4561 283.026 93.5322C283.155 93.6084 283.336 93.6465 283.571 93.6465C283.747 93.6465 283.978 93.626 284.265 93.585ZM290.093 95V85.666H291.517V87.0811C291.88 86.4189 292.214 85.9824 292.519 85.7715C292.829 85.5605 293.169 85.4551 293.538 85.4551C294.071 85.4551 294.613 85.625 295.164 85.9648L294.619 87.4326C294.233 87.2041 293.846 87.0898 293.459 87.0898C293.113 87.0898 292.803 87.1953 292.528 87.4062C292.252 87.6113 292.056 87.8984 291.939 88.2676C291.763 88.8301 291.675 89.4453 291.675 90.1133V95H290.093ZM302.134 91.9941L303.769 92.1963C303.511 93.1514 303.034 93.8926 302.336 94.4199C301.639 94.9473 300.749 95.2109 299.665 95.2109C298.299 95.2109 297.215 94.792 296.413 93.9541C295.616 93.1104 295.217 91.9297 295.217 90.4121C295.217 88.8418 295.622 87.623 296.43 86.7559C297.239 85.8887 298.288 85.4551 299.577 85.4551C300.825 85.4551 301.844 85.8799 302.635 86.7295C303.426 87.5791 303.822 88.7744 303.822 90.3154C303.822 90.4092 303.819 90.5498 303.813 90.7373H296.852C296.911 91.7627 297.201 92.5479 297.722 93.0928C298.244 93.6377 298.894 93.9102 299.673 93.9102C300.253 93.9102 300.749 93.7578 301.159 93.4531C301.569 93.1484 301.894 92.6621 302.134 91.9941ZM296.94 89.4365H302.152C302.082 88.6514 301.882 88.0625 301.554 87.6699C301.05 87.0605 300.397 86.7559 299.594 86.7559C298.868 86.7559 298.255 86.999 297.757 87.4854C297.265 87.9717 296.993 88.6221 296.94 89.4365ZM311.495 91.5811L313.051 91.7832C312.881 92.8555 312.444 93.6963 311.741 94.3057C311.044 94.9092 310.185 95.2109 309.166 95.2109C307.889 95.2109 306.86 94.7949 306.081 93.9629C305.308 93.125 304.921 91.9268 304.921 90.3682C304.921 89.3604 305.088 88.4785 305.422 87.7227C305.756 86.9668 306.263 86.4014 306.942 86.0264C307.628 85.6455 308.372 85.4551 309.175 85.4551C310.188 85.4551 311.017 85.7129 311.662 86.2285C312.307 86.7383 312.72 87.4648 312.901 88.4082L311.363 88.6455C311.217 88.0186 310.956 87.5469 310.581 87.2305C310.212 86.9141 309.764 86.7559 309.236 86.7559C308.439 86.7559 307.792 87.043 307.294 87.6172C306.796 88.1855 306.547 89.0879 306.547 90.3242C306.547 91.5781 306.787 92.4893 307.267 93.0576C307.748 93.626 308.375 93.9102 309.148 93.9102C309.769 93.9102 310.288 93.7197 310.704 93.3389C311.12 92.958 311.384 92.3721 311.495 91.5811ZM320.434 91.9941L322.069 92.1963C321.811 93.1514 321.333 93.8926 320.636 94.4199C319.939 94.9473 319.048 95.2109 317.964 95.2109C316.599 95.2109 315.515 94.792 314.712 93.9541C313.915 93.1104 313.517 91.9297 313.517 90.4121C313.517 88.8418 313.921 87.623 314.73 86.7559C315.538 85.8887 316.587 85.4551 317.876 85.4551C319.124 85.4551 320.144 85.8799 320.935 86.7295C321.726 87.5791 322.121 88.7744 322.121 90.3154C322.121 90.4092 322.118 90.5498 322.113 90.7373H315.152C315.21 91.7627 315.5 92.5479 316.022 93.0928C316.543 93.6377 317.194 93.9102 317.973 93.9102C318.553 93.9102 319.048 93.7578 319.458 93.4531C319.868 93.1484 320.194 92.6621 320.434 91.9941ZM315.239 89.4365H320.451C320.381 88.6514 320.182 88.0625 319.854 87.6699C319.35 87.0605 318.697 86.7559 317.894 86.7559C317.167 86.7559 316.555 86.999 316.057 87.4854C315.565 87.9717 315.292 88.6221 315.239 89.4365ZM323.713 83.9346V82.1152H325.295V83.9346H323.713ZM323.713 95V85.666H325.295V95H323.713ZM329.944 95L326.394 85.666H328.063L330.067 91.2559C330.284 91.8594 330.483 92.4863 330.665 93.1367C330.806 92.6445 331.002 92.0527 331.254 91.3613L333.328 85.666H334.954L331.421 95H329.944ZM342.381 91.9941L344.016 92.1963C343.758 93.1514 343.281 93.8926 342.583 94.4199C341.886 94.9473 340.995 95.2109 339.911 95.2109C338.546 95.2109 337.462 94.792 336.659 93.9541C335.863 93.1104 335.464 91.9297 335.464 90.4121C335.464 88.8418 335.868 87.623 336.677 86.7559C337.486 85.8887 338.534 85.4551 339.824 85.4551C341.072 85.4551 342.091 85.8799 342.882 86.7295C343.673 87.5791 344.069 88.7744 344.069 90.3154C344.069 90.4092 344.066 90.5498 344.06 90.7373H337.099C337.158 91.7627 337.448 92.5479 337.969 93.0928C338.491 93.6377 339.141 93.9102 339.92 93.9102C340.5 93.9102 340.995 93.7578 341.406 93.4531C341.816 93.1484 342.141 92.6621 342.381 91.9941ZM337.187 89.4365H342.399C342.328 88.6514 342.129 88.0625 341.801 87.6699C341.297 87.0605 340.644 86.7559 339.841 86.7559C339.115 86.7559 338.502 86.999 338.004 87.4854C337.512 87.9717 337.24 88.6221 337.187 89.4365ZM345.018 92.2139L346.583 91.9678C346.671 92.5947 346.914 93.0752 347.312 93.4092C347.716 93.7432 348.279 93.9102 349 93.9102C349.726 93.9102 350.265 93.7637 350.617 93.4707C350.968 93.1719 351.144 92.8232 351.144 92.4248C351.144 92.0674 350.989 91.7861 350.678 91.5811C350.462 91.4404 349.923 91.2617 349.061 91.0449C347.901 90.752 347.095 90.5 346.644 90.2891C346.199 90.0723 345.859 89.7764 345.625 89.4014C345.396 89.0205 345.282 88.6016 345.282 88.1445C345.282 87.7285 345.376 87.3447 345.563 86.9932C345.757 86.6357 346.017 86.3398 346.345 86.1055C346.591 85.9238 346.925 85.7715 347.347 85.6484C347.775 85.5195 348.232 85.4551 348.718 85.4551C349.451 85.4551 350.092 85.5605 350.643 85.7715C351.2 85.9824 351.61 86.2695 351.874 86.6328C352.137 86.9902 352.319 87.4707 352.419 88.0742L350.872 88.2852C350.801 87.8047 350.596 87.4297 350.257 87.1602C349.923 86.8906 349.448 86.7559 348.833 86.7559C348.106 86.7559 347.588 86.876 347.277 87.1162C346.966 87.3564 346.811 87.6377 346.811 87.96C346.811 88.165 346.876 88.3496 347.005 88.5137C347.133 88.6836 347.336 88.8242 347.611 88.9355C347.769 88.9941 348.235 89.1289 349.008 89.3398C350.128 89.6387 350.907 89.8848 351.346 90.0781C351.792 90.2656 352.14 90.541 352.392 90.9043C352.644 91.2676 352.77 91.7188 352.77 92.2578C352.77 92.7852 352.615 93.2832 352.304 93.752C352 94.2148 351.557 94.5752 350.977 94.833C350.397 95.085 349.741 95.2109 349.008 95.2109C347.796 95.2109 346.87 94.959 346.231 94.4551C345.598 93.9512 345.194 93.2041 345.018 92.2139ZM246.137 119.577V115.007C245.891 115.353 245.545 115.64 245.1 115.868C244.66 116.097 244.191 116.211 243.693 116.211C242.586 116.211 241.631 115.769 240.828 114.884C240.031 113.999 239.633 112.786 239.633 111.245C239.633 110.308 239.794 109.467 240.116 108.723C240.444 107.979 240.916 107.416 241.531 107.035C242.152 106.648 242.832 106.455 243.57 106.455C244.725 106.455 245.633 106.941 246.295 107.914V106.666H247.719V119.577H246.137ZM241.259 111.307C241.259 112.508 241.511 113.41 242.015 114.014C242.519 114.611 243.122 114.91 243.825 114.91C244.499 114.91 245.079 114.626 245.565 114.058C246.052 113.483 246.295 112.613 246.295 111.447C246.295 110.205 246.037 109.271 245.521 108.644C245.012 108.017 244.411 107.703 243.72 107.703C243.034 107.703 242.451 107.996 241.971 108.582C241.496 109.162 241.259 110.07 241.259 111.307ZM255.963 116V114.629C255.237 115.684 254.249 116.211 253.001 116.211C252.451 116.211 251.935 116.105 251.454 115.895C250.98 115.684 250.625 115.42 250.391 115.104C250.162 114.781 250.001 114.389 249.908 113.926C249.843 113.615 249.811 113.123 249.811 112.449V106.666H251.393V111.843C251.393 112.669 251.425 113.226 251.49 113.513C251.589 113.929 251.8 114.257 252.122 114.497C252.445 114.731 252.843 114.849 253.318 114.849C253.792 114.849 254.238 114.729 254.654 114.488C255.07 114.242 255.363 113.911 255.533 113.495C255.708 113.073 255.796 112.464 255.796 111.667V106.666H257.378V116H255.963ZM258.917 111.333C258.917 109.604 259.397 108.324 260.358 107.492C261.161 106.801 262.139 106.455 263.294 106.455C264.577 106.455 265.626 106.877 266.44 107.721C267.255 108.559 267.662 109.719 267.662 111.201C267.662 112.402 267.48 113.349 267.117 114.04C266.759 114.726 266.235 115.259 265.544 115.64C264.858 116.021 264.108 116.211 263.294 116.211C261.987 116.211 260.929 115.792 260.121 114.954C259.318 114.116 258.917 112.909 258.917 111.333ZM260.543 111.333C260.543 112.528 260.803 113.425 261.325 114.022C261.846 114.614 262.503 114.91 263.294 114.91C264.079 114.91 264.732 114.611 265.254 114.014C265.775 113.416 266.036 112.505 266.036 111.28C266.036 110.126 265.772 109.253 265.245 108.661C264.723 108.063 264.073 107.765 263.294 107.765C262.503 107.765 261.846 108.061 261.325 108.652C260.803 109.244 260.543 110.138 260.543 111.333ZM272.619 114.585L272.848 115.982C272.402 116.076 272.004 116.123 271.652 116.123C271.078 116.123 270.633 116.032 270.316 115.851C270 115.669 269.777 115.432 269.649 115.139C269.52 114.84 269.455 114.216 269.455 113.267V107.896H268.295V106.666H269.455V104.354L271.028 103.405V106.666H272.619V107.896H271.028V113.354C271.028 113.806 271.055 114.096 271.108 114.225C271.166 114.354 271.257 114.456 271.38 114.532C271.509 114.608 271.691 114.646 271.925 114.646C272.101 114.646 272.332 114.626 272.619 114.585ZM280.205 112.994L281.839 113.196C281.581 114.151 281.104 114.893 280.407 115.42C279.709 115.947 278.819 116.211 277.735 116.211C276.37 116.211 275.286 115.792 274.483 114.954C273.686 114.11 273.288 112.93 273.288 111.412C273.288 109.842 273.692 108.623 274.5 107.756C275.309 106.889 276.358 106.455 277.647 106.455C278.895 106.455 279.914 106.88 280.706 107.729C281.497 108.579 281.892 109.774 281.892 111.315C281.892 111.409 281.889 111.55 281.883 111.737H274.922C274.981 112.763 275.271 113.548 275.792 114.093C276.314 114.638 276.964 114.91 277.744 114.91C278.324 114.91 278.819 114.758 279.229 114.453C279.639 114.148 279.964 113.662 280.205 112.994ZM275.01 110.437H280.222C280.152 109.651 279.953 109.062 279.624 108.67C279.121 108.061 278.467 107.756 277.664 107.756C276.938 107.756 276.326 107.999 275.828 108.485C275.335 108.972 275.063 109.622 275.01 110.437ZM282.842 113.214L284.406 112.968C284.494 113.595 284.737 114.075 285.136 114.409C285.54 114.743 286.102 114.91 286.823 114.91C287.55 114.91 288.089 114.764 288.44 114.471C288.792 114.172 288.968 113.823 288.968 113.425C288.968 113.067 288.812 112.786 288.502 112.581C288.285 112.44 287.746 112.262 286.885 112.045C285.724 111.752 284.919 111.5 284.468 111.289C284.022 111.072 283.682 110.776 283.448 110.401C283.22 110.021 283.105 109.602 283.105 109.145C283.105 108.729 283.199 108.345 283.387 107.993C283.58 107.636 283.841 107.34 284.169 107.105C284.415 106.924 284.749 106.771 285.171 106.648C285.598 106.52 286.055 106.455 286.542 106.455C287.274 106.455 287.916 106.561 288.467 106.771C289.023 106.982 289.433 107.27 289.697 107.633C289.961 107.99 290.142 108.471 290.242 109.074L288.695 109.285C288.625 108.805 288.42 108.43 288.08 108.16C287.746 107.891 287.271 107.756 286.656 107.756C285.929 107.756 285.411 107.876 285.1 108.116C284.79 108.356 284.635 108.638 284.635 108.96C284.635 109.165 284.699 109.35 284.828 109.514C284.957 109.684 285.159 109.824 285.434 109.936C285.593 109.994 286.058 110.129 286.832 110.34C287.951 110.639 288.73 110.885 289.17 111.078C289.615 111.266 289.964 111.541 290.216 111.904C290.468 112.268 290.594 112.719 290.594 113.258C290.594 113.785 290.438 114.283 290.128 114.752C289.823 115.215 289.381 115.575 288.801 115.833C288.221 116.085 287.564 116.211 286.832 116.211C285.619 116.211 284.693 115.959 284.054 115.455C283.422 114.951 283.017 114.204 282.842 113.214Z" fill="#282848"/>
<path d="M460.974 95L465.922 82.1152H467.759L473.032 95H471.09L469.587 91.0977H464.199L462.784 95H460.974ZM464.691 89.709H469.06L467.715 86.1406C467.305 85.0566 467 84.166 466.801 83.4688C466.637 84.2949 466.405 85.1152 466.106 85.9297L464.691 89.709ZM473.542 95.7734L475.08 96.002C475.145 96.4766 475.324 96.8223 475.617 97.0391C476.009 97.332 476.545 97.4785 477.225 97.4785C477.957 97.4785 478.523 97.332 478.921 97.0391C479.32 96.7461 479.589 96.3359 479.73 95.8086C479.812 95.4863 479.85 94.8096 479.844 93.7783C479.153 94.5928 478.291 95 477.26 95C475.977 95 474.984 94.5371 474.281 93.6113C473.578 92.6855 473.226 91.5752 473.226 90.2803C473.226 89.3896 473.387 88.5693 473.709 87.8193C474.032 87.0635 474.497 86.4805 475.107 86.0703C475.722 85.6602 476.443 85.4551 477.269 85.4551C478.37 85.4551 479.279 85.9004 479.994 86.791V85.666H481.453V93.7344C481.453 95.1875 481.303 96.2158 481.004 96.8193C480.711 97.4287 480.243 97.9092 479.598 98.2607C478.959 98.6123 478.171 98.7881 477.234 98.7881C476.12 98.7881 475.221 98.5361 474.536 98.0322C473.85 97.5342 473.519 96.7812 473.542 95.7734ZM474.852 90.166C474.852 91.3906 475.095 92.2842 475.581 92.8467C476.068 93.4092 476.677 93.6904 477.41 93.6904C478.136 93.6904 478.745 93.4121 479.238 92.8555C479.73 92.293 479.976 91.4141 479.976 90.2188C479.976 89.0762 479.721 88.2148 479.211 87.6348C478.707 87.0547 478.098 86.7646 477.383 86.7646C476.68 86.7646 476.082 87.0518 475.59 87.626C475.098 88.1943 474.852 89.041 474.852 90.166ZM489.882 91.9941L491.516 92.1963C491.259 93.1514 490.781 93.8926 490.084 94.4199C489.386 94.9473 488.496 95.2109 487.412 95.2109C486.047 95.2109 484.963 94.792 484.16 93.9541C483.363 93.1104 482.965 91.9297 482.965 90.4121C482.965 88.8418 483.369 87.623 484.177 86.7559C484.986 85.8887 486.035 85.4551 487.324 85.4551C488.572 85.4551 489.592 85.8799 490.383 86.7295C491.174 87.5791 491.569 88.7744 491.569 90.3154C491.569 90.4092 491.566 90.5498 491.56 90.7373H484.599C484.658 91.7627 484.948 92.5479 485.469 93.0928C485.991 93.6377 486.641 93.9102 487.421 93.9102C488.001 93.9102 488.496 93.7578 488.906 93.4531C489.316 93.1484 489.641 92.6621 489.882 91.9941ZM484.687 89.4365H489.899C489.829 88.6514 489.63 88.0625 489.301 87.6699C488.798 87.0605 488.144 86.7559 487.342 86.7559C486.615 86.7559 486.003 86.999 485.505 87.4854C485.012 87.9717 484.74 88.6221 484.687 89.4365ZM493.151 95V85.666H494.575V86.9932C495.261 85.9678 496.251 85.4551 497.546 85.4551C498.108 85.4551 498.624 85.5576 499.093 85.7627C499.567 85.9619 499.922 86.2256 500.156 86.5537C500.391 86.8818 500.555 87.2715 500.649 87.7227C500.707 88.0156 500.736 88.5283 500.736 89.2607V95H499.154V89.3223C499.154 88.6777 499.093 88.1973 498.97 87.8809C498.847 87.5586 498.627 87.3037 498.311 87.1162C498 86.9229 497.634 86.8262 497.212 86.8262C496.538 86.8262 495.955 87.04 495.463 87.4678C494.977 87.8955 494.733 88.707 494.733 89.9023V95H493.151ZM506.265 93.585L506.494 94.9824C506.048 95.0762 505.65 95.123 505.298 95.123C504.724 95.123 504.279 95.0322 503.962 94.8506C503.646 94.6689 503.423 94.4316 503.294 94.1387C503.165 93.8398 503.101 93.2158 503.101 92.2666V86.8965H501.941V85.666H503.101V83.3545L504.674 82.4053V85.666H506.265V86.8965H504.674V92.3545C504.674 92.8057 504.701 93.0957 504.753 93.2246C504.812 93.3535 504.903 93.4561 505.026 93.5322C505.155 93.6084 505.336 93.6465 505.571 93.6465C505.747 93.6465 505.978 93.626 506.265 93.585ZM512.111 98.5771V85.666H513.552V86.8789C513.892 86.4043 514.276 86.0498 514.703 85.8154C515.131 85.5752 515.65 85.4551 516.259 85.4551C517.056 85.4551 517.759 85.6602 518.368 86.0703C518.978 86.4805 519.438 87.0605 519.748 87.8105C520.059 88.5547 520.214 89.3721 520.214 90.2627C520.214 91.2178 520.041 92.0791 519.695 92.8467C519.356 93.6084 518.858 94.1943 518.201 94.6045C517.551 95.0088 516.865 95.2109 516.145 95.2109C515.617 95.2109 515.143 95.0996 514.721 94.877C514.305 94.6543 513.962 94.373 513.693 94.0332V98.5771H512.111ZM513.543 90.3857C513.543 91.5869 513.786 92.4746 514.273 93.0488C514.759 93.623 515.348 93.9102 516.039 93.9102C516.742 93.9102 517.343 93.6143 517.841 93.0225C518.345 92.4248 518.597 91.502 518.597 90.2539C518.597 89.0645 518.351 88.1738 517.859 87.582C517.372 86.9902 516.789 86.6943 516.11 86.6943C515.436 86.6943 514.838 87.0107 514.317 87.6436C513.801 88.2705 513.543 89.1846 513.543 90.3857ZM521.752 95V85.666H523.176V87.0811C523.54 86.4189 523.874 85.9824 524.178 85.7715C524.489 85.5605 524.829 85.4551 525.198 85.4551C525.731 85.4551 526.273 85.625 526.824 85.9648L526.279 87.4326C525.892 87.2041 525.505 87.0898 525.119 87.0898C524.773 87.0898 524.462 87.1953 524.187 87.4062C523.912 87.6113 523.715 87.8984 523.598 88.2676C523.422 88.8301 523.334 89.4453 523.334 90.1133V95H521.752ZM533.794 91.9941L535.429 92.1963C535.171 93.1514 534.693 93.8926 533.996 94.4199C533.299 94.9473 532.408 95.2109 531.324 95.2109C529.959 95.2109 528.875 94.792 528.072 93.9541C527.275 93.1104 526.877 91.9297 526.877 90.4121C526.877 88.8418 527.281 87.623 528.09 86.7559C528.898 85.8887 529.947 85.4551 531.236 85.4551C532.484 85.4551 533.504 85.8799 534.295 86.7295C535.086 87.5791 535.481 88.7744 535.481 90.3154C535.481 90.4092 535.478 90.5498 535.473 90.7373H528.512C528.57 91.7627 528.86 92.5479 529.382 93.0928C529.903 93.6377 530.554 93.9102 531.333 93.9102C531.913 93.9102 532.408 93.7578 532.818 93.4531C533.228 93.1484 533.554 92.6621 533.794 91.9941ZM528.599 89.4365H533.811C533.741 88.6514 533.542 88.0625 533.214 87.6699C532.71 87.0605 532.057 86.7559 531.254 86.7559C530.527 86.7559 529.915 86.999 529.417 87.4854C528.925 87.9717 528.652 88.6221 528.599 89.4365ZM536.431 92.2139L537.995 91.9678C538.083 92.5947 538.326 93.0752 538.725 93.4092C539.129 93.7432 539.692 93.9102 540.412 93.9102C541.139 93.9102 541.678 93.7637 542.03 93.4707C542.381 93.1719 542.557 92.8232 542.557 92.4248C542.557 92.0674 542.402 91.7861 542.091 91.5811C541.874 91.4404 541.335 91.2617 540.474 91.0449C539.314 90.752 538.508 90.5 538.057 90.2891C537.612 90.0723 537.272 89.7764 537.037 89.4014C536.809 89.0205 536.695 88.6016 536.695 88.1445C536.695 87.7285 536.788 87.3447 536.976 86.9932C537.169 86.6357 537.43 86.3398 537.758 86.1055C538.004 85.9238 538.338 85.7715 538.76 85.6484C539.188 85.5195 539.645 85.4551 540.131 85.4551C540.864 85.4551 541.505 85.5605 542.056 85.7715C542.613 85.9824 543.023 86.2695 543.286 86.6328C543.55 86.9902 543.732 87.4707 543.831 88.0742L542.284 88.2852C542.214 87.8047 542.009 87.4297 541.669 87.1602C541.335 86.8906 540.861 86.7559 540.245 86.7559C539.519 86.7559 539 86.876 538.69 87.1162C538.379 87.3564 538.224 87.6377 538.224 87.96C538.224 88.165 538.288 88.3496 538.417 88.5137C538.546 88.6836 538.748 88.8242 539.024 88.9355C539.182 88.9941 539.648 89.1289 540.421 89.3398C541.54 89.6387 542.32 89.8848 542.759 90.0781C543.204 90.2656 543.553 90.541 543.805 90.9043C544.057 91.2676 544.183 91.7188 544.183 92.2578C544.183 92.7852 544.028 93.2832 543.717 93.752C543.412 94.2148 542.97 94.5752 542.39 94.833C541.81 95.085 541.154 95.2109 540.421 95.2109C539.208 95.2109 538.282 94.959 537.644 94.4551C537.011 93.9512 536.607 93.2041 536.431 92.2139ZM552.093 91.9941L553.728 92.1963C553.47 93.1514 552.993 93.8926 552.296 94.4199C551.598 94.9473 550.708 95.2109 549.624 95.2109C548.258 95.2109 547.174 94.792 546.372 93.9541C545.575 93.1104 545.176 91.9297 545.176 90.4121C545.176 88.8418 545.581 87.623 546.389 86.7559C547.198 85.8887 548.247 85.4551 549.536 85.4551C550.784 85.4551 551.803 85.8799 552.594 86.7295C553.385 87.5791 553.781 88.7744 553.781 90.3154C553.781 90.4092 553.778 90.5498 553.772 90.7373H546.811C546.87 91.7627 547.16 92.5479 547.681 93.0928C548.203 93.6377 548.853 93.9102 549.632 93.9102C550.213 93.9102 550.708 93.7578 551.118 93.4531C551.528 93.1484 551.853 92.6621 552.093 91.9941ZM546.899 89.4365H552.111C552.041 88.6514 551.841 88.0625 551.513 87.6699C551.009 87.0605 550.356 86.7559 549.553 86.7559C548.827 86.7559 548.214 86.999 547.716 87.4854C547.224 87.9717 546.952 88.6221 546.899 89.4365ZM555.363 95V85.666H556.787V86.9932C557.473 85.9678 558.463 85.4551 559.758 85.4551C560.32 85.4551 560.836 85.5576 561.305 85.7627C561.779 85.9619 562.134 86.2256 562.368 86.5537C562.603 86.8818 562.767 87.2715 562.86 87.7227C562.919 88.0156 562.948 88.5283 562.948 89.2607V95H561.366V89.3223C561.366 88.6777 561.305 88.1973 561.182 87.8809C561.059 87.5586 560.839 87.3037 560.522 87.1162C560.212 86.9229 559.846 86.8262 559.424 86.8262C558.75 86.8262 558.167 87.04 557.675 87.4678C557.188 87.8955 556.945 88.707 556.945 89.9023V95H555.363ZM568.477 93.585L568.705 94.9824C568.26 95.0762 567.862 95.123 567.51 95.123C566.936 95.123 566.491 95.0322 566.174 94.8506C565.858 94.6689 565.635 94.4316 565.506 94.1387C565.377 93.8398 565.313 93.2158 565.313 92.2666V86.8965H564.153V85.666H565.313V83.3545L566.886 82.4053V85.666H568.477V86.8965H566.886V92.3545C566.886 92.8057 566.912 93.0957 566.965 93.2246C567.024 93.3535 567.115 93.4561 567.238 93.5322C567.367 93.6084 567.548 93.6465 567.783 93.6465C567.958 93.6465 568.19 93.626 568.477 93.585ZM569.04 92.2139L570.604 91.9678C570.692 92.5947 570.935 93.0752 571.334 93.4092C571.738 93.7432 572.3 93.9102 573.021 93.9102C573.748 93.9102 574.287 93.7637 574.638 93.4707C574.99 93.1719 575.166 92.8232 575.166 92.4248C575.166 92.0674 575.01 91.7861 574.7 91.5811C574.483 91.4404 573.944 91.2617 573.083 91.0449C571.923 90.752 571.117 90.5 570.666 90.2891C570.22 90.0723 569.881 89.7764 569.646 89.4014C569.418 89.0205 569.303 88.6016 569.303 88.1445C569.303 87.7285 569.397 87.3447 569.585 86.9932C569.778 86.6357 570.039 86.3398 570.367 86.1055C570.613 85.9238 570.947 85.7715 571.369 85.6484C571.797 85.5195 572.254 85.4551 572.74 85.4551C573.472 85.4551 574.114 85.5605 574.665 85.7715C575.221 85.9824 575.632 86.2695 575.895 86.6328C576.159 86.9902 576.341 87.4707 576.44 88.0742L574.893 88.2852C574.823 87.8047 574.618 87.4297 574.278 87.1602C573.944 86.8906 573.469 86.7559 572.854 86.7559C572.128 86.7559 571.609 86.876 571.299 87.1162C570.988 87.3564 570.833 87.6377 570.833 87.96C570.833 88.165 570.897 88.3496 571.026 88.5137C571.155 88.6836 571.357 88.8242 571.632 88.9355C571.791 88.9941 572.257 89.1289 573.03 89.3398C574.149 89.6387 574.928 89.8848 575.368 90.0781C575.813 90.2656 576.162 90.541 576.414 90.9043C576.666 91.2676 576.792 91.7188 576.792 92.2578C576.792 92.7852 576.636 93.2832 576.326 93.752C576.021 94.2148 575.579 94.5752 574.999 94.833C574.419 95.085 573.762 95.2109 573.03 95.2109C571.817 95.2109 570.891 94.959 570.253 94.4551C569.62 93.9512 569.216 93.2041 569.04 92.2139ZM468.137 119.577V115.007C467.891 115.353 467.545 115.64 467.1 115.868C466.66 116.097 466.191 116.211 465.693 116.211C464.586 116.211 463.631 115.769 462.828 114.884C462.031 113.999 461.633 112.786 461.633 111.245C461.633 110.308 461.794 109.467 462.116 108.723C462.444 107.979 462.916 107.416 463.531 107.035C464.152 106.648 464.832 106.455 465.57 106.455C466.725 106.455 467.633 106.941 468.295 107.914V106.666H469.719V119.577H468.137ZM463.259 111.307C463.259 112.508 463.511 113.41 464.015 114.014C464.519 114.611 465.122 114.91 465.825 114.91C466.499 114.91 467.079 114.626 467.565 114.058C468.052 113.483 468.295 112.613 468.295 111.447C468.295 110.205 468.037 109.271 467.521 108.644C467.012 108.017 466.411 107.703 465.72 107.703C465.034 107.703 464.451 107.996 463.971 108.582C463.496 109.162 463.259 110.07 463.259 111.307ZM477.963 116V114.629C477.237 115.684 476.249 116.211 475.001 116.211C474.451 116.211 473.935 116.105 473.454 115.895C472.98 115.684 472.625 115.42 472.391 115.104C472.162 114.781 472.001 114.389 471.908 113.926C471.843 113.615 471.811 113.123 471.811 112.449V106.666H473.393V111.843C473.393 112.669 473.425 113.226 473.49 113.513C473.589 113.929 473.8 114.257 474.122 114.497C474.445 114.731 474.843 114.849 475.318 114.849C475.792 114.849 476.238 114.729 476.654 114.488C477.07 114.242 477.363 113.911 477.533 113.495C477.708 113.073 477.796 112.464 477.796 111.667V106.666H479.378V116H477.963ZM480.917 111.333C480.917 109.604 481.397 108.324 482.358 107.492C483.161 106.801 484.139 106.455 485.294 106.455C486.577 106.455 487.626 106.877 488.44 107.721C489.255 108.559 489.662 109.719 489.662 111.201C489.662 112.402 489.48 113.349 489.117 114.04C488.759 114.726 488.235 115.259 487.544 115.64C486.858 116.021 486.108 116.211 485.294 116.211C483.987 116.211 482.929 115.792 482.121 114.954C481.318 114.116 480.917 112.909 480.917 111.333ZM482.543 111.333C482.543 112.528 482.803 113.425 483.325 114.022C483.846 114.614 484.503 114.91 485.294 114.91C486.079 114.91 486.732 114.611 487.254 114.014C487.775 113.416 488.036 112.505 488.036 111.28C488.036 110.126 487.772 109.253 487.245 108.661C486.723 108.063 486.073 107.765 485.294 107.765C484.503 107.765 483.846 108.061 483.325 108.652C482.803 109.244 482.543 110.138 482.543 111.333ZM494.619 114.585L494.848 115.982C494.402 116.076 494.004 116.123 493.652 116.123C493.078 116.123 492.633 116.032 492.316 115.851C492 115.669 491.777 115.432 491.649 115.139C491.52 114.84 491.455 114.216 491.455 113.267V107.896H490.295V106.666H491.455V104.354L493.028 103.405V106.666H494.619V107.896H493.028V113.354C493.028 113.806 493.055 114.096 493.108 114.225C493.166 114.354 493.257 114.456 493.38 114.532C493.509 114.608 493.691 114.646 493.925 114.646C494.101 114.646 494.332 114.626 494.619 114.585ZM502.205 112.994L503.839 113.196C503.581 114.151 503.104 114.893 502.407 115.42C501.709 115.947 500.819 116.211 499.735 116.211C498.37 116.211 497.286 115.792 496.483 114.954C495.686 114.11 495.288 112.93 495.288 111.412C495.288 109.842 495.692 108.623 496.5 107.756C497.309 106.889 498.358 106.455 499.647 106.455C500.895 106.455 501.914 106.88 502.706 107.729C503.497 108.579 503.892 109.774 503.892 111.315C503.892 111.409 503.889 111.55 503.883 111.737H496.922C496.981 112.763 497.271 113.548 497.792 114.093C498.314 114.638 498.964 114.91 499.744 114.91C500.324 114.91 500.819 114.758 501.229 114.453C501.639 114.148 501.964 113.662 502.205 112.994ZM497.01 110.437H502.222C502.152 109.651 501.953 109.062 501.624 108.67C501.121 108.061 500.467 107.756 499.664 107.756C498.938 107.756 498.326 107.999 497.828 108.485C497.335 108.972 497.063 109.622 497.01 110.437ZM504.842 113.214L506.406 112.968C506.494 113.595 506.737 114.075 507.136 114.409C507.54 114.743 508.102 114.91 508.823 114.91C509.55 114.91 510.089 114.764 510.44 114.471C510.792 114.172 510.968 113.823 510.968 113.425C510.968 113.067 510.812 112.786 510.502 112.581C510.285 112.44 509.746 112.262 508.885 112.045C507.724 111.752 506.919 111.5 506.468 111.289C506.022 111.072 505.682 110.776 505.448 110.401C505.22 110.021 505.105 109.602 505.105 109.145C505.105 108.729 505.199 108.345 505.387 107.993C505.58 107.636 505.841 107.34 506.169 107.105C506.415 106.924 506.749 106.771 507.171 106.648C507.598 106.52 508.055 106.455 508.542 106.455C509.274 106.455 509.916 106.561 510.467 106.771C511.023 106.982 511.433 107.27 511.697 107.633C511.961 107.99 512.142 108.471 512.242 109.074L510.695 109.285C510.625 108.805 510.42 108.43 510.08 108.16C509.746 107.891 509.271 107.756 508.656 107.756C507.929 107.756 507.411 107.876 507.1 108.116C506.79 108.356 506.635 108.638 506.635 108.96C506.635 109.165 506.699 109.35 506.828 109.514C506.957 109.684 507.159 109.824 507.434 109.936C507.593 109.994 508.058 110.129 508.832 110.34C509.951 110.639 510.73 110.885 511.17 111.078C511.615 111.266 511.964 111.541 512.216 111.904C512.468 112.268 512.594 112.719 512.594 113.258C512.594 113.785 512.438 114.283 512.128 114.752C511.823 115.215 511.381 115.575 510.801 115.833C510.221 116.085 509.564 116.211 508.832 116.211C507.619 116.211 506.693 115.959 506.054 115.455C505.422 114.951 505.017 114.204 504.842 113.214ZM522.218 114.585L522.447 115.982C522.001 116.076 521.603 116.123 521.251 116.123C520.677 116.123 520.232 116.032 519.916 115.851C519.599 115.669 519.376 115.432 519.248 115.139C519.119 114.84 519.054 114.216 519.054 113.267V107.896H517.894V106.666H519.054V104.354L520.627 103.405V106.666H522.218V107.896H520.627V113.354C520.627 113.806 520.654 114.096 520.707 114.225C520.765 114.354 520.856 114.456 520.979 114.532C521.108 114.608 521.29 114.646 521.524 114.646C521.7 114.646 521.931 114.626 522.218 114.585ZM522.825 111.333C522.825 109.604 523.306 108.324 524.266 107.492C525.069 106.801 526.048 106.455 527.202 106.455C528.485 106.455 529.534 106.877 530.349 107.721C531.163 108.559 531.57 109.719 531.57 111.201C531.57 112.402 531.389 113.349 531.025 114.04C530.668 114.726 530.143 115.259 529.452 115.64C528.766 116.021 528.016 116.211 527.202 116.211C525.895 116.211 524.838 115.792 524.029 114.954C523.226 114.116 522.825 112.909 522.825 111.333ZM524.451 111.333C524.451 112.528 524.712 113.425 525.233 114.022C525.755 114.614 526.411 114.91 527.202 114.91C527.987 114.91 528.641 114.611 529.162 114.014C529.683 113.416 529.944 112.505 529.944 111.28C529.944 110.126 529.681 109.253 529.153 108.661C528.632 108.063 527.981 107.765 527.202 107.765C526.411 107.765 525.755 108.061 525.233 108.652C524.712 109.244 524.451 110.138 524.451 111.333ZM537.732 104.935V103.115H539.314V104.935H537.732ZM537.732 116V106.666H539.314V116H537.732ZM541.371 116V106.666H542.795V107.993C543.48 106.968 544.471 106.455 545.766 106.455C546.328 106.455 546.844 106.558 547.312 106.763C547.787 106.962 548.142 107.226 548.376 107.554C548.61 107.882 548.774 108.271 548.868 108.723C548.927 109.016 548.956 109.528 548.956 110.261V116H547.374V110.322C547.374 109.678 547.312 109.197 547.189 108.881C547.066 108.559 546.847 108.304 546.53 108.116C546.22 107.923 545.853 107.826 545.432 107.826C544.758 107.826 544.175 108.04 543.683 108.468C543.196 108.896 542.953 109.707 542.953 110.902V116H541.371ZM550.398 113.214L551.962 112.968C552.05 113.595 552.293 114.075 552.692 114.409C553.096 114.743 553.659 114.91 554.379 114.91C555.106 114.91 555.645 114.764 555.996 114.471C556.348 114.172 556.524 113.823 556.524 113.425C556.524 113.067 556.368 112.786 556.058 112.581C555.841 112.44 555.302 112.262 554.441 112.045C553.281 111.752 552.475 111.5 552.024 111.289C551.578 111.072 551.239 110.776 551.004 110.401C550.776 110.021 550.661 109.602 550.661 109.145C550.661 108.729 550.755 108.345 550.943 107.993C551.136 107.636 551.397 107.34 551.725 107.105C551.971 106.924 552.305 106.771 552.727 106.648C553.155 106.52 553.612 106.455 554.098 106.455C554.83 106.455 555.472 106.561 556.023 106.771C556.579 106.982 556.99 107.27 557.253 107.633C557.517 107.99 557.699 108.471 557.798 109.074L556.251 109.285C556.181 108.805 555.976 108.43 555.636 108.16C555.302 107.891 554.827 107.756 554.212 107.756C553.486 107.756 552.967 107.876 552.657 108.116C552.346 108.356 552.191 108.638 552.191 108.96C552.191 109.165 552.255 109.35 552.384 109.514C552.513 109.684 552.715 109.824 552.991 109.936C553.149 109.994 553.615 110.129 554.388 110.34C555.507 110.639 556.286 110.885 556.726 111.078C557.171 111.266 557.52 111.541 557.772 111.904C558.024 112.268 558.15 112.719 558.15 113.258C558.15 113.785 557.994 114.283 557.684 114.752C557.379 115.215 556.937 115.575 556.357 115.833C555.777 116.085 555.12 116.211 554.388 116.211C553.175 116.211 552.249 115.959 551.611 115.455C550.978 114.951 550.574 114.204 550.398 113.214ZM565.788 116V114.629C565.061 115.684 564.074 116.211 562.826 116.211C562.275 116.211 561.759 116.105 561.279 115.895C560.804 115.684 560.45 115.42 560.216 115.104C559.987 114.781 559.826 114.389 559.732 113.926C559.668 113.615 559.635 113.123 559.635 112.449V106.666H561.217V111.843C561.217 112.669 561.25 113.226 561.314 113.513C561.414 113.929 561.625 114.257 561.947 114.497C562.269 114.731 562.668 114.849 563.142 114.849C563.617 114.849 564.062 114.729 564.478 114.488C564.894 114.242 565.187 113.911 565.357 113.495C565.533 113.073 565.621 112.464 565.621 111.667V106.666H567.203V116H565.788ZM569.313 116V106.666H570.736V108.081C571.1 107.419 571.434 106.982 571.738 106.771C572.049 106.561 572.389 106.455 572.758 106.455C573.291 106.455 573.833 106.625 574.384 106.965L573.839 108.433C573.452 108.204 573.065 108.09 572.679 108.09C572.333 108.09 572.022 108.195 571.747 108.406C571.472 108.611 571.275 108.898 571.158 109.268C570.982 109.83 570.895 110.445 570.895 111.113V116H569.313ZM581.354 112.994L582.989 113.196C582.731 114.151 582.253 114.893 581.556 115.42C580.859 115.947 579.968 116.211 578.884 116.211C577.519 116.211 576.435 115.792 575.632 114.954C574.835 114.11 574.437 112.93 574.437 111.412C574.437 109.842 574.841 108.623 575.65 107.756C576.458 106.889 577.507 106.455 578.796 106.455C580.044 106.455 581.064 106.88 581.855 107.729C582.646 108.579 583.041 109.774 583.041 111.315C583.041 111.409 583.038 111.55 583.033 111.737H576.072C576.13 112.763 576.42 113.548 576.942 114.093C577.463 114.638 578.114 114.91 578.893 114.91C579.473 114.91 579.968 114.758 580.378 114.453C580.788 114.148 581.114 113.662 581.354 112.994ZM576.16 110.437H581.371C581.301 109.651 581.102 109.062 580.774 108.67C580.27 108.061 579.617 107.756 578.814 107.756C578.087 107.756 577.475 107.999 576.977 108.485C576.485 108.972 576.212 109.622 576.16 110.437ZM590.679 116V114.822C590.088 115.748 589.218 116.211 588.069 116.211C587.325 116.211 586.639 116.006 586.012 115.596C585.391 115.186 584.908 114.614 584.562 113.882C584.222 113.144 584.052 112.297 584.052 111.342C584.052 110.41 584.208 109.566 584.518 108.811C584.829 108.049 585.295 107.466 585.916 107.062C586.537 106.657 587.231 106.455 587.999 106.455C588.561 106.455 589.062 106.575 589.502 106.815C589.941 107.05 590.299 107.357 590.574 107.738V103.115H592.147V116H590.679ZM585.678 111.342C585.678 112.537 585.93 113.431 586.434 114.022C586.938 114.614 587.533 114.91 588.219 114.91C588.91 114.91 589.496 114.629 589.976 114.066C590.463 113.498 590.706 112.634 590.706 111.474C590.706 110.196 590.46 109.259 589.968 108.661C589.475 108.063 588.869 107.765 588.148 107.765C587.445 107.765 586.856 108.052 586.382 108.626C585.913 109.2 585.678 110.105 585.678 111.342Z" fill="#282848"/>
<path d="M688.679 95V82.1152H690.384V95H688.679ZM692.836 95V85.666H694.26V86.9932C694.946 85.9678 695.936 85.4551 697.231 85.4551C697.793 85.4551 698.309 85.5576 698.778 85.7627C699.252 85.9619 699.607 86.2256 699.841 86.5537C700.076 86.8818 700.24 87.2715 700.333 87.7227C700.392 88.0156 700.421 88.5283 700.421 89.2607V95H698.839V89.3223C698.839 88.6777 698.778 88.1973 698.655 87.8809C698.532 87.5586 698.312 87.3037 697.995 87.1162C697.685 86.9229 697.319 86.8262 696.897 86.8262C696.223 86.8262 695.64 87.04 695.148 87.4678C694.661 87.8955 694.418 88.707 694.418 89.9023V95H692.836ZM701.863 92.2139L703.427 91.9678C703.515 92.5947 703.759 93.0752 704.157 93.4092C704.561 93.7432 705.124 93.9102 705.844 93.9102C706.571 93.9102 707.11 93.7637 707.462 93.4707C707.813 93.1719 707.989 92.8232 707.989 92.4248C707.989 92.0674 707.834 91.7861 707.523 91.5811C707.306 91.4404 706.767 91.2617 705.906 91.0449C704.746 90.752 703.94 90.5 703.489 90.2891C703.044 90.0723 702.704 89.7764 702.469 89.4014C702.241 89.0205 702.127 88.6016 702.127 88.1445C702.127 87.7285 702.22 87.3447 702.408 86.9932C702.601 86.6357 702.862 86.3398 703.19 86.1055C703.436 85.9238 703.77 85.7715 704.192 85.6484C704.62 85.5195 705.077 85.4551 705.563 85.4551C706.296 85.4551 706.937 85.5605 707.488 85.7715C708.045 85.9824 708.455 86.2695 708.718 86.6328C708.982 86.9902 709.164 87.4707 709.263 88.0742L707.717 88.2852C707.646 87.8047 707.441 87.4297 707.101 87.1602C706.767 86.8906 706.293 86.7559 705.677 86.7559C704.951 86.7559 704.432 86.876 704.122 87.1162C703.811 87.3564 703.656 87.6377 703.656 87.96C703.656 88.165 703.72 88.3496 703.849 88.5137C703.978 88.6836 704.18 88.8242 704.456 88.9355C704.614 88.9941 705.08 89.1289 705.853 89.3398C706.972 89.6387 707.752 89.8848 708.191 90.0781C708.636 90.2656 708.985 90.541 709.237 90.9043C709.489 91.2676 709.615 91.7188 709.615 92.2578C709.615 92.7852 709.46 93.2832 709.149 93.752C708.844 94.2148 708.402 94.5752 707.822 94.833C707.242 95.085 706.586 95.2109 705.853 95.2109C704.64 95.2109 703.715 94.959 703.076 94.4551C702.443 93.9512 702.039 93.2041 701.863 92.2139ZM717.253 95V93.6289C716.526 94.6836 715.539 95.2109 714.291 95.2109C713.74 95.2109 713.225 95.1055 712.744 94.8945C712.27 94.6836 711.915 94.4199 711.681 94.1035C711.452 93.7812 711.291 93.3887 711.197 92.9258C711.133 92.6152 711.101 92.123 711.101 91.4492V85.666H712.683V90.8428C712.683 91.6689 712.715 92.2256 712.779 92.5127C712.879 92.9287 713.09 93.2568 713.412 93.4971C713.734 93.7314 714.133 93.8486 714.608 93.8486C715.082 93.8486 715.527 93.7285 715.943 93.4883C716.359 93.2422 716.652 92.9111 716.822 92.4951C716.998 92.0732 717.086 91.4639 717.086 90.667V85.666H718.668V95H717.253ZM720.778 95V85.666H722.202V87.0811C722.565 86.4189 722.899 85.9824 723.204 85.7715C723.514 85.5605 723.854 85.4551 724.223 85.4551C724.756 85.4551 725.298 85.625 725.849 85.9648L725.304 87.4326C724.917 87.2041 724.531 87.0898 724.144 87.0898C723.798 87.0898 723.488 87.1953 723.212 87.4062C722.937 87.6113 722.741 87.8984 722.623 88.2676C722.448 88.8301 722.36 89.4453 722.36 90.1133V95H720.778ZM732.819 91.9941L734.454 92.1963C734.196 93.1514 733.719 93.8926 733.021 94.4199C732.324 94.9473 731.433 95.2109 730.349 95.2109C728.984 95.2109 727.9 94.792 727.097 93.9541C726.301 93.1104 725.902 91.9297 725.902 90.4121C725.902 88.8418 726.306 87.623 727.115 86.7559C727.924 85.8887 728.972 85.4551 730.262 85.4551C731.51 85.4551 732.529 85.8799 733.32 86.7295C734.111 87.5791 734.507 88.7744 734.507 90.3154C734.507 90.4092 734.504 90.5498 734.498 90.7373H727.537C727.596 91.7627 727.886 92.5479 728.407 93.0928C728.929 93.6377 729.579 93.9102 730.358 93.9102C730.938 93.9102 731.433 93.7578 731.844 93.4531C732.254 93.1484 732.579 92.6621 732.819 91.9941ZM727.625 89.4365H732.837C732.766 88.6514 732.567 88.0625 732.239 87.6699C731.735 87.0605 731.082 86.7559 730.279 86.7559C729.553 86.7559 728.94 86.999 728.442 87.4854C727.95 87.9717 727.678 88.6221 727.625 89.4365ZM742.145 95V93.8223C741.553 94.748 740.683 95.2109 739.534 95.2109C738.79 95.2109 738.105 95.0059 737.478 94.5957C736.857 94.1855 736.373 93.6143 736.028 92.8818C735.688 92.1436 735.518 91.2969 735.518 90.3418C735.518 89.4102 735.673 88.5664 735.984 87.8105C736.294 87.0488 736.76 86.4658 737.381 86.0615C738.002 85.6572 738.696 85.4551 739.464 85.4551C740.027 85.4551 740.528 85.5752 740.967 85.8154C741.406 86.0498 741.764 86.3574 742.039 86.7383V82.1152H743.612V95H742.145ZM737.144 90.3418C737.144 91.5371 737.396 92.4307 737.9 93.0225C738.403 93.6143 738.998 93.9102 739.684 93.9102C740.375 93.9102 740.961 93.6289 741.442 93.0664C741.928 92.498 742.171 91.6338 742.171 90.4736C742.171 89.1963 741.925 88.2588 741.433 87.6611C740.941 87.0635 740.334 86.7646 739.613 86.7646C738.91 86.7646 738.321 87.0518 737.847 87.626C737.378 88.2002 737.144 89.1055 737.144 90.3418ZM750.398 95V85.666H751.813V86.9756C752.106 86.5186 752.496 86.1523 752.982 85.877C753.469 85.5957 754.022 85.4551 754.643 85.4551C755.335 85.4551 755.9 85.5986 756.34 85.8857C756.785 86.1729 757.099 86.5742 757.28 87.0898C758.018 86 758.979 85.4551 760.163 85.4551C761.089 85.4551 761.801 85.7129 762.299 86.2285C762.797 86.7383 763.046 87.5264 763.046 88.5928V95H761.473V89.1201C761.473 88.4873 761.42 88.0332 761.314 87.7578C761.215 87.4766 761.03 87.251 760.761 87.0811C760.491 86.9111 760.175 86.8262 759.811 86.8262C759.155 86.8262 758.61 87.0459 758.177 87.4854C757.743 87.9189 757.526 88.6162 757.526 89.5771V95H755.944V88.9355C755.944 88.2324 755.815 87.7051 755.557 87.3535C755.3 87.002 754.878 86.8262 754.292 86.8262C753.847 86.8262 753.433 86.9434 753.053 87.1777C752.678 87.4121 752.405 87.7549 752.235 88.2061C752.065 88.6572 751.98 89.3076 751.98 90.1572V95H750.398ZM771.123 93.8486C770.537 94.3467 769.972 94.6982 769.427 94.9033C768.888 95.1084 768.308 95.2109 767.687 95.2109C766.661 95.2109 765.873 94.9619 765.323 94.4639C764.772 93.96 764.496 93.3184 764.496 92.5391C764.496 92.082 764.599 91.666 764.804 91.291C765.015 90.9102 765.287 90.6055 765.621 90.377C765.961 90.1484 766.342 89.9756 766.764 89.8584C767.074 89.7764 767.543 89.6973 768.17 89.6211C769.448 89.4688 770.388 89.2871 770.991 89.0762C770.997 88.8594 771 88.7217 771 88.6631C771 88.0186 770.851 87.5645 770.552 87.3008C770.148 86.9434 769.547 86.7646 768.75 86.7646C768.006 86.7646 767.455 86.8965 767.098 87.1602C766.746 87.418 766.486 87.8779 766.316 88.54L764.769 88.3291C764.909 87.667 765.141 87.1338 765.463 86.7295C765.785 86.3193 766.251 86.0059 766.861 85.7891C767.47 85.5664 768.176 85.4551 768.979 85.4551C769.776 85.4551 770.423 85.5488 770.921 85.7363C771.419 85.9238 771.785 86.1611 772.02 86.4482C772.254 86.7295 772.418 87.0869 772.512 87.5205C772.565 87.79 772.591 88.2764 772.591 88.9795V91.0889C772.591 92.5596 772.623 93.4912 772.688 93.8838C772.758 94.2705 772.893 94.6426 773.092 95H771.44C771.276 94.6719 771.17 94.2881 771.123 93.8486ZM770.991 90.3154C770.417 90.5498 769.556 90.749 768.407 90.9131C767.757 91.0068 767.297 91.1123 767.028 91.2295C766.758 91.3467 766.55 91.5195 766.404 91.748C766.257 91.9707 766.184 92.2197 766.184 92.4951C766.184 92.917 766.342 93.2686 766.658 93.5498C766.981 93.8311 767.449 93.9717 768.065 93.9717C768.674 93.9717 769.216 93.8398 769.691 93.5762C770.165 93.3066 770.514 92.9404 770.737 92.4775C770.906 92.1201 770.991 91.5928 770.991 90.8955V90.3154ZM774.701 95V82.1152H776.283V89.4629L780.027 85.666H782.075L778.506 89.1289L782.435 95H780.484L777.399 90.2275L776.283 91.2998V95H774.701ZM789.722 91.9941L791.356 92.1963C791.099 93.1514 790.621 93.8926 789.924 94.4199C789.227 94.9473 788.336 95.2109 787.252 95.2109C785.887 95.2109 784.803 94.792 784 93.9541C783.203 93.1104 782.805 91.9297 782.805 90.4121C782.805 88.8418 783.209 87.623 784.018 86.7559C784.826 85.8887 785.875 85.4551 787.164 85.4551C788.412 85.4551 789.432 85.8799 790.223 86.7295C791.014 87.5791 791.409 88.7744 791.409 90.3154C791.409 90.4092 791.406 90.5498 791.4 90.7373H784.439C784.498 91.7627 784.788 92.5479 785.31 93.0928C785.831 93.6377 786.481 93.9102 787.261 93.9102C787.841 93.9102 788.336 93.7578 788.746 93.4531C789.156 93.1484 789.481 92.6621 789.722 91.9941ZM784.527 89.4365H789.739C789.669 88.6514 789.47 88.0625 789.142 87.6699C788.638 87.0605 787.984 86.7559 787.182 86.7559C786.455 86.7559 785.843 86.999 785.345 87.4854C784.853 87.9717 784.58 88.6221 784.527 89.4365ZM792.359 92.2139L793.923 91.9678C794.011 92.5947 794.254 93.0752 794.653 93.4092C795.057 93.7432 795.619 93.9102 796.34 93.9102C797.067 93.9102 797.606 93.7637 797.957 93.4707C798.309 93.1719 798.485 92.8232 798.485 92.4248C798.485 92.0674 798.329 91.7861 798.019 91.5811C797.802 91.4404 797.263 91.2617 796.402 91.0449C795.242 90.752 794.436 90.5 793.985 90.2891C793.539 90.0723 793.2 89.7764 792.965 89.4014C792.737 89.0205 792.622 88.6016 792.622 88.1445C792.622 87.7285 792.716 87.3447 792.904 86.9932C793.097 86.6357 793.358 86.3398 793.686 86.1055C793.932 85.9238 794.266 85.7715 794.688 85.6484C795.116 85.5195 795.573 85.4551 796.059 85.4551C796.791 85.4551 797.433 85.5605 797.984 85.7715C798.54 85.9824 798.951 86.2695 799.214 86.6328C799.478 86.9902 799.659 87.4707 799.759 88.0742L798.212 88.2852C798.142 87.8047 797.937 87.4297 797.597 87.1602C797.263 86.8906 796.788 86.7559 796.173 86.7559C795.447 86.7559 794.928 86.876 794.618 87.1162C794.307 87.3564 794.152 87.6377 794.152 87.96C794.152 88.165 794.216 88.3496 794.345 88.5137C794.474 88.6836 794.676 88.8242 794.951 88.9355C795.11 88.9941 795.576 89.1289 796.349 89.3398C797.468 89.6387 798.247 89.8848 798.687 90.0781C799.132 90.2656 799.481 90.541 799.733 90.9043C799.985 91.2676 800.111 91.7188 800.111 92.2578C800.111 92.7852 799.955 93.2832 799.645 93.752C799.34 94.2148 798.898 94.5752 798.318 94.833C797.738 95.085 797.081 95.2109 796.349 95.2109C795.136 95.2109 794.21 94.959 793.572 94.4551C792.939 93.9512 792.534 93.2041 792.359 92.2139ZM694.277 114.849C693.691 115.347 693.126 115.698 692.581 115.903C692.042 116.108 691.462 116.211 690.841 116.211C689.815 116.211 689.027 115.962 688.477 115.464C687.926 114.96 687.65 114.318 687.65 113.539C687.65 113.082 687.753 112.666 687.958 112.291C688.169 111.91 688.441 111.605 688.775 111.377C689.115 111.148 689.496 110.976 689.918 110.858C690.229 110.776 690.697 110.697 691.324 110.621C692.602 110.469 693.542 110.287 694.146 110.076C694.151 109.859 694.154 109.722 694.154 109.663C694.154 109.019 694.005 108.564 693.706 108.301C693.302 107.943 692.701 107.765 691.904 107.765C691.16 107.765 690.609 107.896 690.252 108.16C689.9 108.418 689.64 108.878 689.47 109.54L687.923 109.329C688.063 108.667 688.295 108.134 688.617 107.729C688.939 107.319 689.405 107.006 690.015 106.789C690.624 106.566 691.33 106.455 692.133 106.455C692.93 106.455 693.577 106.549 694.075 106.736C694.573 106.924 694.939 107.161 695.174 107.448C695.408 107.729 695.572 108.087 695.666 108.521C695.719 108.79 695.745 109.276 695.745 109.979V112.089C695.745 113.56 695.777 114.491 695.842 114.884C695.912 115.271 696.047 115.643 696.246 116H694.594C694.43 115.672 694.324 115.288 694.277 114.849ZM694.146 111.315C693.571 111.55 692.71 111.749 691.562 111.913C690.911 112.007 690.451 112.112 690.182 112.229C689.912 112.347 689.704 112.52 689.558 112.748C689.411 112.971 689.338 113.22 689.338 113.495C689.338 113.917 689.496 114.269 689.812 114.55C690.135 114.831 690.604 114.972 691.219 114.972C691.828 114.972 692.37 114.84 692.845 114.576C693.319 114.307 693.668 113.94 693.891 113.478C694.061 113.12 694.146 112.593 694.146 111.896V111.315ZM708.551 116V114.822C707.96 115.748 707.09 116.211 705.941 116.211C705.197 116.211 704.511 116.006 703.884 115.596C703.263 115.186 702.78 114.614 702.434 113.882C702.094 113.144 701.925 112.297 701.925 111.342C701.925 110.41 702.08 109.566 702.39 108.811C702.701 108.049 703.167 107.466 703.788 107.062C704.409 106.657 705.103 106.455 705.871 106.455C706.433 106.455 706.934 106.575 707.374 106.815C707.813 107.05 708.171 107.357 708.446 107.738V103.115H710.019V116H708.551ZM703.551 111.342C703.551 112.537 703.802 113.431 704.306 114.022C704.81 114.614 705.405 114.91 706.091 114.91C706.782 114.91 707.368 114.629 707.848 114.066C708.335 113.498 708.578 112.634 708.578 111.474C708.578 110.196 708.332 109.259 707.84 108.661C707.347 108.063 706.741 107.765 706.02 107.765C705.317 107.765 704.728 108.052 704.254 108.626C703.785 109.2 703.551 110.105 703.551 111.342ZM718.545 112.994L720.18 113.196C719.922 114.151 719.444 114.893 718.747 115.42C718.05 115.947 717.159 116.211 716.075 116.211C714.71 116.211 713.626 115.792 712.823 114.954C712.026 114.11 711.628 112.93 711.628 111.412C711.628 109.842 712.032 108.623 712.841 107.756C713.649 106.889 714.698 106.455 715.987 106.455C717.235 106.455 718.255 106.88 719.046 107.729C719.837 108.579 720.233 109.774 720.233 111.315C720.233 111.409 720.23 111.55 720.224 111.737H713.263C713.321 112.763 713.611 113.548 714.133 114.093C714.654 114.638 715.305 114.91 716.084 114.91C716.664 114.91 717.159 114.758 717.569 114.453C717.98 114.148 718.305 113.662 718.545 112.994ZM713.351 110.437H718.563C718.492 109.651 718.293 109.062 717.965 108.67C717.461 108.061 716.808 107.756 716.005 107.756C715.278 107.756 714.666 107.999 714.168 108.485C713.676 108.972 713.403 109.622 713.351 110.437ZM721.182 113.214L722.747 112.968C722.834 113.595 723.078 114.075 723.476 114.409C723.88 114.743 724.443 114.91 725.164 114.91C725.89 114.91 726.429 114.764 726.781 114.471C727.132 114.172 727.308 113.823 727.308 113.425C727.308 113.067 727.153 112.786 726.842 112.581C726.625 112.44 726.086 112.262 725.225 112.045C724.065 111.752 723.259 111.5 722.808 111.289C722.363 111.072 722.023 110.776 721.789 110.401C721.56 110.021 721.446 109.602 721.446 109.145C721.446 108.729 721.539 108.345 721.727 107.993C721.92 107.636 722.181 107.34 722.509 107.105C722.755 106.924 723.089 106.771 723.511 106.648C723.939 106.52 724.396 106.455 724.882 106.455C725.615 106.455 726.256 106.561 726.807 106.771C727.364 106.982 727.774 107.27 728.038 107.633C728.301 107.99 728.483 108.471 728.582 109.074L727.036 109.285C726.965 108.805 726.76 108.43 726.42 108.16C726.086 107.891 725.612 107.756 724.997 107.756C724.27 107.756 723.751 107.876 723.441 108.116C723.13 108.356 722.975 108.638 722.975 108.96C722.975 109.165 723.039 109.35 723.168 109.514C723.297 109.684 723.499 109.824 723.775 109.936C723.933 109.994 724.399 110.129 725.172 110.34C726.291 110.639 727.071 110.885 727.51 111.078C727.956 111.266 728.304 111.541 728.556 111.904C728.808 112.268 728.934 112.719 728.934 113.258C728.934 113.785 728.779 114.283 728.468 114.752C728.164 115.215 727.721 115.575 727.141 115.833C726.561 116.085 725.905 116.211 725.172 116.211C723.959 116.211 723.034 115.959 722.395 115.455C721.762 114.951 721.358 114.204 721.182 113.214ZM730.464 104.935V103.115H732.046V104.935H730.464ZM730.464 116V106.666H732.046V116H730.464ZM740.194 112.581L741.749 112.783C741.579 113.855 741.143 114.696 740.44 115.306C739.742 115.909 738.884 116.211 737.864 116.211C736.587 116.211 735.559 115.795 734.779 114.963C734.006 114.125 733.619 112.927 733.619 111.368C733.619 110.36 733.786 109.479 734.12 108.723C734.454 107.967 734.961 107.401 735.641 107.026C736.326 106.646 737.07 106.455 737.873 106.455C738.887 106.455 739.716 106.713 740.361 107.229C741.005 107.738 741.418 108.465 741.6 109.408L740.062 109.646C739.915 109.019 739.654 108.547 739.279 108.23C738.91 107.914 738.462 107.756 737.935 107.756C737.138 107.756 736.49 108.043 735.992 108.617C735.494 109.186 735.245 110.088 735.245 111.324C735.245 112.578 735.486 113.489 735.966 114.058C736.446 114.626 737.073 114.91 737.847 114.91C738.468 114.91 738.986 114.72 739.403 114.339C739.819 113.958 740.082 113.372 740.194 112.581ZM742.751 104.935V103.115H744.334V104.935H742.751ZM742.751 116V106.666H744.334V116H742.751ZM745.802 111.333C745.802 109.604 746.282 108.324 747.243 107.492C748.046 106.801 749.024 106.455 750.179 106.455C751.462 106.455 752.511 106.877 753.325 107.721C754.14 108.559 754.547 109.719 754.547 111.201C754.547 112.402 754.365 113.349 754.002 114.04C753.644 114.726 753.12 115.259 752.429 115.64C751.743 116.021 750.993 116.211 750.179 116.211C748.872 116.211 747.814 115.792 747.006 114.954C746.203 114.116 745.802 112.909 745.802 111.333ZM747.428 111.333C747.428 112.528 747.688 113.425 748.21 114.022C748.731 114.614 749.388 114.91 750.179 114.91C750.964 114.91 751.617 114.611 752.139 114.014C752.66 113.416 752.921 112.505 752.921 111.28C752.921 110.126 752.657 109.253 752.13 108.661C751.608 108.063 750.958 107.765 750.179 107.765C749.388 107.765 748.731 108.061 748.21 108.652C747.688 109.244 747.428 110.138 747.428 111.333ZM756.05 116V106.666H757.474V107.993C758.159 106.968 759.15 106.455 760.445 106.455C761.007 106.455 761.523 106.558 761.991 106.763C762.466 106.962 762.821 107.226 763.055 107.554C763.289 107.882 763.453 108.271 763.547 108.723C763.606 109.016 763.635 109.528 763.635 110.261V116H762.053V110.322C762.053 109.678 761.991 109.197 761.868 108.881C761.745 108.559 761.526 108.304 761.209 108.116C760.899 107.923 760.532 107.826 760.111 107.826C759.437 107.826 758.854 108.04 758.362 108.468C757.875 108.896 757.632 109.707 757.632 110.902V116H756.05Z" fill="#282848"/>
<line x1="1" y1="57.5" x2="454" y2="57.5" stroke="#282848"/>
<line x1="476" y1="57.5" x2="693" y2="57.5" stroke="#282848"/>
<circle cx="4.5" cy="57.5" r="3" fill="#282848" stroke="#282848"/>
<circle cx="242.5" cy="57.5" r="3" fill="#282848" stroke="#282848"/>
<path d="M693.481 57.5C693.481 59.1581 692.141 60.5 690.49 60.5C688.84 60.5 687.5 59.1581 687.5 57.5C687.5 55.8419 688.84 54.5 690.49 54.5C692.141 54.5 693.481 55.8419 693.481 57.5Z" fill="#282848" stroke="#282848"/>
<circle cx="464.5" cy="57.5" r="3" fill="#282848" stroke="#282848"/>
<circle cx="464.5" cy="57.5" r="7" stroke="#282848"/>
<circle cx="464.5" cy="57.5" r="11" stroke="#282848"/>
<path d="M465.327 21.4545H463.764V33.1307L459.261 28.6278L458.182 29.7216L464.545 36.0852L470.923 29.7216L469.815 28.6278L465.327 33.1307V21.4545ZM480.167 39.9746V25.6289H481.768V26.9766C482.146 26.4492 482.572 26.0553 483.048 25.7949C483.523 25.528 484.099 25.3945 484.776 25.3945C485.662 25.3945 486.443 25.6224 487.12 26.0781C487.797 26.5339 488.308 27.1784 488.653 28.0117C488.998 28.8385 489.171 29.7467 489.171 30.7363C489.171 31.7975 488.979 32.7546 488.595 33.6074C488.217 34.4538 487.664 35.1048 486.934 35.5605C486.212 36.0098 485.45 36.2344 484.649 36.2344C484.063 36.2344 483.536 36.1107 483.067 35.8633C482.605 35.6159 482.224 35.3034 481.925 34.9258V39.9746H480.167ZM481.759 30.873C481.759 32.2077 482.029 33.194 482.569 33.832C483.11 34.4701 483.764 34.7891 484.532 34.7891C485.313 34.7891 485.981 34.4603 486.534 33.8027C487.094 33.1387 487.374 32.1133 487.374 30.7266C487.374 29.4049 487.1 28.4154 486.554 27.7578C486.013 27.1003 485.365 26.7715 484.61 26.7715C483.861 26.7715 483.197 27.123 482.618 27.8262C482.045 28.5228 481.759 29.5384 481.759 30.873ZM497.667 34.7207C497.016 35.2741 496.388 35.6647 495.782 35.8926C495.183 36.1204 494.539 36.2344 493.849 36.2344C492.71 36.2344 491.834 35.9577 491.222 35.4043C490.61 34.8444 490.304 34.1315 490.304 33.2656C490.304 32.7578 490.418 32.2956 490.646 31.8789C490.88 31.4557 491.183 31.1172 491.554 30.8633C491.932 30.6094 492.355 30.4173 492.823 30.2871C493.168 30.196 493.689 30.1081 494.386 30.0234C495.805 29.8542 496.85 29.6523 497.521 29.418C497.527 29.1771 497.53 29.0241 497.53 28.959C497.53 28.2428 497.364 27.7383 497.032 27.4453C496.583 27.0482 495.916 26.8496 495.03 26.8496C494.204 26.8496 493.592 26.9961 493.195 27.2891C492.804 27.5755 492.514 28.0866 492.325 28.8223L490.607 28.5879C490.763 27.8522 491.02 27.2598 491.378 26.8105C491.736 26.3548 492.254 26.0065 492.931 25.7656C493.608 25.5182 494.392 25.3945 495.284 25.3945C496.17 25.3945 496.889 25.4987 497.443 25.707C497.996 25.9154 498.403 26.179 498.663 26.498C498.924 26.8105 499.106 27.2077 499.21 27.6895C499.269 27.9889 499.298 28.5293 499.298 29.3105V31.6543C499.298 33.2884 499.334 34.3236 499.405 34.7598C499.484 35.1895 499.633 35.6029 499.855 36H498.019C497.836 35.6354 497.719 35.209 497.667 34.7207ZM497.521 30.7949C496.883 31.0553 495.926 31.2767 494.65 31.459C493.927 31.5632 493.416 31.6803 493.116 31.8105C492.817 31.9408 492.586 32.1328 492.423 32.3867C492.26 32.6341 492.179 32.9108 492.179 33.2168C492.179 33.6855 492.355 34.0762 492.706 34.3887C493.064 34.7012 493.585 34.8574 494.269 34.8574C494.946 34.8574 495.548 34.7109 496.075 34.418C496.603 34.1185 496.99 33.7116 497.237 33.1973C497.426 32.8001 497.521 32.2142 497.521 31.4395V30.7949ZM501.642 23.7051V21.6836H503.4V23.7051H501.642ZM501.642 36V25.6289H503.4V36H501.642ZM505.686 36V25.6289H507.268V27.1035C508.029 25.9642 509.13 25.3945 510.568 25.3945C511.193 25.3945 511.766 25.5085 512.287 25.7363C512.814 25.9577 513.208 26.2507 513.469 26.6152C513.729 26.9798 513.911 27.4128 514.016 27.9141C514.081 28.2396 514.113 28.8092 514.113 29.623V36H512.355V29.6914C512.355 28.9753 512.287 28.4414 512.15 28.0898C512.014 27.7318 511.77 27.4486 511.418 27.2402C511.073 27.0254 510.666 26.918 510.197 26.918C509.449 26.918 508.801 27.1556 508.254 27.6309C507.714 28.1061 507.443 29.0078 507.443 30.3359V36H505.686ZM521.585 39.9746V25.6289H523.186V26.9766C523.564 26.4492 523.99 26.0553 524.466 25.7949C524.941 25.528 525.517 25.3945 526.194 25.3945C527.08 25.3945 527.861 25.6224 528.538 26.0781C529.215 26.5339 529.726 27.1784 530.071 28.0117C530.416 28.8385 530.589 29.7467 530.589 30.7363C530.589 31.7975 530.397 32.7546 530.012 33.6074C529.635 34.4538 529.082 35.1048 528.352 35.5605C527.63 36.0098 526.868 36.2344 526.067 36.2344C525.481 36.2344 524.954 36.1107 524.485 35.8633C524.023 35.6159 523.642 35.3034 523.343 34.9258V39.9746H521.585ZM523.177 30.873C523.177 32.2077 523.447 33.194 523.987 33.832C524.527 34.4701 525.182 34.7891 525.95 34.7891C526.731 34.7891 527.399 34.4603 527.952 33.8027C528.512 33.1387 528.792 32.1133 528.792 30.7266C528.792 29.4049 528.518 28.4154 527.971 27.7578C527.431 27.1003 526.783 26.7715 526.028 26.7715C525.279 26.7715 524.615 27.123 524.036 27.8262C523.463 28.5228 523.177 29.5384 523.177 30.873ZM531.663 30.8145C531.663 28.8939 532.197 27.4714 533.265 26.5469C534.157 25.7786 535.244 25.3945 536.527 25.3945C537.952 25.3945 539.118 25.8633 540.023 26.8008C540.928 27.7318 541.38 29.0208 541.38 30.668C541.38 32.0026 541.178 33.054 540.775 33.8223C540.377 34.584 539.795 35.1764 539.027 35.5996C538.265 36.0228 537.432 36.2344 536.527 36.2344C535.075 36.2344 533.9 35.7689 533.001 34.8379C532.109 33.9069 531.663 32.5658 531.663 30.8145ZM533.47 30.8145C533.47 32.1426 533.76 33.1387 534.339 33.8027C534.918 34.4603 535.648 34.7891 536.527 34.7891C537.399 34.7891 538.125 34.457 538.704 33.793C539.284 33.1289 539.573 32.1165 539.573 30.7559C539.573 29.4733 539.28 28.5033 538.695 27.8457C538.115 27.1816 537.392 26.8496 536.527 26.8496C535.648 26.8496 534.918 27.1784 534.339 27.8359C533.76 28.4935 533.47 29.4863 533.47 30.8145ZM543.06 23.7051V21.6836H544.818V23.7051H543.06ZM543.06 36V25.6289H544.818V36H543.06ZM547.104 36V25.6289H548.686V27.1035C549.447 25.9642 550.548 25.3945 551.986 25.3945C552.611 25.3945 553.184 25.5085 553.705 25.7363C554.232 25.9577 554.626 26.2507 554.887 26.6152C555.147 26.9798 555.329 27.4128 555.434 27.9141C555.499 28.2396 555.531 28.8092 555.531 29.623V36H553.773V29.6914C553.773 28.9753 553.705 28.4414 553.568 28.0898C553.432 27.7318 553.188 27.4486 552.836 27.2402C552.491 27.0254 552.084 26.918 551.615 26.918C550.867 26.918 550.219 27.1556 549.672 27.6309C549.132 28.1061 548.861 29.0078 548.861 30.3359V36H547.104ZM561.674 34.4277L561.928 35.9805C561.433 36.0846 560.991 36.1367 560.6 36.1367C559.962 36.1367 559.467 36.0358 559.116 35.834C558.764 35.6322 558.517 35.3685 558.373 35.043C558.23 34.7109 558.159 34.0176 558.159 32.9629V26.9961H556.87V25.6289H558.159V23.0605L559.907 22.0059V25.6289H561.674V26.9961H559.907V33.0605C559.907 33.5618 559.936 33.8841 559.995 34.0273C560.06 34.1706 560.161 34.2845 560.297 34.3691C560.44 34.4538 560.642 34.4961 560.903 34.4961C561.098 34.4961 561.355 34.4733 561.674 34.4277Z" fill="#282848"/>
</svg>
