<svg width="800" height="180" viewBox="0 0 800 180" fill="none" xmlns="http://www.w3.org/2000/svg">
<path d="M20.1893 0C9.03905 0 0 8.95431 0 20V129C0 140.046 9.03903 149 20.1893 149H788.158C792.58 149 794.825 143.682 791.741 140.513L771.849 120.071C768.216 116.337 766.183 111.333 766.183 106.123V20C766.183 8.95431 757.144 0 745.994 0H20.1893Z" fill="#DFECFF"/>
<path d="M107.301 65H113.608C117.733 65 119.438 62.9886 119.438 60.3636C119.438 57.6023 117.528 56.1023 115.926 56V55.8295C117.426 55.4205 118.756 54.4318 118.756 52.1818C118.756 49.625 117.051 47.5455 113.403 47.5455H107.301V65ZM109.415 63.125V57.0568H113.71C115.994 57.0568 117.426 58.5909 117.426 60.3636C117.426 61.8977 116.369 63.125 113.608 63.125H109.415ZM109.415 55.2159V49.4205H113.403C115.722 49.4205 116.744 50.6477 116.744 52.1818C116.744 54.0227 115.244 55.2159 113.335 55.2159H109.415ZM128.126 65.2727C130.786 65.2727 132.729 63.9432 133.342 61.9659L131.399 61.4205C130.888 62.7841 129.703 63.4659 128.126 63.4659C125.766 63.4659 124.138 61.9403 124.044 59.1364H133.547V58.2841C133.547 53.4091 130.649 51.7386 127.922 51.7386C124.376 51.7386 122.024 54.5341 122.024 58.5568C122.024 62.5795 124.342 65.2727 128.126 65.2727ZM124.044 57.3977C124.18 55.3608 125.621 53.5455 127.922 53.5455C130.104 53.5455 131.501 55.1818 131.501 57.3977H124.044ZM141.925 65.2727C144.822 65.2727 146.732 63.5 147.072 61.1818H145.061C144.686 62.6136 143.493 63.4659 141.925 63.4659C139.538 63.4659 138.004 61.4886 138.004 58.4545C138.004 55.4886 139.572 53.5455 141.925 53.5455C143.697 53.5455 144.754 54.6364 145.061 55.8295H147.072C146.732 53.375 144.652 51.7386 141.891 51.7386C138.345 51.7386 135.993 54.5341 135.993 58.5227C135.993 62.4432 138.243 65.2727 141.925 65.2727ZM153.865 65.3068C156.149 65.3068 157.342 64.0795 157.751 63.2273H157.854V65H159.865V56.375C159.865 52.2159 156.695 51.7386 155.024 51.7386C153.047 51.7386 150.797 52.4205 149.774 54.8068L151.683 55.4886C152.126 54.5341 153.175 53.5114 155.092 53.5114C156.942 53.5114 157.854 54.4915 157.854 56.1705V56.2386C157.854 57.2102 156.865 57.125 154.479 57.4318C152.05 57.7472 149.399 58.2841 149.399 61.2841C149.399 63.8409 151.376 65.3068 153.865 65.3068ZM154.172 63.5C152.57 63.5 151.411 62.7841 151.411 61.3864C151.411 59.8523 152.808 59.375 154.376 59.1705C155.229 59.0682 157.513 58.8295 157.854 58.4205V60.2614C157.854 61.8977 156.558 63.5 154.172 63.5ZM171.786 59.6477C171.786 62.1023 169.911 63.2273 168.411 63.2273C166.741 63.2273 165.548 62 165.548 60.0909V51.9091H163.536V60.2273C163.536 63.5682 165.309 65.1705 167.763 65.1705C169.741 65.1705 171.036 64.1136 171.65 62.7841H171.786V65H173.798V51.9091H171.786V59.6477ZM186.754 54.8409C186.124 52.983 184.709 51.7386 182.118 51.7386C179.357 51.7386 177.311 53.3068 177.311 55.5227C177.311 57.3295 178.385 58.5398 180.788 59.1023L182.97 59.6136C184.291 59.9205 184.913 60.5511 184.913 61.4545C184.913 62.5795 183.72 63.5 181.845 63.5C180.2 63.5 179.169 62.7926 178.811 61.3864L176.902 61.8636C177.371 64.0881 179.203 65.2727 181.879 65.2727C184.922 65.2727 186.993 63.6108 186.993 61.3523C186.993 59.5284 185.851 58.3778 183.516 57.8068L181.572 57.3295C180.021 56.946 179.322 56.4261 179.322 55.4205C179.322 54.2955 180.516 53.4773 182.118 53.4773C183.874 53.4773 184.598 54.4489 184.947 55.3523L186.754 54.8409ZM195.509 65.2727C198.168 65.2727 200.112 63.9432 200.725 61.9659L198.782 61.4205C198.271 62.7841 197.086 63.4659 195.509 63.4659C193.148 63.4659 191.521 61.9403 191.427 59.1364H200.93V58.2841C200.93 53.4091 198.032 51.7386 195.305 51.7386C191.759 51.7386 189.407 54.5341 189.407 58.5568C189.407 62.5795 191.725 65.2727 195.509 65.2727ZM191.427 57.3977C191.563 55.3608 193.004 53.5455 195.305 53.5455C197.487 53.5455 198.884 55.1818 198.884 57.3977H191.427ZM220.012 54.8409C219.381 52.983 217.967 51.7386 215.376 51.7386C212.614 51.7386 210.569 53.3068 210.569 55.5227C210.569 57.3295 211.643 58.5398 214.046 59.1023L216.228 59.6136C217.549 59.9205 218.171 60.5511 218.171 61.4545C218.171 62.5795 216.978 63.5 215.103 63.5C213.458 63.5 212.427 62.7926 212.069 61.3864L210.16 61.8636C210.629 64.0881 212.461 65.2727 215.137 65.2727C218.18 65.2727 220.251 63.6108 220.251 61.3523C220.251 59.5284 219.109 58.3778 216.773 57.8068L214.83 57.3295C213.279 56.946 212.58 56.4261 212.58 55.4205C212.58 54.2955 213.773 53.4773 215.376 53.4773C217.131 53.4773 217.856 54.4489 218.205 55.3523L220.012 54.8409ZM228.597 65.2727C232.142 65.2727 234.528 62.5795 234.528 58.5227C234.528 54.4318 232.142 51.7386 228.597 51.7386C225.051 51.7386 222.665 54.4318 222.665 58.5227C222.665 62.5795 225.051 65.2727 228.597 65.2727ZM228.597 63.4659C225.903 63.4659 224.676 61.1477 224.676 58.5227C224.676 55.8977 225.903 53.5455 228.597 53.5455C231.29 53.5455 232.517 55.8977 232.517 58.5227C232.517 61.1477 231.29 63.4659 228.597 63.4659ZM237.599 65H239.61V56.8182C239.61 54.9006 241.008 53.5455 242.576 53.5455C244.102 53.5455 245.167 54.5426 245.167 56.0341V65H247.212V56.4773C247.212 54.7898 248.269 53.5455 250.11 53.5455C251.542 53.5455 252.769 54.304 252.769 56.2386V65H254.781V56.2386C254.781 53.1619 253.127 51.7386 250.792 51.7386C248.917 51.7386 247.545 52.5994 246.871 53.9545H246.735C246.087 52.5568 244.945 51.7386 243.224 51.7386C241.519 51.7386 240.258 52.5568 239.712 53.9545H239.542V51.9091H237.599V65ZM263.947 65.2727C266.606 65.2727 268.549 63.9432 269.163 61.9659L267.219 61.4205C266.708 62.7841 265.523 63.4659 263.947 63.4659C261.586 63.4659 259.958 61.9403 259.864 59.1364H269.367V58.2841C269.367 53.4091 266.469 51.7386 263.742 51.7386C260.197 51.7386 257.844 54.5341 257.844 58.5568C257.844 62.5795 260.163 65.2727 263.947 65.2727ZM259.864 57.3977C260.001 55.3608 261.441 53.5455 263.742 53.5455C265.924 53.5455 267.322 55.1818 267.322 57.3977H259.864ZM278.12 51.9091H275.325V48.7727H273.313V51.9091H271.336V53.6136H273.313V61.7955C273.313 64.0795 275.154 65.1705 276.859 65.1705C277.609 65.1705 278.086 65.0341 278.359 64.9318L277.95 63.125C277.779 63.1591 277.506 63.2273 277.063 63.2273C276.177 63.2273 275.325 62.9545 275.325 61.25V53.6136H278.12V51.9091ZM281.146 65H283.157V51.9091H281.146V65ZM282.168 49.7273C282.952 49.7273 283.6 49.1136 283.6 48.3636C283.6 47.6136 282.952 47 282.168 47C281.384 47 280.737 47.6136 280.737 48.3636C280.737 49.1136 281.384 49.7273 282.168 49.7273ZM286.841 65H288.852V56.8182C288.852 54.9006 290.25 53.5455 291.818 53.5455C293.344 53.5455 294.409 54.5426 294.409 56.0341V65H296.455V56.4773C296.455 54.7898 297.511 53.5455 299.352 53.5455C300.784 53.5455 302.011 54.304 302.011 56.2386V65H304.023V56.2386C304.023 53.1619 302.369 51.7386 300.034 51.7386C298.159 51.7386 296.787 52.5994 296.114 53.9545H295.977C295.33 52.5568 294.188 51.7386 292.466 51.7386C290.761 51.7386 289.5 52.5568 288.955 53.9545H288.784V51.9091H286.841V65ZM313.189 65.2727C315.848 65.2727 317.791 63.9432 318.405 61.9659L316.462 61.4205C315.95 62.7841 314.766 63.4659 313.189 63.4659C310.828 63.4659 309.2 61.9403 309.107 59.1364H318.609V58.2841C318.609 53.4091 315.712 51.7386 312.984 51.7386C309.439 51.7386 307.087 54.5341 307.087 58.5568C307.087 62.5795 309.405 65.2727 313.189 65.2727ZM309.107 57.3977C309.243 55.3608 310.683 53.5455 312.984 53.5455C315.166 53.5455 316.564 55.1818 316.564 57.3977H309.107ZM330.942 54.8409C330.311 52.983 328.896 51.7386 326.305 51.7386C323.544 51.7386 321.499 53.3068 321.499 55.5227C321.499 57.3295 322.572 58.5398 324.976 59.1023L327.158 59.6136C328.479 59.9205 329.101 60.5511 329.101 61.4545C329.101 62.5795 327.908 63.5 326.033 63.5C324.388 63.5 323.357 62.7926 322.999 61.3864L321.089 61.8636C321.558 64.0881 323.391 65.2727 326.067 65.2727C329.109 65.2727 331.18 63.6108 331.18 61.3523C331.18 59.5284 330.038 58.3778 327.703 57.8068L325.76 57.3295C324.209 56.946 323.51 56.4261 323.51 55.4205C323.51 54.2955 324.703 53.4773 326.305 53.4773C328.061 53.4773 328.786 54.4489 329.135 55.3523L330.942 54.8409ZM340.958 65H342.969V51.9091H340.958V65ZM341.981 49.7273C342.765 49.7273 343.413 49.1136 343.413 48.3636C343.413 47.6136 342.765 47 341.981 47C341.197 47 340.549 47.6136 340.549 48.3636C340.549 49.1136 341.197 49.7273 341.981 49.7273ZM352.347 51.9091H349.551V48.7727H347.54V51.9091H345.562V53.6136H347.54V61.7955C347.54 64.0795 349.381 65.1705 351.085 65.1705C351.835 65.1705 352.312 65.0341 352.585 64.9318L352.176 63.125C352.006 63.1591 351.733 63.2273 351.29 63.2273C350.403 63.2273 349.551 62.9545 349.551 61.25V53.6136H352.347V51.9091ZM362.122 65H364.134V51.9091H362.122V65ZM363.145 49.7273C363.929 49.7273 364.577 49.1136 364.577 48.3636C364.577 47.6136 363.929 47 363.145 47C362.361 47 361.713 47.6136 361.713 48.3636C361.713 49.1136 362.361 49.7273 363.145 49.7273ZM377.09 54.8409C376.46 52.983 375.045 51.7386 372.454 51.7386C369.692 51.7386 367.647 53.3068 367.647 55.5227C367.647 57.3295 368.721 58.5398 371.124 59.1023L373.306 59.6136C374.627 59.9205 375.249 60.5511 375.249 61.4545C375.249 62.5795 374.056 63.5 372.181 63.5C370.536 63.5 369.505 62.7926 369.147 61.3864L367.238 61.8636C367.707 64.0881 369.539 65.2727 372.215 65.2727C375.258 65.2727 377.329 63.6108 377.329 61.3523C377.329 59.5284 376.187 58.3778 373.852 57.8068L371.908 57.3295C370.357 56.946 369.658 56.4261 369.658 55.4205C369.658 54.2955 370.852 53.4773 372.454 53.4773C374.21 53.4773 374.934 54.4489 375.283 55.3523L377.09 54.8409ZM382.368 57.125C382.368 54.8409 383.783 53.5455 385.709 53.5455C387.575 53.5455 388.709 54.7642 388.709 56.8182V65H390.72V56.6818C390.72 53.3409 388.939 51.7386 386.288 51.7386C384.311 51.7386 383.084 52.625 382.47 53.9545H382.3V51.9091H380.357V65H382.368V57.125ZM396.168 47.5455H394.259V49.1136C394.259 50.375 393.646 51.4659 392.93 52.4886L394.021 53.375C395.384 52.2841 396.168 50.4773 396.168 49.0795V47.5455ZM404.87 51.9091H402.075V48.7727H400.063V51.9091H398.086V53.6136H400.063V61.7955C400.063 64.0795 401.904 65.1705 403.609 65.1705C404.359 65.1705 404.836 65.0341 405.109 64.9318L404.7 63.125C404.529 63.1591 404.256 63.2273 403.813 63.2273C402.927 63.2273 402.075 62.9545 402.075 61.25V53.6136H404.87V51.9091ZM418.498 65.3068C420.782 65.3068 421.975 64.0795 422.384 63.2273H422.487V65H424.498V56.375C424.498 52.2159 421.327 51.7386 419.657 51.7386C417.68 51.7386 415.43 52.4205 414.407 54.8068L416.316 55.4886C416.759 54.5341 417.808 53.5114 419.725 53.5114C421.575 53.5114 422.487 54.4915 422.487 56.1705V56.2386C422.487 57.2102 421.498 57.125 419.112 57.4318C416.683 57.7472 414.032 58.2841 414.032 61.2841C414.032 63.8409 416.009 65.3068 418.498 65.3068ZM418.805 63.5C417.202 63.5 416.043 62.7841 416.043 61.3864C416.043 59.8523 417.441 59.375 419.009 59.1705C419.862 59.0682 422.146 58.8295 422.487 58.4205V60.2614C422.487 61.8977 421.191 63.5 418.805 63.5ZM428.442 65H430.385V62.9886H430.624C431.067 63.7045 431.919 65.2727 434.442 65.2727C437.714 65.2727 439.999 62.6477 439.999 58.4886C439.999 54.3636 437.714 51.7386 434.408 51.7386C431.851 51.7386 431.067 53.3068 430.624 53.9886H430.453V47.5455H428.442V65ZM430.419 58.4545C430.419 55.5227 431.714 53.5455 434.169 53.5455C436.726 53.5455 437.987 55.6932 437.987 58.4545C437.987 61.25 436.692 63.4659 434.169 63.4659C431.749 63.4659 430.419 61.4205 430.419 58.4545ZM448.393 65.2727C451.939 65.2727 454.325 62.5795 454.325 58.5227C454.325 54.4318 451.939 51.7386 448.393 51.7386C444.848 51.7386 442.462 54.4318 442.462 58.5227C442.462 62.5795 444.848 65.2727 448.393 65.2727ZM448.393 63.4659C445.7 63.4659 444.473 61.1477 444.473 58.5227C444.473 55.8977 445.7 53.5455 448.393 53.5455C451.087 53.5455 452.314 55.8977 452.314 58.5227C452.314 61.1477 451.087 63.4659 448.393 63.4659ZM465.646 59.6477C465.646 62.1023 463.771 63.2273 462.271 63.2273C460.6 63.2273 459.407 62 459.407 60.0909V51.9091H457.396V60.2273C457.396 63.5682 459.168 65.1705 461.623 65.1705C463.6 65.1705 464.896 64.1136 465.509 62.7841H465.646V65H467.657V51.9091H465.646V59.6477ZM477.034 51.9091H474.239V48.7727H472.227V51.9091H470.25V53.6136H472.227V61.7955C472.227 64.0795 474.068 65.1705 475.773 65.1705C476.523 65.1705 477 65.0341 477.273 64.9318L476.864 63.125C476.693 63.1591 476.42 63.2273 475.977 63.2273C475.091 63.2273 474.239 62.9545 474.239 61.25V53.6136H477.034V51.9091ZM492.503 51.9091H489.707V48.7727H487.696V51.9091H485.719V53.6136H487.696V61.7955C487.696 64.0795 489.537 65.1705 491.241 65.1705C491.991 65.1705 492.469 65.0341 492.741 64.9318L492.332 63.125C492.162 63.1591 491.889 63.2273 491.446 63.2273C490.56 63.2273 489.707 62.9545 489.707 61.25V53.6136H492.503V51.9091ZM497.821 57.125C497.821 54.8409 499.278 53.5455 501.264 53.5455C503.156 53.5455 504.298 54.7386 504.298 56.8182V65H506.31V56.6818C506.31 53.3153 504.52 51.7386 501.844 51.7386C499.781 51.7386 498.605 52.5994 497.991 53.9545H497.821V47.5455H495.81V65H497.821V57.125ZM515.478 65.2727C518.137 65.2727 520.08 63.9432 520.694 61.9659L518.751 61.4205C518.239 62.7841 517.055 63.4659 515.478 63.4659C513.117 63.4659 511.489 61.9403 511.396 59.1364H520.898V58.2841C520.898 53.4091 518.001 51.7386 515.273 51.7386C511.728 51.7386 509.376 54.5341 509.376 58.5568C509.376 62.5795 511.694 65.2727 515.478 65.2727ZM511.396 57.3977C511.532 55.3608 512.972 53.5455 515.273 53.5455C517.455 53.5455 518.853 55.1818 518.853 57.3977H511.396ZM530.708 69.9091H532.719V62.9886H532.89C533.333 63.7045 534.185 65.2727 536.708 65.2727C539.981 65.2727 542.265 62.6477 542.265 58.4886C542.265 54.3636 539.981 51.7386 536.674 51.7386C534.117 51.7386 533.333 53.3068 532.89 53.9886H532.651V51.9091H530.708V69.9091ZM532.685 58.4545C532.685 55.5227 533.981 53.5455 536.435 53.5455C538.992 53.5455 540.254 55.6932 540.254 58.4545C540.254 61.25 538.958 63.4659 536.435 63.4659C534.015 63.4659 532.685 61.4205 532.685 58.4545ZM545.333 65H547.344V56.7159C547.344 54.9432 548.742 53.6477 550.651 53.6477C551.188 53.6477 551.742 53.75 551.879 53.7841V51.7386C551.648 51.7216 551.12 51.7045 550.822 51.7045C549.254 51.7045 547.89 52.5909 547.413 53.8864H547.276V51.9091H545.333V65ZM554.263 65H556.274V51.9091H554.263V65ZM555.286 49.7273C556.07 49.7273 556.717 49.1136 556.717 48.3636C556.717 47.6136 556.07 47 555.286 47C554.501 47 553.854 47.6136 553.854 48.3636C553.854 49.1136 554.501 49.7273 555.286 49.7273ZM565.276 65.2727C568.174 65.2727 570.083 63.5 570.424 61.1818H568.413C568.038 62.6136 566.844 63.4659 565.276 63.4659C562.89 63.4659 561.356 61.4886 561.356 58.4545C561.356 55.4886 562.924 53.5455 565.276 53.5455C567.049 53.5455 568.106 54.6364 568.413 55.8295H570.424C570.083 53.375 568.004 51.7386 565.242 51.7386C561.697 51.7386 559.344 54.5341 559.344 58.5227C559.344 62.4432 561.594 65.2727 565.276 65.2727ZM578.853 65.2727C581.512 65.2727 583.455 63.9432 584.069 61.9659L582.126 61.4205C581.614 62.7841 580.43 63.4659 578.853 63.4659C576.492 63.4659 574.864 61.9403 574.771 59.1364H584.273V58.2841C584.273 53.4091 581.376 51.7386 578.648 51.7386C575.103 51.7386 572.751 54.5341 572.751 58.5568C572.751 62.5795 575.069 65.2727 578.853 65.2727ZM574.771 57.3977C574.907 55.3608 576.347 53.5455 578.648 53.5455C580.83 53.5455 582.228 55.1818 582.228 57.3977H574.771ZM594.356 65H596.299V62.9886H596.538C596.981 63.7045 597.833 65.2727 600.356 65.2727C603.629 65.2727 605.913 62.6477 605.913 58.4886C605.913 54.3636 603.629 51.7386 600.322 51.7386C597.765 51.7386 596.981 53.3068 596.538 53.9886H596.367V47.5455H594.356V65ZM596.333 58.4545C596.333 55.5227 597.629 53.5455 600.083 53.5455C602.64 53.5455 603.901 55.6932 603.901 58.4545C603.901 61.25 602.606 63.4659 600.083 63.4659C597.663 63.4659 596.333 61.4205 596.333 58.4545ZM617.239 59.6477C617.239 62.1023 615.364 63.2273 613.864 63.2273C612.194 63.2273 611.001 62 611.001 60.0909V51.9091H608.989V60.2273C608.989 63.5682 610.762 65.1705 613.217 65.1705C615.194 65.1705 616.489 64.1136 617.103 62.7841H617.239V65H619.251V51.9091H617.239V59.6477ZM628.628 51.9091H625.832V48.7727H623.821V51.9091H621.844V53.6136H623.821V61.7955C623.821 64.0795 625.662 65.1705 627.366 65.1705C628.116 65.1705 628.594 65.0341 628.866 64.9318L628.457 63.125C628.287 63.1591 628.014 63.2273 627.571 63.2273C626.685 63.2273 625.832 62.9545 625.832 61.25V53.6136H628.628V51.9091ZM143.614 99H145.626V90.8182C145.626 88.9006 147.023 87.5455 148.592 87.5455C150.117 87.5455 151.183 88.5426 151.183 90.0341V99H153.228V90.4773C153.228 88.7898 154.285 87.5455 156.126 87.5455C157.558 87.5455 158.785 88.304 158.785 90.2386V99H160.796V90.2386C160.796 87.1619 159.143 85.7386 156.808 85.7386C154.933 85.7386 153.56 86.5994 152.887 87.9545H152.751C152.103 86.5568 150.961 85.7386 149.239 85.7386C147.535 85.7386 146.273 86.5568 145.728 87.9545H145.558V85.9091H143.614V99ZM169.792 99.2727C173.337 99.2727 175.724 96.5795 175.724 92.5227C175.724 88.4318 173.337 85.7386 169.792 85.7386C166.246 85.7386 163.86 88.4318 163.86 92.5227C163.86 96.5795 166.246 99.2727 169.792 99.2727ZM169.792 97.4659C167.099 97.4659 165.871 95.1477 165.871 92.5227C165.871 89.8977 167.099 87.5455 169.792 87.5455C172.485 87.5455 173.712 89.8977 173.712 92.5227C173.712 95.1477 172.485 97.4659 169.792 97.4659ZM178.794 99H180.805V90.7159C180.805 88.9432 182.203 87.6477 184.112 87.6477C184.649 87.6477 185.203 87.75 185.339 87.7841V85.7386C185.109 85.7216 184.581 85.7045 184.283 85.7045C182.714 85.7045 181.351 86.5909 180.874 87.8864H180.737V85.9091H178.794V99ZM192.814 99.2727C195.473 99.2727 197.416 97.9432 198.03 95.9659L196.087 95.4205C195.575 96.7841 194.391 97.4659 192.814 97.4659C190.453 97.4659 188.825 95.9403 188.732 93.1364H198.234V92.2841C198.234 87.4091 195.337 85.7386 192.609 85.7386C189.064 85.7386 186.712 88.5341 186.712 92.5568C186.712 96.5795 189.03 99.2727 192.814 99.2727ZM188.732 91.3977C188.868 89.3608 190.308 87.5455 192.609 87.5455C194.791 87.5455 196.189 89.1818 196.189 91.3977H188.732ZM211.896 99.3068C214.18 99.3068 215.374 98.0795 215.783 97.2273H215.885V99H217.896V90.375C217.896 86.2159 214.726 85.7386 213.055 85.7386C211.078 85.7386 208.828 86.4205 207.805 88.8068L209.714 89.4886C210.158 88.5341 211.206 87.5114 213.124 87.5114C214.973 87.5114 215.885 88.4915 215.885 90.1705V90.2386C215.885 91.2102 214.896 91.125 212.51 91.4318C210.081 91.7472 207.43 92.2841 207.43 95.2841C207.43 97.8409 209.408 99.3068 211.896 99.3068ZM212.203 97.5C210.601 97.5 209.442 96.7841 209.442 95.3864C209.442 93.8523 210.839 93.375 212.408 93.1705C213.26 93.0682 215.544 92.8295 215.885 92.4205V94.2614C215.885 95.8977 214.589 97.5 212.203 97.5ZM221.84 99H223.783V96.9886H224.022C224.465 97.7045 225.317 99.2727 227.84 99.2727C231.113 99.2727 233.397 96.6477 233.397 92.4886C233.397 88.3636 231.113 85.7386 227.806 85.7386C225.249 85.7386 224.465 87.3068 224.022 87.9886H223.852V81.5455H221.84V99ZM223.817 92.4545C223.817 89.5227 225.113 87.5455 227.567 87.5455C230.124 87.5455 231.386 89.6932 231.386 92.4545C231.386 95.25 230.09 97.4659 227.567 97.4659C225.147 97.4659 223.817 95.4205 223.817 92.4545ZM241.792 99.2727C245.337 99.2727 247.724 96.5795 247.724 92.5227C247.724 88.4318 245.337 85.7386 241.792 85.7386C238.246 85.7386 235.86 88.4318 235.86 92.5227C235.86 96.5795 238.246 99.2727 241.792 99.2727ZM241.792 97.4659C239.099 97.4659 237.871 95.1477 237.871 92.5227C237.871 89.8977 239.099 87.5455 241.792 87.5455C244.485 87.5455 245.712 89.8977 245.712 92.5227C245.712 95.1477 244.485 97.4659 241.792 97.4659ZM259.044 93.6477C259.044 96.1023 257.169 97.2273 255.669 97.2273C253.999 97.2273 252.805 96 252.805 94.0909V85.9091H250.794V94.2273C250.794 97.5682 252.567 99.1705 255.021 99.1705C256.999 99.1705 258.294 98.1136 258.908 96.7841H259.044V99H261.055V85.9091H259.044V93.6477ZM270.433 85.9091H267.637V82.7727H265.626V85.9091H263.648V87.6136H265.626V95.7955C265.626 98.0795 267.467 99.1705 269.171 99.1705C269.921 99.1705 270.398 99.0341 270.671 98.9318L270.262 97.125C270.092 97.1591 269.819 97.2273 269.376 97.2273C268.489 97.2273 267.637 96.9545 267.637 95.25V87.6136H270.433V85.9091ZM285.901 85.9091H283.106V82.7727H281.094V85.9091H279.117V87.6136H281.094V95.7955C281.094 98.0795 282.935 99.1705 284.64 99.1705C285.39 99.1705 285.867 99.0341 286.14 98.9318L285.731 97.125C285.56 97.1591 285.288 97.2273 284.844 97.2273C283.958 97.2273 283.106 96.9545 283.106 95.25V87.6136H285.901V85.9091ZM291.219 91.125C291.219 88.8409 292.677 87.5455 294.663 87.5455C296.555 87.5455 297.697 88.7386 297.697 90.8182V99H299.708V90.6818C299.708 87.3153 297.918 85.7386 295.242 85.7386C293.18 85.7386 292.004 86.5994 291.39 87.9545H291.219V81.5455H289.208V99H291.219V91.125ZM308.876 99.2727C311.536 99.2727 313.479 97.9432 314.092 95.9659L312.149 95.4205C311.638 96.7841 310.453 97.4659 308.876 97.4659C306.516 97.4659 304.888 95.9403 304.794 93.1364H314.297V92.2841C314.297 87.4091 311.399 85.7386 308.672 85.7386C305.126 85.7386 302.774 88.5341 302.774 92.5568C302.774 96.5795 305.092 99.2727 308.876 99.2727ZM304.794 91.3977C304.93 89.3608 306.371 87.5455 308.672 87.5455C310.854 87.5455 312.251 89.1818 312.251 91.3977H304.794ZM329.425 99.2727C332.322 99.2727 334.232 97.5 334.572 95.1818H332.561C332.186 96.6136 330.993 97.4659 329.425 97.4659C327.038 97.4659 325.504 95.4886 325.504 92.4545C325.504 89.4886 327.072 87.5455 329.425 87.5455C331.197 87.5455 332.254 88.6364 332.561 89.8295H334.572C334.232 87.375 332.152 85.7386 329.391 85.7386C325.845 85.7386 323.493 88.5341 323.493 92.5227C323.493 96.4432 325.743 99.2727 329.425 99.2727ZM342.831 99.2727C346.376 99.2727 348.763 96.5795 348.763 92.5227C348.763 88.4318 346.376 85.7386 342.831 85.7386C339.286 85.7386 336.899 88.4318 336.899 92.5227C336.899 96.5795 339.286 99.2727 342.831 99.2727ZM342.831 97.4659C340.138 97.4659 338.911 95.1477 338.911 92.5227C338.911 89.8977 340.138 87.5455 342.831 87.5455C345.524 87.5455 346.751 89.8977 346.751 92.5227C346.751 95.1477 345.524 97.4659 342.831 97.4659ZM362.069 85.9091H359.887L356.273 96.3409H356.137L352.523 85.9091H350.342L355.183 99H357.228L362.069 85.9091ZM369.744 99.2727C372.403 99.2727 374.346 97.9432 374.96 95.9659L373.016 95.4205C372.505 96.7841 371.32 97.4659 369.744 97.4659C367.383 97.4659 365.755 95.9403 365.661 93.1364H375.164V92.2841C375.164 87.4091 372.266 85.7386 369.539 85.7386C365.994 85.7386 363.641 88.5341 363.641 92.5568C363.641 96.5795 365.96 99.2727 369.744 99.2727ZM365.661 91.3977C365.798 89.3608 367.238 87.5455 369.539 87.5455C371.721 87.5455 373.119 89.1818 373.119 91.3977H365.661ZM378.224 99H380.235V90.7159C380.235 88.9432 381.633 87.6477 383.542 87.6477C384.079 87.6477 384.633 87.75 384.769 87.7841V85.7386C384.539 85.7216 384.011 85.7045 383.712 85.7045C382.144 85.7045 380.781 86.5909 380.303 87.8864H380.167V85.9091H378.224V99ZM391.006 99.3068C393.29 99.3068 394.483 98.0795 394.892 97.2273H394.994V99H397.006V90.375C397.006 86.2159 393.835 85.7386 392.165 85.7386C390.188 85.7386 387.938 86.4205 386.915 88.8068L388.824 89.4886C389.267 88.5341 390.315 87.5114 392.233 87.5114C394.082 87.5114 394.994 88.4915 394.994 90.1705V90.2386C394.994 91.2102 394.006 91.125 391.619 91.4318C389.19 91.7472 386.54 92.2841 386.54 95.2841C386.54 97.8409 388.517 99.3068 391.006 99.3068ZM391.312 97.5C389.71 97.5 388.551 96.7841 388.551 95.3864C388.551 93.8523 389.949 93.375 391.517 93.1705C392.369 93.0682 394.653 92.8295 394.994 92.4205V94.2614C394.994 95.8977 393.699 97.5 391.312 97.5ZM405.961 104.182C409.097 104.182 411.62 102.75 411.62 99.375V85.9091H409.677V87.9886H409.472C409.029 87.3068 408.211 85.7386 405.654 85.7386C402.347 85.7386 400.063 88.3636 400.063 92.3864C400.063 96.4773 402.45 98.7955 405.62 98.7955C408.177 98.7955 408.995 97.2955 409.438 96.5795H409.609V99.2386C409.609 101.42 408.075 102.409 405.961 102.409C403.583 102.409 402.748 101.156 402.211 100.432L400.609 101.557C401.427 102.929 403.038 104.182 405.961 104.182ZM405.893 96.9886C403.37 96.9886 402.075 95.0795 402.075 92.3523C402.075 89.6932 403.336 87.5455 405.893 87.5455C408.347 87.5455 409.643 89.5227 409.643 92.3523C409.643 95.25 408.313 96.9886 405.893 96.9886ZM420.79 99.2727C423.45 99.2727 425.393 97.9432 426.006 95.9659L424.063 95.4205C423.552 96.7841 422.367 97.4659 420.79 97.4659C418.43 97.4659 416.802 95.9403 416.708 93.1364H426.211V92.2841C426.211 87.4091 423.313 85.7386 420.586 85.7386C417.04 85.7386 414.688 88.5341 414.688 92.5568C414.688 96.5795 417.006 99.2727 420.79 99.2727ZM416.708 91.3977C416.844 89.3608 418.285 87.5455 420.586 87.5455C422.768 87.5455 424.165 89.1818 424.165 91.3977H416.708ZM436.293 99H438.237V96.9886H438.475C438.918 97.7045 439.771 99.2727 442.293 99.2727C445.566 99.2727 447.85 96.6477 447.85 92.4886C447.85 88.3636 445.566 85.7386 442.259 85.7386C439.702 85.7386 438.918 87.3068 438.475 87.9886H438.305V81.5455H436.293V99ZM438.271 92.4545C438.271 89.5227 439.566 87.5455 442.021 87.5455C444.577 87.5455 445.839 89.6932 445.839 92.4545C445.839 95.25 444.543 97.4659 442.021 97.4659C439.6 97.4659 438.271 95.4205 438.271 92.4545ZM456.415 99.2727C459.075 99.2727 461.018 97.9432 461.631 95.9659L459.688 95.4205C459.177 96.7841 457.992 97.4659 456.415 97.4659C454.055 97.4659 452.427 95.9403 452.333 93.1364H461.836V92.2841C461.836 87.4091 458.938 85.7386 456.211 85.7386C452.665 85.7386 450.313 88.5341 450.313 92.5568C450.313 96.5795 452.631 99.2727 456.415 99.2727ZM452.333 91.3977C452.469 89.3608 453.91 87.5455 456.211 87.5455C458.393 87.5455 459.79 89.1818 459.79 91.3977H452.333ZM464.896 99H466.907V85.9091H464.896V99ZM465.918 83.7273C466.702 83.7273 467.35 83.1136 467.35 82.3636C467.35 81.6136 466.702 81 465.918 81C465.134 81 464.487 81.6136 464.487 82.3636C464.487 83.1136 465.134 83.7273 465.918 83.7273ZM472.602 91.125C472.602 88.8409 474.017 87.5455 475.943 87.5455C477.81 87.5455 478.943 88.7642 478.943 90.8182V99H480.955V90.6818C480.955 87.3409 479.173 85.7386 476.523 85.7386C474.545 85.7386 473.318 86.625 472.705 87.9545H472.534V85.9091H470.591V99H472.602V91.125ZM489.914 104.182C493.05 104.182 495.573 102.75 495.573 99.375V85.9091H493.63V87.9886H493.425C492.982 87.3068 492.164 85.7386 489.607 85.7386C486.3 85.7386 484.016 88.3636 484.016 92.3864C484.016 96.4773 486.403 98.7955 489.573 98.7955C492.13 98.7955 492.948 97.2955 493.391 96.5795H493.562V99.2386C493.562 101.42 492.028 102.409 489.914 102.409C487.536 102.409 486.701 101.156 486.164 100.432L484.562 101.557C485.38 102.929 486.991 104.182 489.914 104.182ZM489.846 96.9886C487.323 96.9886 486.028 95.0795 486.028 92.3523C486.028 89.6932 487.289 87.5455 489.846 87.5455C492.3 87.5455 493.596 89.5227 493.596 92.3523C493.596 95.25 492.266 96.9886 489.846 96.9886ZM511.323 99.2727C514.869 99.2727 517.255 96.5795 517.255 92.5227C517.255 88.4318 514.869 85.7386 511.323 85.7386C507.778 85.7386 505.391 88.4318 505.391 92.5227C505.391 96.5795 507.778 99.2727 511.323 99.2727ZM511.323 97.4659C508.63 97.4659 507.403 95.1477 507.403 92.5227C507.403 89.8977 508.63 87.5455 511.323 87.5455C514.016 87.5455 515.244 89.8977 515.244 92.5227C515.244 95.1477 514.016 97.4659 511.323 97.4659ZM526.155 85.9091H523.223V84.5795C523.223 83.2841 523.768 82.6023 525.098 82.6023C525.678 82.6023 526.018 82.7386 526.223 82.8068L526.803 81.0682C526.496 80.9318 525.882 80.7273 524.893 80.7273C523.018 80.7273 521.212 81.8523 521.212 84.1023V85.9091H519.098V87.6136H521.212V99H523.223V87.6136H526.155V85.9091ZM534.803 85.9091H531.871V84.5795C531.871 83.2841 532.417 82.6023 533.746 82.6023C534.326 82.6023 534.667 82.7386 534.871 82.8068L535.451 81.0682C535.144 80.9318 534.531 80.7273 533.542 80.7273C531.667 80.7273 529.86 81.8523 529.86 84.1023V85.9091H527.746V87.6136H529.86V99H531.871V87.6136H534.803V85.9091ZM542.572 99.2727C545.231 99.2727 547.174 97.9432 547.788 95.9659L545.844 95.4205C545.333 96.7841 544.148 97.4659 542.572 97.4659C540.211 97.4659 538.583 95.9403 538.489 93.1364H547.992V92.2841C547.992 87.4091 545.094 85.7386 542.367 85.7386C538.822 85.7386 536.469 88.5341 536.469 92.5568C536.469 96.5795 538.788 99.2727 542.572 99.2727ZM538.489 91.3977C538.626 89.3608 540.066 87.5455 542.367 87.5455C544.549 87.5455 545.947 89.1818 545.947 91.3977H538.489ZM551.052 99H553.063V90.7159C553.063 88.9432 554.461 87.6477 556.37 87.6477C556.907 87.6477 557.461 87.75 557.597 87.7841V85.7386C557.367 85.7216 556.839 85.7045 556.54 85.7045C554.972 85.7045 553.609 86.5909 553.131 87.8864H552.995V85.9091H551.052V99ZM565.072 99.2727C567.731 99.2727 569.674 97.9432 570.288 95.9659L568.344 95.4205C567.833 96.7841 566.648 97.4659 565.072 97.4659C562.711 97.4659 561.083 95.9403 560.989 93.1364H570.492V92.2841C570.492 87.4091 567.594 85.7386 564.867 85.7386C561.322 85.7386 558.969 88.5341 558.969 92.5568C558.969 96.5795 561.288 99.2727 565.072 99.2727ZM560.989 91.3977C561.126 89.3608 562.566 87.5455 564.867 87.5455C567.049 87.5455 568.447 89.1818 568.447 91.3977H560.989ZM578.495 99.2727C581.018 99.2727 581.87 97.7045 582.313 96.9886H582.552V99H584.495V81.5455H582.484V87.9886H582.313C581.87 87.3068 581.086 85.7386 578.529 85.7386C575.222 85.7386 572.938 88.3636 572.938 92.4886C572.938 96.6477 575.222 99.2727 578.495 99.2727ZM578.768 97.4659C576.245 97.4659 574.95 95.25 574.95 92.4545C574.95 89.6932 576.211 87.5455 578.768 87.5455C581.222 87.5455 582.518 89.5227 582.518 92.4545C582.518 95.4205 581.188 97.4659 578.768 97.4659ZM589.924 99.1364C590.768 99.1364 591.458 98.446 591.458 97.6023C591.458 96.7585 590.768 96.0682 589.924 96.0682C589.08 96.0682 588.39 96.7585 588.39 97.6023C588.39 98.446 589.08 99.1364 589.924 99.1364Z" fill="#282848"/>
</svg>
